/* XPM */
static const char *collectible[] = {
/* columns rows colors chars-per-pixel */
"64 64 215 2 ",
"   c #140E0B",
".  c #17110E",
"X  c #19120E",
"o  c #1C1511",
"O  c #1E1814",
"+  c #211B14",
"@  c #241D19",
"#  c #1E2311",
"$  c #262513",
"%  c #252A14",
"&  c #27201B",
"*  c #2A221D",
"=  c #233C1A",
"-  c #34381C",
";  c #2E2621",
":  c #2F2822",
">  c #2F2A28",
",  c #332B26",
"<  c #362D29",
"1  c #362E29",
"2  c #3B322D",
"3  c #3E3530",
"4  c #433733",
"5  c #443C35",
"6  c #473D39",
"7  c #32481E",
"8  c #3E5735",
"9  c #495624",
"0  c #4C5A25",
"q  c #4B433B",
"w  c #4E483E",
"e  c #50473F",
"r  c #50483F",
"t  c #4F553D",
"y  c #556729",
"u  c #4E722B",
"i  c #586533",
"p  c #647C2F",
"a  c #544C42",
"s  c #584F45",
"d  c #5A5147",
"f  c #5C5349",
"g  c #5E594C",
"h  c #635A4E",
"j  c #655D51",
"k  c #6B6456",
"l  c #746B5D",
"z  c #6D6C6C",
"x  c #776F60",
"c  c #777161",
"v  c #797262",
"b  c gray46",
"n  c #905769",
"m  c #847E6C",
"M  c #3B8231",
"N  c #389339",
"B  c #519B2F",
"V  c #4F9F36",
"C  c #4C9C39",
"Z  c #6D8833",
"A  c #798C3C",
"S  c #7A9E3B",
"D  c #4AA236",
"F  c #46A93B",
"G  c #54A535",
"H  c #52A63A",
"J  c #5BA43B",
"K  c #58AB3A",
"L  c #5AAD3D",
"P  c #5CB33D",
"I  c #66AD38",
"U  c #7FA13B",
"Y  c #6BB43C",
"T  c #71B13D",
"R  c #74C23D",
"E  c #3F9D43",
"W  c #419C45",
"Q  c #768B54",
"!  c #48A642",
"~  c #5BA943",
"^  c #53B141",
"/  c #66AA41",
"(  c #7CAC43",
")  c #62B344",
"_  c #6BB441",
"`  c #63BA47",
"'  c #6ABA48",
"]  c #75B742",
"[  c #77B847",
"{  c #6AA85B",
"}  c #70AE5A",
"|  c #77BF50",
" . c #75B26A",
".. c #74C344",
"X. c #7DC243",
"o. c #7BC646",
"O. c #879D55",
"+. c #86B948",
"@. c #88B956",
"#. c #92B152",
"$. c #88816F",
"%. c #8B8472",
"&. c #968A7A",
"*. c #9A937E",
"=. c #8DBB6C",
"-. c #96B462",
";. c #8DB675",
":. c #8CBD71",
">. c #83C444",
",. c #87CC45",
"<. c #84C54C",
"1. c #8BC54B",
"2. c #85CB4C",
"3. c #8DCC4B",
"4. c #97C347",
"5. c #94CD4C",
"6. c #9DCF4D",
"7. c #8DD14D",
"8. c #94D74B",
"9. c #93D34D",
"0. c #9BD34B",
"q. c #9BD84D",
"w. c #89C657",
"e. c #95C755",
"r. c #94CC53",
"t. c #8CD152",
"y. c #95D153",
"u. c #9CD452",
"i. c #9CD658",
"p. c #A3D548",
"a. c #A3D64B",
"s. c #A4DA4D",
"d. c #AADC4D",
"f. c #A2CF5A",
"g. c #A2D553",
"h. c #A4DB52",
"j. c #ACDE52",
"k. c #A5DA5D",
"l. c #A8DA5A",
"z. c #B0DF54",
"x. c #A5E04D",
"c. c #AEE14F",
"v. c #B1E14E",
"b. c #A5E051",
"n. c #ADE050",
"m. c #A5E258",
"M. c #ADE35A",
"N. c #B0E055",
"B. c #B2E45B",
"V. c #B8E95E",
"C. c #9ACB6D",
"Z. c #9CD067",
"A. c #9BC877",
"S. c #A1D261",
"D. c #A9D769",
"F. c #ACD669",
"G. c #A9D37A",
"H. c #B3D976",
"J. c #A9E766",
"K. c #B6E562",
"L. c #B8E664",
"P. c #B6E961",
"I. c #BBEA64",
"U. c #B5EE6B",
"Y. c #BCEA6B",
"T. c #B3E274",
"R. c #BCE878",
"E. c #C2E661",
"W. c #C1ED62",
"Q. c #C3EE6C",
"!. c #CAF66F",
"~. c #C2ED74",
"^. c #C7EA7A",
"/. c #C3EC7A",
"(. c #D4EF73",
"). c #C6F479",
"_. c #CAF47D",
"`. c #D0F372",
"'. c #9D9882",
"]. c #A98E86",
"[. c #A29C86",
"{. c #A7A18A",
"}. c #ABA58D",
"|. c #B0A28F",
" X c #AEA890",
".X c #B0A390",
"XX c #B2AC93",
"oX c #A8A7A6",
"OX c #BBBBBB",
"+X c #ADDD85",
"@X c #BBDE88",
"#X c #B7D997",
"$X c #BCE787",
"%X c #C5EC80",
"&X c #CBED89",
"*X c #D6EE8A",
"=X c #CAF382",
"-X c #CBF887",
";X c #D6F687",
":X c #D0F588",
">X c #C8E794",
",X c #DDEE91",
"<X c #DCF79D",
"1X c #E6FA89",
"2X c #E5F799",
"3X c #F0FE92",
"4X c #D6EFA4",
"5X c #DAEBAA",
"6X c #DCF7AA",
"7X c #EAF9A9",
"8X c #F2FFA4",
"9X c #E8FBB9",
"0X c #CDCDCD",
"qX c #F5FECE",
"wX c #F3FFD3",
/* pixels */
"n.n.n.n.n.n.n.n.n.n.n.n.n.n.n.n.n.n.n.n.n.n.n.n.n.n.n.n.n.n.n.n.n.n.n.n.n.n.n.n.n.n.n.n.n.n.n.n.n.n.n.n.n.n.n.n.j.j.j.n.n.n.n.n.",
"n.n.n.n.n.n.n.n.n.n.n.n.n.n.n.n.n.n.n.n.n.n.n.n.n.n.n.n.n.n.n.n.n.n.n.n.n.n.n.n.n.n.n.n.n.n.n.n.n.n.n.n.n.n.n.n.n.n.n.n.n.n.n.n.",
"n.n.n.n.n.n.n.n.n.n.n.n.n.n.n.n.n.n.n.n.n.n.n.n.n.n.n.n.n.n.n.n.n.n.n.n.n.n.n.n.n.n.n.n.n.n.n.n.n.n.n.n.d.j.h.h.n.n.n.n.n.n.n.n.",
"n.n.n.n.n.n.n.n.n.n.n.n.n.n.n.n.n.n.n.n.n.n.n.n.n.n.n.n.n.n.n.n.n.n.n.n.n.n.n.n.n.n.n.n.n.n.n.n.n.n.d.d.t.>.] [ +.e.g.g.n.n.n.n.",
"n.n.n.n.n.n.n.d.d.d.d.d.d.d.d.n.n.n.n.n.n.n.n.n.n.n.n.h.0.0.u.h.n.n.n.n.n.n.n.n.n.n.n.n.n.n.n.n.s.s.d.L J / w.S.H.H.e.u.s.n.n.n.",
"n.n.n.n.n.n.n.d.A.#X;. .w.u.d.d.n.n.n.n.n.n.n.n.j.h.1.b b b b T p.n.n.n.n.n.n.n.n.n.n.n.n.n.d.d.s.! H w.%X3X8X8X2X8X7XF.u.n.n.n.",
"n.n.n.n.n.n.d.w.;XN.N.2X5X{ <.d.j.n.n.n.n.n.d.d.s.b b OXOXOXOXb I q.n.n.n.n.n.n.n.n.n.n.n.n.d.d.F D L.1X3X1X(.E.E.E.2X4Xr.n.n.n.",
"n.n.n.n.n.n.d.[ =XN.N.N.N.<X:.] j.j.n.n.n.n.d.j.T b OXOXOXOXOXOXb X.n.n.n.n.n.n.n.n.n.n.n.d.d.D L T.1X(.I.V.V.V.P.W.;XG.] s.n.n.",
"n.n.n.n.n.n.d.>.$XN.N.N.N.N.*X=.J n.d.n.n.n.j.>.b OXOX0X0X0X0XOXb _ d.n.n.n.n.n.n.n.n.n.n.d.H Y :X`.N.N.B.B.V.B.I.!.R.J ] s.n.n.",
"n.n.n.n.n.n.n.d.V Z.N.N.N.N.N.&X:.] n.n.n.n.s.b b OX0X0X0X0X0XOXb / j.n.n.n.n.n.n.n.n.n.h.Y <.Q.V.M.M.M.M.M.M.B.I.U.J K ..j.n.n.",
"n.n.n.n.n.n.n.n.Y V D.N.N.N.N.N.&X} 7.n.n.n.5.b OXOX0X0X0X0X0XOXb / n.n.n.n.n.n.n.n.n.n.p.l.Q.N.j.j.j.j.m.m.M.B.J.G D P 9.d.n.n.",
"n.n.n.n.n.n.n.n.d.' V r.N.N.N.N.N.>X/ h.n.n.<.b OX0X0X0X0X0XOXOXb ] c.c.n.n.n.n.n.n.n.d.d.N.j.j.j.j.j.M.m.m.M.J.G D ^ ..h.s.n.n.",
"n.n.n.n.n.n.n.n.n.d.) V N.N.N.N.N.N.C.<.n.n.X.b OX0X0X0X0XOXOXb b 2.v.c.n.n.n.n.n.n.n.n.j.d.d.d.d.j.j.j.m.M.i.B G P ..h.d.n.n.n.",
"n.n.n.n.n.n.n.n.n.n.d.X.V N.N.N.N.N.d.n.n.n.>.b OX0X0X0XOXOXb b C h.N.c.n.n.n.n.n.n.n.n.n.n.d.d.d.d.d.j.M.<.V ^ P o.s.j.s.n.n.n.",
"n.n.n.n.n.n.n.n.n.n.n.d.u.3.N.N.N.n.n.n.n.n.3.b OXOX0XOXOXb b N t.M.n.n.d.n.n.n.n.n.n.n.n.n.n.n.n.d.d.d.] H P ..7.b.s.s.n.n.n.n.",
"n.n.n.n.n.n.n.n.n.n.n.n.d.d.d.n.n.n.n.n.n.j.+.M z oXOXOXb b E ..M.M.n.d.s.s.4.4.4.4.s.n.n.n.n.n.n.c.d.d.d.R 8.s.s.s.s.p.s.n.n.n.",
"n.n.n.n.n.n.n.n.n.n.n.n.n.n.n.n.n.n.n.n.n.s.        z b W ` ,.M.M.j.s.s.p.+.        u.n.n.n.n.n.n.n.n.c.s.s.p.0.0.0.5.0.u.n.n.n.",
"n.n.n.n.n.n.n.n.n.n.n.n.n.n.n.n.n.n.n.n.n.s.        I ..,.q.m.M.M.n.g.g.u.+.        9.h.n.n.n.n.n.M.M.n.g.g.u.5.y.i.y.5.9.h.n.n.",
"n.n.n.n.n.n.c.n.n.n.n.n.n.n.n.n.n.n.n.n.n.s.    & & S ( 0.m.n.n.n.i.S.Z.-.O.& &     k.h.n.n.n.n.n.j.n.i.S.T.%X=X=X=X_./.k.h.n.n.",
"n.n.n.n.n.n.c.c.n.n.n.n.n.n.n.n.n.n.n.n.n.s.    a w o   U n.n.n.i./.:XO.  + a a     l.n.n.n.n.n.n.j.i./.:X=X~.I.L.K.B.I.l.n.n.n.",
"n.n.n.n.n.c.c.c.n.n.n.n.n.n.j.n.n.n.n.n.n.s.    a a o   S h.g.D.=X).L.    + a s     h.n.n.n.j.j.g.D.-X_.Y.B.B.M.M.B.B.M.h.n.n.n.",
"n.n.n.n.n.n.n.c.n.n.n.n.n.n.s.d.d.d.d.d.d.p.    '.[.6 2 O   + 2 1 o   @ 2 a [.{.    n.n.n.n.s.s.Y._.Q.B.M.M.M.m.m.m.M.j.n.n.n.n.",
"n.n.n.n.d.s.s.s.s.n.n.n.n.d.A.#X;. .w.u.d.p.    [.[.6 2 +   + 1 1 O   @ 2 a }.}.    n.n.n.d.d.V.!.I.n.x.s.s.s.j.j.j.j.s.n.n.n.n.",
"d.M.M.s.s.p.0.0.0.5.0.n.d.w.;XN.N.2X5X{ <.p.    [.{.f w 2 , 2 w q 1 , 3 w h }.}.    n.n.n.j.V.I.I.m.s.q.8.q.9.6.g.h.h.n.n.n.n.n.",
"n.M.n.g.g.u.5.y.i.r.3.5.d.[ =XN.N.N.N.<X:.T     [.{.j f 5 2 5 d s 4 2 q f k }.}.    n.n.j.N.V.P.b.3.n.n.n.n.n.n.n.n.5.n.n.n.n.n.",
"n.n.i.S.T.%X=X=X=Xl.h.k.d.>.$XN.6.+ + + + * ; : f h f f a q w f d w q a f f h f , ; % + + + O 5.n.n.n.n.n.n.n.n.n.n.n.n.n.n.n.n.",
"n.i./.:X=X~.I.L.K.e.g.g.s.n.V Z.4.        @ 2 2 d f f f f f f f f f f f f f f d 2 2 @         p.n.n.n.n.n.n.n.n.n.n.n.n.n.n.n.n.",
"D.-X_.Y.B.B.B.M.H.H.e.u.s.n.Y V S.9       & 5 5 f f f f f f j l l h f f f f f d 5 4 @       0 d.c.c.n.n.n.n.n.n.n.n.n.n.n.n.n.n.",
"_.Q.B.M.M.M.M.m.m.8X7XF.u.n.d.' V r.N.    : d f f f f f f f x  X}.l f f f f f f f s *     g.l.h.n.n.n.n.n.n.n.n.n.n.n.n.n.n.j.n.",
"n.n.n.n.n.n.n.n.n.E.2X4Xr.d.n.d.) V N.    ; a s f f a e s f c XX Xl f a r a f f s a &     +.e.g.g.s.n.n.n.n.n.n.n.n.n.n.n.n.n.j.",
"n.n.n.n.N.N.N.n.n.n.;XG.] s.n.n.4.% #     @ 3 3 d a + o 2 f c XX}.l f , o & s d 3 2 @     - - @.u.s.n.n.n.n.n.n.n.n.n.c.n.n.j.j.",
"n.n.n.n.n.N.N.n.n.n.n.n.n.n.n.n.4.        @ 2 2 d r o   2 f c XX}.l f :   + a d 2 2 @         5XF.u.n.n.n.n.n.n.n.n.n.c.c.n.j.j.",
"n.c.c.c.n.N.N.N.n.n.n.n.n.n.n.n.p.Z Z     & q q d r o   a %.*.XXXX*.%.4   + a d q q &     A A ,X4Xr.d.n.n.n.n.n.n.n.n.n.j.n.n.n.",
"n.c.n.n.n.n.N.N.N.n.n.n.n.n.n.n.n.n.d.    ; d f f r o   k }.XXXXXXXXXXw   + s f f s *     P.W.;XG.] s.n.n.n.n.n.n.h.h.h.h.n.n.n.",
"n.n.n.n.n.n.n.n.n.n.n.n.n.n.n.n.n.n.d.9 9 i 2 4 d a 5 5 v XX|.].]..XXXk 5 6 s d 4 2 i 0 0 I.!.R.J ] s.n.n.n.n.g.r.+.+.[ <.u.n.n.",
"n.n.n.n.n.n.n.n.n.n.n.n.n.n.n.n.n.n.n.d.j.5.    a f '.}. XXX].n n ].XX}.}.&.d s     M.M.B.I.U.J K ..j.n.s.s.i.[ b b b b b / i.h.",
"n.n.n.n.n.n.n.n.n.n.n.n.n.n.n.n.n.n.n.n.j.6.$ $ q a &.[.[.[.&.n n &.{.[.'.%.a w     m.M.B.J.G D P 9.d.n.h.h./ b OXOXOXOXOXb _ u.",
"n.n.n.n.n.n.n.n.n.M.n.n.n.n.n.n.n.n.n.n.j.h.j.j.o o @ & 2 q 6 4 4 6 q 1 & @ o o     m.M.J.G D ^ ..h.n.d.j.] b OXOX0X0XOXOXOXb r.",
"n.n.n.n.j.d.d.s.j.d.n.n.n.n.n.n.n.n.n.n.n.j.j.j.        & 2 2 2 2 2 2 @             M.i.B G P ..h.d.n.d.,.b OXOX0X0X0X0XOXOXb 1.",
"n.n.n.n.n.h.0.0.s.q.8.q.0.6.g.h.h.n.n.n.n.p.        @ @ , 2 3 6 6 3 2 ; @ +         <.V ^ P o.s.j.n.d.b.I b OX0X0X0X0X0XOXOXb <.",
"n.d.n.n.n.n.b.3.>.r.D.@X>X4XG.<.5.0.n.n.n.s.        , 2 2 2 5 d s 5 2 2 2 :         H P ..7.b.s.n.c.n.h.b OXOX0X0X0X0X0XOXOXb 1.",
"n.n.n.n.n.u.Y ( >XwXwXwXqXqXqX+X[ 9.n.n.n.s.      . 2 4 s j k c c k j w 4 1         R 8.b.j.n.n.n.c.n.7.b OX0X0X0X0X0X0XOXb C 5.",
"n.n.n.n.3.+.@X9X7X<X&X/.~.^.<X9X@.5.j.n.n.s.      . q f $.XXXXXXXXXXXXc d 6         j.d.n.n.n.n.n.c.n.o.b OX0X0X0X0X0XOXOXb H s.",
"j.n.n.1.e.6X7X^.L.P.P.L.L.I./.6X[ u.j.n.n.- X X   . q f m }. XXXXX X}.c d 6     X X 7 n.n.n.n.n.c.c.n.X.b OX0X0X0X0XOXOXb N 2.s.",
"s.h.1.H.<X/.K.B.B.K.K.L.L.Y.:XC.Y q.n.    ; r q   . q f f f c XX Xl f f d 6     q r &     n.d.n.d.n.n.2.b OXOX0X0XOXOXb N ) s.s.",
"C.<.T.;XL.B.B.B.B.K.K.L.I.~.+X~ ' t.n.    : s e   . q f d s l }.}.l d d d 6     w s ;     N.n.n.d.n.n.y.b OXOXOXOXb b b K n.n.n.",
"f.5._.V.B.B.B.B.B.K.L.K.Y.$X) L L n.n.    : s r   . q d ; X ; f f * X 2 d 6     e s *     n.n.c.d.n.n.l.~ b b b b b ! ` i.n.n.n.",
"g.1.B.N.N.B.B.B.B.B.L.Y.T.~ ! H n.n.n.    : s e   . q d &   & a a @   , s 6     w s ;     n.c.n.d.n.n.M.y._ b b ~ _ 7.q.n.n.n.n.",
"Q.B.n.z.z.M.N.M.B.B.L.=X) F D n.n.n.n.    & 6 4   . q d &   @ 6 5 +   , s 6     4 6 &     c.n.d.n.c.n.N.B.m.8.,.8.m.h.n.n.n.n.n.",
"L.z.j.z.z.j.z.N.M.B.Y.| D L n.n.n.n.n.    @ 2 1   X q d &   + 1 1 O   , s 6     1 2 @     d.d.d.s.c.n.n.B.B.B.M.M.M.n.n.n.n.n.n.",
"j.j.j.j.j.j.z.z.B.V.<.H Y n.n.n.n.n.n.y y O ; &   . q d &   o ; & o   1 s 6     & ; + t 8 w.u.d.d.n.n.n.c.n.n.n.n.n.n.n.n.n.n.n.",
"j.j.j.j.j.j.j.z.N.h.Y <.j.j.n.n.n.n.n.n.n.+.      . q d &             1 s 6         #.N.2X5X{ <.d.n.n.n.c.n.n.n.n.n.n.n.n.n.n.n.",
"j.n.n.n.n.n.j.z.j.p.M.n.n.n.n.n.n.n.n.n.n.s.      X w f *             1 f q         N.N.N.N.<X:.] j.j.d.c.n.n.n.n.n.n.n.n.n.n.n.",
"n.n.n.n.n.n.n.j.n.n.n.n.n.n.n.n.n.n.n.n.n.d.Z u   o c &.2   > u u -   a &.l     u Q N.N.N.N.N.*X=.J n.d.j.n.n.n.n.n.n.n.n.n.n.n.",
"n.n.n.n.n.n.n.n.n.n.n.n.n.n.n.n.n.n.n.n.n.n.n.>.  o $.{.5   6 2.2.y   f {.m     d.V Z.N.N.N.N.N.&X:.] n.n.n.n.n.n.n.n.n.n.n.n.n.",
"n.n.n.n.n.n.n.n.n.n.n.p.n.n.n.n.n.n.n.n.n.n.n.3.= 3 w g ;   7 2.h.y   1 g t 9 9 d.Y V D.N.N.N.N.N.&X} 7.n.n.n.n.n.n.n.n.j.n.n.n.",
"n.n.n.n.s.s.p.0.0.0.5.0.n.n.n.n.n.n.n.n.n.n.n.u.u.N o       y n.n.y       % n.n.d.d.' V r.N.N.N.N.N.>X/ h.n.n.n.n.n.n.n.j.n.n.n.",
"n.n.n.n.g.u.u.5.y.i.y.5.9.n.n.n.n.n.n.n.n.n.n.n.u.R % # # $ p n.M.y $ $ $ - n.n.n.n.d.) V N.N.N.N.N.N.C.<.n.n.n.n.n.n.n.n.n.n.n.",
"n.n.n.i.Z.T.%X=X=X=X_./.k.h.n.n.n.n.n.n.n.n.n.n.n.n.n.n.n.n.n.n.n.M.n.n.n.n.n.n.n.n.n.d.X.V N.N.N.N.N.n.n.n.n.n.n.n.n.n.n.n.n.n.",
"n.n.n./.:X=X~.I.L.K.B.I.l.n.n.n.n.n.n.n.N.N.n.n.n.n.n.n.n.n.n.n.n.n.n.n.n.n.n.n.n.n.n.n.d.u.3.N.N.N.n.n.n.n.n.n.n.n.n.n.n.n.n.n.",
"n.n.n.n.Y.B.B.B.M.B.B.M.h.n.n.n.n.n.n.n.n.n.n.n.n.n.n.n.n.m.n.n.n.n.n.n.n.n.n.n.n.n.n.n.n.d.d.d.M.n.n.n.n.n.n.n.n.n.n.n.n.n.n.n.",
"n.n.n.n.M.M.M.M.m.m.M.j.n.n.n.n.n.n.n.n.n.n.j.M.M.n.n.n.n.n.n.n.n.n.n.n.n.n.n.n.n.n.n.n.n.d.j.d.n.n.n.d.d.n.n.n.n.n.n.n.n.n.n.n.",
"n.n.n.n.n.s.s.j.j.j.j.s.n.n.n.n.n.n.n.n.n.n.n.n.n.n.n.n.n.n.n.n.n.n.n.n.n.n.n.n.n.n.n.n.n.n.n.n.n.n.n.n.n.n.n.n.n.n.n.n.n.n.n.n.",
"s.s.n.n.n.q.0.6.g.h.h.n.n.n.n.n.n.n.n.n.n.n.n.n.n.n.n.n.n.n.n.n.n.n.n.n.n.n.n.n.n.n.n.n.n.n.n.n.n.n.n.n.n.n.n.n.n.n.n.n.n.n.n.n."
};
