/* XPM */
static char *_01cf2ed59a5474cee7bdced74a55922aZRPl4vI7qvfBjAL[] = {
/* columns rows colors chars-per-pixel */
"64 64 56 1 ",
"  c None",
". c #0E0604",
"X c #0B0905",
"o c #0B0906",
"O c #150F03",
"+ c #110904",
"@ c #140906",
"# c #130E04",
"$ c #1A0F06",
"% c #1B1103",
"& c #1B1005",
"* c #181204",
"= c #1B1205",
"- c #1C1104",
"; c #1D1306",
": c #191407",
"> c #1F1808",
", c #1E1910",
"< c #211705",
"1 c #221A05",
"2 c #221906",
"3 c #231906",
"4 c #231B06",
"5 c #20170F",
"6 c #201909",
"7 c #231B09",
"8 c #22190C",
"9 c #231B0D",
"0 c #241C0F",
"q c #2A2111",
"w c #2B2312",
"e c #292114",
"r c #292215",
"t c #282116",
"y c #2A2316",
"u c #2B2316",
"i c #2B2417",
"p c #2A2419",
"a c #332B1D",
"s c #362E22",
"d c #3A3225",
"f c #3E362A",
"g c #A99F91",
"h c #AAA092",
"j c #ABA193",
"k c #ACA294",
"l c #C8C0CC",
"z c #CAC2CE",
"x c #CCC4D0",
"c c #E0D5C5",
"v c #E3D8C8",
"b c #E4D9C9",
"n c #E8DCCC",
"m c #E2DFDA",
"M c #ECE0D0",
"N c #E5E2DD",
/* pixels */
"                                                                ",
"                                                                ",
"                                                                ",
"                                                                ",
"                                                                ",
"                                                                ",
"                                                                ",
"                                                                ",
"                                                                ",
"                                                                ",
"                                                                ",
"                                                                ",
"                                                                ",
"                                                                ",
"                                                                ",
"                                                                ",
"                                                                ",
"                                                                ",
"                                                                ",
"                                                                ",
"                            2222222=                            ",
"                            iiiiiii,                            ",
"                            iiiiiii,                            ",
"                            iiiiiii,                            ",
"                        -227xxxxnnnM@@@.                        ",
"                        0iitllllcccviii5                        ",
"                        0iitllllcccviii5                        ",
"                        0iipllllcccviii5                        ",
"                    %22<kkkhccccmmmmnnnMoooo                    ",
"                    9iithgggccccmmmmcccbiiiq                    ",
"                    9iithgggccccmmmmcccbiiiq                    ",
"                    9iithgggccccmmmmcccbiiiq                    ",
"                    9iithgggccccmmmmmmmNiiiq                    ",
"                    9iithgggccccmmmmmmmNiiiq                    ",
"                    9iithgggccccmmmmmmmNiiiq                    ",
"                    9iithgggccccmmmmmmmNiiiq                    ",
"                O222hkggggggccccmmmmmmmmllll2oo:                ",
"                9iithgggggggccccmmmmmmmmlllliiia                ",
"                9iithgggggggccccmmmmmmmmlllliiia                ",
"                9iithgggggggccccmmmmmmmmlllliiia                ",
"                9iitllllggggllllccccmmmmcccciiia                ",
"                9iiullllggggllllccccmmmmcccciiia                ",
"                9iitllllggggllllccccmmmmcccciiia                ",
"                9iitllllggggllllccccmmmmcccciiia                ",
"                9iitllllggggggggllllcccccccciiia                ",
"                9iitllllggggggggllllcccccccciiia                ",
"                9iitllllggggggggllllcccccccciiia                ",
"                9iitllllggggggggllllcccccccciiia                ",
"                9iitllllggggggggggggggggggggiiia                ",
"                9iitllllggggggggggggggggggggiiia                ",
"                9iitllllggggggggggggggggggggiiia                ",
"                #77>xxxxggggggggggggggggggggttta                ",
"                    9iitllllggggggggggghtttq                    ",
"                    9iitllllggggggggggghiiiq                    ",
"                    9iitllllggggggggggghiiiq                    ",
"                    sff=xxxxhkkkkkkkkkkk---=                    ",
"                        0iiiiiiiiiiiiii5                        ",
"                        0iiiiiiiiiiiiii5                        ",
"                        0iiiiiiiiiiiiii5                        ",
"                        dffffff$$$$$$$$+                        ",
"                                                                ",
"                                                                ",
"                                                                ",
"                                                                "
};
