/* XPM */
static char *e9738919eff44aee8f352ad7b571dcb172Hb9fuH1HQxO8sl[] = {
/* columns rows colors chars-per-pixel */
"64 64 137 2 ",
"   c #1D140A",
".  c #21170A",
"X  c #241C0D",
"o  c #261E11",
"O  c #2E3904",
"+  c #343A04",
"@  c #383E03",
"#  c #262014",
"$  c #2B2416",
"%  c #2E2719",
"&  c #352D21",
"*  c #393125",
"=  c #3D4404",
"-  c #414704",
";  c #444905",
":  c #485704",
">  c #4D5C06",
",  c #4A5708",
"<  c #4D5D09",
"1  c #505F09",
"2  c #5B6B07",
"3  c #53630B",
"4  c #58670B",
"5  c #577103",
"6  c #5B7603",
"7  c #5A6A11",
"8  c #58621E",
"9  c #647D05",
"0  c #606E11",
"q  c #637011",
"w  c #66771B",
"e  c #4B4336",
"r  c #5D5D30",
"t  c #5D6320",
"y  c #534B45",
"u  c #5D5546",
"i  c #5D5548",
"p  c #665E5B",
"a  c #676945",
"s  c #69615D",
"d  c #756C5E",
"f  c #79765E",
"g  c #6B6461",
"h  c #766E60",
"j  c #7E7567",
"k  c #7F7E60",
"l  c #837E60",
"z  c #83796C",
"x  c #807876",
"c  c #887F71",
"v  c #668005",
"b  c #6A8304",
"n  c #6C8E01",
"m  c #6A850B",
"M  c #6F880A",
"N  c #718E02",
"B  c #739403",
"V  c #769903",
"C  c #799A04",
"Z  c #76960A",
"A  c #7A9F0B",
"S  c #7DA306",
"D  c #84AD03",
"F  c #8AAD00",
"G  c #82A40B",
"H  c #87B400",
"J  c #8DB500",
"K  c #8EBB00",
"L  c #90B600",
"P  c #91BD00",
"I  c #99BF00",
"U  c #8FC300",
"Y  c #92C300",
"T  c #90C400",
"R  c #96C500",
"E  c #95C601",
"W  c #99C200",
"Q  c #9AC600",
"!  c #93C800",
"~  c #95C800",
"^  c #96C802",
"/  c #98C900",
"(  c #9CC900",
")  c #9BCC01",
"_  c #9CCC00",
"`  c #9FCD00",
"'  c #9FD101",
"]  c #A3C500",
"[  c #A1CA00",
"{  c #A2CE00",
"}  c #A8CF00",
"|  c #A1D100",
" . c #A4D200",
".. c #A3D004",
"X. c #AAD300",
"o. c #A9D500",
"O. c #ABD501",
"+. c #A4D800",
"@. c #ACD901",
"#. c #B3D600",
"$. c #B4DB00",
"%. c #B8DA00",
"&. c #8A8173",
"*. c #968D7E",
"=. c #877F81",
"-. c #888182",
";. c #978E80",
":. c #998F81",
">. c #99958C",
",. c #9F979D",
"<. c #A99F91",
"1. c #A0989D",
"2. c #ABA193",
"3. c #ABA29F",
"4. c #B7AD9E",
"5. c #A29BA0",
"6. c #B1A8A0",
"7. c #B6ADAA",
"8. c #B8AFA8",
"9. c #BFB5A6",
"0. c #BBB3B4",
"q. c #C0B7BD",
"w. c #C1B9BE",
"e. c #D1C9BF",
"r. c #C7C3C2",
"t. c #C9C1CC",
"y. c #D3CAC9",
"u. c #DAD0C7",
"i. c #DDD5CC",
"p. c #D7D2D4",
"a. c #DFD9D2",
"s. c #E0D5C5",
"d. c #E0D7C8",
"f. c #E1D9CC",
"g. c #E1DCD3",
"h. c #E2DFDA",
"j. c #E3E0DB",
/* pixels */
"P Y Y / Y J U Y E ~ ~ T _ ~ ~ T { / ~ T U U U U U U U U T ~ ~ E / L Y Y U U U U U T ~ ~ E E ~ / _ ~ / ( K T E E T T U U T ~ E E ",
"T Y E / K U U U Y T ~ T ~ E ~ E ~ ~ T U U U U U U U U T T T Y L I L K Y U U U U U U T ~ E T E E Y ~ / X.E  .{ K P Y U U U T U Y ",
"T Y E ~ E E | E U Y T T E ~ ~ T ~ E U U U Y ) U U U U T E ~ E / [ Y Y U Y Y Y U U U U T T Y Y T T ~ E Y / E E E K U U U U U U U ",
"T Y T ~ ~ ~ E Y U U U Y Y ~ T T T Y U U U U | U  .Y U U Y Y U Y Y Y U Q K ! E U U U U U Y Y Y Y T E Y ~ ~ ~ ~ | Y Y U U U U U U ",
"T Y E ~ ~ ~ T U U U U U U Y Y U T T U T T / E ( T Y U U U U U U Y U ~ ~ ~ ..J T U U U U Y P T U Y Y U ~ ~ ~ E J Y Y U U U U U U ",
"P Y T E E ~ { T U U U U K K K K U T T T Y / / ~ E P U U U U U U Y E ~ E ' E ( E ~ T U U Y / T Y U U U T E E Y U U U U U U U U ~ ",
"K U U U Y _ Q Y U U U K K K K K U ~ ~ T E E E ( Y E Y U U U U U Y E ~ ~ E E | E E U U U Y T E Y U U U U Y Y Y Y U U U ( E Q T [ ",
"E E K J K E E U U U U U U U P J K T Y T E / _ { E @.T Y U U U U U Y E ~ T Y L K K U T / ~ E T T U U U U U K K K Y T E Q E E / K ",
"/ ( K Y U U U U U U U U U U U U U Y ~ ~ ~ ~ Y T +.J J K J J J J J K Y ~ ~ ~ T Y Y Y @. .( T U U U J J J J J J J Y T ~ E Y / / / ",
"Y Y Y K J J J J J J K E ~ ~ ~ T U U T ~ T ( T E L E Y K K K K J K U ~ T ~ / ~ { Y U P X./ ~ ~ Y Y K J J J J K U Y Y Y Y T E T T ",
"T E ~ K K K K K K K Y Y T _ ~ ~ T U U U Y Y T E / Y Y U U Y Y U U U ~ E Y W _ $.U U K _ Y Y T Y T Y U P K U ( U U T E Q E P U U ",
"~ / E U U U Y T Y T T E T / E _ { U U U U Y U U T Y Y Y Y T K U U U Y _ _ E E W U U U U U K W T U U U { Y T _ J T ~ / / X.P Y E ",
"Y Y T T U U T ~ Y ~ ~ ~ ~ E P E J Y U U U U U K  .P E [ E E H / U U Y ( $.Q Y Y Y Y Y Y Y J $.Y U U U E X.E ~ E ! ~ ~ $.L T E P ",
"Y T ~ ~ ~ T E ~ ~ K ~ ~ E / E Y Y Y U U U U U E ..Y ~ ~ ~ E E K U U U U Y Y U Y K K E E P P / ~ U U U Y T P ~ T ~ ~ T / U U T _ ",
"T ~ ~ _ / E T / ~ K E / ~ Y / E K U U U U U T E T E T T E / _ Y Y U U U U U Y Y U K E { ) / ~ ~ U U U U ~ E E T Y T E X.K U U U ",
"T _ / { / Y E / ~ L Y P _ P L E T U U U U U Y E E Y U T ~ / E Y U U Y Y P Y Y E ( E Y E | / ~ ~ Y U U K K K K K K Y Y Y Y U U U ",
"Y E _ E / / / ( { K U U J ( { / { U U / T U U T Y Y Y Y K Y U U U K K J K U Y Q $._ ~ ~ / | / Y J J J J J J J J J J J J K U U U ",
"U P Q / E J Y ( ( Y U U Y Y E E ~ { / | T U E Y Y Y Y E P Y Y Y Y Y Y K J J K Y U E E ~ ~ ~ E K K J J J J J J J J J J J K Y Y U ",
"T Y P Q J Y K E J U U U U Y T ~ ~ ~ T ~ T / X.E U U K Y E J Y ~ _ J J J J J J E | / E E ~ E U U U Y Y P P P Q E / E E ~ ~ ~ ~ Y ",
"~ Y Y P U U Y Y Y Y P K Y T / / ~ E T ~ T / ~ E Y o.Y Y T K ~ _ ( J J J J J J Y Y E Y Y Y Y U U U U K J J L { / / E E ~ E _ Q [ ",
"~ T ~ T T E E { K J J J J P T ( | T T ~ T ~ Y Y Y W _ B - - - - - ; - 2 J J Y U U U U U U U Y U U K J J J J L K X.~ E T E T _ Q ",
"| T ~ Y ~ / E K J J J J J J K U U T K K Y ~ Y U ~ @.Y M # # # # # # o , J K Y Y Y Y Y T T Y Y ~ Y K J J J J J F ~ ~ P Y / E Y ( ",
"U E _ K E / ) _ J J J J J P / U P P ( Y Y T Y U U o.~ m $ $ $ $ $ $ # < K K K P P Y T ~ ~ ~ / Q [ Y K J J J J ( E P K J / _ K E ",
"Y E ( J J Q { E J P J J J { / Q E Q Q ( E T T T T T T m $ $ $ $ $ $ # < K K K K K E T / ~ ~ / E ( K K J F F F J K K Y P E U Y Y ",
"T T Y K J K Q Y J Q P L L / / P E / { / _ T T n = = = a 5.5.5.3.4.4.4.l + + + 5 T ~ ~ ) ( Y o.E P U K F F F J K P ( ~ ~ Y T Y E ",
"T E Y U Y J E ( Q E / E K / / E ~ ~ ~ ~ T T T 9 X # # s t.t.t.y.s.s.d.;.o o o > T ~ Q P /  .Y U U U U U U U U Y E ( ) T ~ E E E ",
"T K U U Y Y P E E _ ~ ~ Y E ~ T U ~ ~ E T U U 9 o $ $ g t.t.t.y.s.s.s.:.$ $ o < U / X.J T U K K U U U J P E Y Y K K Y ~ / ( Y P ",
"U Y U U Y W E _ ~ ~ E E ~ T E T U U Y Y T U Y b o $ $ g t.t.t.y.s.s.s.:.$ $ o < U { J K U U U U E Y K P _ | T Y Y Y Y T U K Y K ",
"Y Y U U U ~ / _ / E T Y Y K K K K K K b = = = r &.&.&.2.u.u.u.i.g.g.g.e.4.4.4.k O O O 5 E P P Y / ( { U T / E Y U U K L | E Y T ",
"E E Y U U Y T ~ / / ~ Y Y J J J J J J 9 X # # u 2.2.2.9.s.s.s.f.h.h.h.g.s.s.d.;.o o o 3 { { Y U Y E / ~ ~ E T Y U U _ J T Y / / ",
"~ ~ T Y U T T T T U Y Y Y Y U U Y Y Y 9 o $ $ i 2.<.<.9.s.s.s.f.h.h.h.g.s.s.s.:.$ $ $ 4 } %.Y Y U U E ~ ~ T Y Y U K L ( E T E E ",
"T E E Y Y Y Y U U U Y U U Y P Y Y T U 9 o $ $ i 2.<.<.9.s.s.s.f.h.h.h.g.s.s.s.:.$ $ $ 4 { E Y K E P Y T E ~ E Y U U Y T _ ~ ~ E ",
"E E T Y K K K K K K K U U Y / { T T T 9 o $ $ i 2.<.<.9.s.s.s.f.h.h.h.h.g.g.g.>.$ $ $ 3 U U U Y {  .( P E ~ ~ Y U Y P Y | ~ ~ Y ",
"E Y Y Y U J J J J P Y U U Y E E E ~ ~ v o $ $ i 2.<.<.9.s.s.s.f.h.h.h.h.h.h.j.>.$ $ $ 3 U U U U Y P P E E E T U U U Y U E E / Y ",
"U U U Y Y Y Y T ~ T Y Y U Y K P E / ~ v o $ $ i 2.<.<.9.s.s.s.f.h.h.h.h.h.h.j.>.$ $ $ 3 U U U U U Y / T E _ Y Y U Y Y Y Y E Y Y ",
"U U U Y E ~ T ~ ~ ~ E T Y Y Y T E E ~ v o $ $ i 2.<.<.9.s.s.s.f.h.h.h.h.h.h.j.>.$ $ $ 3 ~ T U U U P K K P U Y [ E ~ T T Y U Y Y ",
"U U T ~ ~ E T ~ E ~ T ~ E Y U n @ = - r &.&.c *.<.<.<.9.s.s.s.f.h.h.h.h.h.h.h.r.1.1.,.f = O + 6 J J J J J J L ] P E E E T U U U ",
"U / o./ J Y T @.$.Y _ _ @.( X.9 X # # u 2.<.<.<.<.<.<.9.s.s.s.f.h.h.h.h.h.h.h.p.t.t.t.=.o o # 3 K J J J J P Y E Q E / E Y U U U ",
"U Y U %.Y T E T T T T E _ / Y 9 o $ $ i 2.<.<.<.<.<.<.9.s.s.s.f.h.h.h.h.h.h.h.p.t.t.t.-.$ $ % 7 Y Y U T T Y Y Y T U E Y Y U U U ",
"T / { T K U Y U U U U U U U U 9 o $ $ i 2.<.<.<.<.<.<.9.s.s.s.f.h.h.h.h.h.h.h.p.t.t.t.-.$ $ % 7 U U / Y T T E Y ~ U E Y U U T @.",
"~ ( L U Y U U U U U U U U U U 9 o $ $ s w.q.q.7.<.<.<.8.t.t.t.y.d.d.d.g.h.h.h.a.u.u.u.*.$ $ % 7 T Y ( E E T ~ Y ' T T U U T ~ T ",
"/ Q E E $.Y Y Y Y Y U U U T U 9 o $ $ g t.t.t.0.<.<.<.7.t.t.t.y.s.s.s.f.h.h.h.g.s.s.s.*.$ $ % 7 T K P / ~ Y E T ( _ U U U T ~ E ",
"E E Y J J P Y U U U U U U U J 9 o $ $ g t.t.t.0.<.<.<.7.t.t.t.y.s.s.s.f.h.h.h.g.s.s.s.*.$ $ % 7 Y o. .Y E K E Y Y Y U U U T ~ ~ ",
"E T Y Y Y Y Y U U T T U U / { 9 o $ $ g t.t.t.0.<.<.<.7.t.t.t.y.s.s.s.f.h.h.h.g.s.s.s.*.$ $ % 7 Y Y Y @.T U Y Y Y K K K U U T T ",
"E ) ~ Y U Y U U U T ( P Y ~ E 9 o $ $ g t.t.t.0.<.<.<.2.6.6.6.0.t.t.t.y.d.d.d.d.s.s.s.*.$ $ % 7 ~ E E E Y Y U Y K J J K K U T ~ ",
"T P { { U U U U U Y T E Y ~ E 9 o $ $ g t.t.t.0.<.<.<.<.<.<.<.7.t.t.t.y.s.s.s.s.s.s.s.*.$ $ % 7 E E Q E T Y U U Y K K U U Y E ~ ",
"E K Y J U U U T T Y U T T T T 9 o $ $ g t.t.t.0.<.<.<.<.<.<.<.7.t.t.t.y.s.s.s.s.s.s.s.*.$ $ % q ( ( / T Y U U Y T ~ P Y Y Y K E ",
"#.K U K J J J J J K U Y Y Y Y 9 o $ $ g t.t.t.0.<.<.<.<.<.<.<.7.t.t.t.y.s.s.s.s.s.s.s.*.$ $ % 7 U U T E o.K _ ( ! E X.J Y U Y K ",
"Y Y K J J J J J K P U U U Y Y v o $ $ g t.t.t.0.<.<.<.<.<.<.<.2.6.6.6.4.4.4.4.4.4.4.4.j $ $ % 7 Y U T ! T T T Y T E X.Q ~ U U U ",
"Y Y U K K K K J K K K U { E ~ v o $ $ g t.t.t.0.<.<.<.<.<.<.<.<.2.<.<.<.<.<.<.<.<.<.<.d $ $ % 0 T U U ~ T T Y E T ~ E E Q U U U ",
"T Y U U U U Y K J J J J E T K 9 o $ $ g t.t.t.0.<.<.<.<.<.<.<.<.<.<.<.<.<.<.<.<.<.<.<.d $ $ % 7 Y Y U Y Y Y U U E K Y Y U Y U U ",
"T T T T U U T T U U U U U U / v   X X p t.t.t.0.<.<.<.<.<.<.<.<.<.<.<.<.<.<.<.<.<.<.<.d $ $ % 7 U U U U Y U U @.Y K Y Y Y Y Y U ",
"T T ~ ~ T T  .{ K U U U U U K H V B N w y y y x w.q.q.7.<.<.<.<.<.<.<.<.<.<.<.z e e e t B B C D U U U Y / { K _ E Y E ~ _ E Y U ",
"T T ~ ~ ~ / { E Y Y K K K U T Y Y U P b o $ $ g t.t.t.0.<.<.<.<.<.<.<.<.<.<.<.h $ $ $ 4 Q [ K Y U U U Y Y [ / Y ~ T ~ ~ { ( ~ Y ",
"T _ _ ~ ~ / / @.K J J J J K Y Y U Y P v o $ $ g t.t.t.0.<.<.<.<.<.<.<.<.<.<.<.h $ $ $ 4 E ( K U U U U U / $.Q ~ ~ ~ ~ T ~ / P U ",
"~ / X.E ~ _ { K Y Y Y T U U Y J / E ~ m & * % p t.t.t.0.2.2.2.2.2.2.2.2.2.2.2.d . . . > T ~ Y U U U U U U E ~ ~ ~ E E ~ ~ ~ U U ",
"~ E Y @.E E U T U U U U U K P Q Q ~ ~ J A S A w y y y y e e e e e e e e e e e 8 V B V D ( ~ T Y U U U U U Y Y Y P K K Y Y Y U U ",
"/ ( K T E Q K U Y U U U Y J J J { E E E E _ P 9 o $ $ $ $ $ $ $ $ $ $ $ $ $ o 3 ~ T T ~ / E Y Y U U U U U Y Y K J J K Y U Y U U ",
"{ ( K U Y K K K K K K K Y J J J W L E J J E J 9 o $ $ $ $ $ $ $ $ $ $ $ $ $ o 1 ~ T Y Y T Y Y U U U U U U U Y Y P Y Y Y U U U U ",
"Y P P U U K J J J J J J U K J J J I J J J J J m & * * * * * %                 : Y Y U U Y Y Y Y U U Y J J J J U K J J J J U U U ",
"U U Y U U U U U U U U Y U U K J J J J J J K Y D Z A A A A G C C V V C B B B B S Y Y U U U | Y Y U U J J J J U U U Y Y Y Y / E Y ",
"U U U U U U U U U U U K P U U U U K K Y Y U U U U U U U T E Y Y T E ~ ~ T U U U Y Y { J E _ L Y J U U U U U U U ( P Q E Y  .( K ",
"T U U U U U U U |  .E Y Y U E E U T { Y Y U U U U U U U E ( U Y Y Y T T Y U U U Y U  .{ o._ E E L Y Y Y K K U  .| { / ( ~ E _ J ",
"{ { Y U U U /  .( $.| / U $. .E U / ( @.~ U U U U U U T T E ~ { _ Y Y Y Y Y Y Y Y E / / { _ ~ / { Y @.@. .Y U / E ~ T E E ~ _ Q "
};
