/* XPM */
static char *_18c93c17cae4444f3d5e4442088e272Bxmf4KzPi4KV4t30[] = {
/* columns rows colors chars-per-pixel */
"64 64 206 2 ",
"   c #000000",
".  c #030B03",
"X  c #000108",
"o  c #0A0A0A",
"O  c #001703",
"+  c #001901",
"@  c #0D130A",
"#  c #08190A",
"$  c #161D01",
"%  c #181F01",
"&  c #11190E",
"*  c #0D1B11",
"=  c #121212",
"-  c #131A12",
";  c #181A13",
":  c #002301",
">  c #162506",
",  c #1D2601",
"<  c #1F2802",
"1  c #1F3708",
"2  c #192013",
"3  c #1D2B13",
"4  c #1C2318",
"5  c #202705",
"6  c #212A05",
"7  c #213106",
"8  c #2D3C01",
"9  c #303E03",
"0  c #2A3214",
"q  c #2F1D29",
"w  c #321B2C",
"e  c #33302F",
"r  c #064C04",
"t  c #054B0B",
"y  c #015603",
"u  c #08530D",
"i  c #1B5A0F",
"p  c #324105",
"a  c #2D441E",
"s  c #3A4818",
"d  c #047E0D",
"f  c #17661E",
"g  c #156A1D",
"h  c #0C7414",
"j  c #177225",
"k  c #306F2E",
"l  c #41492D",
"z  c #4A533A",
"x  c #464646",
"c  c #4D5149",
"v  c #597543",
"b  c #687C4D",
"n  c #048607",
"m  c #04860B",
"M  c #04890C",
"N  c #03990A",
"B  c #059C0F",
"V  c #0A9A0E",
"C  c #138815",
"Z  c #039D12",
"A  c #0A9A12",
"S  c #01A502",
"D  c #04A10E",
"F  c #09A80C",
"G  c #1FA40C",
"H  c #05B60A",
"J  c #02BC0B",
"K  c #07AA12",
"L  c #08A812",
"P  c #16A51C",
"I  c #19A51E",
"U  c #0BBC13",
"Y  c #17B616",
"T  c #21A81D",
"R  c #2EA91B",
"E  c #1E8D27",
"W  c #208F30",
"Q  c #17A422",
"!  c #25A424",
"~  c #658802",
"^  c #6C8D02",
"/  c #729300",
"(  c #759D00",
")  c #799D00",
"_  c #769411",
"`  c #77A201",
"'  c #7BA500",
"]  c #7EA901",
"[  c #7FAB08",
"{  c #77BA05",
"}  c #59883F",
"|  c #66983D",
" . c #5FA43A",
".. c #04C20E",
"X. c #04CC0E",
"o. c #04D30D",
"O. c #04C013",
"+. c #0AC714",
"@. c #1EC81B",
"#. c #0CDA19",
"$. c #0CDB1A",
"%. c #11D51C",
"&. c #29DB1B",
"*. c #04E70C",
"=. c #05F10C",
"-. c #02E612",
";. c #06E615",
":. c #05EE13",
">. c #0BED1B",
",. c #1CEB1E",
"<. c #02F112",
"1. c #0DF116",
"2. c #07F018",
"3. c #13F11B",
"4. c #16D222",
"5. c #30CD32",
"6. c #0FE720",
"7. c #1AE626",
"8. c #18E924",
"9. c #21E923",
"0. c #3BE629",
"q. c #3BE72B",
"w. c #32E535",
"e. c #5BE73A",
"r. c #4FF135",
"t. c #67E23E",
"y. c #68E23A",
"u. c #6C9948",
"i. c #6D9A49",
"p. c #78965C",
"a. c #54BE50",
"s. c #7BAA4C",
"d. c #75B542",
"f. c #7AA656",
"g. c #3BCE47",
"h. c #3CD648",
"j. c #40C94A",
"k. c #57D540",
"l. c #79C548",
"z. c #67D448",
"x. c #77D245",
"c. c #76DB44",
"v. c #6EE54B",
"b. c #76E146",
"n. c #78E04A",
"m. c #71F24B",
"M. c #5ACB6B",
"N. c #70C468",
"B. c #7BD366",
"V. c #83AC01",
"C. c #88AC03",
"Z. c #83B105",
"A. c #8DB500",
"S. c #8EBC00",
"D. c #91B500",
"F. c #91BD00",
"G. c #99BF00",
"H. c #8BB311",
"J. c #8FC300",
"K. c #92C400",
"L. c #99C600",
"P. c #9AC600",
"I. c #95C800",
"U. c #97C901",
"Y. c #98C900",
"T. c #9BCA00",
"R. c #9DCA01",
"E. c #9DCD00",
"W. c #9FD101",
"Q. c #8AC613",
"!. c #A1CD00",
"~. c #A1CE00",
"^. c #A3D100",
"/. c #ABD400",
"(. c #A4D800",
"). c #ADD901",
"_. c #B3D600",
"`. c #B2DA00",
"'. c #9EB66C",
"]. c #82DD4A",
"[. c #8EDE4D",
"{. c #91D54D",
"}. c #84CB59",
"|. c #8EDE52",
" X c #92DD52",
".X c #8CE04F",
"XX c #88E557",
"oX c #81CE6E",
"OX c #93DB69",
"+X c #A5D978",
"@X c #93A687",
"#X c #B2A29F",
"$X c #AFB4A5",
"%X c #B0B6A5",
"&X c #C49CAD",
"*X c #CD99AA",
"=X c #C99FB0",
"-X c #C8A5B7",
";X c #DD91C2",
":X c #EC8CCC",
">X c #F28CCE",
",X c #F18CD1",
"<X c #F496D5",
"1X c #F9A8DD",
"2X c #FBA9E0",
"3X c #D7C3C1",
/* pixels */
"F.K.K.Y.K.A.J.K.I.I.I.K.E.I.I.K.!.Y.I.K.J.J.J.J.J.J.J.J.K.I.I.I.Y.D.K.K.J.J.J.J.J.K.I.I.I.I.I.Y.E.I.Y.R.S.K.I.I.K.K.J.J.K.I.I.I.",
"K.K.I.Y.S.J.J.J.K.K.I.K.I.I.I.K.I.I.K.J.J.J.J.J.J.J.J.K.K.K.K.D.G.D.S.K.J.J.J.J.J.J.K.I.I.K.I.I.K.I.Y./.I.^.!.S.F.K.J.J.J.K.J.K.",
"K.K.I.I.I.I.^.I.J.K.K.K.I.I.I.K.I.K.J.J.J.K.Y.J.J.J.J.K.I.I.I.Y.!.K.K.J.K.K.K.J.J.J.J.K.K.K.K.K.K.I.I.K.Y.I.I.I.S.J.J.J.J.J.J.J.",
"K.K.K.I.I.I.K.K.J.J.J.K.K.I.K.K.K.K.J.J.J.J.^.J.^.K.Q.{ { { { ` ( ( S.P.S.I.K.J.J.J.J.J.K.K.K.K.K.I.K.I.I.I.I.^.K.K.J.J.J.J.J.J.",
"K.K.I.I.I.I.K.J.J.J.J.J.J.K.K.J.K.K.J.K.K.Y.I.R.K.K.B.I B Z g .   = V.I.Y.^.A.K.J.J.J.J.K.F.K.J.K.K.J.I.I.I.I.A.K.K.J.J.J.J.J.J.",
"F.K.K.I.I.I.!.K.J.J.J.J.S.S.S.S.J.K.K.K.K.Y.Y.I.I.F.oXQ B B g .   = V.I.^.K.R.I.I.K.J.J.K.Y.K.K.J.J.J.K.I.I.K.J.J.J.J.J.J.J.J.I.",
"S.J.J.J.K.E.P.K.J.J.J.S.S.S.S.S.J.I.I.K.I.I.I.Y.K.I.}.R G G k @   = V.I.I.I.^.K.K.J.J.J.K.K.I.K.J.J.J.J.K.K.K.K.J.J.J.R.I.P.K.!.",
"I.I.S.A.S.I.K.J.J.J.J.J.J.J.F.A.S.K.K.K.I.Y.E.!.I.).K.K.J.J.'.;   = V.I.K.K.D.S.S.J.K.Y.I.I.K.K.J.J.J.J.J.S.S.S.K.K.I.P.I.K.Y.S.",
"Y.R.S.K.J.J.J.J.J.J.J.J.J.J.J.J.J.K.I.I.I.I.K.K.(.A.A.S.A.A.A.$   = ] I.I.I.K.K.K.K./.^.R.K.J.J.J.A.A.A.A.A.A.A.K.K.I.I.K.Y.Y.Y.",
"K.K.K.S.A.A.A.A.A.A.S.I.I.I.I.K.J.J.K.I.K.R.K.I.D.K.K.S.S.S.S.$   = V.K.I.Y.I.!.K.J.F./.Y.I.I.K.K.S.A.A.A.A.S.J.K.K.K.K.K.I.K.K.",
"K.I.I.S.S.S.S.S.S.S.K.K.K.E.I.I.K.J.J.[ ( ( ( ) ' ( ( ( ( ( ( $   o ^ ' ( ) ] C.( ( ( ] ( S.K.K.K.K.J.F.S.J.R.J.J.K.I.P.I.F.J.J.",
"I.Y.I.J.J.J.K.K.K.K.K.I.K.Y.I.E.!.J.J.l o                                                 ) P.K.J.J.J.!.K.K.E.A.K.I.Y.Y./.F.K.I.",
"K.K.K.K.J.J.K.I.K.I.I.I.I.I.F.I.A.K.J.l o                                                 ( `.K.J.J.J.I./.I.I.I.I.I.I.`.D.K.I.F.",
"K.K.I.I.I.K.I.I.I.S.I.I.I.Y.K.K.K.K.H.z 4 - - - - - - - - - =     X * - - - - - - - - - ; _ H.H.J.J.J.K.K.F.I.K.I.I.K.Y.J.J.K.E.",
"K.I.I.E.Y.I.K.I.I.S.I.Y.I.K.Y.I.` ( z b u.u.u.u.u.u.u.u.u.u.v @   O } u.u.u.u.u.u.u.u.u.p.c x x Z.J.J.J.I.I.I.K.K.K.I./.S.J.J.J.",
"K.E.Y.!.Y.K.K.Y.I.D.K.F.E.F.D.I.0     | {. X X X X X X X X Xf.&   : l. X X X X X X X X X+X2     ' J.J.S.S.S.S.S.S.K.K.K.K.J.J.J.",
"K.I.E.I.Y.Y.Y.R.!.S.J.J.A.R.!.Y.0     | {. X X X X X X X X Xf.&   : l. X X X X X X X X X+X2     ( A.A.A.A.A.A.A.A.A.A.A.S.J.J.J.",
"J.F.P.Y.I.A.K.R.P.K.J.J.K.' ' ' s 3 3  .c.b.b.c.x.x.x.x.x.x.u.@   + | d.d.d.x.x.x.c.b.n.OXa 3 3 ~ / / A.A.A.A.A.A.A.A.A.S.K.K.J.",
"K.K.F.P.A.K.S.K.A.J.J.J.J.$     s. X Xq.2.:.<...D B B B B B f .           + M B S *.:.:.&.]. X+X4     ' F.F.P.K.Y.I.I.I.I.I.I.K.",
"I.K.K.F.J.J.K.K.K.K.F.S.K.$     s. X Xq.>.<.<...D B B B B B g .           + M B S -.<.:.&.]. X+X2     ) A.D.!.Y.Y.I.I.I.I.E.P.!.",
"I.K.I.K.K.I.I.!.S.A.A.A.A.> . . s. X Xq.>.<.<...D B B B B B g # . . . . . : M B S -.<.:.&.]. X+X3 . . ) A.A.D.S./.I.I.K.I.K.R.P.",
"^.K.I.K.I.Y.K.S.A./ / / / i t r l.|. Xq.2.<.<...D B B B B B C u t t t t r y N B S -.<.:.&.]. XOXi t t ~ / / / C.I.I.F.K.Y.K.K.R.",
"J.I.E.S.I.Y.Y.E.A.$       m B B z.|. Xq.2.<.<...D B B B B B B B B B B B B B B B S -.<.:.&.]. XXXP B Z O       V.K.F.S.A.Y.E.S.I.",
"K.I.P.A.A.P.!.K.A.$       m B Z z.|. Xq.2.<.<...D B B B B B B B B B B B B B B B S -.<.:.&.]. XXXI Z Z O       ) S.S.K.F.I.J.K.K.",
"K.K.K.S.A.S.P.K.A.%       m B Z k.b.b.q.9.,.8.@.T T T T T T T T T T T T T T T T Y ,.,.9.q.v.b.v.I Z Z O       ) F.R.I.I.K.K.K.I.",
"K.I.K.J.K.A.K.R.P.%       m B Z %.:.:.e.|..X|.|. X X X X X X X X X X X X X X X X.X X.X Xm.3.:.7.L B Z O       ] I.R.Y.K.I.I.I.I.",
"K.S.J.J.K.K.F.K.I.%       m B Z %.:.<.e.[. X X X X X X X X X X X X X X X X X X X X X X Xm.3.<.7.L B Z O       ' S.S.K.I.Y.R.K.F.",
"J.K.J.J.K.P.K.E.I.$       M D B #.:.<.e.[. X X X X X X X X X X X X X X X X X X X X X X.Xm.3.<.8.K D D +       ' K.K.K.K.J.S.K.S.",
"K.K.J.J.J.I.Y.E.Y.$       N H J #.:.<.q.y.t.t.t.t.t.t.t.t.t.t.t.t.t.t.t.t.t.t.t.t.t.t.y.r.1.<.6...H J +       ' J.J.S.D.^.I.K.K.",
"I.K.K.J.J.K.K.I.Y.%       X.<.<.<.<.<.<.<.<.<.<.<.<.<.<.<.<.<.<.<.<.<.<.<.<.<.<.<.<.<.<.<.<.<.<.<.<.<.:       ' J.J.E.A.K.K.Y.Y.",
"I.I.K.K.J.K.K.K.K.$       X.<.<.<.<.<.<.<.<.<.<.<.<.<.<.<.<.<.<.<.<.<.<.<.<.<.<.<.<.<.<.<.<.<.<.<.<.<.:       ' J.S.D.R.I.K.I.I.",
"K.I.I.K.K.K.K.J.J.$       X.<.<.<.<.<.<.<.<.<.<.<.<.<.<.<.<.<.<.<.<.<.<.<.<.<.<.<.<.<.<.<.<.<.<.<.<.<.:       ' J.J.K.K.E.I.I.I.",
"I.I.K.K.S.S.S.S.S.$       X.<.<.<.<.<.<.<.<.<.<.<.<.<.<.<.<.<.<.<.<.<.<.<.<.<.<.<.<.<.<.<.<.<.<.<.<.<.:       ' J.K.F.K.^.I.I.K.",
"I.K.K.K.J.A.A.A.A.$       X.<.<.<.<.<.<.<.<.<.<.<.<.<.<.<.<.<.<.<.<.<.<.<.<.<.<.<.<.<.<.<.<.<.<.<.<.<.:       ' J.J.K.J.I.I.Y.K.",
"J.J.J.K.K.K.K.K.I.%       X.<.<.<.<.<.<.<.<.<.<.<.<.<.<.<.<.<.<.<.<.<.<.<.<.<.<.<.<.<.<.<.<.<.<.<.<.<.:       ' J.K.K.K.K.K.K.K.",
"J.J.J.K.I.I.' ' ' $       X.<.<.<.<.<.<.<.<.<.<.<.<.<.<.<.<.<.<.<.<.<.<.<.<.<.<.<.<.<.<.<.<.<.<.<.<.<.:       ^ ) ' J.K.K.J.K.K.",
"J.J.K.I.I.I.$             X.<.<.<.<.<.<.<.<.<.<.<.<.<.<.<.<.<.<.<.<.<.<.<.<.<.<.<.<.<.<.<.<.<.<.<.<.<.:             ] I.K.J.J.J.",
"J.Y./.Y.A.K.$             X.<.<.<.<.<.<.<.<.<.=.<.<.<.<.<.<.<.<.<.<.<.<.<.<.<.<.<.<.<.<.<.<.<.<.<.<.<.:             V.I.K.J.J.J.",
"J.K.` D.( ( 8 , , .       U ;.#.>.<.<.o.O...O.*.:.<.<.<.<.<.<.<.<.<.<.<.<.<.<.<.1.+.O.O.X.:.<.>.#.;.#.:       , , , ^ ( ( ( S.J.",
"K.Y.,       ' J.J.$       m V A %.:.<.y .   X m -.<.<.<.<.<.<.<.<.<.<.<.<.<.<.<.g.*     : o.<.8.L V B O       ' I.J.$       ] /.",
"I.R.%       ' J.J.$       m B Z %.:.<.y .     m -.<.<.<.<.<.<.<.<.<.<.<.<.<.<.<.g.*     : o.<.7.L B Z O       ] W.K.$       V.K.",
"Y.P.%       ' K.K.$       m B Z 4.=.=.y .     n -.<.<.<.<.<.<.<.<.<.<.<.<.<.<.<.g.&     : o.=.9.L B Z O       ] R.E.$       V.I.",
"I.I.9 5 6 6 ] J.J.$       m B V g.w.w.k w w q C ;.<.<.<.<.<.<.<.<.<.<.<.<.<.<.<.j.e w w e 5.w.h.P B Z O       ' K.K.p 6 6 < Z.I.",
"I.K.K.K.K.K.K.J.J.$       m B Z $X1X1X<X,X,X>XN.>.<.<.<.<.<.<.<.<.<.<.<.<.<.<.<.a.;X,X>X:X1X1X3X! B Z O       ' K.S.S.S.J.J.K.K.",
"I.Y.I.K.J.K.J.J.J.%       m B Z $X1X2X<X,X,X>XN.>.<.<.<.<.<.<.<.<.<.<.<.<.<.<.<.a.;X,X,X:X1X2X3X! B Z O       ' S.A.A.S.S.J.K.I.",
"K.F.!.!.J.J.J.J.J.p 6 6 6 h d d @X-X-X=X&X&X*XM.>.<.<.<.<.<.<.<.<.<.<.<.<.<.<.<.j.#X&X&X&X-X-X%XE m h 1 6 6 < ] K.S.S.J.J.K.I.I.",
"I.S.K.A.J.J.J.K.K.K.J.K.K.%     j B N +.:.:.<.<.<.<.<.<.<.<.<.<.<.<.<.<.<.<.<.<.<.:.:.<.7.F N W @     ] K.J.J.K.K.I.F.K.K.K.S.I.",
"_.S.J.S.A.A.A.A.A.S.J.K.K.$     h Z B +.:.<.<.<.<.<.<.<.<.<.<.<.<.<.<.<.<.<.<.<.<.<.<.:.8.L B W #     ] /.S.E.P.I.I./.A.K.J.K.S.",
"K.K.S.A.A.A.A.A.S.F.J.J.J.8 , , f d d L J O.O.O.O.O.O.O.O.O.O.O.O.O.O.O.O.O.O.O.O.O.O...Y m d j 7 , , Z.K.K.K.K.K.I./.P.I.J.J.J.",
"K.K.J.S.S.S.S.A.S.S.S.J.!.I.I.I.0                                                               ' J.J.I.K.K.K.I.K.I.I.I.P.J.J.J.",
"K.K.J.J.J.J.K.S.A.A.A.A.I.K.S.K.0                                                               ' K.J.K.K.K.J.J.I.S.K.K.J.K.J.J.",
"K.K.K.K.J.J.K.K.J.J.J.J.J.J.Y.!.0                                                               ' J.J.J.K.J.J.).K.S.K.K.K.K.K.J.",
"K.K.I.I.K.K.^.!.S.J.J.J.J.J.S.I.0     , , , < , 6 < < < < < < < < , , , , , , , , , , , ,       ' J.J.J.Y.!.S.E.I.K.I.I.E.K.K.J.",
"K.K.I.I.I.Y.!.I.K.K.S.S.S.J.K.K.0     V.K.J.K.J.E.K.K.Y.Y.K.K.I.E.Y.S.K.K.J.A.P.Y.K.K.E.P.%     ' J.J.J.K.!.Y.K.I.K.I.I.!.R.I.K.",
"K.E.E.I.I.Y.Y./.S.A.A.A.A.S.K.K.0     V.K.J.J.K.K.K.K.I.K.J.K.R.R.I.P.A.K.J.S.Y.I.S.Y.I.I.$     ' J.J.J.Y.`.P.I.I.I.I.K.I.Y.F.J.",
"I.Y./.I.I.E.!.S.K.K.K.K.J.` ( / s < , V.K.J.K.I.K.K.K.K.K.K.K.S.K.A.S.Y.F.J.K.Y.E.I.I.I.K.8 , , ~ ( ( S.J.I.I.I.I.I.I.I.I.I.J.J.",
"I.I.K.).K.I.J.K.J.J.J.J.J.$     V.I.I.I.K.K.I.I.K.J.J.J.J.K.K.K.P.Y.I.I.R.I.K.I.I.I.I.Y.R.I.K.K.$     ' J.K.K.K.F.S.S.K.K.K.J.J.",
"Y.P.S.K.I.P.S.J.K.J.J.J.K.$     C.I.I.K.I.E.F.K.S.K.J.J.J.K.S.K.K.I.Y.Y.Y.I.K.I.I.K.K.I.Y.I.K.K.$     ' J.K.K.S.A.A.S.K.J.K.J.J.",
"!.P.S.J.K.S.S.S.S.S.S.S.K.$     V.D.I.A.A.K.A.S.K.J.J.J.J.K.F.S.K.K.I.Y.I.I.K.I.I.K.K.K.K.K.K.J.$     ' J.J.K.K.F.K.K.K.J.J.J.J.",
"K.F.F.J.J.S.A.A.A.A.A.A.J.8 , , ) G.A.A.A.A.A.K.K.J.J.J.J.K.K.!.^.^.P.K.I.I.K.K.K.K.J.J.K.K.K.K.8 , , ' A.A.A.J.S.A.A.A.A.J.J.J.",
"J.J.K.J.J.J.J.J.J.J.J.K.J.J.S.A.A.A.A.A.A.S.K.S.A.K.J.J.J.Y.K.Y.I.I.Y.K.K.K.K.K.K.K.J.J.J.^.K.K.J.J.A.A.A.A.J.J.J.K.K.K.K.Y.I.K.",
"J.J.J.J.J.J.J.J.J.J.J.S.F.J.J.J.J.S.S.K.K.J.J.J.J.J.J.J.K.I.K.K.K.I.I.I.K.J.J.J.K.K.!.A.I.E.D.K.A.J.J.J.J.J.J.J.R.F.P.I.K.^.R.S.",
"K.J.J.J.J.J.J.J.^.^.I.K.K.J.I.I.J.K.!.K.K.J.J.J.J.J.J.J.I.R.J.K.K.K.K.K.K.J.J.J.K.J.^.!./.E.I.I.D.K.K.K.S.S.J.^.^.!.Y.R.I.I.E.A.",
"!.!.K.J.J.J.Y.^.R.`.^.Y.J.`.^.I.J.Y.R.).I.J.J.J.J.J.J.K.K.I.I.!.E.K.K.K.K.K.K.K.K.I.Y.Y.!.E.I.Y.!.K.).).^.K.J.Y.I.I.K.I.I.I.E.P."
};
