/* XPM */
static char *_d794b70b7bc4e69b7b00baf5665eca7X5Ls4I7aT5g4hY0H[] = {
/* columns rows colors chars-per-pixel */
"64 63 127 2 ",
"   c None",
".  c #000001",
"X  c #090002",
"o  c #02000A",
"O  c gray3",
"+  c #001400",
"@  c #001C00",
"#  c #161616",
"$  c #012600",
"%  c #002A00",
"&  c #003700",
"*  c #093606",
"=  c #033A00",
"-  c #04380A",
";  c #343434",
":  c #33333D",
">  c #004200",
",  c #004900",
"<  c #19601E",
"1  c #217817",
"2  c #1C5E21",
"3  c #156120",
"4  c #186020",
"5  c #4E633C",
"6  c #565656",
"7  c #6B7C4F",
"8  c #059E06",
"9  c #099C06",
"0  c #0F970F",
"q  c #059C0E",
"w  c #099A0D",
"e  c #138718",
"r  c #039C13",
"t  c #0B9913",
"y  c #0B951C",
"u  c #109613",
"i  c #00A700",
"p  c #00AF06",
"a  c #04A50B",
"s  c #00AC09",
"d  c #04BA0D",
"f  c #00A111",
"g  c #158425",
"h  c #13842C",
"j  c #298B36",
"k  c #268C39",
"l  c #229031",
"z  c #0ED717",
"x  c #0BD915",
"c  c #0AD81B",
"v  c #12DF1E",
"b  c #2FD81D",
"n  c #31D71B",
"m  c #07EF0F",
"M  c #00F701",
"N  c #00F905",
"B  c #04F20C",
"V  c #05EF13",
"C  c #0AED14",
"Z  c #0DE11B",
"A  c #05EE18",
"S  c #0DEB1B",
"D  c #12E01C",
"F  c #02F112",
"G  c #00F31A",
"H  c #19DB22",
"J  c #1DDB2F",
"K  c #1DDF31",
"L  c #29DF2A",
"P  c #15E326",
"I  c #1BE525",
"U  c #1CE52B",
"Y  c #2AE824",
"T  c #20E42A",
"R  c #31E524",
"E  c #5BE839",
"W  c #5CF43D",
"Q  c #64EA3E",
"!  c #5F8D46",
"~  c #658A47",
"^  c #708658",
"/  c #779B5B",
"(  c #78AF49",
")  c #62B559",
"_  c #5DB56B",
"`  c #45C74B",
"'  c #46CA55",
"]  c #49C952",
"[  c #5ACE53",
"{  c #7FDF48",
"}  c #79DE52",
"|  c #6BE542",
" . c #72E144",
".. c #7DE141",
"X. c #6BF74A",
"o. c #73F24B",
"O. c #56CD73",
"+. c #76D776",
"@. c #86DD41",
"#. c #95DC4E",
"$. c #8DC65D",
"%. c #91C559",
"&. c #8AD157",
"*. c #8EDF54",
"=. c #92DD53",
"-. c #8AE24E",
";. c #8DE050",
":. c #80EB5F",
">. c #9CDB72",
",. c #ABD976",
"<. c #AAD97D",
"1. c #7FD081",
"2. c #A5B19D",
"3. c #CFB7B7",
"4. c #CDB8BF",
"5. c #AAD681",
"6. c #A4DA84",
"7. c #CBC7BC",
"8. c #D0C8BB",
"9. c #EC85CA",
"0. c #EB8DCB",
"q. c #FF83CD",
"w. c #F18CCE",
"e. c #F18BD2",
"r. c #F392D3",
"t. c #FCA9DF",
"y. c #F7A7E2",
/* pixels */
"                                                                                                                                ",
"                                                                                                                                ",
"                                                                                                                                ",
"                                                    +.0 q r < . . #                                                             ",
"                                                    1.r q q 4 . . #                                                             ",
"                                                    1.r q q 4 . . #                                                             ",
"                                                            2.. . #                                                             ",
"                                                              . . #                                                             ",
"                                                              . . #                                                             ",
"                                                              . . #                                                             ",
"                                      ; . . . . . . . . . . . . . . . . . . . . . . . . .                                       ",
"                                      ; . . . . . . . . . . . . . . . . . . . . . . . . .                                       ",
"                                      : . . . . . . . . . o . . . o . . . . . . . . . . o                                       ",
"                                    6 7 ~ ~ ~ ~ ~ ~ ~ ~ ~ ~ 5 . . + ! ~ ~ ~ ~ ~ ~ ~ ~ ! ^ 6 6 6                                 ",
"                                # . . ( #.=.=.=.=.=.=.=.=.=./ . . $ =.=.=.=.=.=.=.=.=.=.5.. . .                                 ",
"                                # . . ( #.=.=.=.=.=.=.=.=.=./ . . $ =.=.=.=.=.=.=.=.=.=.5.. . .                                 ",
"                                # . . ( #.=.=.=.=.=.=.=.=.=./ . . $ =.=.=.=.=.=.=.=.=.=.5.. . .                                 ",
"                          . . . $.=.=.R G V F d w w w w w q 2 . . . . . . @ w w i F V A n =.=.6.. . .                           ",
"                          . . . $.=.=.Y F F F d q q q q q q 4 . . . . . . @ q q i F F V b =.=.,.. . .                           ",
"                          . . . %.=.=.Y F F F d r q q q q q 3 . . . . . . @ q q i F F V b =.=.<.. . .                           ",
"                          * - = &.=.=.Y F F F d q q q q q q 1 - - - - - = , r r i F F V b =.=.>.* - *                           ",
"                  . . . . q q q } =.=.Y F F F d q q q q q q q q q q q q q q q r i F F V b =.=.:.r q r . . . .                   ",
"                  . . . . q q r } =.=.Y F F F d q q q q q q q q q q q q q q q q i F F V b =.=.:.r q r . . . .                   ",
"                  . . . . q q r } =.=.Y F F F d q q q q q q q q q q q q q q q r i F F V b =.=.:.r q r . . . .                   ",
"                  . . . . q q t D V V Q =.-.*.;.=.=.=.=.=.=.=.=.=.=.=.=.=.=.=.=.;.=.-.=.X.V V T q q r . . . .                   ",
"                  . . . . q q r v F F | =.=.=.=.=.=.=.=.=.=.=.=.=.=.=.=.=.=.=.=.=.=.=.=.X.F F U q q r . . . .                   ",
"                  . . . . q a r Z F F  .=.=.=.=.=.=.=.=.=.=.=.=.=.=.=.=.=.=.=.=.=.=.=.;.o.F F U q a q . . . .                   ",
"                  . . . . p a s Z F F E @.{ { { { { { { @.{ { { { { { { { @.{ @.{ { { ..W F F P p a p . . . .                   ",
"                  . . . . V F F F F F F F F F F F F F F F F F F F F F F F F F F F F F F F F F F F F F . . . .                   ",
"                  . . . . V F F F F F F F F F F F F F F F F F F F F F F F F F F F F F F F F F F F F F . . . .                   ",
"                  . . . . V F F F F F F F F F F F F F F F F F F F F F F F F F F F F F F F F F F F F F . . . .                   ",
"                  . . . . V F F F F F F F F F F F F F F F F F F F F F F F F F F F F F F F F F F F F F . . . .                   ",
"                  . . . . V F F F F F F F F F F F F F F F F F F F F F F F F F F F F F F F F F F F F F . . . .                   ",
"                  . . . . V F F F F F F F F F F F F F F F F F F F F F F F F F F F F F F F F F F F F F . . . .                   ",
"                  O . . . V F F F F F F F F F F F F F F F F F F F F F F F F F F F F F F F F F F F F F . . . .                   ",
"            . . . . . . . V F F F F F F F F F F F F F F F F F F F F F F F F F F F F F F F F F F F F F . . . . . . .             ",
"            . . . . . . . V F F F F F F F F F F F F F F F F F F F F F F F F F F F F F F F F F F F F F . . . . . . .             ",
"            . . . O . . . S G S A F F m C V G M F F F F F F F F F F F F F F F F N S V A B F F S S G S . . . . . . .             ",
"    . . . .       . . . . q 0 t Z F F = . . o t F F F F F F F F F F F F F F F F ' . . . $ F F I w 0 q . . . .       . . . O     ",
"    . . . .       . . . . q q r v F F = . . . 8 F F F F F F F F F F F F F F F F ] . . . % F F U q q r . . . .       . . . O     ",
"    . . . .       . . . . q q r H B B & X X . 8 F F F F F F F F F F F F F F F F ' X X . $ B B L f q r . . . .       . . . O     ",
"    O O O O       . . . . q q 0 J B B > o X . 9 F F F F F F F F F F F F F F F F ` X X . % B B K u q r . . . .       O O O O     ",
"                  . . . . q q r 4.t.t.r.e.e.w.[ F F F F F F F F F F F F F F F F ) e.e.w.0.t.t.8.8 q r . . . .                   ",
"                  . . . . q q r 4.t.t.r.e.e.w.[ F F F F F F F F F F F F F F F F ) e.e.e.0.t.t.8.8 q r . . . .                   ",
"                  O O O O t r w 3.y.y.r.e.e.q.O.F F F F F F F F F F F F F F F F _ w.e.e.9.y.y.7.8 r y O O O .                   ",
"                          X . X h 8 8 z V m F B F F F F F F F F F F F F F F F F F V m F I 8 8 k X . .                           ",
"                          . . . e q q c V F F F F F F F F F F F F F F F F F F F F F F V U q q l . . .                           ",
"                          . . . g q q x V A A A A A A A A A A A A A A A A A A A A A A B I q q j X . .                           ",
"                                # . . . . . . . . . . . . . . . . . . . . . . . . . . . . . . .                                 ",
"                                # . . . . . . . . . . . . . . . . . . . . . . . . . . . . . . .                                 ",
"                                # . . . . . . . . . . . . . . . . . . . . . . . . . . . . . . .                                 ",
"                                # . . . . . . . . . . . . . . . . . . . . . . . . . . . . . . .                                 ",
"                                # . .                                                     . . .                                 ",
"                                # . .                                                     . . .                                 ",
"                                # . .                                                     . . .                                 ",
"                          . . .                                                                 . . .                           ",
"                          . . .                                                                 . . .                           ",
"                          . . .                                                                 . . .                           ",
"                          . . .                                                                 . . .                           ",
"                                                                                                                                ",
"                                                                                                                                ",
"                                                                                                                                ",
"                                                                                                                                "
};
