/* XPM */
static const char *floor3[] = {
/* columns rows colors chars-per-pixel */
"64 64 187 2 ",
"   c gray46",
".  c #3F9136",
"X  c #36953C",
"o  c #4C9A2A",
"O  c #4F9F36",
"+  c #4D9F39",
"@  c #5C9E3A",
"#  c #4AA336",
"$  c #46A93B",
"%  c #54A535",
"&  c #5EA937",
"*  c #52A63A",
"=  c #5BA43B",
"-  c #55AB3D",
";  c #5AAD3D",
":  c #5CB43D",
">  c #6BAB3A",
",  c #6BB735",
"<  c #6BB53C",
"1  c #6BB83B",
"2  c #71B13E",
"3  c #74C23D",
"4  c #3F9D43",
"5  c #419C45",
"6  c #4CA841",
"7  c #59A644",
"8  c #5FA841",
"9  c #53B141",
"0  c #6DA641",
"q  c #65AD41",
"w  c #68AE41",
"e  c #79AE45",
"r  c #62B244",
"t  c #6AB042",
"y  c #60BB4A",
"u  c #6ABA48",
"i  c #75B742",
"p  c #78B745",
"a  c #72BA44",
"s  c #78B945",
"d  c #76B24C",
"f  c #7FBA4A",
"g  c #6AA85B",
"h  c #70AE5A",
"j  c #77BF50",
"k  c #75B26A",
"l  c #74C243",
"z  c #7EC143",
"x  c #7EC844",
"c  c #75C34B",
"v  c #80BB47",
"b  c #83B94B",
"n  c #80B656",
"m  c #8DBB6C",
"M  c #8DB675",
"N  c #8DBD72",
"B  c #83C444",
"V  c #84CD46",
"C  c #85C54B",
"Z  c #8AC54B",
"A  c #86CB4C",
"S  c #8DCC4C",
"D  c #94CE4C",
"F  c #9DCF4D",
"G  c #8CD24E",
"H  c #94D74B",
"J  c #93D24D",
"K  c #9BD34B",
"L  c #9DD84E",
"P  c #8DC157",
"I  c #8BCB51",
"U  c #85C358",
"Y  c #8FC359",
"T  c #94C750",
"R  c #95CC53",
"E  c #94C45A",
"W  c #8CD152",
"Q  c #95D152",
"!  c #9BD552",
"~  c #9DDB53",
"^  c #96D559",
"/  c #9DD15D",
"(  c #A1D446",
")  c #A2D74B",
"_  c #A4DB4D",
"`  c #ACDE4E",
"'  c #A2CF5A",
"]  c #A2D552",
"[  c #A4DB52",
"{  c #ACDE53",
"}  c #A5DA5E",
"|  c #AADB59",
" . c #B0DE54",
".. c #A5E04D",
"X. c #AEE24F",
"o. c #B1E14E",
"O. c #A5E052",
"+. c #ADE050",
"@. c #ACE359",
"#. c #B0E055",
"$. c #B2E45B",
"%. c #BDE75E",
"&. c #B4E95C",
"*. c #B9E95F",
"=. c #9ACB6D",
"-. c #9CD067",
";. c #96CD72",
":. c #9EC579",
">. c #A1D262",
",. c #A7D768",
"<. c #A9D06C",
"1. c #ABDF6A",
"2. c #B2DF68",
"3. c #A7D279",
"4. c #ADD57C",
"5. c #B2DB75",
"6. c #B4D778",
"7. c #A9E665",
"8. c #A8E867",
"9. c #B6E562",
"0. c #B8E664",
"q. c #B6E962",
"w. c #BBEA64",
"e. c #B5EE6B",
"r. c #BCEA6B",
"t. c #B3E274",
"y. c #B9E370",
"u. c #BDEB7C",
"i. c #C2E661",
"p. c #C1ED62",
"a. c #C4EE6C",
"s. c #CAF66F",
"d. c #C4E776",
"f. c #C3ED74",
"g. c #C3EC7A",
"h. c #CAED7D",
"j. c #D4EF73",
"k. c #C4F278",
"l. c #CBF57E",
"z. c #CAF87B",
"x. c #D0F372",
"c. c #979696",
"v. c #BBBBBB",
"b. c #AFDE80",
"n. c #ABDB8B",
"m. c #BBDE88",
"M. c #B7D997",
"N. c #BBE386",
"B. c #BEF089",
"V. c #C5EB80",
"C. c #CBED89",
"Z. c #D6EE8A",
"A. c #C6F783",
"S. c #CAF382",
"D. c #CCFA88",
"F. c #D7F486",
"G. c #D2F881",
"H. c #D0F588",
"J. c #D8F78A",
"K. c #D6F98B",
"L. c #C5E495",
"P. c #C9E990",
"I. c #CAE79A",
"U. c #DCF897",
"Y. c #D9F79C",
"T. c #DDF79F",
"R. c #E6F686",
"E. c #E5FC86",
"W. c #E8FD8F",
"Q. c #E3F595",
"!. c #E0F498",
"~. c #EEFC9D",
"^. c #F0FE92",
"/. c #D6EEA3",
"(. c #D8EBAC",
"). c #DDF8A7",
"_. c #DBF5AC",
"`. c #E0F7A3",
"'. c #EFFAA4",
"]. c #E5F9AF",
"[. c #ECFAAE",
"{. c #F2FFA4",
"}. c #E8FBB7",
"|. c #E8FABA",
" X c #CDCDCD",
".X c #F5FECE",
"XX c #F3FFD3",
/* pixels */
"+.+.+.+.+.+.+.+.X.+.+.+.+.+.+.+.+.+.+.+.+.+.+.+.+.+.+.+.+.+.+.+.+.+.+.+.+.+.+.+.+.+.+.+.+.+.+.+.+.+.+.+.+.+.+.+.+.+.+.+.+.+.+.+.",
"+.+.+.+.+.+.+.+.+.+.+.+.+.+.+.+.+.+.+.+.+.+.+.+.+.+.+.+.+.+.+.+.+.+.+.+.+.+.+.+.+.+.+.+.+.+.+.+.+.+.+.+.+.+.+.+.+.+.+.+.+.+.+.+.",
"+.+.+.+.+.+.+.+.+.+.+.+.+.+.+.+.+.+.+.+.+.+.+.+.+.+.+.+.+.+.+.+.+.+.+.+.+.+.+.+.+.+.+.+.+.+.+.+.+.+.+.+.` { [ [ +.+.+.+.+.+.+.+.",
"+.+.+.+.+.+.+.+.+.+.+.+.+.+.+.+.+.+.+.+.+.+.+.+.+.+.+.+.+.+.+.+.+.+.+.+.+.+.+.+.+.+.+.+.+.+.+.+.+.+.` ` I B s p v T ] ] +.+.+.+.",
"+.+.+.X.+.+.+._ ` _ _ _ ` ` ` +.+.+.+.+.+.+.+.+.+.+.+.[ L L ! [ +.+.+.+.+.+.+.+.+.+.+.+.+.+.+.+.` ` ` ; @ 0 Y >.5.6.E ! _ +.+.+.",
"+.+.+.X.+.+.+._ :.M.M k U ! ` ` +.+.+.+.+.+.+.+.{ [ Z         2 ) +.+.+.+.+.+.+.+.+.+.+.+.+.` ` ` 6 * U V.~.{.{.~.'.[.<.! +.+.+.",
"+.+.+.+.+.+.` P J.#.#.!.(.g C ` { +.+.+.+.+.` ` _     v.v.v.v.  > L +.+.+.+.+.+.+.+.+.+.+.+.` ` $ # 2.W.^.R.j.i.i.i.Q./.R +.+.+.",
"+.+.+.+.+.+.` f S.#.#.#.#.T.N i { { +.+.+.+.` [ 2   v.v.v.v.v.v.  z +.+.+.+.+.+.+.+.+.+.+.` ` # & y.E.j.w.*.$.*.q.p.F.3.i _ +.+.",
"+.+.+.+.+.+.` B N.#.#.#.#.#.Z.m = +.` +.+.+.{ B   v.v. X X X Xv.  t ` +.+.+.+.+.+.+.+.+.+.` * < G.x.#.#.$.$.$.$.w.s.u.= a _ +.+.",
"+.+.+.+.+.+.+.` O -.#.#.#.#.#.C.N i +.+.+.+._     v. X X X X Xv.  q { +.+.+.+.+.+.{ +.+.[ < C a.%.+.+.+.+.+.@.$.w.e.& - l [ +.+.",
"+.+.+.+.+.+.+.+.< O ,.#.#.#.#.#.C.h G +.+.+.D   v.v. X X X X Xv.  w +.+.  q +.+.+.+.+.+.( [ a.$.{ { { { +.+.@.&.7.% # : H ` +.+.",
"+.+.+.+.+.+.+.+.` u O R #.#.#.#.#.P.q [ +.+.C   v. X X X X Xv.v.  a +.  v.  +.+.+.+.+.` ` $.{ { { { { +.+.@.@.8.% # 9 l [ _ +.+.",
"+.+.+.+.+.+.+.+.+.` r O #.#.#.#.#.#.=.C +.+.z   v. X X X Xv.v.    A o.q   +.+.+.+.+.+.+.{ +.+.+.+.+.+.{ +.@.^ o % : l [ ` +.+.+.",
"+.+.+.+.+.+.+.+.+.+.` z O #.#.#.#.#.` +.+.+.B   v. X X Xv.v.    + [ #.+.+.+.+.+.+.+.+.+.+.+.` +.[ L L ! [ +.+ 9 : x _ { _ +.+.+.",
"+.+.+.+.+.+.+.+.+.+.+.` ! Z #.#.#.+.+.+.+.+.S   v.v. Xv.v.    X W +.+.  q +.+.+.+.+.+.+.+.+.+.[     z z L L +.l G O._ _ +.+.+.+.",
"+.+.+.+.+.+.+.+.+.+.+.+.` ` ` +.+.+.+.+.+.+.! .   v.v.v.    4 c +.+.+.` _ _ _ _ _ ) _ +.+.+..   v.v.    z z +._ _ _ _ ) _ +.+.+.",
"+.+.+.+.+.+.+.+.+.+.+.+.+.+.+.+.+.+.+.+.+.+.[ r X       5 y V @.+.+._ _ ) K K K D K +.+.+.2   v.v.v.v.v.  t +.` K K D K ! +.+.+.",
"+.+.+.+.+.+.+.+.+.+.+.+.+.+.+.+.+.+.+.+.+.+.+.! z < 1 l V H +.@.+.+.] ] ! D Q ! Q +.+.+.D   v.v. X Xv.v.  q +.{ R ! Q D J [ +.+.",
"+.+.+.+.+.+.X.+.+.+.+.+.+.+.+.+.+.+.+.+.+.+.+.#.@.[ _ O.+.+.+.+.+.! >.t.V.S.S.S.l.+.+.+.C   v. X X X Xv.  w +.+.S.S.l.k.} [ +.+.",
"+.+.+.+.+.+.X.X.+.+.+.+.+.+.+.+.+.+.+.+.+.+.+.+.+.+.+.+.+.+.+.+./ g.H.S.f.w.0.9.$.+.+.+.z   v. X X Xv.  a a +.+.X.9.$.w.| +.+.+.",
"+.+.+.+.+.X.X.X.+.+.+.+.+.+.+.+.+.+.+.+.{ +.+.+.+.+.+.{ { { ] 1.D.l.r.$.$.$.@.$.$.+.+.+.B   v.v. Xv.v.  A A +.o.X.$.$.@.[ +.+.+.",
"+.+.+.+.+.+.+.X.+.+.+.+.+.+.+.` +.[ L L ! [ +.{ +.+.+.` _ _ r.z.r.@.@.@.+.+.+.+.@.+.+.+.S .   v.v.    . A [ +.+.X.+.@.[ +.+.+.+.",
"+.+.+.+.` _ _ _ _ +.+.+.+.+.+.+.[     z z L L { +.+.+.` ` *.k.w.+..._ [ _ [ [ { [ _ +.+.! ! .     . 1 A +.+.+.+.[ { [ _ +.+.+.+.",
"` +.+._ _ ) K K K D K +.` +.+..   v.v.    z z +.+.+.+.{ $.w.w.+._ L H L K F ] [ [ ! +.+.+.! z < 1 l +.+.+.+.+.+.] [ [ +.+.+.+.+.",
"+.+.+.] ] ! D Q ^ Q S J +.+.2   v.v.v.v.v.  t +.` ` { #.*.q.O.S B R <.m.I./.4.C D L +.+.+.+.+.+.+.+.+.+.+.+.+.+.+.+.D +.+.+.+.+.",
"+.+.! >.t.V.S.S.S.[ [ } +.D   v.v. X Xv.v.  q +.{ { #.&.*.! < e L.XXXXXX.X.X.Xn.s J +.{ #.&.+.+.+.+.+.+.+.+.+.+.+.+.+.+.+.+.+.+.",
"+./ g.H.S.f.w.0.9.T ] ] +.C   v. X X X Xv.  w +.+.+.#.@.S b m.|.].Y.C.g.f.h.U.}.n D { +.#.@.S +.+.+.+.+.+.+.+.+.+.+.+.+.+.+.+.+.",
"1.D.l.r.$.$.$.@.5.6.E ! +.z   v. X X Xv.  a a +.X.+.@.I E ).`.d.0.q.q.0.0.w.g._.d ! { +.@.I +.+.+.+.+.+.+.+.+.+.+.+.+.+.+.+.+.+.",
"z.a.#.@.@.+.+.+.+.'.[.<.+.B   v.v. Xv.v.  A A +.q [ Z 5.T.g.9.$.$.9.9.0.r.r.H.;.< ~ { [ [ ] [ [ +.+.+.+.+.+.+.+.+.+.+.+.+.+.+.+.",
"+.+.+.+.+.+.+.+.+.i.Q./.+.S .   v.v.    . A [ #.=.C t.K.0.$.$.$.$.$.9.0.w.f.b.8 u I B s p v T ] ] _ +.+.+.+.+.+.+.+.+.+.+.+.+.+.",
"+.+.+.+.#.#.#.+.+.+.F.3.i ! ! .     . 1 A +.#.#.' D l.%.#.#.#.#.$.9.0.9.r.B.r ; ; @ 0 Y >.5.6.E ! _ +.+.+.+.+.+.+.+.+.+.+.+.+.+.",
"+.+.+.+.+.#.#.+.+.+.+.+.+.+.! z < 1 l +.+.#.#.#.] Z $.#.#.#.#.#.$.$.9.r.t.7 6 * U V.~.{.{.~.'.[.<.! +.+.+.+.+.+.+.+.+.+.+.+.+.+.",
"+.+.+.+.+.#.#.#.+.+.+.+.+.+.+.+.+.+.+.` ` +.Q S a.$.+. . .+.#.#.#.#.0.A.r $ # 2.W.^.R.j.i.i.i.Q./.R _ +.+.+.+.+.+.+.+.+.+.+.+.+.",
"+.+.+.+.+.+.#.#.#.+.+.+.+.+.+.+.+.+.` { ` [ S } 0. .{  .{ {  .#.#.$.r.j # & y.E.j.w.*.$.*.q.p.F.3.i _ +.+.+.+.+.+.+.+.+.+.+.+.+.",
"+.+.+.+.+.+.+.+.+.+.+.+.+.+.+.+.+.+.` { { ! R 0.{ { { { { { {  .#.$.C * < G.x.#.#.$.$.$.$.w.s.u.= a _ +.+.+.+.+.+.+.+.+.+.+.+.+.",
"+.+.+.+.+.+.+.+.+.+.+.+.+.+.+.+.+.+.+.` { ] |  .{ { { { { { { { #.[ < C a.%.+.+.+.+.+.@.$.w.e.& - l [ +.+.+.+.+.+.+.+.+.+.+.+.+.",
"+.+.+.+.+.+.+.+.+.+.+.+.` _ _ _ ` ` ` _ +.] | { { +.+.+.+.+.{  .{ ( [ a.$.{ { { +.+.+.@.&.7.% # : H ` +.+.+.+.+.+.+.+.+.+.+.+.+.",
"+.+.+.+.+.+.+.+.+.+.+._ :.M.M k U ! ` ` +.+.+.{ +.+.+.+.+.+.+.{ { #.$. .{ { { { +.+.@.@.8.% # 9 l [ +.+.+.+.+.+.+.+.+.+.+.+.+.+.",
"+.+.+.+.+.+.+.+.+.+.` P J.#.#.!.(.g C ` +.+.+.` +.+.+.+.+.+.+.+.+. .+.{ { { { { { +.@.^ o % : l [ ` +.+.+.+.+.+.+.+.+.+.+.+.+.+.",
"+.+.+.+.+.+.+.` _ J ` f S.#.#.#.#.T.N i { { ` ` +.+.+.+.+.+.+.+.+.+.+.{ { { { ` { @.C + 9 : x _ { +.` +.+.+.+.+.+.+.+.+.+.+.+.+.",
"+.+.+.` +.+._ _ ) } ` B N.#.#.#.#.#.Z.m = +.` { { +.+.+.+.+.+.+.+.+.+.+.[ { { [ ! a * : l G O._ +.` +.+.+.+.+.+.+.+.+.+.+.+.+.+.",
"+.+.+.+.+.X.] ] ! ] _ +.O -.#.#.#.#.#.C.N i +.+.+.+.+.+.+.+.+.+.+.+.+.+.{ { { J , 1 3 H O.{ +.+.+.X.+.+.+.+.+.+.+.+.+.+.+.+.+.+.",
"+.+.+.+.+.! >.t.V.S.S.+.< O ,.#.#.#.#.#.C.h G +.+.+.+.+.+.+.+.+.+.+.+.+.+.{ _ K L _ [ ` +.+.+.+.+.X.+.+.+.+.+.+.+.+.+.+.+.+.+.+.",
"+.+.+.+./ g.H.S.f.w.0.+.` u O R #.#.#.#.#.P.q [ +.+.+.+.+.+.+.+.+.+.+.+.+.+.+.` ` ` ` +.+.+.+.+.` X.+.+.+.+.+.+.+.+.+.+.+.+.+.+.",
"+.+.+.1.D.l.r.$.$.$.@.5.+.` r O #.#.#.#.#.#.=.C +.! z z z z z z z z ! ! ! +.+.` ` ` { +.+.+.` +.` +.+.+.+.+.+.+.+.+.+.+.+.+.+.+.",
"+.+.+.z.a.$.@.@.+.+.+.+.'.+.` z O #.#.#.#.#.' +.! V                   5 1 ! ! ` ` ` { ` ` #.+.+.` +.+.+.+.+.+.+.+.+.+.+.+.+.+.+.",
"+.+.` +.+.+.+.+.+.+.+.+.i.Q.+.` ! Z #.#.#.#.` +.V   c.c.c.c.c.c.c.c.c.      ! ! ! ` o.o.+.+.+.X.` +.+.+.+.+.+.+.+.+.+.+.+.+.+.+.",
"+.+.` +.+.+.+.#.#.#.+.+.+.F.3.+.` ` ` ` ` ` +.5   c.c.c.c.c.v.v.v.c.c.c.c.c.    5 +.+.+.+.+.X.+.` +.+.+.+.+.+.+.+.+.K F ] [ [ +.",
"+.{ { +.+.+.+.+.#.#.+.+.+.+.+.+.` ` ` ` ` ` +.  c.c.c.v.v.v.v.v.v.v.v.v.v.c.c.c.  < ! ` ` ` X.` +.+.+.+.O.S B R <.m.I./.4.C D L ",
"+.` { +.+.+.+.+.#.#.#.+.+.+.+.[ ` ` ` ` ` +.!   c.c.v.v.v.v. X X Xv.v.v.v.v.v.c.  5 ! ` ` ` ` +.+.+.*.! < e L.XXXXXXXX.X.Xn.s J ",
"+.+.` ` ` ` ` +.+.#.#.+.{  .{ +.` ` ` ` ` ! !   c.v.v.v. X X X X X X Xv.v.v.v.c.c.  ! ` ` ` +.+.#.@.S b m.|.].Y.C.g.f.h.U.}.n D ",
"+.+.` ` ` ` ` ` ` ` ` +.+.+.+.+.` ` ` ` +.+.!   c.v.v. X X X X X X X X X Xv.v.v.c.  < ` ` ` +.+.@.I E ).`.d.0.q.q.0.0.w.g._.d +.",
"{ +.` ` ` ` ` ` ` ` ` +.+.+.+.+.+.+.+.+.+.+.V 5   c.v.v. X X X X X X X X Xv.v.v.c.  < ` ` +.+.[ Z 5.T.g.9.$.$.9.9.0.r.r.H.;.< +.",
"+.+.` ` ` ` ` ` ` ` ` _ +.+.+.+.+.+.+.+.+.+.! <   c.v.v. X X X X X X X X Xv.v.v.c.  < ` +.+.+.C t.K.0.$.$.$.$.$.9.0.w.f.b.8 +.+.",
"+.+.+.+.` ` ` ` ` ` ` +.+.+.+.+.+.+.+.+.+.+.! 5   c.c.v.v. X X X X X X Xv.v.v.c.c.  ! ` #.+.' D l.%.#.#.#.#.$.9.0.9.r.B.r ; +.+.",
"+.+.+.+.+.+.+.+.+.+.+.) +.+.+.+.+.+.+.+.+.+.! ! <   c.v.v.v.v. X Xv.v.v.v.v.v.c.c.  ! #.#.#.] Z $.#.#.#.#.#.$.$.9.r.t.7 6 +.+.+.",
"+.+.+.+._ _ ) K K K D K +.+.+.+.+.+.+.+.+.+.+.! <   c.c.c.v.v.v.v.v.v.v.c.c.c.c.  5 ! +.Q S a.$.+.#.#.+.+.@.#.#.0.A.r $ +.+.+.+.",
"+.+.+.+.] ] ! D Q ! Q D J +.+.+.+.+.+.+.+.+.+.! ! 5     c.c.c.c.c.c.c.c.c.      5 ! ! [ S } 0. .{  .{ +.{ +.#.$.r.j # +.+.+.+.+.",
"+.+.+.! -.t.V.S.S.S.l.k.} [ +.+.+.+.+.+.+.+.+.+.! ! 5 5                   < ! ! ! ! { ! R 0.{ { { { { { {  .#.$.C * +.+.+.+.+.+.",
"+.+.+.g.H.S.f.w.0.9.$.w.| +.+.+.+.+.+.+.#.#.+.+.+.! ! z ! ! ! ! ! z z 5 V ! ! ! ! ` { ] |  .{ { {  .{ { { { #.[ < +.+.+.+.+.+.+.",
"+.+.+.+.r.$.$.$.@.$.$.@.[ +.+.+.+.+.+.+.+.+.+.+.+.+.+.! ! ! ! ! +.+.+.+.+.+.+.+.+.+.{ ] | { { +.+.+.+.+.{  .{ +.+.+.+.+.+.+.+.+.",
"+.+.+.+.@.@.+.+.+.+.@.[ +.+.+.+.+.+.+.+.+.+.{ +.+.+.+.+.+.+.+.+.+.+.+.+.+.+.+.+.+.+.+.[ { { +.+.+.+.+.+.+.+.+.+.+.+.+.+.+.+.+.+.",
"+.+.+.+.+._ _ [ [ { [ _ +.+.+.+.+.+.+.+.+.+.+.+.+.+.+.+.+.+.+.+.+.+.+.+.+.+.+.+.+.+.+.{ { +.+.+.+.+.+.+.+.+.+.+.+.+.+.+.+.+.+.+.",
"_ _ +.+.+.L K F ] [ [ +.+.+.+.+.+.+.+.+.+.+.+.+.+.+.+.+.+.+.+.+.+.+.+.+.+.+.+.+.+.+.+.+.` +.+.+.+.+.+.+.+.+.+.+.+.+.+.+.+.+.+.+."
};
