/* XPM */
static char *dcad94ae21614e47e93d3ff957d6e9b9UTm9KsEz9Nv7HXqI[] = {
/* columns rows colors chars-per-pixel */
"64 64 46 1 ",
"  c #8AAD00",
". c #86B500",
"X c #8DB500",
"o c #8EBB00",
"O c #90B600",
"+ c #91BD00",
"@ c #99BF00",
"# c #8FC300",
"$ c #90C400",
"% c #92C402",
"& c #96C400",
"* c #94C701",
"= c #99C300",
"- c #9AC601",
"; c #93C800",
": c #95C800",
"> c #97C803",
", c #98C900",
"< c #98CA03",
"1 c #9CC900",
"2 c #9ECA02",
"3 c #9BCC01",
"4 c #9CCD00",
"5 c #9FCE00",
"6 c #9FD201",
"7 c #A3C500",
"8 c #A1CB00",
"9 c #A2CE00",
"0 c #A4CF00",
"q c #A8CF00",
"w c #A2D001",
"e c #A3D300",
"r c #A4D101",
"t c #A2D004",
"y c #A9D300",
"u c #AAD300",
"i c #A8D400",
"p c #ABD401",
"a c #ACD500",
"s c #A4D800",
"d c #ACD901",
"f c #ACDC00",
"g c #B3D600",
"h c #B3DB01",
"j c #B6DD00",
"k c #B8DA00",
/* pixels */
"+$$,$X#$*::$4:,$9,:$########$::*,O$$#####$::**:,4:,1o***$$##$:**",
"$$*,o###$$:$:*,*::$########$$$$O@Oo$######$:*$**$:,u*r0o+$###$#$",
"$$*:**w*#$$$*::*:$###$3####$*:*,8$$#$$$####$$$$$$:*$,***o#######",
"$$$:::*$###$$:$$$$####w#r$##$$#$$$#-o;*#####$$$$$*$::::w$$######",
"$$*:::$######$$#$$#$$,*1$$######$#:::tX$####$+$#$$#:::*X$$######",
"+$$**:9$####oooo#$$$$,,:*+######$*:*6*1*:$##$,$$###$**$########:",
"o###$4-$###ooooo#::$***1$*$#####$*::**w**###$$*$####$$$$###1*-$8",
"**oXo**#######+Xo$$$*,49*f$$#####$*:$$Ooo#$,:*$$#####ooo$$*-**,o",
",1o$#########$#$#$::::$$sXXoXXXXXo$:::$$$$ar1$###XXXXXXX$$:*$,,,",
"$$$oXXXXXXo*:::$##*:$1$*O*$oooXXo#:$:,:0$#+u,::$$oXXXXo#$$$$$*$$",
"$*:oOooooo$$$4::$###$$$*,$$##$$###**$=4h##o4$$$$$$#+o#1##$*-*+##",
":,*#$#$$$$$*$,*49####$##$$$$$$o###$44**=#####o=$###9$$4X$:,,u+$*",
"$$$$##$:$::::*+*X$##$##or+*8**.,##$1j-$$$$$$$Xh$###*u*:*;::hO$*+",
"$$,,:$*::o::*,*$$$###$#*t$:::**o####+$#$oo**++,:###$$+:$::$,##$4",
"$::4,*$::o*,:$,*o###$$$*$*$$*,4$$#$###$$#o*93,::####:**$$$*uo###",
"$4,9,$*,:O$+9+O*$###$$$**$#$:,*$##$$+$$*1*$*w,::$##oooooo$$$$###",
"$*4*,,,10o#$X19,9##,$##$$$$$o$###ooXo#$-j4::,w,$XXXXXXXXXXXXo###",
"#+-,*X$11$#$$$**:9,w$#*$$$$*+$$$$$$oXXo$#**:::*ooXXXXXXXXXXXo$$#",
"$$+-X$o*X####$*:::$:$,u*##o$*X$*4XXXXXX*w,**:*###$$+++-*,**::::$",
":$$+##$$$$+o$$,,:*$:$,**$i$$$o*11XXXXXX$$*$$$$####oXXO9,,**:*4-8",
":$:$$**9oXXXX+$1w$$:$:$$$=4**$:-1u0XXX$$######$##oXXXXOou:*$*$4-",
"w$:$:,*oXXXXXXo##$oo$:$#:a$4:$:$::uXXo$$$$$$$$$:$oXXXXX ::+$,*$1",
"#*4o*,34XXXXX+,#++1$$$$##i:::*$:*1Xoooo++$$:::,-8$oXXXX8*+oX14o*",
"$*1XX-9*X+XXX9,-*--1*$$$$$$$*$$$#oo$oooOo*$,::,*1ooX   Xoo$+*#$$",
"$*$oXo-$X-+OO,,+*,9,4$$$$$$####$$$$*$$$$$::31$i*+#o   Xo+1::$$$*",
"$*$#$X*1-*,*o,,*::::$$$$$$$#u-*$$:*$$$$$$:-+,r$########$*13$:***",
"$o##$$+**4::$*:$#::*$##*4:$#$*::+**$,$###,uX$#oo###X+*$$oo$:,1$+",
"#$##$=*4::**:$*$##$$$#$-$$$*4*:*o8*+*$###9Xo####*$o+4w$$$$$$#o$o",
"$$###:,4-*$$$ooooooo$oO*$$$**o9$#,$$#####$+$*++$,10#$,*$#$oOw*$$",
"**$##$$:-,:$$XXXXXXo##o$#***$$*$#$###o$#$*:,99$#$*,:**$$##4X$$,,",
"::$$#$$$$#$$$$##$$$###O**,:$$::##XXXXo$#$$*,qk$$#$*::$$$#oO1*$**",
"$**$$$$###$##$+$$$###or4$9**o*$###$o#####$*99*$+=+$$*:*$##$$4*:*",
"**$$ooooooo##$,9$$$#$###$$$:####$o**$#####,o###$9r1+*::$$$+$w::$",
"*$$$#XXXX+$##$***::$#########XXoor:::$#$##j$####$++***$$##$#**,$",
"###$$$$$:$$$#$o+*-:$#$$####oXXXX+:,,,$$*$########$,$*4$$#$$$$*$$",
"###$*:$:::*$$$$$**:$$$$$#$$$$oXX1d*,*$,:$$$$:$###+oo+#$8*:$$$#$$",
"##$::*$:*:$:*$##oo,:$$#$#,**$$$$*9:**,,$$:*$**$#XXXXXXO7+***$###",
"#,i,X$$ah$44d1u-#$*$#$#11,:**$$*$$#$9j*oo::,w,d#oXXXX+$*-*,*$###",
"#$#j$$*$$$$*4,$$$$$#$#-1Oh**$$,*0*##o##oo:**$,3$$$#$$$$$$#*$$###",
"$,9$o#$#########$*9+o*1+ou:,$u#,,#######$o,-o$$$##,$$$*$:#*$##$a",
":1O#$###########$$**-,*:-19$ooooooooo$$$$$,*o$4*$$1**$:$6$$##$:$",
",-**h$$$$$###$###$$$$$$$+,$oXXXXXXXXo*::*$$#$$,*$o+,:$*$14###$:*",
"**$XX+$#######X$:*+8$#$$wo##oXXXXoo$$$3:,:###-:$$ir$*o*$$$#$$$::",
"*$$$$$$##$$##,9$:*,+#$*1$#$#$$##$$$*::*:*4-#$o$$$$$d$#$$$oo+#$$$",
"*3:$#$###$1+$:**,,$#$$$+$##$::$#$:$*::*:++o$$o$::***$$#$oXXoo#$:",
"$+99#####$$*$:*$$*-o#$$$##$::,:$$:,$*:$-*+o$++$+**-*$$##$oo##$*:",
"*o$X###$$$#$$$$$$$$#######$:99:$$:4$o9,X+*$$#$+u11,$$##$$:+$$$o*",
"go#oXXXXXo#$$$$$$$$$$$####$1$i:$-,9$$oXa$-$$**,###$*uo41;*uX$#$o",
"$$oXXXXXo+###$$:*$:::,,##$$-+--o*1o$###$**,$$9$1$#$;$$$$$*u-:###",
"$$#ooooXooo#9***$:*::-u*$$$$$oo$#o$#####,,::$:$9$$#:$$$*$:**-###",
"$$####$oXXXX*$o*,:$*:11$$$*$*$##9$$#####4,*:$***$$#$$$##*o$$$$$#",
"$$$$##$$######,9,:$*O:u#$:****:,$#$oXXXo###$$$*$####$##d$o$$$$$#",
"$$::$$r9o#####o**$o*$o$#u*$,,*::*$$$oXoO+#++oo####$$,9o4*$*:4*$#",
"$$:::,9*$$ooo#$$$#+4$#$#4*$,,$$:4,o$$#X-,$*4-8o$##$$$8,$:$::91:$",
"*44::,,aoXXXXo$$#$+*$##$$$$*$#$11*1X$#o,*o,:*1o####$,h-::::$:,+#",
":,u*:49o$$$$##$X,*:*$#$:$$$$$$$o*Xo,+#*,4*:*$:$######*:::**:::##",
":*$d**#$#####o+--::*$$**$####$$$-3**1*$:,*,,1:$$#####$$$+oo$$$##",
",1o$*-o#$###$XXX8****4+$o$###$o$$:,,,*$::**:,*$$#####$$oXXo$#$##",
"91o#$ooooooo$XXX=O*XX*Xo$####$+o$$:,::$*:$$$$$$#######$$+$$$##$$",
"$++##oXXXXXX#oXXX@XXXXX$$####$$9ww-$**$$$$#$$$$$##$XXXX#oXXXX#$$",
"##$########$##oXXXXXXo$oX$###,$,::,$$$$$$$###w$$##XXXX###$$$$,*$",
"###########o+####oo$$#######$*$$$*::$$##$$9X*1O$X#######1+-*$r1o",
"$#######wr*$$#**#$9$$#######*1#$$$$$$###$#r0u4**O$$$oo#ww9,1:*4X",
"99$###,r1hw,#hr*#,1d:######$$*:94$$$$$$$$*,,94:,9$ddr$#,**$**:4-"
};
