/* XPM */
static const char *player[] = {
/* columns rows colors chars-per-pixel */
"64 64 226 2 ",
"   c #040404",
".  c #01060E",
"X  c #060609",
"o  c #010810",
"O  c #030710",
"+  c #1A1B1C",
"@  c #140E0E",
"#  c #1B1C20",
"$  c #3F5459",
"%  c #434D53",
"&  c #595251",
"*  c #744B4C",
"=  c #734744",
"-  c #6F5555",
";  c #5F615D",
":  c #5E5D63",
">  c #7C5E60",
",  c #566062",
"<  c #716967",
"1  c #7B7C7B",
"2  c #747371",
"3  c #6E6E6C",
"4  c #895E5A",
"5  c #935F54",
"6  c #8C6158",
"7  c #846969",
"8  c #996964",
"9  c #8A7C7D",
"0  c #8B736D",
"q  c #A17973",
"w  c #8AAE00",
"e  c #8DB400",
"r  c #8DBB00",
"t  c #91BD00",
"y  c #98BF00",
"u  c #91B500",
"i  c #8FC300",
"p  c #92C400",
"a  c #9AC600",
"s  c #96C901",
"d  c #9BCA01",
"f  c #9DD100",
"g  c #A2CD00",
"h  c #A3C500",
"j  c #A4D101",
"k  c #AAD501",
"l  c #ADD901",
"z  c #B3DA01",
"x  c #B4D701",
"c  c #88827D",
"v  c #AE9476",
"b  c #B49674",
"n  c #B69B76",
"m  c #AB877A",
"M  c #C59E7D",
"N  c #C7A37F",
"B  c #7C8486",
"V  c #7F979B",
"C  c #848585",
"Z  c #898582",
"A  c #8E8E8A",
"S  c #868887",
"D  c #938C88",
"F  c #90918D",
"G  c #889393",
"H  c #979895",
"J  c #86908F",
"K  c #AA8987",
"L  c #B99788",
"P  c #A59A96",
"I  c #BB9B97",
"U  c #89A29F",
"Y  c #A3A39E",
"T  c #A9A39E",
"R  c #BDA09A",
"E  c #BDA092",
"W  c #BDA082",
"Q  c #879FA4",
"!  c #BA9FA0",
"~  c #85A2A5",
"^  c #89A2A4",
"/  c #8AA5A9",
"(  c #8CAAAC",
")  c #86A4A8",
"_  c #97AAAA",
"`  c #8FB1B2",
"'  c #92B1B3",
"]  c #98B7BA",
"[  c #9EBCBE",
"{  c #9AB6B7",
"}  c #A4A4A0",
"|  c #AFADAA",
" . c #ACAAA6",
".. c #B3A9A7",
"X. c #BDB6AE",
"o. c #B8B4AE",
"O. c #A3BEBE",
"+. c #A8B9BA",
"@. c #BDB7B1",
"#. c #BCB9B4",
"$. c #BAB9B9",
"%. c #A8ADB1",
"&. c #C88D8C",
"*. c #D68B84",
"=. c #D59996",
"-. c #CC9091",
";. c #C5A783",
":. c #C9A599",
">. c #D3A99A",
",. c #D6BD9F",
"<. c #F6AC9F",
"1. c #C2ACAD",
"2. c #CBA9A5",
"3. c #DBA6A3",
"4. c #C8B2AD",
"5. c #DCB9A8",
"6. c #C2ABB1",
"7. c #C2BEB9",
"8. c #C5BAB6",
"9. c #D2BBBD",
"0. c #DABBBC",
"q. c #DAB7B3",
"w. c #D6AFB0",
"e. c #E3A7A7",
"r. c #E3A6A9",
"t. c #F6AEA1",
"y. c #F4ADAB",
"u. c #EDB3AC",
"i. c #ECB5B3",
"p. c #E9B9B9",
"a. c #F5BBB4",
"s. c #F5BEBB",
"d. c #FEBCBD",
"f. c #F7B7B4",
"g. c #EEB3AF",
"h. c #A5C1BE",
"j. c #A8C1BE",
"k. c #BFC1BC",
"l. c #C6C2BD",
"z. c #DBC1B6",
"x. c #E3C6AA",
"c. c #E3C4BB",
"v. c #ECC5B9",
"b. c #F6C9BB",
"n. c #EED0B8",
"m. c #9CBBC0",
"M. c #A2BFC1",
"N. c #A8BDC2",
"B. c #D4BCC1",
"V. c #DDBDC1",
"C. c #E1BEC3",
"Z. c #FFBCC1",
"A. c #9FC1C2",
"S. c #A4C2C4",
"D. c #AAC3C3",
"F. c #ABC6CA",
"G. c #ADCBCC",
"H. c #B1CDCD",
"J. c #B3C5C8",
"K. c #B3D1CE",
"L. c #AFCED0",
"P. c #B1CED1",
"I. c #ADD2D2",
"U. c #B3D1D3",
"Y. c #B7DDDC",
"T. c #BADCDD",
"R. c #B9D8D7",
"E. c #BADDE0",
"W. c #BBE2E1",
"Q. c #C4C4C3",
"!. c #C9C6C3",
"~. c #CDC9C4",
"^. c #CCCBCA",
"/. c #C4C8C4",
"(. c #DEC1C2",
"). c #D6C9C8",
"_. c #D4D1CD",
"`. c #C2DAD9",
"'. c #D5D5D1",
"]. c #DAD6D2",
"[. c #DAD8D4",
"{. c #DCDBD9",
"}. c #D7D8D3",
"|. c #D6C9D2",
" X c #E3C4C5",
".X c #E9C5C5",
"XX c #E4C6CA",
"oX c #E9C5CA",
"OX c #E6C9CA",
"+X c #EBCBCB",
"@X c #E9CAC7",
"#X c #F2CECC",
"$X c #F6C6C2",
"%X c #E6D1C6",
"&X c #E9D4CB",
"*X c #F9D3CE",
"=X c #EDCDD2",
"-X c #F1CFD3",
";X c #EED2D3",
":X c #EED9D5",
">X c #E6D9DA",
",X c #F2D3D3",
"<X c #FBD7D4",
"1X c #F5D9D4",
"2X c #FAD9D5",
"3X c #FAD9D4",
"4X c #F4DBD9",
"5X c #F7D9DA",
"6X c #E8E3D9",
"7X c #F9E5DB",
"8X c #F8E6D9",
"9X c #C1DFE1",
"0X c #EAE5E3",
"qX c #E9E9E7",
"wX c #F6ECE4",
"eX c #FBEBE4",
"rX c #F7E7E5",
"tX c #FEF1E5",
"yX c #FCF3EB",
"uX c #F8F6EB",
"iX c #F3F3F2",
"pX c #FAF5F3",
"aX c #F7F8F6",
"sX c #FBF9F6",
"dX c #F9F9F9",
"fX c #F6F9FB",
/* pixels */
"t p i s p e i p p s s p d s s p j s s p i i i i i p i i p s s p a t p p i p i i i p s s p p s s d s s d r p p p p p i i p s p p ",
"p i p s t i i i p p s p s p s p s s p i i i i i i i i p p p p t y t r i i i i i i i p s p p p p i s s k p j g t t i i i i p i p ",
"p p p s p p j p i p p p p s s p s p i i i p d i i i m.~ ~ ~ ~ / 6.6.6.6.6.6.p i i i i p p p p p p s p p s a p p r i i i i i i i ",
"p p p s s s p p i i i p p p p p p p i i i i j M.U.G.S.[ [ [ O.j.(. X X X X.X X6.6.i p i p p p p p p p s p s s j p p i i i i i i ",
"p p p s s s p i i i i i i p p i i p i p p s p S.U.U.U.U.U.U.P.U.OXoXoXoXoX+X+X+XOXi i i p t p i p p i s s s p e p p p i i i p i ",
"t p p s p s g p i i i i i r r r i       3 ( A.T.T.Y.Y.Y.Y.Y.T.T.:X+X.XoX.X<X3X3X1X X6.&       O i i i p p p p i i i p p p i i s ",
"r i i i p d a p i i p r r r r o o @.aX}.o o T.T.Y.T.T.T.T.T.T.T.:X3X#X+X3X3X3X3X<X1Xo o 6XaX_.Y . i i i p p p p i p i s p s p d ",
"p p r r r p p p i i i i i i . F o.@.[.iX'.F + T.T.T.T.T.T.T.Y.T.:X3X+X+X<X<X<X<X-X. | 6XqX{.~.o.| . i i i r r r p p p a p p s r ",
"s d r i i i i i i i i i i i o  .X.@.0XqX_...3 o T.T.T.T.T.T.Y.T.:X3X,X,X3X3X<X#Xo 3 #.{.0X0X~.@.#.; # e e e u e p p s p p s s s ",
"p p p r e e e e e e r p s   #.8.7.$.iX].@.7.].  R.T.T.T.T.T.Y.T.1X3X3X3X3X3X<X#X+ _.7.X.>XaX_.8.#.7.+ e e e r i p p p p p p p p ",
"i a s r t r r r r t p p p   aX{.0XpX[.@.@.@.iX  R.T.T.T.T.T.Y.T.:X3X3X3X3X3X<XOX+ qX@.X.l.].0XwX[.iXo r r i d p i p p s p t i i ",
"s s p i p p p p p p p p p   '.iXqX[.@.X.X.@.'.  R.T.T.T.T.T.T.T.:X3X3X3X3X3X<XOX+ ^.@.4.X.#.~.{.iX[.O g p p d e p s s s k t p p ",
"p p p p i i p s p s s s s p . Q._.X.@.X.@.~.7.  `.T.T.T.T.T.T.T.4X3X3X3X3X1X<XOX+ o.).@.X.@.@.l.{.o i p k p s p s s s l t p p t ",
"p p s s s p p s s t s s p s o 1 T l.@.@.~.o.2 o `.T.T.T.T.R.R.T.1X3X3X,X3X3X<X<Xo 2 #.!.@.@.~.7.C o i p p t s p s p p s i i p d ",
"p s s d s p p s s r p s s t O.o ; [.iX}.l.Z X R.Y.T.T.T.T.U.L.G.4X3X,X,X3X3X3X3XC.@ P /.6XiX0X@.  OXi i s p p p p p p k r i i i ",
"p d s g s p p s s t p t d t M.R..         o `.L.E.T.T.T.T.L.~ ~ 4X3X+X+X<X3X3X,X,X5Xo         o 5X9.p r t r t r r p p p i i i i ",
"p p d p s s s d j r p i e a M.R.W.T.T.`.K.F.S.T.E.T.T.T.I.~ [ R.4X3X+X+X,X3X3X3X<X,X5X3X3X5X5X3X3X9.e e e e e e e e e e r p p p ",
"i t a s p e p g a p i i p p O.R.T.T.T.U.F.F.U.T.T.T.T.T.U.~ ' G.4X+X X X-X3X3X3X1X,X+X#X,X,X1X3X3XXXe e e e e e r e e r r p p p ",
"i p t a e i r a r i p i i p S.R.T.R.R.S.F.G.T.T.T.T.T.Y.M.~ ' S.:X.XV.V.=X,X3X3X1X=X+X+X+X,X,X1X<X=Xp r t t a p s a p s s s s p ",
"s i p t i i p p p p t r p S.G.T.R.P.G./ G.T.Y.Y.T.T.R.P.~ ' S.D..X0.0.C.XX;X<X3X,X+X1X X(.,X,X,X1X,X+Xe e t g s s p p s p d a g ",
"s p s p p p p g r r e e r M.G.P.P.P.~ P.R.T.T.T.T.L.G.O.^ ' M.j..X9.6X1X0..X,X1X,X0.,X+X X0.OX,X,X,X9.e e e t r k s p p p p d a ",
"j p s p s s p r e e e e e ] G.P.H.P.S.R.T.T.Y.T.L.G.O.O.~ ' M.j.6.eXeX6X0..X,X,X+X0.,X3X,XXX+X,X;X;X9.6.e e e w s s t p s p p d ",
"i p d r p s d d e e e e e ] H.H.G.F.F.T.T.T.T.G.,.;.;.v ~ ' M.j.6.tXtXb ;.;.,.q.+X+X,X3X,X=X+X=X,X,X.X6.e e w d p r r e d d r p ",
"p s a e e a g p e t e e e ] L.H.S.[ U.9XT.T.G.G.G.M.M.6X~ ` ` h.6.rXuXuX8X8X9.q.c..X,X,X1X;X+XXX,X,X+X6.w w w e r r p t p i p p ",
"p p i r e r a p e a t t u ~ P.P.[ ) T.T.T.b v L ;.;.;.n 8X~ ~ M.;XB.0X6XW ;.N ;.M b @X,X,X1XOX(.,X,XoX6.w w e r r d s s p p p p ",
"p p p i i e p d a p s p ~ G.P.S.F.G.T.T.T.P.b x.:.E L m v 6X8X~ 6.=XB.v m L I :.x.b c.1X,X<X1X=XOX,X,X=X6.i i p p d d p s p p p ",
"p r i i p p t p a d s ~ S.P.G.` [ R.T.I.P.P.b eXx.2.R L #X8X8X8X4X1.XX+X4.R 2.x.rXb .X,X,X3X1X,X0.,X,X=X6.p p p t r p s s d p t ",
"i p p i p a p d s s p ~ S.H.P.] S.T.T.P.P.P.b -X$X:.R 2.5X7X7X5X8X;X6.XX2.R :.+X+Xb >..X,X<X<X1X(.,X;X+X1.j p i p p p p i r p r ",
"p p i i i s s d s p p ) S.G.G.S.G.T.T.H.P.b *.y.d.$X#X3XeXrXrXrXeXrX6. X,X#X$Xa.t.*.b z.,X3X<X,XOX,X;X+X6.d p p i i r e j p p p ",
"p p p i i p p s p s p ~ S.G.S.G.U.T.G.H.H.8.*.s.$X*X3XrXuXsXsXsXsXsX6.(.eX,X#X$Xf.*.$X,X,X,X1X1X,XOX;X+X6.p p p i i d e p p s s ",
"s s p p p p i p p i p ~ / P.) D.H.P.G.H.P.8.*.l.rXeXyXsXsXsXsXsXpX6.>XpXpXyXeX3Xb.*.$X,X,X,X,X,X;X0.=XXX6.p p p i r t d p p p a ",
"p p p p p p p i i i p ~ / G.[ G.H.H.H.H.P.J.1.H.7X7XyXuXyXyXeXsXsX;X1.].yXtX7Xc.=.g.#X,X,X,X,X,X,X X;XOX6.s p p i i p p d s s p ",
"p p p p r r r r r r r i ( M.M.S.S.H.H.H.H.G.j.H. Xn.&XwXyXwX%XyXyX%XwX6.tX&Xc.3.3.+X;X,X,X,X,X=XOX X=XoXp s s p p p t p j s s p ",
"p p p p i e e e e t i i i ~ M./ ] P.H.H.H.G.H.H.&.=.5.8XtXyXtX%X%XtXwXtX8X>.-.r..X,X,X,X,X,X;X=XV.oXXXp p p p p p p p i p p s p ",
"i i i p p p p p s p p p i p Q [ [ M.P.P.H.H.N.H.+._ P &.>.tXtXyXyXtX7X:.&.q..X+XXX.X;X,X,X;X+XXXXXB.s p p d p p i p p p i p p i ",
"i i i p p s p s s s p p p i p p p / N.t.t.<.M.P.)  .2.= = m 7X7X7X>.5 = = =.q.V.oX.Xi.u.p..X0.6.i t r r r i p g p s p p p i p p ",
"i i p s s p p s p s p s p p i i r ^ t.s.*X*Xt._ 7.! K 0 7 8 8 8 8 8 4 7 7 K p.p.V.p.a.a.a.i.0.6.e e e e e e t h t p p p p i i i ",
"i s l s e i p l z p d d l s k p i _ t.s.s.*Xt._ w.2.Y Y H < 9 } Y > c H } Y 4.w.0.a.g.a.s.u.p.6.r e e w e r p a a p s p i i p p ",
"p p i z p p p p p p p p d s i p p N.+.u.t.t.`.O.C !.dXsX!.F dXdXsXA | '.aXsXF ..+X1Xg.t.g.oX+X|.i p i p p p p p p i p p p p p i ",
"i s g p r i p i i i i i i i i i p ( H.^.Q.$.F.( fXdXdXQ.7.F dXdX/.c | !.!.dXiXiX6.<X+X$X$XXXC.6.i i s p p p p p s i p p i i i l ",
"s d t i p i i i i i i i i i p i p ~ P.T.L.S.j.~ fXdXdXiXiX| o.l.} Y ^.iXdXdXsXiX6.3X,X,X,XXXV.6.p p d p p p s p f i p i i p s p ",
"d a p p z p p p p p i i i p i p V ) P.T.U.F.S.~ iXdXdXdXiX$.T P P @.iXdXdXsXiXiX6.3X,X,X,XoXV.6.p r t p s p p p d d i i i p s s ",
"p p t e e t p i i i i i i i r S J ~ G.R.P.G.j.^ k.iXdXdXQ.A ..d.d.D o.iXdXiX/.7.6.<X,X,X,X+X(.6.C j j p p r p p p p i i i p s s ",
"p p p p p p i i i p p i i s g S J ~ S.( D.H.S.) A | iXiXA q.i.d.d.i.I P iXiXH ..6.oX#X X(.@X(.6.C p p l p i p i p t r r i i p p ",
"p d s i i p i i p p d t p s p C J ) ` ) N.H.D.~ 1.! H H 2.s.d.d.d.d.i.2.P H 1.w.6.XX-X(.B.6.B.6.C p p p p p i p r e e r r i p s ",
"p t g g i i i i i i p p p s p C Q.~ +.~ N.J.j.^ v.3.I I s.d.d.d.d.d.d.i.I I p.p.6.oX=X(.9.6.6.6.} p a p p i i i p r r p i p p p ",
"p r p e i i p p p p i p p p B Q.Q.+.Q.Q N.F.j.) v.d.d.d.d.d.d.d.d.d.d.d.d.d.d.s.6.oX=X(.9.6.)._._.C s p p i i p p s t p p p r p ",
"x r p r e e e e e r i p p i C sXsXdXQ.^ ] S.j.^ v.d.d.d.d.d.d.d.d.d.d.d.d.d.d.p.6.XX=X X!.6.0XdXdXZ p p k r d a s p k e p i p r ",
"p p r e e e e e r t i i i p C dXdXaXiX^ ] S.j.) v.d.d.d.d.d.d.d.d.d.d.d.d.d.d.p.6.XXoX(.6.iXdXaXdXZ p s p p p t p p k a s i i i ",
"p p i r r r r r r r r i g p C ^.sXdXdXU F.F.D.^ $Xd.d.d.d.d.d.d.d.d.d.d.d.d.d.p.6.XX X6.6.dXaXaX{.C i p p p p p p s p p a i i i ",
"p p i i i p p r e e e e p p B } #.^.sX^ F.F.{ ) I &.-.f.d.d.Z.d.d.Z.d.d.f.&.&.2.6.(.6.6.{.dXdX!. .i i p p p i i p r p p p p i i ",
"p p p p i i p p i i i i i i s B 1 1 $.G F.F.^ ^ 7 4 8 =.r.r.e.r.e.e.e.3.=.4 4 K 6.6.8.8.{.{.F 1 B i i p p i i z p r p p p p i i ",
"p p s s p p j g r i i i i i r p p o C C C J ^ ~ c.v.5.* * * * * * * * = = v.n.q.6.1.D C Z Z , . i i p i s g r g p p p s d p p i ",
"p p s s s d g p p p r r r i p p i i o % % % $ ^ n.n.5.>.>.6 * o . > L >.>.b.8X&X1.: % % % o r p i p p i p g s p s p s s g d s p ",
"p d d s s s s l r e e e e r p p i p t o O . o 9 yXyXn.5.5.8 * o . 7 >.b.b.8X8X9.q o o o o d r i i i i i s z a s s s s p s d t i ",
"s s k p s d g r p p p p i i p r s p s p p o o 0 yXyXyXn.n.q - o . 2 I z.8XyX{.P 7 o o p p s p i i i i i i p s p s p p s s s i i ",
"s p p l p p i p i i i i i r t a a s s p p p o Z F yXyXuXA Z ; o o S A {.yXyXP S 1 o s s d s p p i p i p i p p p p r t p p p i i ",
"s a r p p a r i p i i i p e e e g p p p p d t C qXiXdXsXiXA ; o . C _.iXsXaXiX$.C p p s s p p p i i i i i p p r e e r p i p i i ",
"g h r i i r r r r r r r p e e e y u p e r p e r %.yXyXdXdXH 1 t p B '.dXdXdXo.H s p p p p p p i p i p i i i p p t t p p i i p p ",
"p t r i i r e e e e e e i r e e e y e e e e e p S Q.dXdXdXH p g j j ^.dXdXdXH p p p i i p p p p i i p e e e r i t e e e r p p p ",
"i i p i i i i i i i i p i i r e e e e e r r p r r p C C C s i s s s s C C C p p p p i i i j p p i i r r e e i i i p p i p s p p ",
"i p p i i i i i i i i r p i i i i r r i p i i i i i i i p p i p p p s s p i i i p p g r p d t p r i i i i i i i d t a p p j d t ",
"p i i i i i i i j j s p p i p p p p g p p p i i i i i i p d i p p p p p p i i i p i g g k g p p t p p p r r i j j g s d s p d e ",
"g g p i i i s j d z j s i z j p i s s l s i i i i i i p p p s d d p p p i p p i p p s d g g s s g p l l j p i s p s p p p s d a "
};
