/* XPM */
static const char *p_down[] = {
/* columns rows colors chars-per-pixel */
"64 64 240 2 ",
"   c #02080F",
".  c #0B0B0A",
"X  c #161C0C",
"o  c #070B12",
"O  c #0D1417",
"+  c #141314",
"@  c #131D15",
"#  c #16191C",
"$  c #241819",
"%  c #181D23",
"&  c #242323",
"*  c #3E474C",
"=  c #3C4C52",
"-  c #4C4C4E",
";  c #764B4A",
":  c #745150",
">  c #5D6166",
",  c #676866",
"<  c #766B6B",
"1  c #757575",
"2  c #797977",
"3  c #8F635B",
"4  c #886B68",
"5  c #9A6A66",
"6  c #8E7870",
"7  c #837A79",
"8  c #A87B75",
"9  c #38943B",
"0  c #499635",
"q  c #4F9F36",
"w  c #549C32",
"e  c #49A437",
"r  c #56A739",
"t  c #5CB33E",
"y  c #69B03A",
"u  c #6DB33D",
"i  c #74C23D",
"p  c #53AA42",
"a  c #66A842",
"s  c #66B443",
"d  c #76B746",
"f  c #72B153",
"g  c #7E887C",
"h  c #75B26A",
"j  c #79C345",
"k  c #82BA4C",
"l  c #84887F",
"z  c #86907F",
"x  c #AB937B",
"c  c #B69878",
"v  c #8EBA71",
"b  c #B6A17E",
"n  c #85C44C",
"m  c #89C849",
"M  c #95CE4C",
"N  c #9CCD4C",
"B  c #8DD24D",
"V  c #95D54D",
"C  c #9BD34B",
"Z  c #8BC655",
"A  c #95CA55",
"S  c #95D153",
"D  c #9BD353",
"F  c #9CD857",
"G  c #A0CF4A",
"H  c #A1D446",
"J  c #A2D44B",
"K  c #A4DB4D",
"L  c #AADC4D",
"P  c #A2CF5A",
"I  c #A3D553",
"U  c #A4DB52",
"Y  c #ACDD53",
"T  c #A4DC5C",
"R  c #ABDC59",
"E  c #B1DE57",
"W  c #A5E153",
"Q  c #ADE050",
"!  c #AEE35A",
"~  c #B0E055",
"^  c #B2E45B",
"/  c #B7E85E",
"(  c #9CCB6F",
")  c #A4D565",
"_  c #ACD774",
"`  c #B3D976",
"'  c #A9E766",
"]  c #B6E562",
"[  c #B8E664",
"{  c #BAE965",
"}  c #BAE968",
"|  c #B5E375",
" . c #C2E964",
".. c #C4EB78",
"X. c #C8F47D",
"o. c #D0F172",
"O. c #7E8888",
"+. c #848B83",
"@. c #868886",
"#. c #928886",
"$. c #859288",
"%. c #95928E",
"&. c #889797",
"*. c #999896",
"=. c #A98B89",
"-. c #B6978A",
";. c #A79B98",
":. c #BD9998",
">. c #90A69B",
",. c #BEA097",
"<. c #86A3A4",
"1. c #8AA4A5",
"2. c #89A6A8",
"3. c #8CAAAB",
"4. c #96AAA9",
"5. c #90AFB0",
"6. c #95B4B4",
"7. c #9CBABB",
"8. c #A9A8A5",
"9. c #AAA9A6",
"0. c #B6A9A8",
"q. c #B4B2AE",
"w. c #BDB5AE",
"e. c #A2BEBD",
"r. c #AABBBB",
"t. c #BDB6B1",
"y. c #BCB9B4",
"u. c #BBBBBB",
"i. c #C68B89",
"p. c #D78D86",
"a. c #CB9893",
"s. c #D59A96",
"d. c #C5A785",
"f. c #C7A59C",
"g. c #D2AA9A",
"h. c #D29FA1",
"j. c #C9AAA8",
"k. c #DBA4A2",
"l. c #C7B3A9",
"z. c #D9B9A7",
"x. c #C3ACB2",
"c. c #C1BAB4",
"v. c #C6B9B8",
"b. c #D6B9B8",
"n. c #DBBDBD",
"m. c #EBACA9",
"M. c #F3AEA4",
"N. c #E5B9AE",
"B. c #F3B2A5",
"V. c #EBB4B4",
"C. c #E9BAB9",
"Z. c #F5BBB5",
"A. c #F5B9B7",
"S. c #FDBCBC",
"D. c #B3DA8A",
"F. c #BDEA88",
"G. c #A3C1BE",
"H. c #A6C1BD",
"J. c #C8ED84",
"K. c #CAF382",
"L. c #CAF787",
"P. c #D4F688",
"I. c #D3F097",
"U. c #EAFB8D",
"Y. c #E7F899",
"T. c #C5C2BC",
"R. c #DBC2BD",
"E. c #EECDB7",
"W. c #E8C4B9",
"Q. c #D8F0A6",
"!. c #EAF9A9",
"~. c #EFFDAB",
"^. c #A2BEC0",
"/. c #D4BEC2",
"(. c #DDBEC1",
"). c #E0BEC2",
"_. c #A4C2C3",
"`. c #ABC4C4",
"'. c #AEC9C7",
"]. c #ABC6C9",
"[. c #ADCBCD",
"{. c #B6C7C6",
"}. c #B1CDCE",
"|. c #B2D0CF",
" X c #B1CED0",
".X c #AFD1D1",
"XX c #B4D3D4",
"oX c #B8D6D7",
"OX c #B7DDDC",
"+X c #BADCDD",
"@X c #BBE0DF",
"#X c #BADEE0",
"$X c #C5C4C3",
"%X c #C9C6C3",
"&X c #CBC9C4",
"*X c #CDCDCC",
"=X c #DDC2C3",
"-X c #D2CBCA",
";X c #D6D2CE",
":X c #C4D9D9",
">X c #D8D6D3",
",X c #DDDBD9",
"<X c #E3C4C4",
"1X c #E9C6C6",
"2X c #E4C5C9",
"3X c #E9C6C9",
"4X c #E6C9CA",
"5X c #EBCBCC",
"6X c #F8C9C5",
"7X c #F1CDCC",
"8X c #E8D5C9",
"9X c #F6D5CD",
"0X c #E4CFD4",
"qX c #EDCED1",
"wX c #F1CED1",
"eX c #EED2D3",
"rX c #E8DAD6",
"tX c #EED9D6",
"yX c #F3D3D4",
"uX c #FAD7D4",
"iX c #F5DAD3",
"pX c #FAD9D4",
"aX c #F6DBDA",
"sX c #EAE3D7",
"dX c #F6E4D8",
"fX c #F6E5DA",
"gX c #F4FFD1",
"hX c #C0DEE0",
"jX c #E7E5E3",
"kX c #ECECEB",
"lX c #F6E9E5",
"zX c #FBECE4",
"xX c #EFF0EF",
"cX c #F8F3EA",
"vX c #FCF3EC",
"bX c #F3F3F2",
"nX c #FBF5F4",
"mX c #FDF8F6",
"MX c #F4F7F8",
"NX c #F9F9F9",
/* pixels */
"Q Q Q Q Q Q Q Q Q Q Q Q Q Q Q Q Q Q Q Q Q Q Q Q Q Q Q Q Q Q Q Q Q Q Q Q Q Q Q Q Q Q Q Q Q Q Q Q Q Q Q Q Q Q Q Q Y Y Y Q Q Q Q Q ",
"Q Q Q Q Q Q Q Q Y Y Q Q Q Q Q Q Q Q Q Q Q Q Q Q Q Q R R R R R R Y Y Y Y Y Y Y Q Q Q Q Q Q Q Q Q Q Q Q Q Q Q Q Q Q Q Q Q Q Q Q Q ",
"Q Q Q Q Q Q Q Q Q Y Q Y Q Q Q Q Q Q Q Q Q Q Q R R R 7.2.2.2.<.3.x.x.x.x.x.x.E Y Y Y Q Q Q Q Q Q Q Q Q Q L R U U Y Q Q Q Q Q Q Q ",
"Q Q Q Q Q Q Q Q Y Q Q Q Q Q Q Q Q Q Q Q Q Q Q _.XX[.`.e.^.^.e.H.=X<X<X<X<X<X<Xx.x.Y Q Q Q Q Q Q Q Q L L B n d d k A I I Q Q Q Q ",
"Q Q Q Q Q Q Q L L L L L L L L Q Q J G G I R R `.XXXXXXXXXXXXXXXX4X3X3X3X3X5X5X5X5XE Y I G G G G L L L r r a Z ) ` ` A D K Q Q Q ",
"Q Q Q Q Q Q Q L ( D.v h Z D L G J + + + > &._.+X+XOXOXOXOXOX+X+XtX5X3X3X3XuXpXpXyX5X0.- + + + O N p r Z J.Y.~.~.Y.!.!.) D Q Q Q ",
"Q Q Q Q Q Q L Z P.~ ~ Y.Q.f d # O q.bX,X% O '.+X+X+X+X+X+X+X+X+XtXuX7X5XuXpXpXpXuX4X% # ,XbX;X8.# 0 ] U.U.U.o. . . .Y.Q.A Q Q Q ",
"Q Q Q Q Q Q L d K.~ ~ Q Q Q.o %.q.t.>XxX>X*.& `.+X+X+X+X+X+X+X+XtXpX5X5XuXpXuXuX<X# 8.,XjXrX&Xw.0.O ..o. ./ / / ]  .P._ d L Q Q ",
"Q Q Q Q Q Q L n F.~ ~ ~ Q J # 8.w.t.jXjX;Xq.1 o oX+X+X+X+X+X+X+XtXpXiXyXpXpXuXwXO 1 y.>XjXjX-Xc.t., % R ^ ^ / ^ { o.| r d K Q Q ",
"Q Q Q Q Q Q Q L q ( ~ ~ Q . y.c.v.v.xX>Xt.v.>X. XX+X+X+X+X+X+X+XtXpXpXpXpXpXuX7X& &Xc.w.,XbX>XT.y.T.& U Q Q ! ^ { } r r j U Q Q ",
"Q Q Q Q Q Q Q Q y q ) ~ ~ . kX,XjXbX>Xt.t.t.xX. XX+X+X+X+X+X+X+XtXpXpXpXpXpXuX4X& ,Xt.w.T.;XjXkX,XxXO I W W ! ^ ' r e t V L Q Q ",
"Q Q Q Q Q Q Q Q L s q A ~ X T.kXjX>Xt.w.t.t.;X. XX+X+X+X+X+X+X+XtXpXpXpXpXpXuX4X& $Xc.l.w.t.&X,XbX&X# U W ! ! ' r e p j U L Q Q ",
"Q Q Q Q Q Q Q Q Q L s q ~ ~ o u.-Xc.t.t.c.&Xy.. |.+X+X+X+X+X+X+XtXpXpXpXpXpXuX5X# 8.-Xc.w.t.t.T.>XO I Y W ! F w r t j U L Q Q Q ",
"Q Q Q Q Q Q Q Q Q Q L j q ~ # 1 ;.%Xc.c.&Xq.< % oX+X+X+X+XOXoXoXtXpXpXiXpXpXuXuX% , t.%Xc.c.&Xc.7 % J Y ! n q p t j K L L Q Q Q ",
"Q Q Q Q Q Q Q Q Q Q Q L D m e.% - $XsX%Xq.7 # XXOX+X+X+X+XXX[.].aXpXyXiXpXpXpXpX<X& %.y.;XjX>X8.$ =XU L d r t j B W K L Q Q Q Q ",
"Q Q Q Q Q Q Q Q Q Q Q Q L L G.oX% + + + + O XX.X#X+X+X+XOX[.2.2.tXpX5X5XuXpXpXuXyXaX% + + + + # yXb.U L L i V L L K K J K Q Q Q ",
"Q Q Q Q Q Q Q Q Q Q Q Q Q Q e.oX@X+XhX+X}.'.`.+X#X+X+X+X.X<.7.oXtXuX5X5XyXpXpXpXuXyXaXiXpXaXiXpXpXn.Y Q K K J C C C M C D Q Q Q ",
"Q Q Q Q Q Q Q Q Q Q Q Q Q Q G.oXOX+X+X.X].].XX+X+X+X+XOXXX2.6.].tX5X<X<XqXyXpXpXiXyX5X7XyXyXyXpXpX2XE Q I I D M S D S M B U Q Q ",
"Q Q Q Q Q Q Q Q Q Q Q Q Q R _.oX+XoXoX_.]..X+X+X+X+X+XOX^.2.6._.tX<X(.(.5XiXuXpXiXqX5X5X5XyXyXyXyXqXE D ) | J.K.K.K.X...T U Q Q ",
"Q Q Q Q Q Q Q Q Q Q Q Q Q G.[.oXoXXX[.3.[.OXOXOX+XOXoX.X<.5.^.`.<Xn.n.<X2XqXyXpXiX5XiX<X=XeXyXyXyXyX3X..P.K...{ [ ] ^ { T Q Q Q ",
"Q Q Q Q Q Q Q Q Q Q Q Q Q G.[. X X X2.[.oX+X+X+X+X|.'.e.<.5.^.H.<Xn.sXiXb.<XwXyXyXn.yX5X<Xn.4XyXyXyXb.K.} ^ ^ ^ ! ^ ^ ! U Q Q Q ",
"Q Q Q Q Q Q Q Q Q Q Q Q Q 7.[. X X[._.oX+X+XOXOX|.'.r.r.<.5.^.H.x.dXzXrXb.<X7X7X5Xn.iXpXyX4X5XyXeXeX/.x.! ! ! Q W W ! U Q Q Q Q ",
"Q Q Q Q L L L L K Q Q Q Q 7.[.}.'.`.].+X+XOXOX'.z.d.d.c <.5.e.H.x.lXcXb d.d.z.b.5X5XyXuXiXqX5XqXyXyX3Xx.U K K U U R U K Q Q Q Q ",
"L Q Q K K J C C C M C Q L 6.[.}.`.7.XXhXOXoX`.`.'.e.e.8X4.5.5.e.x.lXcXcXsXsXb.b.n.W.yXyX9XyX5X2XyXyX5Xx.V V C N I U U Q Q Q Q Q ",
"Q Q Q I I D M S D S B M I 2..X[.^.3.oX+XOXx c -.d.d.d.c iX4.1.7.0X/.tXrX-.d.d.d.d.c 1XyXyXyX5X<XeXeX5Xx.E Y Q Q Q Q M Q Q Q Q Q ",
"Q Q D ) | J.K.K.K.U R ) 2.[..X^.`.[.OX+XOX}.c W.f.,.-.x x sXdX4.x.5X/.-.x -.,.f.W.c W.iXyXuXyXqX2XyXyX0Xx.Y Q Q Q Q Q Q Q Q Q Q ",
"Q F ..P.K...{ [ ] A I <._.}. X5.7.oXOX.X}.[.c lXE.j.,.-.7XdXdXdXaXx.2X4Xb.,.j.W.aXc W.yXyXpXyXyXn.yXyX5Xx.Y Q Q Q Q Q Q Q Q Q Q ",
"_ L.X.} ^ ^ ! ! ` ` A <._.[.}.7._.+XoX}.}.}.c wX6Xg.f.l.aXdXdXaXdXeXx.<Xl.f.f.1X5Xc g.1XyXpXuXyX=XyXeX5Xx.Y Q Q Q Q Q Q Q Q Q Q ",
"X. .^ ! ! Q Q W W !.!.<._.[.[._.[.+X+X}.}.c p.M.S.6X7XiXlXlXlXlXlXlXx.<XyX7X6XA.M.p.c b.yXuXuXyX4XeXeX5Xx.Y Q Q Q Q Q Q Q Q Q Q ",
"Q Q Q Q Q Q Q Q Q  .Y.2._.[.e.'.XX+X[.}.}.c.p.Z.6X9XpXlXvXmXmXmXmXvXv.<XlXiX7X6XA.p.W.yXyXyXyXyXyX4XeX5Xx.Y Q Q Q Q Q Q Q Q Q Q ",
"Q Q Q Q ~ ~ ~ Q Q Q P.<.3..X2.`.}.}.[.}. Xc.p.T.dXzXvXmXmXmXmXmXnXv.rXvXnXvXlXpXE.p.1XyXyXyXyXyXeX(.5X2Xx.Y Q Q Q Q Q Q Q Q Q Q ",
"Q Q Q Q Q ~ ~ Q Q Q Q >.3.[.7.'.[.}.}.}. X{.w.}.dXdXzXvXmXcXlXmXmXtXv.;XcXzXdXW.s.V.7XyXyXyXyXyXyX<XqX2Xl.Y Q Q Q Q Q Q Q Q Q Q ",
"Q Q Q Q Q ~ ~ ~ Q Q Q Q 3.7.^.^.`.}.}.}.}.'._.}.R.W.8XzXvXzX8XzXzX8XzXv.zX8XW.z.k.3XeXyXyXyXyXqX4X<XqX<XE Q Q Q Q Q Q Q Y Y Q Q ",
"Q Q Q Q Q Q ~ ~ ~ Q Q Q Q <.7.3.6.}.}.}.}.[.}.}.:.s.z.9XdXvXzX8X8XzXzXzXpXk.s.m.1XyXyXyXyXyXeXqX(.2X<XY Q Q Q Q Q U U U U Y Q Q ",
"Q Q Q Q Q Q Q Q Q Q Q Q Q Q <.7.G.e.}.{.{.{.^.}.r.4.;.i.a.dXzXvXvXzXdXa.i.z.<X3X2X3X5XwXyXeX5X2XR.v.U Q Q Q Q I S k k d n D Q Q ",
"Q Q Q Q Q Q Q Q Q Q Q Q Q Q Q Q Q 2.r.M.B.B.r.}.3.8.h.; ; 8 iXdXdXg.3 ; ; s.b.(.1X1XV.m.V.1Xn.x.p j U Q L L F f 1 1 1 1 1 a D U ",
"Q Q Q Q Q Q Q Q Q Q Q Q Q Q Q Q Q 1.M.A.6X9XM.4.v.,.=.6 4 4 5 5 5 5 3 4 6 =.b.).n.V.A.A.A.V.C.x.t V L Q U U a 1 u.u.u.u.u.1 s D ",
"Q Q Q Q Q Q Q Q Q Q Q Q Q Q Q Q Q 4.M.A.A.6XB.4.j.j.8.8.*.< #.8.8.< l *.8.8.j.b.n.A.A.A.A.B.C.x.j U Q L U d 1 u.u.*X*Xu.u.u.1 S ",
"Q Q Q Q Y L L L Y L Q Q Q Q Q Q Q e.r.N.M.M.:Xe.$.%XNXbX%X%.bXNXbX#.8.;XxXNX*.0.<XiXV.M.A.1X3X-XT L Q L m 1 u.u.*X*X*X*Xu.u.1 m ",
"Q Q Q Q Q U C C K C V V C N I U U 3.}.*X{.u.].3.MXNXNX&X$X%.bXbX%X+.q.%X&XbXbXbXx.uX5X7X7X2X).x.Y Q L W y 1 u.*X*X*X*X*Xu.u.1 n ",
"Q L Q Q Q Q W B m A ) D.I.Q._ n Z <. X+X X]._.1.MXNXNXbXbXq.q.u.8.8.*XbXNXNXNXbXx.uXyXyXyX2X(.x.Y Q Q U 1 u.u.*X*X*X*X*Xu.u.1 m ",
"Q Q Q Y Q D u d I.gXgXgXgXgXgXD.O.<. XOXXX[._.<.kXNXNXNXxXy.8.;.;.w.kXNXNXNXkXkXx.uXyXyXyX3X(.x.T L Q B 1 u.*X*X*X*X*X*Xu.1 0 M ",
"Q Q Y Y B k D.~.!.I.J.....X.Y.@.$.<.[.oX X[._.1.u.kXNXNXv.%.0.S.S.=.q.kXNXbX$Xv.x.yXyXyXyX5XR.x.@.Y Q j 1 u.*X*X*X*X*Xu.u.1 r K ",
"Y Q Q Z Z Q.Q...[ ] ] [ [ { ..@.$.<._.3._.[._.<.%.0.kXkX%.b.A.S.S.V.:.;.jXkX*.0.x.3XwX2X=X<X=Xx.@.Y Q j 1 u.*X*X*X*Xu.u.1 9 n K ",
"K U m ` Y...] / / ] ] [ } } L.@.&.<.5.<.^.}.`.2.j.0.;.*.j.A.S.S.S.S.V.j.;.*.j.b.x.2XwX2X/.x.n.x.@.Y Q n 1 u.u.*X*Xu.u.1 9 s K K ",
"( n | P.[ ^ ^ ^ ^ / ] [ { ..D.@.$X<.r.<.^.'.H.2.W.k.,.:.A.S.S.S.S.S.S.V.f.:.V.C.x.2XqX=Xb.x.x.x.8.R Q S 1 u.u.u.u.1 1 1 r Q Q Q ",
"P M X./ ^ ^ ^ ^ ^ ] ] ] } F.O.$X%Xr.$X1.e.].H.2.W.S.S.S.S.S.S.S.S.S.S.S.S.S.S.C.x.2XqX2Xb.x.-X;X;X@.Y T p 1 1 1 1 1 p s F Q Q Q ",
"I m ^ ~ ~ ^ ^ ^ ^ ^ ] } | p +.bXNXNX&X1.6.^.H.2.W.S.S.S.S.S.S.S.S.S.S.S.S.S.S.C.x.2XqX<X/.x.jXNXNX@.Y ! S s 1 1 a s B F Q Q Q Q ",
"..^ Q Y Y Q ~ ^ ^ ^ [ K.s e +.bXNXNXxX1.7._.H.2.W.S.S.S.S.S.S.S.S.S.S.S.S.S.S.C.x.2X2X(.x.kXNXNXbX@.Y ~ ^ W V m V W U Q Q Q Q Q ",
"[ E Y Y Y Y E ~ ! ^ } d e t +.%XbXbXNX1.].]._.2.C.A.A.S.S.S.S.S.S.S.S.S.S.A.A.C.x.2X(.x.x.bXMXbX>X+.Y Q ^ ^ ^ ! ! Q Q Q Q Q Q Q ",
"Y Y Y Y Y Y Y E ^ / m r u Q g 8.q.$XbX1.].].6.2.:.i.i.V.A.S.S.S.S.S.S.A.V.i.i.h.x.(.x.x.,XbXbX$X8.Y Q Q Q Q Q Q Q Q Q Q Q Q Q Q ",
"Y Y Y Y Y E Y E ~ U u n Q Y Q +.g 1 q.&.`.`.1.<.4 4 5 a.k.k.k.k.k.k.k.s.a.5 5 =.x.x.t.t.;X>X%.1 +.Y Q Q Q Q Q Q Q Q Q Q Q Q Q Q ",
"Y Q Q Q Q Q Y Y Y H Q Q Q Q Q Q Q @ 2 @.l @.&.<.W.E.z.: : : ; ; ; ; ; : : N.E.W.x.0.#.l l 7 , O u Y Y L Q Q Q Q Q Q Q Q Q Q Q Q ",
"Q Q Q Q Q Q Q Y Q Q Q Q Q Q Q Q Q Q @ * * = = &.E.E.N.g.g.3 : o   : -.g.g.E.dX8Xx.> - * * @ U P.v r Q L Q Q Q Q Q Q Q Q Q Q Q Q ",
"Q Q Q Q Q Q Q Q Q Q Q Q Q Q Q Q Q Q Q @ O     7 vXvXE.z.z.8 : o   < g.E.E.dXsXb.8 o   O O U ~ ~ J.v d Q Q Q Q Q Q Q Q Q Q Q Q Q ",
"Q Q Q Q Q Q Q Q Q Q Q J Q Q Q Q Q Q Q Q Q @   4 lXvXvXE.E.6 : o   < -.R.dXvX>X;.4 o o ) ~ ~ ~ ~ ~ J.f B Q Q Q Q Q Q Q Q U Q Q Q ",
"Q Q Q Q K K K C C C M C Q Q Q Q Q Q Q Q Q Q @ l *.cXvXvX*.@., o   O.%.,XvXvX8.#.7 @ s q A ~ ~ ~ ~ ~ J.a U Q Q Q Q Q Q Q U Q Q Q ",
"Q Q Q Q I I D M S S S M B Q Q Q Q Q Q Q Q Q Q z jXbXNXNXbX%., @ @ O.*XbXNXNXkXu.+.Y L s q ~ ~ ~ ~ ~ ~ ( n Q Q Q Q Q Q Q Q Q Q Q ",
"Q Q Q D ) | J.K.K.K.X...T U Q Q Q Q Q Q Q Q Q Q 8.lXvXNXNX*.g Y Q l *XNXNXNXq.>.Y Q Q L j q ~ ~ ~ ~ ~ Q Q Q Q Q Q Q Q Q Q Q Q Q ",
"Q Q Q ..P.K...{ [ ] ^ { T Q Q Q Q Q Q Q ~ ~ Q Q +.T.kXbXbX;.Y Q Y Y &XkXbXbX*.Y Q Q Q Q L D m ~ ~ ~ Q Q Q Q Q Q Q Q Q Q Q Q Q Q ",
"Q Q Q Q } ^ ^ ^ ! ^ ^ ! U Q Q Q Q Q Q Q Q Q Q Q Q Q z +.+.R Q Q L L Q z l +.Y Q Q Q Q Q Q L L L Q Q Q Q Q Q Q Q Q Q Q Q Q Q Q Q ",
"Q Q Q Q ! ! Q Q W W ! U Q Q Q Q Q Q Q Q Q Q Y Q Q Q Q Q Q Q Q Q Q L Q Q Q Q Q Q Q Q Q Q Q L Y L Q Q Q L L Q Q Q Q Q Q Q Q Q Q Q ",
"Q Q Q Q Q K K U U R U K Q Q Q Q Q Q Q Q Q Q Q Q Q Q Q Q Q Q Q Q Q Q Q Q Q Q Q Q Q Q Q Q Q Q Q Q Q Q Q Q Q Q Q Q Q Q Q Q Q Q Q Q ",
"K K Q Q Q V C N I U U Q Q Q Q Q Q Q Q Q Q Q Q Q Q Q Q Q Q Q Q Q Q Q Q Q Q Q Q Q Q Q Q Q Q Q Q Q Q Q Q Q Q Q Q Q Q Q Q Q Q Q Q Q "
};
