/* XPM */
static const char *p_left[] = {
/* columns rows colors chars-per-pixel */
"64 64 213 2 ",
"   c gray12",
".  c #1F2020",
"X  c #3A3B3B",
"o  c #553933",
"O  c #6A6027",
"+  c #424B4B",
"@  c #4D4C4B",
"#  c #475051",
"$  c #495151",
"%  c #4C5050",
"&  c #674D46",
"*  c #6D5546",
"=  c #775344",
"-  c #705851",
";  c #6D6457",
":  c #7C705C",
">  c #6C6A69",
",  c #787677",
"<  c #857339",
"1  c #82574A",
"2  c #805C56",
"3  c #957D40",
"4  c #9F7152",
"5  c #A4795C",
"6  c #956965",
"7  c #97736A",
"8  c #877572",
"9  c #957A77",
"0  c #AC7469",
"q  c #AA7A77",
"w  c #B67C7A",
"e  c #7E9A0D",
"r  c #8AAD01",
"t  c #8DB500",
"y  c #8EBB00",
"u  c #90B600",
"i  c #91BD00",
"p  c #99BF00",
"a  c #85A412",
"s  c #8BAA15",
"d  c #91AB15",
"f  c #94A91C",
"g  c #8EB220",
"h  c #95B827",
"j  c #94BF32",
"k  c #8FC300",
"l  c #92C400",
"z  c #9AC600",
"x  c #96C900",
"c  c #9BCA00",
"v  c #9FD201",
"b  c #A3C500",
"n  c #A1CD00",
"m  c #A3D100",
"M  c #AAD401",
"N  c #ACD901",
"B  c #B3D600",
"V  c #B2DA00",
"C  c #94C232",
"Z  c #9AC331",
"A  c #A5C836",
"S  c #898E47",
"D  c #A99152",
"F  c #8D847E",
"G  c #958075",
"H  c #A2877D",
"J  c #B5897C",
"K  c #BF917F",
"L  c #C0917F",
"P  c #7F8A8A",
"I  c #8D8885",
"U  c #948D84",
"Y  c #9B8C86",
"T  c #8F908C",
"R  c #99938C",
"E  c #839293",
"W  c #8A9A98",
"Q  c #939594",
"!  c #9B9997",
"~  c #A88B87",
"^  c #B98C84",
"/  c #B6938A",
"(  c #A59793",
")  c #B99793",
"_  c #99BB86",
"`  c #97B988",
"'  c #97BA88",
"]  c #99BB88",
"[  c #ADA38B",
"{  c #B9A58D",
"}  c #A5A09A",
"|  c #A9A49A",
" . c #B9A69C",
".. c #8BA4A2",
"X. c #8CA9A6",
"o. c #8DA7A9",
"O. c #8FA8AB",
"+. c #96A8A8",
"@. c #9EB1AF",
"#. c #92AFB1",
"$. c #95B3B3",
"%. c #9AB6B5",
"&. c #9AB7B9",
"*. c #9DBABB",
"=. c #ACA8A4",
"-. c #B3ACA8",
";. c #ADB1AE",
":. c #B9BAA7",
">. c #B2B2AE",
",. c #AAB7B6",
"<. c #A2BDBC",
"1. c #BAB6B1",
"2. c #B8B9B6",
"3. c #BDBDBA",
"4. c #C38C89",
"5. c #C49289",
"6. c #CC9692",
"7. c #C59C99",
"8. c #D29A96",
"9. c #CEAE95",
"0. c #C9A898",
"q. c #E09DA0",
"w. c #C8ACA6",
"e. c #D6A8A8",
"r. c #C9B6A8",
"t. c #D8B3A6",
"y. c #DBAFB1",
"u. c #C2BBB7",
"i. c #C4BBB5",
"p. c #D9BBB5",
"a. c #EAAAAA",
"s. c #F0AEAD",
"d. c #E1B6AE",
"f. c #E7B9B5",
"g. c #F3B5B2",
"h. c #F2B9B4",
"j. c #F8BDB6",
"k. c #F2BABA",
"l. c #FCBCBA",
"z. c #ABCD99",
"x. c #A3C1BE",
"c. c #B6C3BE",
"v. c #C5C3BD",
"b. c #C9C5BE",
"n. c #D9C3B5",
"m. c #E9C9BB",
"M. c #F3C2BC",
"N. c #A5BEC1",
"B. c #EBBAC0",
"V. c #F1BFC3",
"C. c #A4C2C2",
"Z. c #A2C3C5",
"A. c #AAC5C5",
"S. c #A8C8C6",
"D. c #ACC7C9",
"F. c #A7C8C9",
"G. c #ADCAC9",
"H. c #ACCBCB",
"J. c #B3C5C6",
"K. c #B7CCC6",
"L. c #B1CECE",
"P. c #B4D0CE",
"I. c #BBD1CB",
"U. c #AFCED1",
"Y. c #B4CFD1",
"T. c #AFD1D2",
"R. c #B3D3D4",
"E. c #BAD4D5",
"W. c #B6DAD7",
"Q. c #B5D6D9",
"!. c #B8D7D9",
"~. c #B8DADD",
"^. c #B9DCDD",
"/. c #B9DDDE",
"(. c #BADEE0",
"). c #CAC6C3",
"_. c #C2CAC5",
"`. c #CBC9C6",
"'. c #CCCCCA",
"]. c #D0CAC7",
"[. c #D3D0CC",
"{. c #C2DBD7",
"}. c #D9D6D3",
"|. c #DCDCD9",
" X c #E7CAC5",
".X c #EACBC3",
"XX c #F2CAC3",
"oX c #EAD4C9",
"OX c #F4D5CC",
"+X c #E7DAD4",
"@X c #E2DDD9",
"#X c #F5DED7",
"$X c #D1E0DC",
"%X c #EFE0C9",
"&X c #E6E2DB",
"*X c #F7E6DD",
"=X c #D3E3E4",
"-X c #DDE4E0",
";X c #E5E3E2",
":X c #E9E7E6",
">X c #EAE8E5",
",X c #ECEBEA",
"<X c #FCECE6",
"1X c #F2EEEB",
"2X c #FAEDEA",
"3X c #FCF7E7",
"4X c #F4F1ED",
"5X c #FDF2EC",
"6X c #E8F1F1",
"7X c #F4F5F2",
"8X c #FDF6F4",
"9X c #FDF9F4",
"0X c #FDF9F8",
/* pixels */
"i l l x l t k l x x x l c x x l n x x l k k k k k k k k l x x x x u l l k k k k k l x x x x x x c x x c y l x x l l k k l x x x ",
"l l x x y k k k l l x l x x x l x x l k k k k k k k k l l l l u p u y l k k k k k k l x x l x x k x x M x m n y i l k k k l k l ",
"l l x x x x m x k l l l x x x l x l k k k l c k k k k l x x x x n l l k l l l k k k k l l l l l l x x l x x x x y k k k k k k k ",
"l l l x x x l l k k k l l x l l l l k k k k m k m l k k l l k l l l k z y x l k k k k k l l l l l x l x x x x m l l k k k k k k ",
"l l x x x x l k k k k k k l l k l l k l l x x c l l k k k k k k l k x x x m t l k k k k l i l k l l k x x x x t l l k k k k k k ",
"i l l x x x n l k k k k y y y y k l l l l x x x x ` ' ' ' ' ' ' ' ' ] ' ] ' ] ' ' l k k l x l l k k k l x x l k k k k k k k k x ",
"y k k k l c z l k k k y y y y y k x x l x x x _ ' G.o.*.*.Z.Z.Z.Z.Z.Z.Z.Z.C.C.C.G.' ' k l l x l k k k k l l l l k k k c x z l n ",
"x x y t y x l k k k k k k k y t y l l l x _ ] G.*.A.*.R.R.Q.Q.Q.Q.Q.Q.+ + + E.Q.Q.F.G.] ' x l l k k k k y y y y l l x z x l x y ",
"x c y l k k k k k k k k k k k k k l x x _ %.F.G.C.G.R./.~././././.~.$ , Q , $ Q.~.~.W.G.G.' k k k t t t t t t t l l x x l x x x ",
"l l l y t t t t t t y x x x x l k k l _ G.S.Q.U.G.Q.~./././././.~.$ , `.|.-.  Q.~.~././.~.x.] l l y t t t t y k l l l l l x l l ",
"l x x y y y y y y y l l l c x x l k k %.T.Q.~.Q.Q./././././.~.{.$ > `.;X1X&XF # # /.~././.Q.*.l l l k i y k c k k l x z x i k k ",
"x x x k k k l l l l l x l x x c n k k %.~././.~.~./././././.~.~.. >.;X:X4X4X@XR > $ /./././.Q.z.k k k n l l c t l x x x M i l x ",
"l l l l k k l x l x x x x x i x t l ' R./././././././././././.~.. `.:X:X,X1X4X|.!   ~././././.F.' k k x M x x x x x x V u l x i ",
"l l x x x l x x x y x x x x l l l l O./././././././././.~././.~.. b.b.:X:X,X,X}.Q   ~././././.Q.G.' k l l i x l x x l x k k l c ",
"l x x c x x l x x y x x x i x x y k X./././././././././.Q.~./.~.. ).v.b.:X:X@X@ X o././././././.P.&.k k x x x l l l x M y k k k ",
"l c x n x l l x x u l i c i u x l k X.~./.(.~./././.~.~.Q.~.~.~.O.@ b.v.}.[.% o.o.~././././././.R.G.' y y y y y y l l l l k k k ",
"l x c x x x x c n y k k t c n x n k X.~./.(.Q.Q././././.~./.Q.Q.~.O.@ @ @ @ o.~.Q.Q././././.Q././.Q.&.t t t t t t t t t y k l l ",
"k i z x x t l c z l k k l l x x x n X.~././.G.U././././././././.Q.~.O.o.o.o.~.~.Q.T././././.Q.Q././.G.' t t t t t t t t y l l l ",
"l l i z t l y l t k k k k l l x x x ../././.F.G././././././././.!.R.R.Q./.~././.Q.T././././.~.R.Q.!.L.&.i i z l x x x x x x x l ",
"x l l i k k l l l l i y l l x x x x $./././.T.G././././././././.~.G.G.R./././././.R././././.~.T.R.R.P.&.t u n x x x x x x c z n ",
"x l x l l x x n y t t t t i l c m l C G.~./.R.<.G.Q./.{.{././././.Q.G.%.G././././.P./././././.Q.L.G.R.&.t t u y M x x l x l c z ",
"m l x l x x l y t t t t t t y k k l y C.R.R.L.D.&.*._.[ { :.K./././.Q.F.G././././.G.R./.~./././.R.U.R.&.t t t r x x i l x l l c ",
"k x c y x x c c t t t t t i z k i i z Z <.G.K.$X-X-X>XoXr.i.I./.W.W.Q.Q.A.R./././.C.S.~././././.Q.L.G.&.t t t c l i y t x c y x ",
"l x z t t z n l t i t t t n x z l z z c %.J.u.+X5X3X3Xm.t.r.:.:.:.I./.~.C.F././.!.C.F.~././././.R.G.A.&.r r r t y y l i l k l l ",
"l l l y t y z l t z i u u x x i x x n x Z <.w..X5X<X%X{ 0.0.0.0.[ c./.~.A.*./././.S.G./././././.U.A.x.&.r r t y i c x x l l l x ",
"l x l k l t l c z x x l y x x x x x x x l C ^ .X8X&Xn./ 7.w.n.9. .P././.L.$.Q.~.!.G.T./././././.G.C.<.&.k k k l x c c l x x x x ",
"l y k k l l i l x c x x l x x l k x x x l k K .X5X2X*Xr.t.f..Xp.| K./.(.L.*.R.Q.Q.G.G./.~./.(.~.G.C.<.&.i x l l y y l x x c l i ",
"k l k k l z l c x x x x x l x l k k l l l D t.#X<X2X<XOXXXM.M.i.} c././.P.C.G.R.R.G.G.R.Q./.~.Q.A.C.<.&.c m l l l l l l k y l y ",
"l l k k k x x c x x l l l y y y y y y y l 0 p.5X5X5X5X*XOXXXM.1.@.J.R.R.L.C.L.L.L.G.G.R.R.R.R.G.A.x.,.&.l x x l k k y u n x l l ",
"x x l k k l l x x x x l l t t t t t t y k 0 d.5X8X8X8X5X<X#XoX3.%.L.L.L.L.C.L.G.L.G.D.L.L.L.L.G.A.x.%.C x x l l k k c t l l z x ",
"x x l l k l l l l k l l l l k k l l l k k 4 L XX5X8X0X8X8X1X`.,.A.L.L.L.L.C.H.H.H.N.*.A.G.L.L.A.C.<.&.x x l l l k y u c x l x x ",
"l x x l l l l k k k l k k l i l l l k k k d 4 5.XX<X8X8X0X7XJ.&.L.L.L.L.G.C.H.L.G.%.$.C.S.S.S.C.%.&.j l x x x l k k l l c x x x ",
"x x l l y y y y y y y k k l x n l l l k k k d 5 t..X+X<X8X4XA.$.G.L.L.G.G.C.G.G.A.&.%.<.C.C.C.%.%.A c i x x x l k l i l m x x l ",
"x l k k k t t t t i l k k l x x x x x l k k k d J 0.t.OX*X*X,.#.D.L.L.G.C.<.C.C.C.*.<.C.x.x.x.%.j i i x x x l k k k l k x x x l ",
"k k k k l l l l x l l l k l y i x z x l k k k k H  .t.e.y.p.;.%.N.c.f.f.<.N.<.<.%.$.*.*.<.*.*.C k l x l l c l k k l l l l l l l ",
"k k k l x x l x x x x l l l l l x l x l k k k S 1.i.( i.+X@Xv.&.*.p.h.f.p.*.&.&.&.%.&.&.&.C C k k i y y i k l n x x l l l k l l ",
"k k l x x x l x x x l x x l k k y y x x l k k : -.-.Q '.|.,X2.W &.f.j.M.h.&.> j j C C C C x l k t t t t t t u b i x x x l k k k ",
"k x M x t l l N V l c c N c M z k l x l k k k * Y | =.;X:X,X>.W &.p.h.h.].&.& y y x x x m x N k y t t t t u i l z x x x l k k k ",
"k l k V l l x l l l l x c x l l l l l k l l z & ~  .} |.7X1X;.W *._.`.).!.&.9 < y x x x l x c l l l k l l l l l l k x l l k k k ",
"l x n l y k l k k k k k k k k k l x n i u x c = 6.d.w.=.|.}.=.E *.E.E.Y./.+.e.7 i y x z y l l l k k x l l l x l x k x l k k l N ",
"x c u k l k k k k k k k k k k k l l x x x x x 6 a.l.k.r.| } T E *.E.!.R.~...B.8.D l x x y l c x l l c x x l x l v l l k k l x l ",
"x x x x V l l l l l k k k l k k k l l l l l 3 4.g.l.l.k.) ( U E %.R.R.G.E...V.g.4.l l k l l x x l y i x x l x l c c k k k l x x ",
"x x l t t i l k k k k k k k t l x l i n l < 0 a.l.l.l.l.s.7.R E $.G.G.C.L...V.l.6.< k k k z x l l m m l x y l l l l k k k l x x ",
"x l l l l l l k k l l k k x n l x x x i < w q.l.l.l.l.l.k.~ =.@.$.D.N.#.C...y.g.s.q O k l y l l l l l N l k l l l y y y k k l l ",
"x c x l k l k k k l c i l x x x x x l k 1 w a.l.l.l.l.l.k.Y _.I.$.D.N.$.&.$.! e.l.^ o k l y l x x x x x l l k l y t t y y k l x ",
"l u n n k k k k k k l x l x x l l x z y s 1 w s.l.l.l.l.k.Y '.{.$.D.N.&.=X&.I 7.a.q o k i i l i x x z x l l k k l y y k k l x x ",
"x y l t k k k l l l k l l l l l l l l k k a = 6.j.l.l.l.k.Y 3.J.$.D.<.&.6X,.I H q 2 e k k l i M c c x l l k k l l x i l l l y x ",
"B y k y t t t t t y k l l l l l l l l l l l a 7 5.6.6.g.l./ =.@.$.A.<.&.-X-.8 - f d l l x x x k k k l x M y c z x x M t l k l y ",
"l l y t t t t t y i k k k l l x x l x x x x x = q ^ ^ J 4.q 9 P $.*.&.&.>.h s a x x x l l n l c l k l x l l l l l x M z x k k k ",
"l l k y y y y t y y y k n x x x l x x x x z M * 0.m..X/ 6 6 9 Q %.,.,.&.h k l k x x x x l x l n l k k x l l l x l x x x z k k k ",
"l l k k k k l y t t t t x l y l x x l x x c c * w.+X<X X6 6 ) >.&.c.u.! k k k k c x x x x x x x l l k l l l k k x y l l k l k k ",
"l l l l k k l l k k k k k k x n x x l x u x M ; ! v.4X1X9 7 0.3.&.'.p.G t t t y k k k k l l x l k k k k l k k N l y l l l l l k ",
"l l x x l l m n y k k k k k y x x l y x l y l ; 3.;X7X9XF 7 0.3.c.>Xn.7 y t y u i k y i y y k k k k k l x n y c x l x x c l l k ",
"l l x x x x n x l l y y y k l l l k i c l k l ; ! } } } h 9 Y 1.>Xb.R G l k t z x i l c z n y l k k k l l n x l x x x x n c x l ",
"l c c x x x x N y t t t t y l l k l i x l k k s g g g g l U 2.;X0X&X1.F l k y x x y x x x c y k k k k k x V z x x x x l x x i k ",
"x x M x x c n y l l l l k k l t x x x x l k l x l l l l l U '.0X0X}.( ; i k l x c x x x l x l k k k k k k x x x x x x x x x k k ",
"x x l N l x k l k k k k k y i z z x x x l l x x l k k k k U u.@X&X| ; a c x l x x x x x c x l l k k k k k l l l i y y l l l k k ",
"x z y l x z y k l k k k l t t t n x x l x c i l y l k k k g j A A h s x x x l x x l l x x x l l k k k k k l l y t t y l k l k k ",
"n z y k l y y y y y y y l t t t z u l t t l t y l k k k k l i y l l x x x x l x x l l l l l l k k k k k k k l l i l l l k k k l ",
"l i i k k y t t t t t t k y t t t p t t t t t l l k k k k l l n m m z l x x l l l l k k l l l l k k l t t t t k y t t t t k k k ",
"k k l k k k k k k k k l k k y t t t t t t y l y t l k k k x l x x x x l l l l l l l k k k m l l k k t t t t k k k l l l l x x l ",
"k k k k k k k k k k k y i k k k k y y l l k k k k k k k l x l l l x x x l k k k l l n t x c u l t k k k k k k k c i z x l m c y ",
"l k k k k k k k m m x l l k x x k l n l l k k k k k k k x c k l l l l l l k k k l k m n M c x x u l l l y y k m m n x c x x c t ",
"n n l k k k x m c V m x k V m x k x c N x k k k k k k l l x x n c l l l l l l l l x x x n c x x n l N N m l k x x x l x l x c z "
};
