/* XPM */
static const char *p_left[] = {
/* columns rows colors chars-per-pixel */
"64 64 239 2 ",
"   c #232323",
".  c #2A2B2B",
"X  c #302F2F",
"o  c #2E3131",
"O  c #594334",
"+  c #604C36",
"@  c #5D5A48",
"#  c #714C44",
"$  c #6A5548",
"%  c #785949",
"&  c #6D5D53",
"*  c #6C6455",
"=  c #796C62",
"-  c #757575",
";  c #7A7A79",
":  c #875A51",
">  c #886457",
",  c #9A6B53",
"<  c #A3795C",
"1  c #8E6E6B",
"2  c #99776C",
"3  c #977773",
"4  c #A9786E",
"5  c #A97975",
"6  c #B57B7B",
"7  c #38943B",
"8  c #4F9F36",
"9  c #489738",
"0  c #529B32",
"q  c #4AA236",
"w  c #46A93B",
"e  c #54A535",
"r  c #52A63A",
"t  c #59A83A",
"y  c #5AAD3D",
"u  c #5CB33D",
"i  c #6BB735",
"p  c #6AB039",
"a  c #6CB33D",
"s  c #74C23D",
"d  c #48A642",
"f  c #5BA943",
"g  c #53B141",
"h  c #66A842",
"j  c #62B344",
"k  c #6AB745",
"l  c #75B742",
"z  c #78B947",
"x  c #71AF54",
"c  c #75B26A",
"v  c #75C345",
"b  c #7DC444",
"n  c #82BA4B",
"m  c #80B656",
"M  c #8D857C",
"N  c #908677",
"B  c #B28B75",
"V  c #8CBA73",
"C  c #8EBC70",
"Z  c #87C648",
"A  c #84C54C",
"S  c #8DCC4B",
"D  c #94CE4C",
"F  c #9DCF4D",
"G  c #8DD24D",
"H  c #94D74B",
"J  c #94D34D",
"K  c #9BD34B",
"L  c #9BD84D",
"P  c #8AC457",
"I  c #95C756",
"U  c #95CC52",
"Y  c #95D153",
"T  c #9BD453",
"R  c #9CD657",
"E  c #A1D446",
"W  c #A2D64C",
"Q  c #A8D34F",
"!  c #A4DB4D",
"~  c #AADD4D",
"^  c #A4CF55",
"/  c #A2D553",
"(  c #A9D552",
")  c #A4DB52",
"_  c #ACDD53",
"`  c #A5DB5D",
"'  c #ACDC5B",
"]  c #B0DF54",
"[  c #B2DA59",
"{  c #A5E04D",
"}  c #AEE14F",
"|  c #B0E14E",
" . c #A5E051",
".. c #ADE050",
"X. c #A5E258",
"o. c #ADE35A",
"O. c #B0E055",
"+. c #B2E45B",
"@. c #B8E85E",
"#. c #9ACB6D",
"$. c #9CD067",
"%. c #9CC777",
"&. c #A7D766",
"*. c #B2DF68",
"=. c #A9D37A",
"-. c #B3D976",
";. c #A9E766",
":. c #B6E562",
">. c #B8E664",
",. c #B5EB65",
"<. c #BAEA64",
"1. c #BCE96B",
"2. c #B6E475",
"3. c #C1E862",
"4. c #C3EE6C",
"5. c #C4EC76",
"6. c #C3EC7A",
"7. c #CFF271",
"8. c #CBF57E",
"9. c #788585",
"0. c #898784",
"q. c #948B87",
"w. c #96928B",
"e. c #9B948C",
"r. c #879797",
"t. c #999694",
"y. c #A98F8B",
"u. c #B68A83",
"i. c #B7968A",
"p. c #A79D98",
"a. c #9BA29B",
"s. c #A9A39B",
"d. c #B5AD96",
"f. c #A09FA0",
"g. c #8DA8A8",
"h. c #96A6A7",
"j. c #9CB5AF",
"k. c #9CBBAD",
"l. c #92AFB1",
"z. c #95B3B3",
"x. c #9AB5B5",
"c. c #9CBAB3",
"v. c #9BB7B9",
"b. c #9DBABA",
"n. c #AAAAA7",
"m. c #B1ACA7",
"M. c #B5B3AB",
"N. c #A5B7B7",
"B. c #A2BDBD",
"V. c #B7B9B5",
"C. c #BBBBBB",
"Z. c #C8928B",
"A. c #C99A96",
"S. c #CCAC95",
"D. c #C5A49A",
"F. c #C9ABA7",
"G. c #D8A9AB",
"H. c #D6B5A8",
"J. c #C7BCB6",
"K. c #D9B8B3",
"L. c #E9A8A7",
"P. c #F1ADB0",
"I. c #E9B9B4",
"U. c #F3B4B3",
"Y. c #F6B9B6",
"T. c #FCBDBB",
"R. c #B5DB8E",
"E. c #BBE386",
"W. c #BEF089",
"Q. c #A3C0BD",
"!. c #B5C4BD",
"~. c #C8EC85",
"^. c #CAF282",
"/. c #CBF887",
"(. c #D5F688",
"). c #CEEA91",
"_. c #DBF79C",
"`. c #E6FA89",
"'. c #E5F698",
"]. c #F0FE92",
"[. c #C5C4BC",
"{. c #D7C1B2",
"}. c #E8C5BC",
"|. c #F2C8BC",
" X c #D7EDA7",
".X c #DCF7AA",
"XX c #EAF9A9",
"oX c #EDFDAE",
"OX c #9EBFC1",
"+X c #A3BEC1",
"@X c #F3BEC1",
"#X c #A4C2C2",
"$X c #AAC5C5",
"%X c #ABC8C6",
"&X c #A6C6C9",
"*X c #AAC8C9",
"=X c #ACCBCC",
"-X c #B8C9C6",
";X c #B1CECD",
":X c #B7D3C9",
">X c #B3D0CF",
",X c #AECED0",
"<X c #B2CFD0",
"1X c #AED1D2",
"2X c #B3D3D4",
"3X c #BAD5D5",
"4X c #B9DCD6",
"5X c #B6D6D8",
"6X c #B9D7D8",
"7X c #B6DBDC",
"8X c #B9DCDE",
"9X c #BBDEE0",
"0X c #B8E0E0",
"qX c #C9C8C3",
"wX c #CDCDCD",
"eX c #CDD0CC",
"rX c #D4D1CD",
"tX c #C2DDD6",
"yX c #D8D7D4",
"uX c #EBCDC7",
"iX c #F4C5C3",
"pX c #E8D3CC",
"aX c #F7D5CB",
"sX c #E7DDD6",
"dX c #F4DAD3",
"fX c #F5FECE",
"gX c #F8E4D8",
"hX c #F4FBD6",
"jX c #DDE7E1",
"kX c #E6E7E7",
"lX c #EAE9E7",
"zX c #EDEBEA",
"xX c #F8ECE7",
"cX c #F4F2ED",
"vX c #FEF4E8",
"bX c #FDF3EC",
"nX c #FEF6F3",
"mX c #F8F6F5",
"MX c #FCF9F6",
/* pixels */
"................................................................................................................_ _ _ ..........",
"................_ _ ................................................................................................_ _ ........",
".................._ ....................................................................................~ ' ) ) ........} ....} ",
"....................................................................................................~ ~ G Z l z n U / / ......} ",
"..............~ ~ ! ~ ~ ~ ~ ~ ........................) K K T ) ................................~ ~ ~ y t h P &.-.-.I T ! ......",
"..............~ %.R.V c P T ~ ~ ................_ ) Z - - - - a W ..........................~ ~ ~ d r P ~.'.oXXX'.XXoX&.T ......",
"............~ P (.O.O.'. Xx A ~ _ ......} ' c.c.c.x.x.b.b.b.b.x.x.c.c.c.c.k.................~ ~ w q *.`.].`.7.3.3.3.'. XU ......",
"............~ z ^.O.O.O.O._.V l _ _ ..' c.b.;Xg.b.OX&X&X&X&X&X&X&X&X$X&X$X;Xc.k...........~ ~ q y 2.`.7.3.@.@.@.:.3.(.=.l ! ....",
"............~ Z E.O.O.O.O.O.(.C t ' c.b.;XB.Q.#X5X5X8X8X8X8X7X=X    o tX7X5X2X;Xc.k.......~ r a (.7.O.O.+.+.@.+.<.7.2.t l ! ....",
"..............~ 8 $.O.O.O.O.O.~.V x.x.=X*X$X;X5X9X8X8X8X8X8X=X. f.V.0.o 7X8X8X5X3X;Xk...) a A 4.@.o.o.o.o.o.o.+.<.,.t y v ) ....",
"................a 8 &.O.O.O.O.' b.;X=X5X2X2X7X8X8X8X8X9X8X=X. t.yXkXm.. 7X7X7X8X8X8X#Xk.E ) 4.O._ _ ' ' o.o.o.+.;.e q u H ~ ....",
"................~ k 8 U O.O.O.' b.1X7X8X5X5X9X8X8X8X8X8X;X. 0.sXlXcXzXp.  o tX7X9X8X7Xc.~ O.' _ _ _ _ o.o.X.o.;.e q g v ) ~ ....",
"..................~ j 8 O.O.O.' b.8X8X8X8X8X8X8X8X8X8X8X=X. qXlXlXcXcXzXM.; o 8X8X8X8X7X:X~ ~ ~ ~ _ _ _ o.o.R 0 e u v ) ~ ......",
"....................~ b 8 O.' b.8X8X8X8X8X8X8X8X8X8X8X8X=X. rXlXlXlXzXcXkXt.. 8X8X8X8X7X#Xk.~ ~ ~ ~ ~ _ o.A 8 g u b ! _ ~ ......",
"......................~ T S ' l.8X8X8X8X8X8X8X8X8X7X8X8X=X. [.J.lXlXlXkXwX0.. 9X8X8X8X8X8X;Xk...} ~ ~ ~ l r u v G  .! ~ ........",
"........................~ ~ _ l.8X8X9X9X8X8X8X8X8X5X8X8X=X. qX[.J.lXkXwX  . 2X8X8X8X8X8X8X;Xc...} } ~ ~ ~ s H ! ! ! ! W ! ......",
"............................' l.8X8X9X7X7X8X8X8X8X5X8X7X7X&XX qXqXrXJ.o 2X2X7X8X8X8X8X8X8X3X;Xk._ ......! ! W K K K D K T ......",
"............................_ g.8X8X8X5X5X8X8X8X8X8X8X5X6X7X&X      o 2X7X5X5X8X8X8X8X5X8X7X2Xc._ o.' ../ / K D U R Y D J ) ....",
"............} ............_ _ g.8X8X8X=X,X8X8X8X8X8X8X8X7X5X7X2X2X2X2X7X8X5X1X8X8X8X8X7X5X5X6X;Xk._ ..R ` 2.~.^.^.^.8.6.` ) ....",
"............} } ............_ g.8X8X8X*X=X8X8X8X8X8X8X8X8X5X=X<X5X8X8X8X8X5X2X8X8X8X8X7X1X5X5X=Xc...R 6.(.^.5.<.>.:.+.<.` ......",
"............} } ............' b.8X8X8X2X,X7X8X8X8X8X8X8X8X8X=X*X1X8X8X8X8X7X5X8X8X8X8X7X1X<X2X>Xc.*./.8.1.+.+.+.o.+.+.o.) ......",
"............................~ _ *X8X7X2Xb.&X5X4XtXtX4X4X9X8X5X&Xl.=X8X8X8X5X>X5X9X8X8X8X5X=X=X>Xc.8.4.+.o.o.o.o.o.o.o.) ........",
"........~ ! ! ! ! ........~ %.R.$X;X;X;X=Xz.b.[.B B d.-X8X8X7X5X2X<X8X8X8X7X*X1X8X8X8X8X8X2X2X>Xc.<...{ ! ! ! ) ) ' ) ! ........",
"~ o.o.! ! W K K K D K ..~ P (.o.*.b.%X-XjXcXcXbXgX{.[.3X4X4X4X8X8X$X2X8X8X5Xb.#X8X8X8X8X8X2X;X%Xc.o.! L H L K F / ) ) ..........",
"..o.../ / T D Y R U S D ~ z ^.O.' b.-XJ.pXbXvXgX{.S.S.S.d.d.-X8X8X#X=X8X8X5X#X=X8X8X8X8X8X2X$X#Xc.S ................D ..........",
"....R &.2.~.^.^.^.( _ ` ~ Z E.] ' *.v.F.uXnXgX}.i.D.S.S.Z.p.%X8X8X*Xb.0X8X5X*X1X8X8X8X8X7X=X&XB.c.} ..} ........................",
"..R 6.(.^.5.<.:.:.U / / ! ..8 $.O.' ' u.uXnXsXK.i.D.H.}.H.M.3X8X8X;Xz.5X7X5X*X2X8X8X8X8X8X=X#XB.c.} } } ........................",
"*./.8.1.+.+.o.o.-.-.I T ! ..a 8 &.O.[ Z.aXxXbXxXK.I.}.uXJ.s.-X8X9X;X#X;X2X2X*X=X6X8X8X9X5X*X#XB.c.} } } ........................",
"8.4.+.o.o.o.o.o.o.XXoX&.T } ~ k 8 I B K.gXxXxXxXdXiX|.I.M.a.!.4X6X=X#X;X;X<X*X*X2X5X5X5X2X$X#XB.c.......................} } ....",
"..................3.'. XU ~ } ~ j 0 4 }.bXnXnXnXxXdXiX}.V.j.-X>X;X;X#X;X;X=X*X*X,X2X2X>X=X$XQ.j.c.! ....................} } ....",
"......} O.O.O.......(.=.l ! ..} ~ n B I.vXnXMXnXnXxXgXpX!.b.;X=X;X;X#X;X;X;X*X*X;X;X;X;X=X$XB.c.R ! ......................} .._ ",
"......} ..O.O.....................Q , B |.vXnXMXMXnXzX-XN.=X;X;X;X=X#X;X;X=Xb.x.$X=X;X;X#X#Xc.B.&.T .........................._ ",
"....} } ..O.O.O..................._ Q , B |.xXnXnXMXzX$Xv.<X;X=X;X=X#X=X;X*Xz.z.#X#X#X#XB.j.c.'. XU ~ .................._ _ ....",
"............O.O.O...................~ ( < S.}.uXxXnXzXB.z.=X;X;X=X*X#X*X$X#Xb.b.B.#X#X#Xz.c.3.(.=.l ! ............) ) ) ) _ _ _ ",
"....................................~ _ ( B A.H.aXgXdXN.z.*X;X;X%X#XB.Q.Q.Q.b.#X#XQ.Q.Q.c.<.7.2.t l ! ........( U n n z A T ....",
"......................................~ ` y.m.H.A.G.F.n.v.B.C.Y.I.B.+Xb.b.z.l.b.b.N.v.c.+.<.,.t y v ) ..~ ~ R z - - - - - h R ) ",
"................................} ....) N qXJ.w.qXlXzXqXv.b.K.U.I.I.b.v.v.v.v.v.b.c.' o.+.;.e q u H ~ ..) ) h - C.C.C.C.C.- k T ",
"..................o.............} } ..( = n.n.t.rXyXlXn.r.N.U.T.|.I.z.& _ ' ' ' ' X.X.o.;.e q g v ) ..~ ) l - C.C.wXwXC.C.C.- U ",
"........_ ~ ~ ~ _ ~ ............~ ~ ..Q $ N s.M.lXzXlXn.r.b.{.Y.Y.eXz.$ ' ' _ _ _ o.o.R 0 e u v ) ~ ..~ Z - C.C.wXwXwXwXC.C.- S ",
"..........) K K ! L H L K F / ) ) ....Q # u.D.s.yXMXzXn.r.Q.:XwX-X5Xx.5 > ' ' ! _ o.A q g u b ! _ ..~  .p - C.wXwXwXwXwXC.C.- A ",
"..~ ........ .S Z U &.E.). X=.A D K _ Q : A.I.F.p.yXwXh.r.b.6X6X2X5Xh.G.4 _ _ ) T l r u v G  .! ..} ..) - C.C.wXwXwXwXwXC.C.- S ",
"......_ _ T a l ).fXhXfXfXfXfXR.z J ..( 5 U.T.@XK.e.w.0.r.b.6X5X2X6Xh.Y.L.B ' J i i s H  ._ ......} ..G - C.wXwXwXwXwXwXC.- 9 D ",
"...._ _ S n E.oXXX_.~.6.5.6._.oXm D ( , A.U.T.T.Y.A.i.q.r.x.2X2X=X<Xh.iXY.Z.! K L ! ) ~ ..........} ..b - C.wXwXwXwXwXC.C.- r ! ",
"_ .._ P P .XXX5.>.:.:.>.>.<.6..Xz U : 6 U.T.T.T.T.U.D.e.r.x.=X=X#X*Xh.iXY.Z.% ~ ~ ~ ~ ..........} } ..b - C.wXwXwXwXC.C.- 7 A ! ",
"! ) Z -._.6.:.@.@.:.:.>.,.1./.#.p : Z.P.T.T.T.T.T.I.e.M.N.x.$XB.g.b.g.G.U.U.5 + ~ ~ _ ......~ ..~ ....A - C.C.wXwXC.C.- 7 j ! ! ",
"#.A 2.(.>.+.+.+.+.@.:.>.<.5.E.f k : 6 L.T.T.T.T.T.I.e.wX3Xz.%X+Xv.v.x.q.G.Y.u.O ~ ~ _ ~ ~ O.....~ ....Y - C.C.C.C.- - - r ......",
"^ D 8.@.+.+.+.+.+.:.:.:.1.W.j g y Q # 4 P.T.T.T.T.I.e.wX3Xx.%XB.B.kXx.q.A.L.2 O ~ ~ | | ......} ~ ....` f - - - - - d k R ......",
"( Z +.O.O.+.+.+.+.+.>.1.2.f d r .._ Q # A.Y.T.T.T.U.e.V.$Xx.$XB.B.zXV.M 3 1 % ~ ............} ..~ ....o.Y k - - f k G L ........",
"4.+...] ] o.o.o.+.+.>.^.j w q ......_ ( > u.u.Z.U.Y.i.n.h.z.#Xb.b.yXp.= $ _ ~ .........._ _ ..~ ..} ..O.+.o.H S H X.) ..........",
">.] _ ] ] _ ] O.o.+.1.z q y ..........Q # 5 u.u.4 6 3 1 9.z.v.v.x.s.! ! ~ ........~ ~ ~ ~ ~ ~ ~ ~ } ....+.+.+.o.o.o.............",
"' ' ' _ _ _ ] ] +.@.Z r a ............Q % K.gXaXi.: > y.a.v.V.N.z._ ! ~ ........~ %.R.V c P T ~ ~ ......} } ....................",
"_ ' ' _ _ ' _ ] O.) a A .._ ..........( & F.sXbXpX1 2 D.V.b.qXJ.w..._ ~ ......~ P (.O.O.'. Xx A _ .._ ..} ......................",
"_ ......} } _ ] _ E o.................( * w.C.cXzX3 2 D.C.b.wXK.2 ..} } ....~ ~ z ^.O.O.O.O._.V l _ _ ~ } } ..} ................",
"........} } .._ ......................( = rXcXMXcX3 3 F.[.qXzXJ.2 ..} } ....! ~ Z E.O.O.O.O.O.(.C t ..~ _ } ....................",
"......................................( * 0.M M M V.N q.V.xXM.M N ..| } ......~ ~ 8 $.O.O.O.O.O.~.C l ..........................",
"......................W .............._ _ _ _ S 9 - w.wXmXMXzX[.M ....} ........~ a 8 &.O.O.O.O.O.~.x G ................) ......",
"........! ! W K K K D K ....................} T T 9 w.rXMXmXqX0.@ ..............~ ~ k 8 U O.O.O.O.O.).j ) ..............) ......",
"......../ T K D Y R Y D J ......................T z q.C.yXrXe.@ ' o.................~ j 8 O.O.O.O.O.O.#.A ......................",
"......R $.2.~.^.^.^.8.6.` ) ......................_ _ _ o.' _ ~ ..o...................~ b 8 O.O.O.O.O...........................",
"......6.(.^.5.<.>.:.+.<.` ..............O.O.........................} } ................~ T S O.O.O.............................",
"........1.+.+.+.o.+.+.o.) ................................o.......} ......................~ ~ ~ o...............................",
"........o.o.o.o.o.o.o.) ...................._ o.o.........................................~ _ ~ ......~ ~ ......................",
"..........! ! ) ) ' ) ! ........................................................................................................",
"! ! ......L K F / ) ) ............................} ............................................................................"
};
