/* XPM */
static const char *p_right[] = {
/* columns rows colors chars-per-pixel */
"64 64 235 2 ",
"   c #1B1B1B",
".  c #2B2A2A",
"X  c #34302F",
"o  c #323232",
"O  c #3A3534",
"+  c #5F493A",
"@  c #6A503A",
"#  c #68584F",
"$  c #755248",
"%  c #6A675B",
"&  c #796652",
"*  c #706A66",
"=  c gray46",
"-  c #7A7977",
";  c #885E5B",
":  c #8E6C56",
">  c #966A65",
",  c #89776B",
"<  c #99716A",
"1  c #837D78",
"2  c #977E78",
"3  c #AD7770",
"4  c #A77976",
"5  c #3E9236",
"6  c #34923F",
"7  c #49942F",
"8  c #4B9937",
"9  c #4F9F36",
"0  c #569C3B",
"q  c #4AA236",
"w  c #46A93B",
"e  c #54A535",
"r  c #52A639",
"t  c #59A83A",
"y  c #5BAD3D",
"u  c #5CB43D",
"i  c #6AB03A",
"p  c #6CB43D",
"a  c #6BB83B",
"s  c #74C23D",
"d  c #48A642",
"f  c #5BA943",
"g  c #53B141",
"h  c #67A942",
"j  c #67B544",
"k  c #74B642",
"l  c #77B848",
"z  c #71AF55",
"x  c #75B26A",
"c  c #74C344",
"v  c #7DC243",
"b  c #7EC844",
"n  c #82BA4C",
"m  c #80B656",
"M  c #8C827B",
"N  c #B4867C",
"B  c #B99A7C",
"V  c #8DBB6C",
"C  c #8DBA73",
"Z  c #C28D7E",
"A  c #86C748",
"S  c #84C44C",
"D  c #8DCC4B",
"F  c #94CE4C",
"G  c #9DCF4D",
"H  c #8DD14D",
"J  c #94D64A",
"K  c #93D34D",
"L  c #9BD34B",
"P  c #9BD84D",
"I  c #8AC656",
"U  c #96C755",
"Y  c #95CC53",
"T  c #95D153",
"R  c #9BD453",
"E  c #9CD758",
"W  c #A2CB4E",
"Q  c #A2D74B",
"!  c #A4D649",
"~  c #A4DB4D",
"^  c #AADD4D",
"/  c #A6CD54",
"(  c #A3D553",
")  c #A4DB52",
"_  c #ACDD53",
"`  c #A7DA5C",
"'  c #B0DF54",
"]  c #B3DA5E",
"[  c #A5E04D",
"{  c #ADE14F",
"}  c #A5E051",
"|  c #ADE050",
" . c #A5E258",
".. c #ADE35A",
"X. c #B0E055",
"o. c #B2E45B",
"O. c #B7E85E",
"+. c #9ACB6F",
"@. c #A7D567",
"#. c #B4DB61",
"$. c #B6DB67",
"%. c #B6CD78",
"&. c #A9D37A",
"*. c #B3D977",
"=. c #A9E766",
"-. c #B6E562",
";. c #B8E664",
":. c #B6EA65",
">. c #BAEA64",
",. c #BCE96A",
"<. c #B3E274",
"1. c #BCE875",
"2. c #D1DC76",
"3. c #C1E661",
"4. c #C1ED68",
"5. c #C3EB75",
"6. c #C3EC7A",
"7. c #CFF271",
"8. c #C6F47A",
"9. c #CBF57E",
"0. c #8B8782",
"q. c #9C8886",
"w. c #94938E",
"e. c #9A9693",
"r. c #B98785",
"t. c #A7928E",
"y. c #B3978A",
"u. c #AA9A95",
"i. c #B99D9A",
"p. c #9CA081",
"a. c #BAA29B",
"s. c #AAA8A5",
"d. c #B4ABA8",
"f. c #B3B1AE",
"g. c #BAB7AF",
"h. c #B9B5B2",
"j. c #BBBBBB",
"k. c #C6988D",
"l. c #C79C99",
"z. c #D29793",
"x. c #C3A68A",
"c. c #CBA499",
"v. c #D6A79B",
"b. c #CEB396",
"n. c #D8BA9D",
"m. c #C6ACA9",
"M. c #DBA5A3",
"N. c #D8ACA8",
"B. c #C7B8AE",
"V. c #D7B6A6",
"C. c #C6B9B5",
"Z. c #C4BBB6",
"A. c #D5BBB7",
"S. c #D2B7B8",
"D. c #E8A9A8",
"F. c #E7B6AD",
"G. c #ECB5B4",
"H. c #E3B9B7",
"J. c #E5BCB4",
"K. c #ECBBBA",
"L. c #F3B6B4",
"P. c #F3BBB4",
"I. c #F5BDBB",
"U. c #F8BAB8",
"Y. c #FDBCBB",
"T. c #B5DC8A",
"R. c #BDEA88",
"E. c #BFC0BB",
"W. c #C8EC85",
"Q. c #D6EE8A",
"!. c #CAF382",
"~. c #CBF887",
"^. c #D4F687",
"/. c #C8E794",
"(. c #DBF79C",
"). c #E6FA89",
"_. c #E6F799",
"`. c #EEF798",
"'. c #D6C4AF",
"]. c #DAC8AF",
"[. c #C4C1BC",
"{. c #DBC6B3",
"}. c #DCC5B9",
"|. c #E5C5B9",
" X c #EDCABB",
".X c #D7EDA7",
"XX c #DCF7AA",
"oX c #EBF9A9",
"OX c #EDFDAE",
"+X c #E1BFC2",
"@X c #FCBFC1",
"#X c #C9C5C1",
"$X c #CAC7C3",
"%X c #CDCDCD",
"&X c #DEC3C2",
"*X c #D3CDCA",
"=X c #D3D2CD",
"-X c #D8D3CF",
";X c #DBD6D3",
":X c #E3C4C4",
">X c #E7C9C7",
",X c #ECCBC6",
"<X c #E6C6C9",
"1X c #E8C5C9",
"2X c #E6CACB",
"3X c #EACBCC",
"4X c #F3CEC8",
"5X c #E9D2C6",
"6X c #EED1CE",
"7X c #F6D5C9",
"8X c #F2D2CE",
"9X c #EDCED1",
"0X c #E7D6D6",
"qX c #EED2D3",
"wX c #E3DDDA",
"eX c #F3D4D4",
"rX c #F9D7D4",
"tX c #F6D9D3",
"yX c #F9D9D4",
"uX c #F7D9D9",
"iX c #F5FECE",
"pX c #E9E2DA",
"aX c #F6E6DD",
"sX c #F3FFD3",
"dX c #EAE6E2",
"fX c #ECE9E3",
"gX c #E8E8E8",
"hX c #F6E9E4",
"jX c #FAEEEA",
"kX c #F8F1E9",
"lX c #FDF3EC",
"zX c #F4F4F3",
"xX c #FCF5F2",
"cX c #FCF9F5",
"vX c #F8F9F8",
/* pixels */
"| | | | | | | | | | | | | | | | | | | | | | | | | | | | | | | | | | | | | | | | | | | | | | | | | | | | | | | | _ _ _ | | | | | ",
"| | | | | | | | _ _ | | | | | | | | | | | | | | | | | | | | | | | | | | | | | | | | | | | | | | | | | | | | | | | | _ | { | | | ",
"| | | | | | | | _ _ | _ | | | | | | | | | | | | | | | | | | | | | | | | | | | | | | | | | | | | | | | | ^ _ ) ) | | { { { | | | ",
"| | | | | | | | _ _ | | | | | | | | | | | | | | | | | | | | | | | | | | | | | | | | | | | | | | | | ^ ^ H S k l n U ( ( { | | { ",
"| | | | | | | ^ ^ ~ ^ ^ ^ ^ ^ | | | | | | | | | | | | ) L L R ) | | | | | | | | | | | | | | | | ^ ^ ^ y 0 h I @.*.*.U R ~ | | | ",
"| | | | | | | ^ +.T.C x I R ^ ^ | | | | | | | | _ ) '.S.S.S.S.'.{.{.{.{.{.{.{.{.{._ | | | | ^ ^ ^ d r I W.`.oXoX`.oXOX@.R | | | ",
"| | | | | | ^ I ^.X.X._..Xz S ^ _ | | | | | ^ ^ '.S.&X>X>X>X3X2X2X,X,X,X3X>X:X:X:X{.{._ | | ^ ^ w q $.).`.).7.3.3.3._..XY | | | ",
"| | | | | | ^ l !.X.X.X.X.(.C k _ _ | | | | ^ ].>X3XeXtXtXO X X X 8XtXtXtXtX3X>X>X<X:X{.{.{.) q y 1.).7.3.O.O.O.:.4.^.&.k ~ | | ",
"| | | | | | ^ A R.X.X.X.X.X.Q.V t | ^ | | ]. X8XrXrXyXyXO % - 1 * O qXyXyXyXtXtXtX9X2X9X3X:XA.k ^.7.X.X.o.o.O.O.>.7.1.t k ~ | | ",
"| | | | | | | ^ 9 +.X.X.X.X.X.W.C k | | ].eXtXyXyXrXtX8X  s.#X=X*X0.O 2XyXyXyXyXyXeX3XeXrXeX&X}.3.| ..| | | ..o.>.:.t y c ) | | ",
"| | | | | | | | p 9 @.X.X.X.X.X.W.z H ].tXuXyXtXtXeX8XO 1 -XdXfXfX#X  2X8XtXtXyXyXyXeXyXrXyX6X:X_ _ _ _ ......O.=.e q u J ^ | | ",
"| | | | | | | | ^ j 9 Y X.X.X.X.X./.B.8XrXyXyXtXtX8XO * d.dXfXkXwX[.e.O 2XtXyXyXyXyXtXyXyXyXeX<X_ _ _ | .. ...=.e q g c ) ^ | | ",
"| | | | | | | | { ^ j 9 X.X.X.X.X.X.:XyXyXyXrXrX8XO 0.f.-XfXwXfXwX[.=X  >XyXyXyXyXyXyXyXyXyXyX,X{._ _ _ ....E 7 e u c ) ^ | | | ",
"| | | | | | | | | { ^ v 9 X.X.X.X.].tXyXyXyXrXyX6X  h.;XdXfXfXwXZ.Z.#X  >XyXyXyXyXyXyXyXyXyXyX8X:X) ^ _ ..S 9 g u b ~ _ ^ | | | ",
"| | | | | | | | | | | ^ R D X.X.X.:XtXyXyXyXrXyX6X  s.wXfXfXwXwXZ.-Xo m.8XtXtXyXyXyXyXtXyXyXyX8X:X) ^ ^ k r u c H } ~ ^ | | | | ",
"| | | | | | | | | | | | ^ ^ ^ | ].eXtXyXyXyXtXrX6X  e.;XwXwXwXj.[.Z.  >XyXtXtXyXyXyXyXtXtXyXyX8X:X_ ^ ^ ^ s P ~ ~ ~ ~ Q ~ | | | ",
"| | | | | | | | | | | | | | | ].3XtXuXuXtXrXyXyXyXS.. e.#X#X#XZ.j.o S.tXrXyXyXyXyXyXyXeXeXrXyX8X:X_ | | ~ ~ Q L L L F L R | | | ",
"| | | | | | | | | | | | { | | :X6XtXeXeXtXyXyXyXeX6XA.. 0.f.s.s.o B.eXrXrXyXyXtXyXyXyX3XeXyXyX8X:X..| | ( ( R F T T T F K ) | | ",
"| | | | | | { | | | | | { { ].3XtXeXeXyXyXyXyXyXeX3XtXA.. . . . B.eXtXrXrXyXyXrXyXyXeX<X3XyXyX8X:X_ | T @.<.W.!.!.!.9.6.` ) | | ",
"| | | | | | { { | | | | | | |.eXeXeXeXyXyXyXyXyXeXeXrXtXS.Z.B.m.2XrXyXrXrXtXyXyXyXyXeX9XeXyXyX8X:X_ E 6.^.!.5.>.;.-.o.>.` | | | ",
"| | | | | | { { | | | | | | :XeXtX3XtXyXyXyXyXeXeXeXtXrXtXeX3X:X8XyXyXrXtXtXrXyXrXrX>XqXeXuXyX<X@.@.~.9.,.o.o.o...o.o...) | | | ",
"| | | | | | | | | | | | | | :XeXeX8XtXyXyXyXyXeXqXeXtXrXrXeX3X>XrXrXyXyX4XV.V.{.6X2X2XqXeXuXeX<X1.9.4.o.....| | ......) | | | | ",
"| | | | ^ ~ ~ ~ ~ | | | | ^ :XeXtXeXyXyXyXyXyXeX2XeXtXyXtX9XqXtXrXrXrXyX7XV.'.5XaXaXhXqXqXeX<X5.8.>.| [ ~ ~ ~ ) ) _ ) ~ | | | | ",
"^ | | ~ ~ Q L L L F L | ^ I :X3XeX3XtXyXyXyXyXeX2XeXeXeXeX2X3XtXrXn.n.V.V.n.n. XaXlXlXH.1XqX:X,.>...Q P J P L G ( ) ) | | | | | ",
"| | | ( ( R F T T T D F ^ l :X2X9X2XtXyXyXyXyXeX3XeXeXuX9X2X3XyX7XB B x.x.x.x.x.pXlXxXc.F.eX<X>.} D | | | | | | | | F | | | | | ",
"| | T @.<.W.!.!.!.( ) ` ^ A :X2X9X<XtXyXyXyXyXeX3XeXeXuX<X3XeXyXrX|.B b.V.a.y.y.a.pXlXl.D.|.1.R | | | { | | | | | | | | | | | | ",
"| E 6.^.!.5.>.;.-.U ( ( ~ | &X2X9X<XtXyXyXyXyXeX3XeXeXeX2XqXeXyXrX7Xy.|.qXV.i.m.0XxXhXz.> + D | | | | { | | | | | | | | | | | | ",
"@.~.9.,.o.o.o...*.*.U R ~ | }.2X3X<X8XyXyXyXuXqX3XeXeXeX2XeXeXyXtXx.V.F.P. X3XqXaXjXuX7Xv.3 _ | | | { { | | | | | | | | | | | | ",
"9.4.o.....| | ....oXOX@.R | :X<X>X<XeXtXeXeXeX9X9XeXqXeX2XeXeXeXtXA.A.G.P.4XtXhXjXxXjXhXJ.Z ( ) | | | | | | | | | | | | | | | | ",
"| | | | | | | | | 3._..XY ^ #.:X<X<XqXeXeXeXeX9X2XeXqXeX2XqXeXeXeX3XA.K.,XtXhXjXxXcXcXlXJ.N U ( ( ~ | | | | | | | | | | | | | | ",
"| | | | X.X.X.| { | ^.&.k ~ | :X:X1X9XeXqXqXqX9X2XqXqXeX2XqXeXqXqXqX&X:XqXjXxXcXcXcXlX4Xv.%.*.U R ~ | | | | | | | | | | | | | | ",
"| | | | | X.X.| { { { { { { | #.:X+X<X9X9X9X3X<X:X9XqXeX2X9XeXeXeXqX9X:X9XxXcXxXxXlX5XZ `.`.oXOX@.R | | | | | | | | | | | | | | ",
"| | | { | X.X.X.| | | | | | | | #.:X:X2X<X<X<X:X+X2X3XqX>X9XeXeXeX0XqX&X2XxXxXjXaX7Xk.2.3.3.3._..XY ^ | | | | | | | | | _ _ | | ",
"| | | | | | X.X.X.| | | | | | | | #.:X<X<X<X<X<X:X<X2X2X1X2X9XeXeXqX<X&X9XlXjXtX XN.$.O.O.:.4.^.&.k ~ | | | | | | ) ) ) ) _ | | ",
"| | | | | | | | | | | | | | | | | | ] :X:X:X<X<X<X:X<X<X1X<X>X3X2X9X:X:XH.J.F.F.J.y.o.O.o.>.7.1.t k ~ | | | | ( Y n n l S R | | ",
"| | | | | | | | | | | | | | | | | | | ] #.@.:X:X:X:X:X:X<X<XK.K.P.<X:X}.&X6X}.m.a.Z.....o.>.:.t y c ) | ^ ^ E l = = = = = h T ) ",
"| | | | | | | | | | | | | | | | | | | | _ ( $.#.#.#.#.#.m.G.P.Y.P.K.:Xd.j.dX%Xf.w.E.p...O.=.e q u J ^ | ) ) h = j.j.j.j.j.= k R ",
"| | | | | | | | | | | | | | | | | | | | _ ) _ _ | | | | i.G.I. XP.K.:Xf.gXgX-XZ.u.d.M ..=.e q g c ) | ^ ) k = j.j.%X%Xj.j.j.= Y ",
"| | | | _ ^ ^ ^ _ ^ | | | | | | | | | | | _ _ _ | | | @ l.8XL.G.G.3X:Xf.zXzXzXdX#Xt.# T 7 e u c ) ^ | ^ A = j.j.%X%X%X%Xj.j.= D ",
"| | | | | ) L L Q P J P L G ( ) ) | | | | ^ ^ | | | & 4 N.8X8X4XrXqX:Xf.zXvXpXh.t.N.; 9 g u b ~ _ | ^ } i = j.%X%X%X%X%Xj.j.= S ",
"| ^ | | | | } D A Y @.T./..X&.S F L | | | | | | | _ $ k.H.eXuXeXuXqX:Xf.zX%Xd.i.N.I.; y c H } ^ | { | ) = j.j.%X%X%X%X%Xj.j.= D ",
"| | | _ _ R p k /.sXsXsXiXiXiXT.l K | | | | | | _ : r.D.:XeXuXeXtX9X:Xf.e.w.a.J.I.Y.v.: ) _ | | | { | H = j.%X%X%X%X%X%Xj.= 8 F ",
"| | _ _ D n T.OXoX(.W.6.5.9.(.OXm Y _ | | | | | _ : z.L.:XqXeX9XeX3X:Xu.q.r.M.Y.Y.Y.D.3 : ^ | ^ | { | b = j.%X%X%X%X%Xj.j.= r ~ ",
"_ | _ I I XXoX5.;.:.:.;.;.>.6.XXl R _ | | | | | : 3 D.I.:X<X3X<XqX1X:Xs.u.N.P.Y.Y.Y.Y.D.r.< ^ ^ { { | v = j.%X%X%X%Xj.j.= 5 A ~ ",
"~ ) A *.(.6.-.O.O.-.-.;.;.,.~.+.a P | | | | | | < D.U.N.B.:X:X:XeX<X:X#Xg.c.Y.Y.Y.Y.Y.Y.D.l._ | ^ | | S = j.j.%X%Xj.j.= 6 j ~ ~ ",
"+.S <.^.;.o.o.o.o.O.-.;.>.5.T.f j H | | | | _ _ < L. Xi.m.2X2X:XeX<X:XzX*Xi.Y.Y.Y.Y.Y.L.z.4 _ | ^ | | T = j.j.j.j.= = = r | | | ",
"/ F 9.O.o.o.o.o.o.-.-.-.,.R.j g y | | | | | _ _ < M.K.u.0XfXwX:XeX<X:XzX=Xa.Y.Y.Y.Y.Y.D.4 / | { ^ | | ` f = = = = = d j E | | | ",
"( A o.X.X.o.o.o.o.o.-.,.<.f d r | | | | | { | | $ < 2 M wXkXwX:XeX<X:X;XZ.l.Y.Y.Y.@XG.4 / | { | ^ | | ..T j = = f j H P | | | | ",
"5.o.| ' ' | | ..o.o.;.!.j w q | | | | | | | | | W / + # w.*X*X:X<X:X:Xd.i.M.L.M.4 4 < / | | | ^ | { | X.o...J D J  .) | | | | | ",
";.' _ ' ' _ ' | ..o.,.l q y | | | | | | | | | | | 5 * d.f.B.d.:X}.:X:Xq.; > > 4 k.c.> ! ^ ^ ^ ^ ^ { | | o.o.o.....| | | | | | | ",
"_ _ _ _ _ _ ' ' o.O.A r p | | | | | | | | | | | p = j.j.j.j.2 :X|.:X:XN.r.; N V.7XyX4 C x I R ^ ^ | | | { | | | | | | | | | | | ",
"_ _ _ _ _ _ _ ' X.) p S _ _ | | | | | | | | | F = j.j.%X%Xj., :X5X:X:X|.c.> i.6XhXlXq._ _..Xz S _ | | | { | | | | | | | | | | | ",
"_ | | | | | _ ' _ ! | | | | | | | | | | | | | A = j.%X%X%X%X$ < aX<X:X|.v.< Z.zXvXf.0._ X.X.(.C k _ _ ^ { | | { | | | | | | | | ",
"| | | | | | | _ | | | | | | | | | | | | | | | v = j.%X%X%Xj.# * hXhX<X|.m., g.zXzXdXe._ X.X.X.Q.V t | ^ _ { | | | | | | | | | | ",
"| | | | | | | | | | | | | | | | | | | | | | | A = j.j.%Xj.j.# 1 s.kXhXZ.t.% % 0.0.0.1 _ X.X.X.X.W.C k | | | | | | | | | | | | | ",
"| | | | | | | | | | | Q | | | | | | | | | | | D 5 = j.j.= = 7 M gXvXxXgXZ.% G ( W h 0 @.X.X.X.X.X.W.z H | | | | | | | | ) | | | ",
"| | | | ~ ~ Q L L L F L | | | | | | | | | | | R R 5 = = 5 a A % -XvXvXvX=X# ) | ^ ^ j q Y X.X.X.X.X./.h ) | | | | | | | ) | | | ",
"| | | | ( R R F T T T F K | | | | | | | | | | | R v p a c | | W , %X=X=Xg.# ) | | | ^ j 9 X.X.X.X.X.X.+.S | | | | | | | | | | | ",
"| | | T @.<.W.!.!.!.9.6.` ) | | | | | | | | | | | | | | | | | | W #.#.#.] W _ | | | | ^ v 9 X.X.X.X.X.| | | | | | | | | | | | | ",
"| | | 6.^.!.5.>.;.-.o.>.` | | | | | | | X.X.| | { | | | | | | | | | { | | | | | | | | | ^ R D X.X.X.| | | | | | | | | | | | | | ",
"| | | | ,.o.o.o...o.o...) | | | | | | | | | | | | | | | | ..| | | | | | | | | | | | | | | ^ ^ ^ | | | | | | | | | | | | | | | | ",
"| | | | ....| | ......) | | | | | | | | | | _ | | | | | | | | | | | | | | | | | | | | | | ^ _ ^ | | | ^ ^ | | | | | | | | | | | ",
"| | | | | ~ ~ ) ) _ ) ~ | | | | | | | | | | | | | | | | | | | | | | | | | | | | | | | | | | | | | | | | | | | | | | | | | | | | ",
"~ ~ | | | P L G ( ) ) | | | | | | | | | | | | | | | | | | | | | | | | | | | | | | | | | | | | | | | | | | | | | | | | | | | | | "
};
