/* XPM */
static const char *p_right[] = {
/* columns rows colors chars-per-pixel */
"64 64 225 2 ",
"   c #787D2A",
".  c #786F39",
"X  c #484848",
"o  c #525351",
"O  c #5A5654",
"+  c #5C5A59",
"@  c #665956",
"#  c #645D5B",
"$  c #685D5C",
"%  c #775B55",
"&  c #66605E",
"*  c #696564",
"=  c #7C7066",
"-  c #787575",
";  c #7A7575",
":  c #877C2D",
">  c #8C7243",
",  c #967452",
"<  c #A27D5E",
"1  c #946D66",
"2  c #96716C",
"3  c #827676",
"4  c #887B74",
"5  c #9C7573",
"6  c #A87B6B",
"7  c #A87975",
"8  c #7D9517",
"9  c #788938",
"0  c #8C9419",
"q  c #859E1F",
"w  c #8AAD00",
"e  c #88A90D",
"r  c #8DB500",
"t  c #8EBB00",
"y  c #8FB90B",
"u  c #90B700",
"i  c #91BD00",
"p  c #99BF00",
"a  c #88A815",
"s  c #90A917",
"d  c #93BA11",
"f  c #98BB10",
"g  c #909D21",
"h  c #818030",
"j  c #93893A",
"k  c #8BA224",
"l  c #8AA529",
"z  c #97A526",
"x  c #92AE2C",
"c  c #9ABD24",
"v  c #96AA32",
"b  c #93AE35",
"n  c #A5B032",
"m  c #8FC300",
"M  c #92C400",
"N  c #9AC600",
"B  c #96C900",
"V  c #9BCA00",
"C  c #A3C500",
"Z  c #A1CD00",
"A  c #A4D100",
"S  c #AAD401",
"D  c #ACD901",
"F  c #B3DA00",
"G  c #B5D800",
"H  c #A9C917",
"J  c #A4C32E",
"K  c #A9C62D",
"L  c #91904E",
"P  c #9D8351",
"I  c #A1974A",
"U  c #AABF46",
"Y  c #B2B450",
"T  c #BAB159",
"R  c #9C9B68",
"E  c #88837C",
"W  c #A68676",
"Q  c #B6827C",
"!  c #BD817D",
"~  c #ACB070",
"^  c #C3BE79",
"/  c #A6C546",
"(  c #AEC349",
")  c #B2C54C",
"_  c #BAC84D",
"`  c #C5C37B",
"'  c #C9C57C",
"]  c #CAC97B",
"[  c #878382",
"{  c #8D8A86",
"}  c #978987",
"|  c #9A8887",
" . c #9C8D8A",
".. c #9D948E",
"X. c #959390",
"o. c #A38782",
"O. c #AC8985",
"+. c #BA8784",
"@. c #BB9989",
"#. c #A89B97",
"$. c #B99A97",
"%. c #B1B382",
"&. c #A8A29C",
"*. c #BEA69D",
"=. c #ABA5A2",
"-. c #ABA9A4",
";. c #ADACAA",
":. c #BBA5A2",
">. c #BFA9A6",
",. c #B4B1AB",
"<. c #B7B6B3",
"1. c #BDB6B3",
"2. c #C58D8B",
"3. c #CB9592",
"4. c #CE9B92",
"5. c #C39C9A",
"6. c #D49B98",
"7. c #C5A688",
"8. c #C4B789",
"9. c #C9AA98",
"0. c #D5A69D",
"q. c #CDB299",
"w. c #D2B29D",
"e. c #C3A4A2",
"r. c #C2A9A6",
"t. c #CCAAA7",
"y. c #C3ADAA",
"u. c #D9ABAA",
"i. c #C3B1A9",
"p. c #DBBEA3",
"a. c #D9B6A9",
"s. c #C3B6B5",
"d. c #C9B8B4",
"f. c #C1BDB9",
"g. c #CCBBB9",
"h. c #D4BAB6",
"j. c #DEBDB2",
"k. c #D3BAB9",
"l. c #DABAB9",
"z. c #E6A8A7",
"x. c #EAABAB",
"c. c #E5B2AF",
"v. c #ECB1AE",
"b. c #E2BEAE",
"n. c #E5B6B6",
"m. c #EAB4B3",
"M. c #E3BAB6",
"N. c #EDBAB4",
"B. c #EDBCBC",
"V. c #F3B1B1",
"C. c #F4BBB4",
"Z. c #FBBAB7",
"A. c #F4BCBA",
"S. c #FDBDBB",
"D. c #CFC396",
"F. c #D1C495",
"G. c #D5C698",
"H. c #D6C3A8",
"J. c #DEC9AC",
"K. c #C5C1BC",
"L. c #D9C3BC",
"P. c #E3C3AD",
"I. c #E1CCAF",
"U. c #E5C3B5",
"Y. c #E0CCB2",
"T. c #E4C2BC",
"R. c #EAC6B9",
"E. c #EDC2BE",
"W. c #F4C5BE",
"Q. c #EABFC0",
"!. c #C9C5C1",
"~. c #C9C6C4",
"^. c #CBC9C3",
"/. c #D9C4C2",
"(. c #D1CCC7",
"). c #D2CECB",
"_. c #D5D0C9",
"`. c #DAD4D2",
"'. c #DDDAD4",
"]. c #DDDDDA",
"[. c #E4C4C5",
"{. c #E4C5C6",
"}. c #E9C4C2",
"|. c #E5CAC4",
" X c #E9C9C7",
".X c #E9CAC6",
"XX c #E6C6C9",
"oX c #E8C6CA",
"OX c #E5CACA",
"+X c #E9C9C9",
"@X c #EBCBCD",
"#X c #F3CBC9",
"$X c #EED0C5",
"%X c #E8D4CB",
"&X c #F7D6C9",
"*X c #F2D2CE",
"=X c #EDCED1",
"-X c #EED2D3",
";X c #E8DAD7",
":X c #E3DEDB",
">X c #F2D2D1",
",X c #F4D5D3",
"<X c #F8D7D3",
"1X c #F7D8D4",
"2X c #F9D9D4",
"3X c #F3DDDA",
"4X c #E6E2DE",
"5X c #EAE4DD",
"6X c #F5E5D8",
"7X c #F3E3DE",
"8X c #F9E4DB",
"9X c #E4E4E3",
"0X c #EAE5E1",
"qX c #ECE8E4",
"wX c #EEECEA",
"eX c #F5E5E3",
"rX c #F2EAE7",
"tX c #F9EBE6",
"yX c #FBEEEA",
"uX c #F4F0EB",
"iX c #FCF3ED",
"pX c #F5F3F4",
"aX c #FDF6F3",
"sX c #F7F9F7",
"dX c #FCF9F5",
/* pixels */
"i M M B M r m M B B B M V B B M Z B B M m m m m m m m m M B B B B u M M m m m m m M B B B B B B V B B V t M B B M M m m M B B B ",
"M M B B t m m m M M B M B B B M B B M m m m m m m m m M M M M u p u t M m m m m m m M B B M B B M B B S B A Z t i M m m m M m M ",
"M M B B B B A B m M M M B B B M B M m m m M V m m m m M B B B B Z M M m M M M m m m m M M M M M M B B M B B B B t m m m m m m m ",
"M M M B B B M M m m m M M B M M M M m m m m A m A M m m M M m M M M m N t B M m m m m m M M m M M B M B B B B A M M m m m m m m ",
"M M B B B B M m m m m m m M M m M M m M M B B V M M m m m m m m M m B B B A r M m m m m M i M m M M m B B B B r M M m m m m m m ",
"i M M B B B Z M m m m m t t t t m M M M M B B B ) ` ` ` ` ` ` ` ` ' ' ' ] ` ' K B M m m M B M M m m m M B B M m m m m m m m m B ",
"t m m m M V N M m m m t t t t t m B B M B B ) ' H.{.+X+X+X+X+X X X X X+X{.{.{.F.' J m m M M B M m m m m M M M M m m m V B N M Z ",
"B B t r t B M m m m m m m m t r t M M M B ) J.+X@X*X,X| @ @ @ :.*X*X,X>X@X X XXX{.F.' ' K B M M m m m m t t t t M M B N B M B t ",
"B V t M m m m m m m m m m m m m m M B ) ] I.*X,X<X2X .O + * + @ >.1X2X2X,X,X>X=XOXOX+X{.G.J m m m r r r r r r r M M B B M B B B ",
"M M M t r r r r r r t B B B B M m m ) I.*X,X2X2X2X,X$ * ;.f.f.[ $ :.,X2X2X2X2X<X>X>X<X>X{.F.K M M t r r r r t m M M M M M B M M ",
"M B B t t t t t t t M M M V B B M ) Y.<X2X2X1X,X,X| & =.'.4X0X^.o | >X,X2X2X2X2X,X<X2X2X-X{.) M M M m i t m V m m M B N B i m m ",
"B B B m m m M M M M M B M B B V _ J.,X2X2X2X1X,X| O [ (.qXrX0X).X.* :.,X2X2X2X2X1X2X2X2X,X+X) M m m m Z M M V r M B B B S i M B ",
"M M M M m m M B M B B B B B i B ^ *X2X2X2X2X,X| * { f.:X5XqX4X^.~.+ | ,X2X2X2X2X2X2X2X2X<X@XG.J m m m B S B B B B B B F u M B i ",
"M M B B B M B B B t B B B B M ) I.,X2X2X2X2X>X$ - ~.:XqX0X4X_.K.~.+ | ,X2X2X2X2X2X2X2X2X2X*X X) m m m M M i B M B B M B m m M V ",
"M B B V B B M B B t B B B i B ` *X2X2X2X2X2X,X$ - ).0XqX5X:X^.^.[ 3 h.,X,X2X2X2X2X2X2X2X2X,X+X) m m m m B B B M M M B S t m m m ",
"M V B Z B M M B B u M i V i Y Y.,X2X2X2X2X2X>X$ * ~.:X4X:X(.K.K.O | ,X,X,X2X2X2X2X1X1X2X2X,X+X) M m m t t t t t t M M M M m m m ",
"M B V B B B B V Z t m m r _ J.>X2X2X2X2X2X2X<Xr.$ [ f.).(.K.1.- 3 k.<X2X2X2X2X2X2X<X,X1X2X,X+X( r r r r r r r r r r r r t m M M ",
"m i N B B r M V N M m m M ` +X,X1X<X<X2X2X2X1X>X>.$ - ;.,.;.- 3 h.,X<X2X2X2X2X2X2X>X>X,X2X,X XU t r r r r r r r r r r r t M M M ",
"M M i N r M t M r m m m ) J.*X<X<X<X1X2X2X2X<X>X,Xy.# X X X - k.,X2X2X2X2X2X2X2X1X@X@X,X2X,X+X( m M M i i i N M B B B B B B B M ",
"B M M i m m M M M M i t ` @X,X<X>X<X2X2X2X2X<X>X,X,Xr. . .| d.>X<X2X2X2X2X2X2X2X<X@X-X<X2X*X X( m m t r r u Z B B B B B B V N Z ",
"B M B M M B B Z t r r r ^ @X,X>X>X<X2X2X2X2X<X,X,X2X1X,X=X+X+X>X2X2X2X<X2X2X2X2X-X=X,X1X2X@X` H m t r r r r u t S B B M B M V N ",
"A M B M B B M t r r r r ^ @X,X>X,X2X2X2X2X<X,X,X,X2X2X,X-X+X*X<X2X2X&XR.P.U. X@X+X=X,X<X<X+X) B M t r r r r r w B B i M B M M V ",
"m B V t B B V V r r r r ^ @X,X,X,X2X2X2X2X,X=X-X,X2X1X>X=X>X,X2X2X2X&XP.p.J.%X;X3X3X-X,X=X' H B Z M t r r r r V M i t r B V t B ",
"M B N r r N Z M r i r r ^ +X>X>X,X2X2X2X2X,X@X-X<X<X,X@X@X,X2XR.j.P.P.H.p.Y.6XtXiX-X{.=XOX) B B V t t r w w w r t t M i M m M M ",
"M M M t r t N M r N i u ^ +X@X@X>X1X2X2X2X<X=X>X<X1X>XOX@X,X<Xw.@.7.7.9.9.q.|.yXaXT.u.@XOX) S M i m t w w w r t i V B B M M M B ",
"M B M m M r M V N B B M ^ +X@XOX*X1X2X2X2X<X=X,X<X2X@XOX-X,X2XU.7.7.q.9.@.@.*.%XuXl.u.T.] H M m m m m m m m m M B V V M B B B B ",
"M t m m M M i M B V B B ` +X@XOX*X2X2X2X2X<X=X>X<X<X@X@X,X1X2X&Xw.a.|.h.*.*.g.5XyXj.Q 1 k m t t m m m r i B M M t t M B B V M i ",
"m M m m M N M V B B B B ` +X@XOX@X1X2X2X1X,X=X-X,X,X=X=X<X1X1Xj.q.a.A.E.T.|.;XtXeX$X0.6 z m m m B M t i V A M M M M M M m t M t ",
"M M m m m B B V B B M M ` {.+X+X@X,X<X<X,X,X=X-X-X,X=X=X,X<X,Xj.a.n.C.W.*X3XtXyXtX8X X4.n i i M B V Z m M B B M m m t u Z B M M ",
"B B M m m M M B B B B M J D.{.XX@X>X,X,X,X-X=X-X-X,X=X@X,X,X,X@X{.M.E.*X3XtXiXaXaXiX$X4.n Z M m M B B B B B M M m m V r M M N B ",
"B B M M m M M M M m M M M ` {.XX@X-X-X-X,X=XOX=X-X,X=X=X-X-X-X-X{.{.@X7XyXaXaXdXiX8Xb.T H G M M m m B B B M M M m t u V B M B B ",
"M B B M M M M m m m M m m J F.{.XX=X-X=X=XOX{.OX-X,X=X@X-X,X,X-X@XXXOXrXdXdXaXiX6Xa.T H Z B M t M i M M B B B M m m M M V B B B ",
"B B M M t t t t t t t m m M K F.{.XXOX+X+X{.{.XX@X-X@X@X,X,X,X-X-XOXOXrXaXiXtX8Xb.Y f t m m m M Z A V i B B B M m M i M A B B M ",
"B M m m m r r r r i M m m M B K F.{.XXXXXXXX{.XX+XOX+XOX=X,X,X-X@X{.OXeXiX8X*XU.T d G M m m m m M i i B B B M m m m M m B B B M ",
"m m m m M M M M B M M M m M t i K F.{.{.XXXXXX{.XXXXoXXX+X@X@X=XXX{.{.}.R.R.M.9.n m m m m m m m m M B M M V M M m M M M M M M M ",
"m m m M B B M B B B B M M M M M B J ) ) D.{.{.[.{.{.XXXX}.B.B.}.{./.L.|.T.a.r.i.U M M M B M m m m i t t i m M Z B B M M M m M M ",
"m m M B B B M B B B M B B M m m t t B B J ( ( ( ( ) 8.n.N.C.C.N.{.d.1.`.`.s.#.,.~ c B M B B M m r r r r r r u C i B B B M m m m ",
"m B S B r M M D F M V V D V S N m M B M m m m V V B ~ u.C.Z.C.N.[.s.).9X'.!.-.-...x B B A B D m t r r r r u i M N B B B M m m m ",
"m M m G M M B M M M M B V B M M M M M m M m N V u 0 W M.A.C.N.E.{.s.].pXwX4X^.=.4 k B B M B V M M M m M M M M M M m B M M m m m ",
"M B Z M t m M m m m m m m m m m M B Z i t B V i 0 , $.}.#X#X#X#X+Xs.].sXwX).>.e.5 0 B N t M M M m m B M M M B M B m B M m m M D ",
"B V u m M m m m m m m m m m m m M M B B B B B B : 7 u.+X<X<X,X,X+Xs.].9X!.:.9.c.Q g B B t M V B M M V B B M B M A M M m m M B M ",
"B B B B F M M M M M m m m M m m m M M M M M M g < 3.M.@X<X<X<X,X+Xs.,.=.$.t.N.S.0.P a m M M B B M t i B B M B M V V m m m M B B ",
"B B M r r i M m m m m m m m r M B M i Z M m M j Q z.Q.@X,X>X,X>XXX>...O.5.m.S.S.V.! > a m N B M M A A M B t M M M M m m m M B B ",
"B M M M M M M m m M M m m B Z M B B B i m M g , 2.m.Q.XXOXOX=X@X{.y.#.5.c.A.S.S.Z.z.+.P s t M M M M M D M m M M M t t t m m M M ",
"B B B M m M m m m M V i M B B B B B M m M M j 2.x.c.h.l.{.{.@XOX{.L.1.r.m.S.S.S.S.Z.x.3.n t M B B B B B M M m M t r r t t m M B ",
"M u Z Z m m m m m m M B M B B M M B N t m M I 6.A.u.r./.OX{.@XOX{.;X`.y.c.S.S.S.S.Z.z.2.v i M i B B N B M M m m M t t m m M B B ",
"B t M r m m m M M M m M M M M M M m M m m m L 3.m.r.g.;X;XOX@XOX[.qX:Xi.c.S.S.S.S.v.2.I d M i S V V B M M m m M M B i M M M t B ",
"G t m t r r r r r t m M M M M M M m M M M M h 2 O.o.g.qX0XOX@XOX[.;X(.r.c.S.S.S.A.3.I d B B B m m m M B S t V N B B S r M m M t ",
"M M t r r r r r t i m m m M M B B M B B B B e q . % | ~.`.OX{.XX[.g.:.e.v.x.4.+.+.I f M M Z M V M m M B M M M M M B S N B m m m ",
"M M m t t t t r t t t m Z B B B M B B B B N S B e 8 l %.s.k.{.{.{.$.5 5 7 Q +.@.7 z B B M B M Z M m m B M M M B M B B B N m m m ",
"M M m m m m M t r r r r B M t M B B M B B V V M M M B c R y.{.{.{.t.O.1 2 @.j.$X$.z B B M B B B M M m M M M m m B t M M m M m m ",
"M M M M m m M M m m m m m m B Z B B M B u B S m M B B B j e.|.|.{.T.0.7 o.h.5XtX>.v m m M m B M m m m m M m m D M t M M M M M m ",
"M M B B M M A Z t m m m m m t B B M t B M u B m A B M B h 2 L.%X{.T.a.W #.;XpX`.#.x t i t t m m m m m M B Z t V B M B B V M M m ",
"M M B B B B Z B M M t t t m M M M m i V M m M m V M M B   % d.7X@XT.a.o.&.].pX:X-.b M V N Z t M m m m M M Z B M B B B B Z V B M ",
"M V V B B B B D t r r r r t M M m M i B M m m M M M M B   = &.;X7X/.:.4 = ..&.&.} l B B B V t m m m m m B F N B B B B M B B i m ",
"B B S B B V Z t M M M M m m M r B B B B M m M B M M M M a L <.wXiX5XK.4 9 k l l x d B B M B M m m m m m m B B B B B B B B B m m ",
"B B M D M B m M m m m m m t i N N B B B M M B B M m m m m 9 <.uXsXsX].E a B M B B B B B V B M M m m m m m M M M i t t M M M m m ",
"B N t M B N t m M m m m M r r r Z B B M B V i M t M m m m a L f.].].^.E q B M B B M M B B B M M m m m m m M M t r r t M m M m m ",
"Z N t m M t t t t t t t M r r r N u M r r M r t M m m m m M a b / / / x y B M B B M M M M M M m m m m m m m M M i M M M m m m M ",
"M i i m m t r r r r r r m t r r r p r r r r r M M m m m m M M Z A A B M B B M M M M m m M M M M m m M r r r r m t r r r r m m m ",
"m m M m m m m m m m m M m m t r r r r r r t M t r M m m m B M B B B B M M M M M M M m m m A M M m m r r r r m m m M M M M B B M ",
"m m m m m m m m m m m t i m m m m t t M M m m m m m m m M B M M M B B B M m m m M M Z r B V u M r m m m m m m m V i N B M A V t ",
"M m m m m m m m A A B M M m B B m M Z M M m m m m m m m B V m M M M M M M m m m M m A Z S V B B u M M M t t m A A Z B V B B V r ",
"Z Z M m m m B A V F A B m F A B m B V D B m m m m m m M M B B Z V M M M M M M M M B B B Z V B B Z M D D A M m B B B M B M B V N "
};
