/* XPM */
static const char *p_up[] = {
/* columns rows colors chars-per-pixel */
"64 64 222 2 ",
"   c black",
".  c #231A17",
"X  c #1A2200",
"o  c #24211F",
"O  c #2F2926",
"+  c #393936",
"@  c #485F00",
"#  c #5D7B00",
"$  c #554E38",
"%  c #6A7F21",
"&  c #504844",
"*  c #70524A",
"=  c #6E5B56",
"-  c #69605B",
";  c #7B6562",
":  c #825A53",
">  c #826158",
",  c #91695D",
"<  c #866B67",
"1  c #936A63",
"2  c #996C6A",
"3  c #8C736F",
"4  c #977068",
"5  c #8C7774",
"6  c #977974",
"7  c #A3716B",
"8  c #A87C78",
"9  c #B27D7A",
"0  c #6B8E00",
"q  c #6C9100",
"w  c #72882A",
"e  c #8AAD00",
"r  c #8DB500",
"t  c #88B505",
"y  c #8EBB00",
"u  c #94B900",
"i  c #91BD00",
"p  c #96BA15",
"a  c #9BBE1E",
"s  c #A3BF1E",
"d  c #8CBB2D",
"f  c #96B42A",
"g  c #95BA29",
"h  c #9BBC2C",
"j  c #98B736",
"k  c #9AB93A",
"l  c #A0B72F",
"z  c #A2BC2F",
"x  c #8FC300",
"c  c #92C400",
"v  c #9AC600",
"b  c #96C900",
"n  c #9BCA00",
"m  c #92C00F",
"M  c #9CC70E",
"N  c #9FD201",
"B  c #9BC219",
"V  c #A1CD00",
"C  c #A3C708",
"Z  c #A4D100",
"A  c #ABD401",
"S  c #ACD901",
"D  c #B3D600",
"F  c #B2DA00",
"G  c #A7C71E",
"H  c #9DC12B",
"J  c #A3C22B",
"K  c #A8C435",
"L  c #B5CE38",
"P  c #9AB248",
"I  c #8BB751",
"U  c #8EBB52",
"Y  c #97B752",
"T  c #A5BA5A",
"R  c #B4BA5E",
"E  c #89866B",
"W  c #A7857C",
"Q  c #B9817F",
"!  c #8AB56F",
"~  c #8EB86F",
"^  c #9CAA70",
"/  c #9AA07A",
"(  c #8AB37E",
")  c #A4AA71",
"_  c #ABB678",
"`  c #BEB972",
"'  c #C1BD72",
"]  c #B7C15A",
"[  c #9B8684",
"{  c #809E9F",
"}  c #989592",
"|  c #AA8985",
" . c #B18887",
".. c #BC8A8A",
"X. c #B99389",
"o. c #AD9690",
"O. c #A49A96",
"+. c #8AAE8D",
"@. c #9ABA85",
"#. c #85AA97",
"$. c #86AB98",
"%. c #A1A784",
"&. c #A8A59B",
"*. c #B4A39E",
"=. c #B1BD90",
"-. c #8BADAD",
";. c #91ACAD",
":. c #92B3A9",
">. c #94B4B4",
",. c #97B8B7",
"<. c #96B9BA",
"1. c #9BBCBC",
"2. c #ADACA6",
"3. c #B7A9A5",
"4. c #B6B5AC",
"5. c #A7BAB9",
"6. c #A1BEBD",
"7. c #B8B7B3",
"8. c #BEBDB9",
"9. c #C18B89",
"0. c #C3908D",
"q. c #CC9493",
"w. c #C89694",
"e. c #D39B9B",
"r. c #D59D9B",
"t. c #C4B986",
"y. c #CBBF86",
"u. c #CCA697",
"i. c #D4AB9E",
"p. c #C4ABA8",
"a. c #DAA5A3",
"s. c #C8B3AA",
"d. c #D7B4A7",
"f. c #C4B5B3",
"g. c #CAB5B6",
"h. c #C7BBB5",
"j. c #C1BEBC",
"k. c #D6B6B6",
"l. c #D7BAB6",
"z. c #DABABA",
"x. c #E5A7A6",
"c. c #E4AAA6",
"v. c #EBACAB",
"b. c #F0AFAF",
"n. c #E5B7AE",
"m. c #ECB4AE",
"M. c #F2B5AE",
"N. c #E8B9B3",
"B. c #EDB9B3",
"V. c #F3B3B3",
"C. c #F4BAB3",
"Z. c #FAB9B7",
"A. c #F7B8B8",
"S. c #FEBCBC",
"D. c #A5C390",
"F. c #B6C192",
"G. c #A5C1BC",
"H. c #CDC088",
"J. c #C3C2BD",
"K. c #CEC0BA",
"L. c #DCCDBE",
"P. c #EDC7B6",
"I. c #F4CDBD",
"U. c #9EBEC2",
"Y. c #9FC1C1",
"T. c #A4C3C3",
"R. c #A9C5C5",
"E. c #A6C8C8",
"W. c #ADCBCB",
"Q. c #B1CDCE",
"!. c #BACCCC",
"~. c #ACD1CE",
"^. c #AFCFD0",
"/. c #B1CED0",
"(. c #BCCFD0",
"). c #ADD2D1",
"_. c #B3D4D5",
"`. c #BAD7D7",
"'. c #B4D6D8",
"]. c #B6DBDB",
"[. c #B9DCDD",
"{. c #B9DFE0",
"}. c #C8C6C4",
"|. c #D7C9C7",
" X c #D7D1CD",
".X c #C0D5D5",
"XX c #C4D8D7",
"oX c #C4D9D9",
"OX c #DAD8D5",
"+X c #DCDBDA",
"@X c #E2C3C3",
"#X c #E5C7C9",
"$X c #E9C7C9",
"%X c #E6C9CA",
"&X c #EBCCCD",
"*X c #F0CDCD",
"=X c #F3D5C5",
"-X c #F2D1CE",
";X c #F3DBCB",
":X c #E3CED1",
">X c #EDCFD1",
",X c #EED3D3",
"<X c #EDD8D5",
"1X c #E6DAD9",
"2X c #F4D4D2",
"3X c #F9D7D4",
"4X c #F5D9D4",
"5X c #FAD9D4",
"6X c #F5E0CF",
"7X c #E2E1DE",
"8X c #F3E9DE",
"9X c #E6E3E3",
"0X c #EBE6E3",
"qX c #ECEBEA",
"wX c #F2EBE4",
"eX c #F1EEEA",
"rX c #F3F1ED",
"tX c #F3F4F3",
"yX c #F8F6F6",
"uX c #F6F8F7",
"iX c #F9F8F7",
"pX c #F9F9FA",
/* pixels */
"i c c b c r x c b b b c n b b c V b b c x x x x x x x x c b b b b u c c x x x x x c b b b b b b n b b n y c b b c c x x c b b b ",
"c c b b y x x x c c b c b b b c b b c x x x x x x x x c c c c u u u y c x x x x x x c b b c b b x b b Z b Z V y i c x x x c x c ",
"c c b b b b Z b x c c c b b b c b c x x x c n x x x x c b b b b V c c x c c c x x x x c c c c c c b b c b b b b y x x x x x x x ",
"c c c b b b c c x x x c c b c c c c x x x x Z x Z c x x c c x c c c x v y b c y x x x x c c c c c b c b b b b Z c c x x x x x x ",
"c c b b b b c x x x x x x c c x c c x c c b b n c c x x x x x x c c b b b Z r c x x x x c i c x c c x b b b b r c c x x x x x x ",
"i c c b b b V c x x x x y y y y x c c c c b b b b i I ! ! ! ! ! _ ` ` ` ' ` G b b c x x c b c c x x x c b b c x x x x x x x x b ",
"y x x x c n v c x x x y y y y y x b b c b b b U ! ! :.>.-.-.-.-.f.z.z.l.@X$XH.` ` a x x c c b c x x x x c c c c x x x n b v c V ",
"b b y r y b c x x x x x x x y r y c c c b U ~ $.1.E.).W.E.E.T.;.g.$X&X&X2X2X&X$X@Xt.B b b b c c x x x x y y y y c c b v b c b y ",
"b n y c x x x x x x x x x x x x x c b b U $.1.T.).].].[.W.U.<.;.g.@X$X&X2X5X5X3X2X@Xy.G n c x x x r r r r r r r c c b b c b b b ",
"c c c y r r r r r r y b b b b c x x c U $.;.T._.].].[.[.~.U.1.5.z.@X&X&X2X5X5X5X2X&X@Xy.G b b c c y r r r r y x c c c c c b c c ",
"c b b y y y y y y y c c c n b b c x I $.;.T.).].[.[.[.[.].'._.(.:X-X2X2X3X5X5X5X3X2X&X@Xt.a c c c c x i y x n x x c b v b i x x ",
"b b b x x x c c c c c b c b b n V I $.1.W.'.].[.[.[.[.[.[.[.{.oX<X5X5X5X5X5X5X5X3X3X2X-X@Xt.s c x x x V c c n r c b b b Z i c b ",
"c c c c x x c b c b b b b b i b r ( 1._.[.[.[.[.[.[.[.[.[.[.{.oX<X5X5X5X5X5X5X5X3X5X5X3X-X@XH.a x x x b A b b b b b b F u c b i ",
"c c b b b c b b b y b b b b c c I #.T.].[.[.[.[.[.[.[.[.[.[.{.oX<X5X5X5X5X5X5X5X3X5X5X3X3X$Xk.J x x x c c i b c b b c b x x c n ",
"c b b n b b c b b y b b b i b b ( 1.).].[.[.[.[.[.[.[.[.[.[.{.oX<X5X5X5X5X5X5X5X5X5X5X3X5X-X@Xt.a x x x b b b c c c b A y x x x ",
"c n b V b c c b b u c i n i u b ( T._.].].[.[.].].[.[.[.[.[.{.oX<X5X5X5X5X5X5X5X5X5X5X3X3X3X&Xl.z x x y y y y y y c c c c x x x ",
"c b n b b b b n V y x x r n V b ( Y.~.)._._.'._.'.[.[.[.[.[.{.oX<X5X5X5X5X5X5X5X3X3X3X5X5X5X-Xl.h r r r r r r r r r r r y x c x ",
"x i v b b r c n v c x x c c b b ( 1.W.W.W.^.W.^.].[.[.[.[.[.{.oX<X5X5X5X5X5X5X5X2X-X2X5X5X3X-X@Xt.a r r r r r r r r r r y c c x ",
"c c i v r c y c r x x x x c b U $.1.W.W.Q.W.W._.].[.[.[.[.[.{.oX<X5X5X5X5X5X5X5X2X&X-X2X3X3X2X$Xk.z c i i i v c b b b b b b b c ",
"b c c i x x c c c c i y c c b ( ,.E.W.W.W.W.W.'.[.[.[.[.[.[.{.oX<X5X5X5X5X5X5X5X2X&X$X2X4X5X2X#Xk.z y r r u V b b b b b b n v V ",
"b c b c c b b V y r r r r i c ( 1.W.W.T.1.T._.].[.[.[.[.[.[.{.oX<X5X5X5X3X5X5X3X3X2X$X$X,X2X2X$Xk.l r r r r u y Z b b c b c n v ",
"Z c b c b b c y r r r r r r y ( <.W.Q.T.1.E.'.[.[.[.[.`.].[.{.oX,X5X5X3X2X3X3X5X3X3X&X#X&X2X2X#Xk.l r r r r r e b b i c b c c n ",
"x b n y b b n n r r r r r i b ( <.W.W.E.W._.[.[.[.[.[._.].[.{.oX,X5X3X2X2X2X3X3X5X3X2X&X&X>X2X#Xk.z y r r r r n c i y r b n y b ",
"c b v r r v V c r i r r r V U :.G.W.T.T.W.].[.[.[.[.].'.].[.{.oX<X5X5X3X2X2X3X3X3X5X2X&X$X&X2X&X@Xt.a r e e e r y y c i b x c c ",
"c c c y r y v c r v i u r b ( T.W.Q.6.T._.].[.[.[.]._.'.[.[.{.oX<X5X5X3X2X2X3X3X3X5X3X&X#X#X>X2X&Xl.h e e e r y i n b b c c c b ",
"c b c x c r c n v b b c y b ( T.Q.W.T.W.].[.[.[.'._.W._.[.[.].XX<X3X5X5X3X*X2X3X3X5X5X2X>X#X&X2X>X@XK x x x x c b n n c b b b b ",
"c y x x c c i c b n b b c b @.R.Q.T.6.Q.].].[.'.W.W.^.].[.[.].XX<X2X3X5X3X2X&X2X2X3X3X2X2X&X&X,X>X&XK r i c c c y y c b b n c u ",
"x c x x c v c n b b b b b c D.W.W.T.T.W._._._.W./._.].[.[.[.].XX<X3X5X5X3X3X-X&X&X2X2X2X2X&X&X,X,X>XK i n V c c c c c c x y c y ",
"c c x x x b b n v b c c c y D.W.W.E.W.Q.Q.Q.W.W._.].[.[.[.[.].XX<X3X5X5X3X3X2X-X&X&X2X2X2X>X>X>X>X,XL x c b b c x x y r V b c c ",
"b b c x x c c b v b b c c r @.W.T.T.W.Q.Q.Q.W.W._.[.[.[.[.[.].oX<X3X5X5X5X3X3X2X&X&X,X2X,X2X&X>X>X,XL b b b c c x x n r c c v b ",
"b b c c x c c c c x c c c c @.E.6.1.W.Q.Q.Q.W._.].[.[.[.[.[.].oX:X3X5X3X5X3X3X3X2X,X>X,X,X2X&X&X%X&XK b b c c c x y u n b c b b ",
"c b b c c c c x x x c x x c @.R.6.1.W.Q.Q././.'.[.[.].[.[.[.].oX:X2X5X5X5X3X3X5X2X,X&X>X,X2X&X&X#X#XK c b b b c x x c c n b b b ",
"b b c c y y y y y y y x x c ( R.T.T.W.W.Q.Q./.'.].].'.].[.[.[.oX%X2X5X5X3X2X3X3X2X,X>X&X>X2X>X&X@Xz.K i b b b c x c i c Z b b c ",
"b c x x x r r r r i c x x c ( G.T.T.W.W.W.Q.Q._././._.].[.[.[..X|.2X4X3X2X2X2X2X2X2X>X&X&X>X&X&Xz.R p b b b c c x x c x b b b c ",
"x x x x c c c c b c c c x c d +.,.1.T.T.E.W.Q.Q.W.W._.].].'.`.!.|.2X2X2X2X2X&X>X,X,X>X$X$X&X$X@Xk.z b c c n c c x c c c c c c c ",
"x x x c b b c b b b b c c c c ( -.>.1.T.Y.Y.E.Q.Q.Q._.'._.W.Q.5.|.&X2X2X2X2X>X>X&X&X@Xl.@X#X@Xl.R p y y i x c V b b c c c x c c ",
"x x c b b b c b b b c b b c x d +.{ >.1.h.l.5.T.T.U.U.T.Y.1.5.} o.k.#X$X$X$X%X|.z.N.N.m.z.l.k.R p r r r r r u C i b b b c x x x ",
"x b A b r c c S F c n n S n A v d +.>.f.N.B.l.5.<.<.<.<.<.,.,.5 1 p.k.l.l.l.l.k.n.m.M.M.m.p.] m y r r r r u i c v b b b c x x x ",
"x c x F c c b c c c c b n b c c c d %.d.B.C.C.o.3.f.g.g.s.p.3...Q i.a.c.N.B.d.....c.C.C.C.*.H c c c x c c c c c c x b c c x x x ",
"c b V c y x c x x x x x x x x x c b ) d.m.M.N.W 0.m.A.Z.V.v.v.v.v.b.b.V.Z.S.c.2 4 a.B.B.N.3.g c x x b c c c b c b x b c x x c S ",
"b n u x c x x x x x x x x x x x c b _ :X4X4Xh.3 ..V.S.S.S.S.S.S.S.S.S.S.S.S.x.1 ; *.&X4X1X4.H b c c n b b c b c N c c x x c b c ",
"b b b b F c c c c c x x x c x x x c F.0XiXuXJ.< ..V.S.S.S.S.S.S.S.S.S.S.S.S.x.1 = O.9XiXyXJ.H b c y i b b c b c n n x x x c b b ",
"b b c r r i c x x x x x x x r c b P 4.qXpXyXf.3 0.V.S.S.S.S.S.S.S.S.S.S.S.S.v.8 < O.7XuXuX|._ p c Z Z c b y c c c c x x x c b b ",
"b c c c c c c x x c c x x b V c P %.}.rXiX0Xo.8 a.A.S.S.S.S.S.S.S.S.S.S.S.S.V.e.9 [ |.tXuX+X2.g c c c S c x c c c y y y x x c c ",
"b b b c x c x x x c n i c b b b ^ 2.1XyXeXs. .e.V.S.S.S.S.S.S.S.S.S.S.S.S.S.S.V.x. .*.0XiXqX8.H b b b b c c x c y r r y y x c b ",
"c u V V x x x x x c c b c b b c ^ 7.qXqX|.| ..b.S.S.S.S.S.S.S.S.S.S.S.S.S.S.S.S.Z.q.| }.tXiX}.h b b v b c c x x c y y x x c b b ",
"b y c r x x x c c c x c c c c P &.OXyX7.E 8 a.Z.S.S.S.S.S.S.S.S.S.S.S.S.S.S.S.S.S.v. .| 1XpXqX=.B n b c c x x c c b i c c c y b ",
"D y x y r r r r r y x c c c c ^ 2.9XpXOX3 9 v.Z.S.S.S.S.S.S.S.S.S.S.S.S.S.S.S.S.S.V.9.6 OXpXpX7.g x c b A y n v b b A r c x c y ",
"c c y r r r r r y i x x x c c ^ }.tXpXtX[ 8 x.V.Z.Z.S.S.S.S.S.S.S.S.S.S.S.S.S.S.Z.V...6 +XpXpXj.h x c b c c c c c b A v b x x x ",
"c c x y y y y r y y y x V b b ^ +XtXuXiXf. .9.x.V.Z.S.S.S.S.S.S.S.S.S.S.S.S.S.Z.m.q. .4.qXpXyXj.h x x b c c c b c b b b v x x x ",
"c c x x x x c y r r r r b c y ^ 7.9XiXyX7XK. ...r.v.v.V.Z.S.S.S.S.S.S.S.Z.v.x.a.w.| s.9XtXyX+X4.g c x c c c x x b y c c x c x x ",
"c c c c x x c c x x x x x x b J %.2.9XtXqX0Xf.W 2 7 7 q.V.Z.S.S.S.Z.Z.A.x.9 7 2 6 *.OXtXtXtX8.Y m x x x c x x S c y c c c c c x ",
"c c b b c c Z V y x x x x x y b g / OXtXtX X7.6 1 4 1 9 w.e.e.a.a.e.e.e.0.7 , : 3 &.J.9XtX}.T m x x x c b V y n b c b b n c c x ",
"c c b b b b V b c c y y y x c c c g =.8.8.2.&.3 X.i.i.X.W 1 1 > > 1 8 8 W u.i.7 < } &.7.8.T p c x x x c c V b c b b b b V n b c ",
"c n n b b b b S y r r r r y c c x c g j $ + + * p.=XI.n.d.u.4 O . * X.i.d.P.I.| 5 & + + w M y x x x x x b F v b b b b c b b i x ",
"b b A b b n V y c c c c x x c r b b b b 0 X   $ s.;X=X=X=X=XW .   = d.=X=X=X=Xo.[ O   @ t b c x x x x x x b b b b b b b b b x x ",
"b b c S c b x c x x x x x y i v v b b b c q X & l.6X;X;X;X;Xo.o   - l.;X;X;X6Xo.} O @ r n b c c x x x x x c c c i y y c c c x x ",
"b v y c b v y x c x x x c r r r V b b c b n 0 E L.8XeXeXwXwXO.% # E |.8XeXrXwX&.O.w t b b b c c x x x x x c c y r r y c x c x x ",
"V v y x c y y y y y y y c r r r v r b r r c r ) OXeXuXtXtXyX4.f c ^ +XyXtXtXtX2.O.g c c c c c x x x x x x x c c i c c c x x x c ",
"c i i x x y r r r r r r x y r r r u r r r r r g =.J.J.J.J.J.T C Z J F.}.}.j.j.&.Y m x x c c c c x x c r r r r x y r r r r x x x ",
"x x c x x x x x x x x c x x y r r r r r r y c y f k k k k k m b b b h k k k j j m x x x x Z c c x x r r r r x x x c c c c b b c ",
"x x x x x x x x x x x y i x x x x y y c c x x x x x x x c b c c c b b b c x x x c c V r b n u c r x x x x x x x n i v b c Z n y ",
"c x x x x x x x Z Z b c c x b b x c V c c x x x x x x x b n x c c c c c c x x x c x Z V A n b b u c c c y y x Z Z V b n b b n r ",
"V V c x x x b Z n F Z b x F Z b x b n S b x x x x x x c c b b V n c c c c c c c c b b b V n b b V c S S Z c x b b b c b c b n v "
};
