/* XPM */
static const char *p_up[] = {
/* columns rows colors chars-per-pixel */
"64 64 240 2 ",
"   c #000000",
".  c #0A0907",
"X  c #11160B",
"o  c #19200C",
"O  c #513C2E",
"+  c #5D4238",
"@  c #7A574E",
"#  c #7B5954",
"$  c #7E625D",
"%  c #786B64",
"&  c #7E7269",
"*  c gray46",
"=  c #7E7977",
"-  c #82554E",
";  c #855A53",
":  c #8C6A66",
">  c #976A69",
",  c #8B706D",
"<  c #98746C",
"1  c #857875",
"2  c #9A7D78",
"3  c #A77B75",
"4  c #AB7D77",
"5  c #38943B",
"6  c #4B9937",
"7  c #4F9F36",
"8  c #549C32",
"9  c #4AA236",
"0  c #46A93B",
"q  c #57A839",
"w  c #5BB33D",
"e  c #62AE35",
"r  c #6DB33D",
"t  c #74C23D",
"y  c #48A642",
"u  c #59A843",
"i  c #54B041",
"p  c #66A843",
"a  c #67B544",
"s  c #75B742",
"d  c #77B848",
"f  c #73AF55",
"g  c #74B068",
"h  c #75C345",
"j  c #7DC444",
"k  c #82BA4C",
"l  c #82B45B",
"z  c #8B837E",
"x  c #9A817B",
"c  c #A7827A",
"v  c #B1847D",
"b  c #8DBB6C",
"n  c #8DBC72",
"m  c #84C44C",
"M  c #89C849",
"N  c #94CE4C",
"B  c #9DCF4D",
"V  c #8DD24D",
"C  c #93D34D",
"Z  c #9BD34B",
"A  c #98D84C",
"S  c #8AC556",
"D  c #94CC53",
"F  c #96C856",
"G  c #95D153",
"H  c #9BD353",
"J  c #9DD758",
"K  c #A1D446",
"L  c #A2D44B",
"P  c #A4DB4D",
"I  c #AADC4D",
"U  c #A2CF5A",
"Y  c #A2D553",
"T  c #A4DB52",
"R  c #ACDD54",
"E  c #A5DB5D",
"W  c #AADA5C",
"Q  c #B0DD56",
"!  c #A5E04D",
"~  c #AEE14F",
"^  c #A5E153",
"/  c #ADE050",
"(  c #AEE35A",
")  c #B0E055",
"_  c #B2E45B",
"`  c #B9E85E",
"'  c #9BCD6B",
"]  c #9BC679",
"[  c #A5D566",
"{  c #B2DF68",
"}  c #A9D37A",
"|  c #B3D976",
" . c #A9E766",
".. c #B6E562",
"X. c #B8E664",
"o. c #B5EA64",
"O. c #BAE965",
"+. c #BCE96B",
"@. c #B5E374",
"#. c #C2E964",
"$. c #C4EC75",
"%. c #C3EC7A",
"&. c #C5F37B",
"*. c #CBF57E",
"=. c #D1F272",
"-. c #779192",
";. c #8F8B83",
":. c #958B86",
">. c #95938E",
",. c #9D928A",
"<. c #999B91",
"1. c #A98484",
"2. c #B88886",
"3. c #B5968A",
"4. c #A69A96",
"5. c #AD9A94",
"6. c #9EA492",
"7. c #A2A58E",
"8. c #A2A594",
"9. c #ABAB97",
"0. c #A4A39D",
"q. c #A6A99A",
"w. c #ABAC9D",
"e. c #B5A49D",
"r. c #979EA1",
"t. c #87A8A6",
"y. c #86ACAC",
"u. c #89ADAD",
"i. c #9AA8AA",
"p. c #8AB1A7",
"a. c #8EAFB1",
"s. c #8CB0B1",
"d. c #92B3B4",
"f. c #9BB4B3",
"g. c #95B9BA",
"h. c #9DBBBA",
"j. c #AAA9A4",
"k. c #B0ABA3",
"l. c #B3B4A6",
"z. c #A3BDBC",
"x. c #B8B6B2",
"c. c #BBBBBB",
"v. c #C58B8B",
"b. c #C6928E",
"n. c #CA9392",
"m. c #D69A99",
"M. c #D7A09F",
"N. c #C8AFAF",
"B. c #D1A4A2",
"V. c #DBA3A2",
"C. c #CCB5A9",
"Z. c #D1B6AB",
"A. c #D2B9AC",
"S. c #D5B3B2",
"D. c #DDBDBD",
"F. c #E8A9A8",
"G. c #EDB3AC",
"H. c #E9B8AE",
"J. c #F3B6AD",
"K. c #E9B8B4",
"L. c #F4B5B4",
"P. c #F9B6B5",
"I. c #F6BAB6",
"U. c #FEBCBC",
"Y. c #B5DC8A",
"T. c #BCE689",
"R. c #ADC2B9",
"E. c #C9EC85",
"W. c #CAF382",
"Q. c #CBF688",
"!. c #D4F588",
"~. c #CEEA91",
"^. c #DBF79C",
"/. c #E6FA89",
"(. c #E7F899",
"). c #F0FE92",
"_. c #C4C1BD",
"`. c #DBC2B9",
"'. c #EBC5B6",
"]. c #F4CDBC",
"[. c #D7EDA6",
"{. c #DCF7AA",
"}. c #EAF9A9",
"|. c #EDFDAE",
" X c #B6BEC0",
".X c #DDBDC1",
"XX c #9EC3C3",
"oX c #A4C3C3",
"OX c #A9C5C5",
"+X c #AAC7C9",
"@X c #A6C8C8",
"#X c #AECCCC",
"$X c #B8C2C3",
"%X c #B1CDCE",
"&X c #AED1CD",
"*X c #ACCED0",
"=X c #B3CED1",
"-X c #AED2D2",
";X c #B3D3D4",
":X c #B9D3D4",
">X c #B2D8D6",
",X c #B6D7D8",
"<X c #B6DCDB",
"1X c #B9DDDD",
"2X c #BADBE0",
"3X c #C3CAC8",
"4X c #CDCDCD",
"5X c #D8C9C6",
"6X c #D4D0CE",
"7X c #C9D7D6",
"8X c #CDD6D6",
"9X c #DCD7D3",
"0X c #E2C3C4",
"qX c #E4C6C9",
"wX c #E7C9C8",
"eX c #EBCCCD",
"rX c #EBD7C8",
"tX c #EDD2CC",
"yX c #F3D2CE",
"uX c #F3DBCB",
"iX c #ECCED1",
"pX c #F1CFD0",
"aX c #EED2D3",
"sX c #E2DEDB",
"dX c #F3D4D3",
"fX c #F9D7D4",
"gX c #F7D9D4",
"hX c #FAD9D4",
"jX c #F9D8D8",
"kX c #F5FECE",
"lX c #F6E5D4",
"zX c #F3FFD3",
"xX c #E6E4E4",
"cX c #EAE9E6",
"vX c #EBEBEB",
"bX c #F6EDEC",
"nX c #F0F1EE",
"mX c #F3F3F2",
"MX c #F7F9F8",
"NX c #F9F9FA",
/* pixels */
"/ / / / / / / / / / / / / / / / / / / / / / / / / / / / / / / / R R R / / / / / / / / / / / / / / / / / / / / / R R R / / / / / ",
"/ / / / / / / / / R / / / / / / / / / / / / / / / / / / / / / / R R R / / / / / / / / / / / / / / / / / / / / / / / R R / / / ~ ",
"/ / / / / / / / / R / R / / / / / / / / / / / / / / / R R R R R T Q Q Q Q Q R ~ / / / / / / / / / / / / I R T T I / ~ ~ ~ ~ ~ ~ ",
"/ / / / / / / / / / / / / / / / / / / / / / / / R R W u.y.y.y.y.u.S.S.S.S.S.A.Q Q R / / / / / / / / I I V m s d k D Y Y ~ / ~ ~ ",
"/ / / / / / / I I I I I I I I / / / / / / / R W y.u.s.oXd.d.d.s.i..X0X0X0XdXdXS.S.Z.R / / / / / I I I q q p S [ | | F H P / / / ",
"/ / / / / / / I ] Y.n g S H I I / / / / / W y.u.t.>X>X<X<X>X*X@Xr.D.dXyXdXjXdXdXdX0XZ.R / / I I I y q S E.(.|.}.(.}.|.[ H / / / ",
"/ / / / / / I S !.) ) (.[.f m I R / / / W y.t.>X>X<X<X<X<XXXa.u.i.D.D.wXeXgXhXjXjXdX0XZ.R / I I 0 9 { /.)./.=.#.#.#.(.[.D / / / ",
"/ / / / / / I d W.) ) ) ) ^.n s R R / W y.t.R.@X>X1X<X<X<X*X@X@X XwXeXyXyXgXhXhXhXdXeX0XZ.T I 9 q @./.=.#.` ` ` o.#.!.} s I / / ",
"/ / / / / / I m T.) ) ) ) ) !.b q / W y.t.oX-X<X1X1X1X1X1X1X2X1X8XhXhXgXgXgXhXhXgXgXfXeX0XZ.u r !.=.) ) _ _ ` _ O.=.@.q s P / / ",
"/ / / / / / / I 7 ' ) ) ) ) ) E.n d y.t.>X1X1X1X1X1X1X1X1X1X2X1X8XgXgXgXgXgXhXgXgXgXgXhXyX0XC.$.` / ( / / / ( _ O.o.q q h T / / ",
"/ / / / / / / / r 7 [ ) ) ) ) ) E.g t.>X<X1X1X1X1X1X1X1X1X1X2X1X8XgXgXgXgXgXgXgXgXgXgXgXhXdX0XZ.R R R R ( ( ( _  .q 9 w C I / / ",
"/ / / / / / / / I a 7 D ) ) ) ) W y.t.-X<X1X1X1X1X1X1X1X1X1X2X1X8XgXgXgXgXgXgXgXgXgXgXgXhXdX0XZ.W R R / ( ( (  .q 9 i h T I / / ",
"/ / / / / / / / / I a 7 ) ) ) ) W u.>X>X<X1X1X1X1X1X1X1X1X1X2X1X8XgXgXgXgXgXgXgXgXgXgXgXhXgXyX0XZ.R R R ( ( J 8 9 w h ^ I / / / ",
"/ / / / / / / / / / I j 7 ) ) ) W u.#X>X<X<X<X1X>X<X1X1X1X1X2X1X8XgXgXgXgXgXgXgXgXgXgXgXhXhXfXeXZ.I I R ( m 7 i w j P R I / / / ",
"/ / / / / / / / / / / I H M ) ) W u.OX&X-X-X;X;X;X<X1X1X1X1X2X1X8XgXhXhXgXgXgXgXhXfXfXgXgXgXhXeXZ.T I I s q w h V ! P I / / / / ",
"/ / / / / / / / / / / / I I I / W u.OX%X#X%X#X+X;X1X1X1X1X1X2X1X8XgXgXhXgXgXgXgXfXpXpXgXgXhXhXeX0XZ.I I I t A I I P P L P / / / ",
"/ / / / / / / / / / / / / / / R y.s.+X#X%X%X#X#X<X1X1X1X1X1X2X1X8XgXgXgXgXgXgXgXfXdXeXtXdXfXhXdX0XZ.~ ~ P P P Z Z Z N Z H / / / ",
"/ / / / / / / / / / / / / / / R u.oX#X%X#X#X+X;X<X1X1X1X1X1X2X1X8XgXgXgXgXgXgXgXhXdXeXwXdXgXgXdX5XZ./ / Y Y H N D H G N C T / / ",
"/ / / / / / / / / / / / / / R T u.oX%X#Xf.a.OX,X1X1X1X1X1X1X2X1X8XgXgXgXgXgXgXgXfXfXdXwXqXtXdXdX0XZ.~ H [ @.E.W.W.W.*.&.E T / / ",
"/ / / / / / ~ / / / / / / / / R y.h.%X#XOXoX>X1X1X<X1X1X;X1X2X1X8XfXgXhXdXdXhXhXhXhXfXeXqXeXdXdX0XZ.J %.!.W.$.O.X..._ O.W / / / ",
"/ / / / / / ~ / / / / / / / / W u.h.#XOXOX#X<X1X1X1X1X1X;X1X2X1X8XgXgXhXdXdXhXhXhXgXfXdXeXwXiXdX0XZ.Q.*.+._ _ _ ( _ _ ( T / / / ",
"/ / / / / / / / / / / / / / T u.z.OX#Xh.oX,X<X1X1X1X1X,X,X1X2X1X8XhXgXgXfXdXdXfXhXgXgXgXeX0XeXdXeX0XZ._ ( ( ( / ( ( ( T / / / / ",
"/ / / / I I I I P / / / / I ] u.-X#X#Xh.OX1X1X1X1X1X,X#X<X1X2X1X8XhXhXfXfXdXpXfXhXgXgXgXeXqXwXdXdXeXZ.P P P P T T T T P / / / / ",
"I / / P P L Z Z Z N Z / I S !.s.%X#XOXOX,X1X1X1X1X%X%XoX<X<X1X<X8XhXhXhXhXdXeXdXgXfXgXgXgXdXwXeXdXiX`.A C A Z B Y T T / / / / / ",
"/ / / Y Y H N G H D D N I d E.OX%X#Xh.h.,X1X1X1X*X+X+X<X1X<X1X<X8XyXfXgXgXfXdXeXeXdXgXgXdXdXqXeXdXeXwX/ / / / / / / N / / / / / ",
"/ / H [ @.E.W.W.W.T T E I m Y.OX%X#XOX+X%X#X#X#X+X,X1X1X1X<X1X<X8XdXhXgXhXhXhXdXeXeXaXdXdXdXeXiXdXeXrX/ / / / / / / / / / / / / ",
"/ J %.!.W.$.O.X._ D Y Y P R u OX%XOXOX#X%X%X%X+X#X<X1X1X1X<X1X<X8XdXgXgXgXhXhXdXtXeXeXdXdXaXaXeXiXiXrX/ / / / / / / / / / / / / ",
"{ Q.*.+._ _ ( ( | | F H P R a z.%Xz.oX%X%X%X%X+X;X<X1X1X1X1X2X<X8XdXgXgXfXhXhXhXdXeXeXdXdXaXdXwXiXeXtX/ / / / / / / / / / / / / ",
"*.#._ ( ( / / ( ( }.|.[ H / T f.+Xf.h.%X%X%X=X;X1X1X1X1X1X1X2X<X8XpXgXgXfXgXhXhXgXdXiXiXaXaXdXwXeXwXwX/ / / / / / / / / / / / / ",
"/ / / / / / / / / #.(.[.D I R f.#Xh.z.%X%X%X=X=X1X1X1X<X1X1X2X1X8XeXgXgXgXgXfXgXgXdXiXeXaXaXdXeXiXqX`./ / / / / / / / / / / / / ",
"/ / / / ) ) ) / / / !.} s I R u.%XoXOX#X#X%X%X=X,X,X,X>X1X1X1X1X7XwXgXgXgXdXdXfXgXdXaXiXeXiXdXeXeXD.C./ / / / / / / / / / / / / ",
"/ / / / / ) ) / / / / / / / R p.R.oXOX+XOX+X%X%X=X#X#X>X<X1X<X1X3XwXdXgXgXfXdXeXdXaXaXeXwXeXiXeXqXC./ / / / / / / / / / / / / / ",
"/ / / / / ) ) ) / / / / / / / R y.d.h.oXoXOX#X%X%X#X#X1X<X,X;X:X$XwXdXdXdXgXdXeXeXaXaXeXqXwXwX0XD.C.I / / / / / / / / / R / / / ",
"/ / / / / / ) ) ) / / / / / / R p.y.a.z.oXh.h.OX#X%X#X;X;X#XOXOXj..XeXtXtXdXdXaXeXeXwXS.S.qX0XD.C.s I / / / / / / T T T T / / R ",
"/ / / / / / / / / / / / / / / / R p.-.g.z.J.H.h.XXg.d.g.g.g.d.i.1 1.D.0X0X0X0X0XS.S.J.J.J.S.Z.A.q s P / / / / T D k k d m H / / ",
"/ / / / / / / / / / / / / / / / / R p.f.J.H.K.H.f.h.h.h.h.h.h.f.: > S.S.S.S.S.Z.B.G.J.J.J.G.8.q q h T / I I J d * * * * * p H T ",
"/ / / / / / / / / / / / / / / / / / R 3.H.J.I.H.2 B.K.K.K.V.V.m.m.m.F.F.G.U.I.M.> v H.I.I.H.<.9 w C I / T T p * c.c.c.c.c.* s H ",
"/ / / / / / / / / / / / / / / / / / R 0.K.K.K.Z.: V.U.U.U.P.P.P.P.P.P.P.P.U.U.m.# 2 K.K.'.`.<.i h T / I T s * c.c.4X4Xc.c.c.* D ",
"/ / / / R I I I R I / / / / / / / / R _.bXbXvXk.$ V.U.U.U.U.U.U.U.U.U.U.U.U.U.m.@ % N.bXbXcX6.h T I / I M * c.c.4X4X4X4Xc.c.* M ",
"/ / / / / T Z Z P A C A Z B Y T T / W 3XMXNXmX0.# V.U.U.U.U.U.U.U.U.U.U.U.U.U.m.# % x.MXNXmXl.T R / I ^ e * c.4X4X4X4X4Xc.c.* m ",
"/ I / / / / ^ V M D [ Y.~.[.} m N H 0.4XNXMXcX5.< F.U.U.U.U.U.U.U.U.U.U.U.U.U.V.3 , j.nXMXmX_.8./ ~ / T * c.c.4X4X4X4X4Xc.c.* M ",
"/ / / R / H r s ~.zXzXzXkXkXkXY.d 4.j.xXMXbX5X< v.P.U.U.U.U.U.U.U.U.U.U.U.U.U.I.F.2.2 9XMXmX9X8./ ~ / V * c.4X4X4X4X4X4Xc.* 6 N ",
"/ / R R V k Y.|.}.^.E.%.$.*.^.|.l 0._.NXmX9X2 v.L.U.U.U.U.U.U.U.U.U.U.U.U.U.U.U.U.G.1.4.mXmXmXl./ ~ / j * c.4X4X4X4X4Xc.c.* q P ",
"R / R S F {.}.$.X.o.o.X.X.O.%.{.f 0.3XMX6Xe.< m.U.U.U.U.U.U.U.U.U.U.U.U.U.U.U.U.U.U.b.2 6XNXmXR.R ~ / j * c.4X4X4X4Xc.c.* 5 m P ",
"P T M | ^.%..._ _ ....X.X.+.Q.] 0.x.NXmXz # n.L.U.U.U.U.U.U.U.U.U.U.U.U.U.U.U.U.U.U.G.4 1 NXNXmX8./ / m * c.c.4X4Xc.c.* 5 a P P ",
"' m @.!.X._ _ _ _ _ ..X.O.$.Y.p 0.c.NXNXxX# v.L.U.U.U.U.U.U.U.U.U.U.U.U.U.U.U.U.U.U.G.4 2 NXNXmXq./ / G * c.c.c.c.* * * q / / / ",
"U N *.` _ _ _ _ _ ......+.T.a u 0.mXNXNXcX: 2.F.L.I.U.U.U.U.U.U.U.U.U.U.U.U.U.U.I.L.F.c ,.NXNXmXk./ / E u * * * * * y a J / / / ",
"T M _ ) ) _ _ _ _ _ ..+.@.u y u 0.vXmXMXMX_.1.v F.L.U.U.U.U.U.U.U.U.U.U.U.U.U.P.L.V.c e.sXNXNXvXw./ / ( G a * * u a V A / / / / ",
"$._ / Q Q / ) ( _ _ X.W.a 0 9 R 8.j.vXNXnXcX5Xc v n.m.m.G.U.U.U.U.U.U.U.U.L.m.m.v.c 4.sXNXmXvX_.7.~ / ) _ ( A M A ^ T / / / / / ",
"X.Q R Q Q R Q ) ( _ +.d 9 q / / R 8.<.mXmXmXcXN.: - ; ; m.L.L.I.U.I.L.L.G.b.; - # :._.vXmXmXxX7.I ~ / / _ _ _ ( ( / / / / / / / ",
"R R R R R R Q Q _ ` m q r / / / / R q.vXvXxXj.w.: 3 c 3 4 2.2.2.3.3.2.2.2.v c < ; z k.l.vXxX7.I I / / / ~ / / / / / / / / / / / ",
"R R R R R R R Q ) T r m / / / / / / R 8.8.>.>.:.: `.].'.3.3 - @ O + ; 3 2 3.].'.< % >.>.>.q.f m I / / / ~ / / / / / / / / / / / ",
"R / / / / / R Q R K / / / / / / / / / / L .   . ; wXuX].].].'.#   . < '.].].].'.< =     o ) ^.n s R R I ~ / / / / / / / / / / / ",
"/ / / / / / ~ R / / / / / / / / / / / / / L . . $ uXuXuXuXuXrX%   . x ].uXuXuXrX2 >.  o ) ) ) !.b q / I R ~ / / / / / / / / / / ",
"/ / / / / / ~ / / / / / / / / / / / / / / / L X & lXlXuXuXuXuX1 . o :.uXuXuXlXuXz >.o ) ) ) ) ) E.n s / / / / / / / / / / / / / ",
"/ / / / / / / / / / / L / / / / / / / / / / / D k.lXnXMXMXnXcXz T T <.nXnXMXMXcX;.q.7 [ ) ) ) ) ) E.f V / / / / / / / / T / / / ",
"/ / / / P P P Z Z Z N Z / / / / / / / / / / / H w.cXcXmXvXmXvX9./ R k.mXmXcXvXvX,.9.a 7 D ) ) ) ) ) ~.p T / / / / / / / T / / / ",
"/ / / / Y Y H N G G G N C / / / / / / / / / / / H q.q.q.q.9.9./ / / R 9.w.j.w.7.9./ I a 7 ) ) ) ) ) ) ' m / / / / / / / / / / / ",
"/ / / H [ @.E.W.W.W.*.&.E T / / / / / / / / / / / / / / / / / / / / / / / / / / / / / I j 7 ) ) ) ) ) / / / / / / / / / / / / / ",
"/ / / %.!.W.$.O.X..._ O.W / / / / / / / ) ) / / / / / / / / / / / / / / / / / / ~ / / / I H M ) ) ) / / / / / / / / / / / / / / ",
"/ / / / +._ _ _ ( _ _ ( T / / / / / / / / / / / / / / / / ( / / / / / / / / / / ~ / / / / I I I / / / / / / / / / / / / / / / / ",
"/ / / / ( ( / / ( ( ( T / / / / / / / / / / R / / / / / / / / / / / / / / / / / / / / / / I R I / / / I I / / / / / / / / / / / ",
"/ / / / / P P T T R T P / / / / / / / / / / / / / / / / / / / / / / / / / / / / / / / / / / / / / / / / / / / / / / / / / / / / ",
"P P / / / A Z B Y T T / / / / / / / / / / / / / / / / / / / / / / / / / / / / / / / / / / / / / / / / / / / / / / / / / / / / / "
};
