/* XPM */
static char *_46efcbcf05f4e8fc58f84fcc954aa97ll2w6LOdvKegWeos[] = {
/* columns rows colors chars-per-pixel */
"64 64 222 2 ",
"   c None",
".  c #040304",
"X  c #02060D",
"o  c #02080F",
"O  c #0A0405",
"+  c #1C1B1C",
"@  c #171C1F",
"#  c #0C0A0F",
"$  c #3E5459",
"%  c #434D53",
"&  c #585352",
"*  c #744541",
"=  c #744B4B",
"-  c #734B47",
";  c #6F5455",
":  c #5F615F",
">  c #5B5E63",
",  c #7C5E61",
"<  c #666965",
"1  c #766765",
"2  c #7C7D7C",
"3  c #767675",
"4  c #747171",
"5  c #895E5B",
"6  c #916258",
"7  c #846B6A",
"8  c #9E6A65",
"9  c #936762",
"0  c #8C7471",
"q  c #A17973",
"w  c #88817D",
"e  c #AE9673",
"r  c #AB9279",
"t  c #B59674",
"y  c #BD9E7D",
"u  c #AB877B",
"i  c #C59E7E",
"p  c #867F80",
"a  c #7C8486",
"s  c #7F979A",
"d  c #838584",
"f  c #898583",
"g  c #838589",
"h  c #8A8B86",
"j  c #918E8A",
"k  c #958884",
"l  c #92918D",
"z  c #879290",
"x  c #8B9D9F",
"c  c #939392",
"v  c #9B9A95",
"b  c #9A9C9A",
"n  c #AA8988",
"m  c #B9958A",
"M  c #A69B97",
"N  c #BB9C9B",
"B  c #BB9B93",
"V  c #A4A29F",
"C  c #AAA59D",
"Z  c #BCA099",
"A  c #BCA081",
"S  c #859FA8",
"D  c #B99FA0",
"F  c #85A2A5",
"G  c #89A2A4",
"H  c #8AA6AA",
"J  c #8CAAAC",
"K  c #86A3A8",
"L  c #97AAAA",
"P  c #92B1B2",
"I  c #98B6B8",
"U  c #9DBBBE",
"Y  c #98B7BB",
"T  c #A4A4A1",
"R  c #AEACA9",
"E  c #ABA8A6",
"W  c #B1AEAB",
"Q  c #B5A6A4",
"!  c #BDB6AE",
"~  c #B6B2AD",
"^  c #A3BEBD",
"/  c #A5B7B8",
"(  c #BDB6B1",
")  c #BDBAB5",
"_  c #BCB9BA",
"`  c #B5B7B5",
"'  c #A9ACB0",
"]  c #C88E8C",
"[  c #D48B84",
"{  c #D98C87",
"}  c #D49894",
"|  c #CD9293",
" . c #C4A582",
".. c #C5A984",
"X. c #C8A280",
"o. c #CAA599",
"O. c #D1AC9D",
"+. c #D5A698",
"@. c #D7BD9F",
"#. c #DB9EA0",
"$. c #CBADA4",
"%. c #C7A8A8",
"&. c #D9A5A3",
"*. c #C7B4AE",
"=. c #DEBAAB",
"-. c #D7B5A2",
";. c #C2ABB1",
":. c #C1BCB6",
">. c #C2BEBA",
",. c #C6B9B7",
"<. c #DDBDB4",
"1. c #D2BCBC",
"2. c #DBBBBD",
"3. c #D7B6B6",
"4. c #D6AFB1",
"5. c #E3A6A7",
"6. c #E5ACAC",
"7. c #F5AEA1",
"8. c #F4ADAB",
"9. c #EBB3AD",
"0. c #EEBBBB",
"q. c #E9B7B5",
"w. c #F3B4B4",
"e. c #F5BBB3",
"r. c #F6BEBA",
"t. c #FEBCBC",
"y. c #FABAB6",
"u. c #EDB1AC",
"i. c #A5C1BE",
"p. c #A8C1BF",
"a. c #BFC1BC",
"s. c #C5C2BC",
"d. c #DDC2BA",
"f. c #E3C7A9",
"g. c #E4C4BB",
"h. c #EECFB8",
"j. c #EBC8B3",
"k. c #F1C2BE",
"l. c #F9C4BF",
"z. c #FAD0BC",
"x. c #A3BFC1",
"c. c #C2BFC1",
"v. c #D4BDC1",
"b. c #DEBEC2",
"n. c #E4BEC1",
"m. c #9FC1C1",
"M. c #A4C2C3",
"N. c #AAC4C4",
"B. c #ACC6CA",
"V. c #ADCBCC",
"C. c #B1CDCE",
"Z. c #B4C5C8",
"A. c #B3D3CF",
"S. c #AFCED0",
"D. c #B1CED0",
"F. c #AED1D1",
"G. c #B3D2D4",
"H. c #B7D6D8",
"J. c #B6DDDC",
"K. c #BADCDD",
"L. c #BBD8D7",
"P. c #BADEE1",
"I. c #BBE1E0",
"U. c #C5C5C4",
"Y. c #CAC6C2",
"T. c #CCC9C5",
"R. c #CDCBCA",
"E. c #C2C8C6",
"W. c #DEC1C3",
"Q. c #D4CDCC",
"!. c #D4C8C5",
"~. c #D4D1CE",
"^. c #C0DDDC",
"/. c #C5D5D4",
"(. c #D5D5D2",
"). c #DAD6D3",
"_. c #DAD9D5",
"`. c #DCDBD9",
"'. c #D6C9D1",
"]. c #E4C4C5",
"[. c #EDCBC5",
"{. c #E4C6CA",
"}. c #E9C5CA",
"|. c #E6C9CA",
" X c #EBCBCC",
".X c #E7C6C5",
"XX c #F3CECB",
"oX c #F6C6C2",
"OX c #E6D1C6",
"+X c #E8D6CA",
"@X c #F4D1CF",
"#X c #FBD1CD",
"$X c #EDCED1",
"%X c #F1CED1",
"&X c #EDD2D3",
"*X c #EAD8D8",
"=X c #F2D3D4",
"-X c #FAD7D4",
";X c #F3D9D5",
":X c #FAD9D4",
">X c #FADBDB",
",X c #F3DADA",
"<X c #E8E2D9",
"1X c #F7E6DA",
"2X c #FAE9DC",
"3X c #F7E4D7",
"4X c #C1DFE1",
"5X c #E5E4E2",
"6X c #EBE5E3",
"7X c #ECECEA",
"8X c #F6E3E3",
"9X c #FAEBE3",
"0X c #F8EBE7",
"qX c #FEF1E6",
"wX c #FDF3EC",
"eX c #F8F6EB",
"rX c #F3F3F2",
"tX c #FBF5F4",
"yX c #FDF9F6",
"uX c #F9F9F9",
"iX c #F6F9F9",
"pX c #EFF0EF",
/* pixels */
"                                                                                                                                ",
"                                                                                                                                ",
"                                                    U K K K F H ;.;.;.;.;.;.                                                    ",
"                                              x.G.V.N.U U U ^ p.W.].].].]..X].;.;.                                              ",
"                                              N.G.G.G.G.G.G.D.G.|.}.}.}.}. X X}.|.                                              ",
"                                  . . . 4 J m.K.K.J.J.J.J.J.K.K.*X X.X}..X-X:X:X=X.X;.& . O . o                                 ",
"                              o o ( tX_.o o K.K.K.K.K.K.K.K.K.K.*X-XXX X:X:X:X:X-X:Xo o 5XrX~.V X                               ",
"                            X c ~ ( _.rX(.c @ K.K.K.K.K.K.K.K.K.;X:X X X-X:X-X-X@Xo R <X6X`.Y.~ R X                             ",
"                            o E ! ( 5X5X~.W < o ^.K.K.K.K.K.K.K.;X:X=X=X:X:X-X@Xo 4 ) `.5X5XT.! ) : @                           ",
"                          . ) :.:._ rX).( >.).. L.K.K.K.K.K.K.K.;X:X:X:X:X:X-X@X+ ~.:.( *XtX~.:.) >.+                           ",
"                          . tX`.5XtX_.( ( ( rX. L.K.K.K.K.K.K.K.;X:X:X:X:X:X-X|.+ 6X( ! s.).6XpX_.rXo                           ",
"                          . (.pX6X_.( ! ( ( (.. L.K.K.K.K.K.K.K.;X:X:X:X:X:X-X|.+ R.( *.! ) T.`.rX_.o                           ",
"                            o U.Q.( ( ( ( R.>.. /.K.K.K.K.K.K.K.;X:X:X:X:X:X-X|.+ ~ Q.( ! ( ( s.`.o                             ",
"                            o 2 V Y.( ( T.~ 4 o ^.K.K.K.K.H.H.K.;X:X:X=X:X:X-X-Xo 4 ) Y.( ( T.>.f o                             ",
"                            ^ o : _.rX(.s.f X L.J.K.K.K.K.G.D.V.,X:X=X=X:X:X:X:Xb.# M T.<XrX5X( O |.                            ",
"                            x.H.o . . . . o ^.V.P.K.K.K.K.S.F F ;X:X X}.-X:X:X-X=X,Xo . . . O o >X1.                            ",
"                            x.H.I.^.^.^.C.B.M.K.P.K.K.K.F.F U L.,X:X X X=X:X:X:X-X=X>X:X:X>X:X:X:X1.                            ",
"                            x.H.K.K.K.G.B.B.G.K.K.K.K.K.G.F P V.,X X].].=X:X:X:X;X=X XXX=X=X=X:X:X{.                            ",
"                            M.H.K.H.H.M.B.V.K.K.K.K.K.H.x.F I M.*X.Xb.b.$X=X-X:X;X$X X}. X=X=X-X-X$X                            ",
"                          M.V.K.H.D.V.H V.K.J.J.K.J.L.S.F P x.N..X2.2.b.{.&X-X:X=X X=X.XW.=X=X=X=X=X}.                          ",
"                          x.V.D.D.D.K D.H.K.K.K.K.A.B.^ F P x.p..X1.<X;X2..X%X=X=X2.=X X].2.|.=X=X=X1.                          ",
"                          Y V.D.D.D.M.H.K.K.J.K.A.B.^ ^ F P x.p.;.8X9X<X2..X%X%X X2.=X:X=X{. X=X&X&X1.;.                        ",
"                          Y C.C.V.B.B.K.K.K.K.V.@... .e F P x.p.;.0XqXe ....@.<. X}.=X:X=X$X X$X=X=X.X;.                        ",
"                          Y C.C.N.U G.4XK.K.V.V.V.x.x.3XF P P i.;.0XeXeX1X1X1.<.g..X=X=X@X=X X{.=X=X}.;.                        ",
"                          K D.C.U H K.K.K.e e y  ... .y 3XF F ^ *Xv.6X<XA  .X.X.i t [.=X=X=X|.W.=X=X X;.                        ",
"                        K V.D.M.B.V.K.K.K.C.t f.o.B m u r <X1XF ;.$Xv.r u m B o.f.t g.;X=X-X=X$X{.=X=X&X;.                      ",
"                      K M.D.D.J U H.K.F.C.C.t 0Xf.$.Z m XX1X1X1X,X;.{. X3.Z $.f.8Xt .X=X=X:X=X=X2.=X=X X;.                      ",
"                      K M.C.C.I M.K.K.C.C.C.t =XoXo.Z $.>X1X1X>X1X&X;..X$.N o.[. Xt O..X=X:X-X=XW.=X&X X;.                      ",
"                      K M.V.C.M.V.K.K.C.C.t [ 8.t.oXXX:X8X0X8X8X8X0X;.].=XXXl.e.7.[ t <.=X:X-X=X|.=X&X X;.                      ",
"                      K M.V.M.V.H.K.V.C.C.,.[ r.oX#X:X9XwXyXyXyXyXyX;.W.9X;XXXoXe.{ oX=X=X=X=X=X=X|.&X X;.                      ",
"                      K H D.F N.C.C.V.C.D.,.[ Y.8X9XwXyXyXyXyXyXtX;.*XtXtXwX9X:Xl.{ oX=X=X=X=X=X&Xb.&X{.;.                      ",
"                      K H V.U V.C.C.C.C.D.Z.%.C.1X9XwXeXyX0X0XyXyX*X;.).wXqX1Xg.} u.XX=X=X=X=X=X=X].&X{.;.                      ",
"                        H x.x.M.N.C.C.C.C.V.p.C.].[.+X9XwX0XOXwXwXOX9X;.qX+Xg.-.&. X=X=X=X=X=X$X}..X$X{.                        ",
"                          F x.H I C.C.C.C.V.C.C.m } -.3XqXwXqXOXOXqX9XqX3XO.{ 5.}.=X=X=X=X=X&X$X2.}.{.                          ",
"                            S U U x.C.C.C.C.x.C.` L M ] +.qXqXwXwXqX2X+.] =.]. X{.}.&X=X=X&X X{.{.v.                            ",
"                                  H x.7.7.7.x.D.G E &.* * u 2X2X2X+.6 * * #.3.b.}..Xq.u.q.{.2.;.                                ",
"                                  G 7.r.#X#X7.L >.N n 7 7 9 8 8 8 8 5 7 7 n q.n.2.q.e.y.e.q.2.;.                                ",
"                                  L 7.r.r.#X7.L 4.%.T T v 1 0 T T , w v T V *.4.2.e.e.e.r.u.q.;.                                ",
"                                  x./ 9.7.7.^.^ d U.uXuXY.l uXuXiXh W (.tXuXl Q }.;X9.7.w..X}.'.                                ",
"                                  J C./.c._ B.J iXuXuXU.>.l uXuXT.w W U.U.uXrXrX;.-X[.oX[.{.n.;.                                ",
"                                  K D.K.S.N.M.K iXuXuXrXrXR ~ s.V T R.rXuXuXuXrX;.:X=X=X=X{.2.;.                                ",
"                                s K D.K.G.B.M.F rXuXuXuXrX_ C M M ( rXuXuXuXrXrX;.:X=X=X=X{.b.;.                                ",
"                              g z K V.H.D.V.M.G a.rXuXuXc.j Q t.t.k ~ rXuXtXE.>.;.-X=X=X=X}.d.;.g                               ",
"                              g z K M.J N.V.M.F j W rXrXj 3.w.t.t.q.B M rXrXc Q ;.}.%X{.W..XW.;.g                               ",
"                              d z F P F x.C.M.K %.D v v %.r.t.t.t.t.6.%.M v %.4.;.{.%X{.v.;.v.;.d                               ",
"                              d U.F / F x.V.p.G k.&.N N r.t.t.t.t.t.t.9.N N q.0.;.}.$X{.1.;.;.;.T                               ",
"                            a U.U./ U.x x.B.p.G k.t.t.t.t.t.t.t.t.t.t.t.t.t.t.0.;.}.$XW.1.;.!.Q.~.d                             ",
"                            d uXuXuXU.G I M.p.G k.t.t.t.t.t.t.t.t.t.t.t.t.t.t.0.;.{.$X].Y.;.5XuXuXf                             ",
"                            d uXuXiXpXG Y M.p.G k.t.t.t.t.t.t.t.t.t.t.t.t.t.t.0.;.{.}.W.;.pXuXtXuXf                             ",
"                            d R.uXuXuXG B.B.M.G oXt.t.t.t.t.t.t.t.t.t.t.t.t.t.0.;.{.].;.;.uXiXtX`.f                             ",
"                            a E ) R.uXG B.B.I G N ] | w.t.t.t.t.t.t.t.t.w.] ] %.;.W.;.;.`.uXuXT.R                               ",
"                              a 2 3 _ x B.B.G G 1 5 9 } 5.5.5.5.5.5.5.&.} 5 5 n ;.;.:.:.`.`.c 2 a                               ",
"                                  o f d f z G F g.j.=.= = = = = = = = - - q.j.<.;.;.j f f f > o                                 ",
"                                    o % % % $ G h.h.=.O.O.6 = o o , m O.O.z.2X+X;.> % % % o                                     ",
"                                      o o o o p tXwXh.=.=.8 = o o 7 +.z.z.3X3X1.q o o o o                                       ",
"                                          o o 0 wXwXwXh.h.q ; o o 4 B d.3XwX`.M 7 o o                                           ",
"                                            o f l wXwXwXj f : o o d j `.wXwXM h 2 o                                             ",
"                                              d 7XrXuXuXpXl < o o d Q.rXuXtXrX_ d                                               ",
"                                                ' wXwXuXuXc 2     a (.uXuXuX~ b                                                 ",
"                                                g U.uXuXuXb         R.uXuXuXv                                                   ",
"                                                    d d d             d d d                                                     ",
"                                                                                                                                ",
"                                                                                                                                ",
"                                                                                                                                "
};
