/* XPM */
static const char *slime[] = {
/* columns rows colors chars-per-pixel */
"64 64 151 2 ",
"   c #000000",
".  c #060B04",
"X  c #0B0E01",
"o  c #091105",
"O  c #0C110B",
"+  c #131313",
"@  c #0E2408",
"#  c #12240E",
"$  c #132A0B",
"%  c #14350D",
"&  c #183D0F",
"*  c #1C3515",
"=  c #1C3815",
"-  c #1E3B18",
";  c #203A14",
":  c #213B1A",
">  c #354500",
",  c #354900",
"<  c #394B00",
"1  c #3D5201",
"2  c #3E500C",
"3  c #23431C",
"4  c #294E1F",
"5  c #235A15",
"6  c #27521C",
"7  c #266117",
"8  c #274220",
"9  c #294522",
"0  c #2F5525",
"q  c #2F5C25",
"w  c #315E26",
"e  c #335A29",
"r  c #326026",
"t  c #316D22",
"y  c #39622F",
"u  c #376F29",
"i  c #347324",
"p  c #387728",
"a  c #3D7F2D",
"s  c #404F00",
"d  c #526900",
"f  c #557402",
"g  c #597400",
"h  c #5C7B00",
"j  c #627C00",
"k  c #427136",
"l  c #437138",
"z  c #767676",
"x  c #638201",
"c  c #688300",
"v  c #6D8B00",
"b  c #7CA800",
"n  c #43882E",
"m  c #458536",
"M  c #458B33",
"N  c #488D37",
"B  c #4A8F39",
"V  c #4B913A",
"C  c #50A13C",
"Z  c #4F8B40",
"A  c #569D45",
"S  c #589F46",
"D  c #57A045",
"F  c #57AE41",
"G  c #5CA34A",
"H  c #5AB643",
"J  c #5CBC45",
"K  c #61A94F",
"L  c #65BA4F",
"P  c #64AB52",
"I  c #69B357",
"U  c #6ABB56",
"Y  c #6AB358",
"T  c #70B65E",
"R  c #678060",
"E  c #728D6B",
"W  c #6F9765",
"Q  c #6F9D63",
"!  c #62C24A",
"~  c #63CF48",
"^  c #6BDE4E",
"/  c #6AC454",
"(  c #6BCB53",
")  c #6EC659",
"_  c #6DD453",
"`  c #6DDF51",
"'  c #6BE04E",
"]  c #6EE051",
"[  c #70E155",
"{  c #76E25B",
"}  c #79CB65",
"|  c #82A700",
" . c #83AA00",
".. c #8AAD00",
"X. c #85B400",
"o. c #8DB500",
"O. c #8DBB00",
"+. c #90B600",
"@. c #91BD00",
"#. c #99BF00",
"$. c #8FC300",
"%. c #92C400",
"&. c #9AC600",
"*. c #93C800",
"=. c #95C800",
"-. c #96C802",
";. c #98C900",
":. c #9BCA00",
">. c #9DC901",
",. c #9DCD00",
"<. c #9FCD00",
"1. c #9FD101",
"2. c #A3C500",
"3. c #A1CA00",
"4. c #A2CD00",
"5. c #A2CF00",
"6. c #A1D101",
"7. c #A3D100",
"8. c #AAD300",
"9. c #AAD500",
"0. c #ABD500",
"q. c #AED801",
"w. c #B3D600",
"e. c #B4DB00",
"r. c #88CF76",
"t. c #88D774",
"y. c #84E56C",
"u. c #88E671",
"i. c #9EA19D",
"p. c gray63",
"a. c #92C086",
"s. c #9DCB92",
"d. c #A1CF95",
"f. c #96E982",
"g. c #9DE38C",
"h. c #9FEA8D",
"j. c #A1EB8F",
"k. c #A4EC92",
"l. c #B7D1B1",
"z. c #BDD7B7",
"x. c #BADCB2",
"c. c #B0EFA0",
"v. c #BAF1AE",
"b. c #C2DDBC",
"n. c #C3F3B8",
"m. c #C9F4BE",
"M. c #C8E3C2",
"N. c #F6F6F6",
"B. c #F4FDF2",
"V. c #FEFFFE",
"C. c white",
/* pixels */
"@.%.%.;.%.o.$.%.=.=.=.%.,.=.=.%.4.;.=.%.$.$.$.$.$.$.$.$.%.=.=.=.;.+.%.%.$.$.$.$.$.%.=.=.=.=.=.;.,.=.;.>.O.%.=.=.%.%.$.$.%.=.=.=.",
"%.%.=.;.O.$.$.$.%.%.=.%.=.=.=.%.=.=.%.$.$.$.$.$.$.$.$.%.%.%.%.+.#.+.O.%.$.$.$.$.$.$.%.=.=.%.=.=.%.=.;.8.=.6.4.O.@.%.$.$.$.%.$.%.",
"%.%.=.=.=.=.6.=.$.%.%.%.=.=.=.%.=.%.$.$.$.%.;.$.$.$.$.%.=.=.=.;.3.%.%.$.%.%.%.$.$.$.$.%.%.%.%.%.%.=.=.%.;.=.=.=.O.$.$.$.$.$.$.$.",
"%.%.%.=.=.=.%.%.$.$.$.%.%.=.%.%.%.%.$.$.$.$.6.$.6.%.$.$.%.%.$.%.%.%.$.&.O.*.%.$.$.$.$.$.%.%.%.%.%.=.%.=.=.=.=.6.%.%.$.$.$.$.$.$.",
"%.%.=.=.=.=.%.$.$.$.$.$.$.%.%.$.%.%.$.%.%.;.=.>.%.%.$.$.$.$.$.$.%.$.=.=.=.4.o.%.$.$.$.$.%.@.%.$.%.%.$.=.=.=.=.X.%.%.$.$.$.$.$.$.",
"@.%.%.=.=.=.4.%.$.$.$.$.O.O.O.O.$.%.%.%.%.;.;.=.=.@.$.$.$.$.$.$.%.=.=.=.1.@.>.=.=.%.$.$.%.;.%.%.$.$.$.%.=.=.%.$.$.$.$.$.$.$.$.=.",
"O.$.$.$.%.,.&.%.$.$.$.O.O.O.O.O.$.=.O.o.o.O.O.O.X.%.%.$.$.$.$.$.%.=.=.=.=.=.6.%.%.$.$.$.%.%.=.%.$.$.$.$.%.%.%.%.$.$.$.>.=.&.%.3.",
"=.=.O.o.O.=.%.$.$.$.$.$.$.$.O.o.O.%.,             v %.%.$.$.$.$.$.%.=.=.%.%.+.O.O.$.%.;.=.=.%.%.$.$.$.$.$.O.O.O.%.%.=.&.=.%.;.O.",
";.>.O.%.$.$.$.$.$.$.$.$.$.$.$.$.$.%.,             g o.O.o.o.o.o.o.O.%.=.=.=.%.%.%.%.q.6.>.%.$.$.$.o.o.o.o.o.o.o.%.%.=.=.%.;.;.;.",
"%.%.%.O.o.o.o.o.o.o.O.=.=.=.=.O.X.X.2 + + O o o o h X.X.o.O.O.O.O.$.=.%.=.;.=.4.%.$.@.0.;.=.=.%.%.O.o.o.o.o.O.$.%.%.%.%.%.=.%.%.",
"%.=.=.O.O.O.O.O.O.O.%.%.%.,.=.<     p.C.C.j.' ' ' 6     h %.%.$.$.$.=.=.%.&.,.e.$.$.O.,.%.%.%.%.%.%.$.@.O.$.>.$.$.%.=.&.=.@.$.$.",
"=.;.=.$.$.$.%.%.%.%.%.=.%.;.=.<     i.C.C.h.^ ^ ^ 6     h %.O.$.$.$.%.,.,.%.=.&.$.$.$.$.$.O.&.%.$.$.$.4.%.%.,.o.%.=.;.;.8.@.%.=.",
"%.%.%.%.$.$.%.=.%.=.=.=.=.=.@.,     W c.c.} H H H 3     f o.b =.$.$.%.>.e.&.%.%.%.%.%.%.%.o.e.%.$.$.$.=.0.=.=.=.*.=.=.e.+.%.=.@.",
"%.%.=.=.=.%.=.=.=.O.=.=.=.;.%.,     M ' ' F V V V *           g $.$.$.$.@.%.$.%.O.O.=.=.@.@.;.=.$.$.$.%.%.@.=.%.=.=.%.;.$.$.%.,.",
"%.=.=.,.;.=.%.=.=.O.=.;.=.%.;.,     M ' ' F V V V *           h %.$.$.$.$.$.%.%.$.O.%.4.;.;.=.=.$.$.$.$.=.=.=.%.%.%.=.0.O.$.$.$.",
"%.,.;.4.;.%.%.;.=.+.%.@.,.@.+.1 X X n ~ ~ C m m m ; X X X X X g X.X.X.O.@.%.%.%.>.=.%.=.6.;.=.=.%.$.$.O.O.O.O.O.O.%.%.%.%.$.$.$.",
"%.=.,.=.;.;.;.>.4.O.$.$.o.>.4.;.4.$.,             h %.%.O.%.$.,       g O.$.%.&.e.,.=.=.;.6.;.%.o.o.o.o.o.o.o.o.o.o.o.o.O.$.$.$.",
"$.@.&.;.=.o.%.>.>.%.$.$.%.%.=.=.=.4.<             h %.=.@.%.%.,       g o.o.O.%.$.%.=.=.=.=.=.O.O.o.o.o.o.o.o.o.o.o.o.o.O.%.%.$.",
"%.%.@.&.o.%.O.%.o.$.$.$.$.%.%.=.=.=.1 X X X o X X h O.%.=.o.%.,       g o.o.o.=.6.;.=.=.=.=.$.$.$.%.%.@.@.@.&.%.;.=.=.=.=.=.=.%.",
"=.%.%.@.$.$.%.%.%.%.@.O.%.%.;.;.=.=.%.=.%.;.=.=.%.>.X.X.o. .O.,       d | | X.%.%.=.%.%.%.%.$.$.$.$.O.o.o.+.4.;.;.=.=.=.=.,.&.3.",
"=.%.=.%.%.=.=.4.O.o.o.o.o.@.%.>.6.%.%.=.%.=.%.%.%.<                         h $.$.$.$.$.$.$.%.$.$.O.o.o.o.o.+.O.8.=.=.%.=.%.>.&.",
"6.%.=.%.=.;.%.O.o.o.o.o.o.X.O.$.$.%.O.O.%.=.%.$.=.s                         h %.%.%.%.%.%.%.%.=.%.O.o.o.o.o.o...=.=.@.%.;.%.%.>.",
"$.=.,.O.=.;.;.,.o.o.o.o.o.@.&.$.@.@.@.X.X.X.X.X.X.1 . . . . . . . . . . . . f X.X.X.o.o.o.%.;.&.3.%.O.o.o.o.X.>.%.@.O.o.;.,.O.=.",
"%.=.>.o.o.&.4.%.o.@.o.o.o.4.;.&.%.&.<             q V V G Y Y Y Y Y Y A V V *             h ;.=.>.O.O.X.......o.O.O.%.@.=.$.%.%.",
"%.%.%.O.o.O.&.%.X.&.@.+.+.;.;.@.=.;.<             q V V G Y Y Y Y Y Y A V V *             h 0.%.@.$.O.......o.O.@.>.=.=.%.%.%.=.",
"%.=.%.$.%.X.%.>.&.=.;.%.O.;.;.=.=.=.<     . . . . w V V G Y Y Y Y Y Y D V V - . . .       c %.$.$.$.$.$.$.$.$.%.=.>.;.%.=.=.=.=.",
"%.O.$.$.%.%.@.%.=.,.=.=.%.=.%.o.X.o., * 4 e y y y Z G G P Y Y / ( ( ( ! J J m y y y 0 4 # f | | O.$.$.o.@.=.%.%.O.O.%.=.;.>.%.@.",
"$.%.$.$.%.&.%.,.=.=.=.=.=.%.<       q V V G Y Y Y Y Y Y Y Y Y ( ' ' ' ' ' ' / Y Y Y A V V *     h %.O.@.,.6.%.%.%.%.%.%.$.O.%.O.",
"%.%.$.$.$.=.;.,.;.=.%.%.%.O.,       q V V G Y Y Y Y Y Y Y Y Y _ [ [ [ ] ' ' / Y Y Y A V V *     x >.4.$.%.;.=.%.$.$.O.+.6.=.%.%.",
"=.=.%.$.$.%.%.=.;.;.=.o.X.| , . . . r V V G Y Y Y / ( ( ( ( ( g.v.v.v.u.' ' / Y Y Y K G G 3 . . f o.O.o.%.=.%.%.$.$.,.o.%.%.&.;.",
"=.=.%.%.$.%.%.%.%.$.%.,     q V V V V V V G Y Y Y ( ' ' ' ' ' m.C.C.C.j.' ' / Y Y Y Y Y Y A V V *       h %.%.%.$.O.+.>.=.%.=.=.",
"%.=.=.%.%.%.%.$.$.$.%.,     q V V V V V V G Y Y Y ( ' ' ' ' ' m.C.C.C.j.' ' / Y Y Y Y Y Y A V V *       h =.=.%.$.$.%.%.,.=.=.=.",
"=.=.%.%.O.O.O.O.O.O.O.,     q V V V V V V G Y Y Y ( ' ' ' ' ' n.B.B.B.k.{ { ) Y Y Y Y Y Y S V V *       h =.=.%.%.%.@.%.6.=.=.%.",
"=.%.%.%.$.o.o.o.o.@.%.,     q V V V V V V G Y Y Y ( ' ' ' ' ' ' ' ' ' m.C.C.j.' ' ' / Y Y Y Y Y 8       h =.%.$.$.$.%.$.=.=.;.%.",
"$.$.$.%.%.%.%.%.=.%.%.,     q V V V V V V G Y Y Y ( ' ' ' ' ' ' ' ' ' m.C.C.j.' ' ' / Y Y Y Y Y 8       h ,.%.$.$.%.%.%.%.%.%.%.",
"$.$.$.%.=.=.%.=.=.=.=.,     q V V V V V V G I I I ( ^ ^ ^ ' ' ' ' ' ' n.C.C.h.' ' ' / Y Y Y Y Y 8       g $.%.3.=.=.%.%.%.$.%.%.",
"$.$.%.=.=.=.%.=.=.=.%.,     q V V V V V V A G G G L ( ( _ ' ' ' ' ' ' f.c.c.y.' ' ' / Y Y Y Y Y 8       g o.+.2.@.=.=.=.%.$.$.$.",
"$.;.0.;.o.%.%.q.e.%.,.<     q V V V V V V V V V V G Y Y ( ' ' ' ' ' ' ' ' ' ' ' ' ' / Y Y Y Y Y 8       g @.%.%.&.=.;.=.%.$.$.$.",
"$.%.$.e.%.%.=.%.%.%.%.,     w V V V V V V V V V V P T T ( ^ ^ ^ ^ ^ ^ ] [ [ ` ^ ^ ^ / Y Y Y Y Y 9       h %.%.%.%.$.=.%.%.$.$.$.",
"%.;.4.%.O.$.%.$.o.X.X., @ % u V V V V V V V V V V a.x.x.r.( ( ( ( ( ( g.v.v.t.( ( ( U Y Y Y Y Y k 4 4 # g X.o.O.=.$.=.%.$.$.%.q.",
"=.>.+.$.%.$.$.$.,     & 7 7 a V V V V V V V V V V z.C.C.d.Y Y Y Y Y Y M.C.C.d.Y Y Y Y Y Y Y Y Y A V V V *     h 1.%.%.$.$.%.=.%.",
";.=.=.=.e.%.%.%.,     & 7 7 a V V V V V V V V V V z.C.C.d.Y Y Y Y Y Y M.C.C.d.Y Y Y Y Y Y Y Y Y A V V V *     h >.,.$.$.$.%.=.=.",
"=.=.%.o.o.@.%.$.,     & 7 7 a B B B V V V V V V V l.N.N.s.Y Y Y Y Y Y b.N.N.s.Y Y Y Y Y Y Y Y Y A V V V *     h %.%.$.$.$.%.=.=.",
"=.%.%.%.%.%.%.$.,     & 7 7 t p p p M V V V V V V R z z Q Y Y Y Y Y Y E z z Q Y Y Y Y Y Y Y Y Y A V V V *     h %.O.O.O.$.$.%.%.",
"=.;.=.%.$.%.$.$.,     & 7 7 7 7 7 7 a V V V V V V *     l Y Y Y Y Y Y 8     l Y Y Y Y Y Y Y Y Y A V V V *     h O.o.o.O.O.$.%.=.",
"%.+.4.4.$.$.$.$.,     & 7 7 7 7 7 7 a B B B B B B *     k I I I I I I 8     k I I I I I I I I I A B B B *     h %.O.O.$.$.%.=.=.",
"=.O.%.o.$.$.$.%.,     & 7 7 7 7 7 7 t p p p p p p $     y G G G G G G :     y G G G G G G G G G m p p p $     h %.=.@.%.%.%.O.=.",
"w.O.$.O.o.o.o.o.>     & 7 7 7 7 7 7 7 7 7 7 7 7 7 @     q V V V V V V *     q V V V V V V V V V i 7 7 7 @     j *.=.0.o.%.$.%.O.",
"%.%.O.o.o.o.o.o.,     & 7 7 7 7 7 7 7 7 7 7 7 7 7 @     q V V V V V V *     q V V V V V V V V V i 7 7 7 @     h %.=.0.&.=.$.$.$.",
"%.%.$.O.O.O.O.o.< X X & 5 5 5 5 5 5 5 7 7 7 7 7 7 $     q N N N N N N =     q N N N N N N m m m t 5 5 5 $ X X x %.=.=.=.&.$.$.$.",
"%.%.$.$.$.$.%.O.o.o.o.>             & 7 7 7 7 7 7 7 7 7 7 7 7 7 7 7 7 7 7 7 7 7 7 7 7 7 7 @             h %.$.$.=.O.%.%.$.%.$.$.",
"%.%.%.%.$.$.%.%.$.$.$.,             & 7 7 7 7 7 7 7 7 7 7 7 7 7 7 7 7 7 7 7 7 7 7 7 7 7 7 @             h $.$.q.%.O.%.%.%.%.%.$.",
"%.%.=.=.%.%.6.4.O.$.$.1 X X X X X X & 5 5 5 5 5 5 5 5 5 5 5 5 5 5 5 5 5 5 5 5 5 5 5 5 5 5 $ X X X X X X x 4.O.,.=.%.=.=.,.%.%.$.",
"%.%.=.=.=.;.4.=.%.%.O.O.O.$.%.%.%.$.,                                                     x O.%.$.$.%.%.%.3.;.%.=.%.=.=.4.>.=.%.",
"%.,.,.=.=.;.;.q.O.o.o.o.o.O.%.%.$.%.,                                                     x O.$.$.$.$.$.;.e.&.=.=.=.=.%.=.;.@.$.",
"=.;.0.=.=.,.4.O.%.%.%.%.$.$.%.o.;.=.1 X X X X X X X X X X X X X X X X X X X X X X X X X X x %.$.$.$.$.$.$.=.=.=.=.=.=.=.=.=.$.$.",
"=.=.%.q.%.=.$.%.$.$.$.$.$.O.@.&.&.=.=.=.%.%.=.=.%.$.$.$.$.%.%.%.&.;.=.=.>.=.%.=.=.=.=.;.>.=.%.%.$.$.$.$.$.%.%.%.@.O.O.%.%.%.$.$.",
";.>.O.%.=.&.O.$.%.$.$.$.%.o.o.o.4.=.=.%.=.,.@.%.O.%.$.$.$.%.O.%.%.=.;.;.;.=.%.=.=.%.%.=.;.=.%.%.$.$.$.$.$.%.%.O.o.o.O.%.$.%.$.$.",
"4.>.O.$.%.O.O.O.O.O.O.O.%.o.o.o.&.+.=.o.o.%.X.O.%.$.$.$.$.%.@.O.%.%.=.;.=.=.%.=.=.%.%.%.%.%.%.$.$.$.$.$.$.$.%.%.@.%.%.%.$.$.$.%.",
"%.@.@.$.$.O.o.o.o.o.o.o.$.O.o.o.o.#.o.o.o.o.o.%.%.$.$.$.$.%.%.4.6.6.&.%.=.=.%.%.%.%.$.$.%.%.%.%.$.$.%.o.o.o.o.$.O.o.o.X.o.$.$.$.",
"$.$.%.$.$.$.$.$.$.$.$.%.$.$.O.o.o.o.o.o.o.O.%.O.o.%.$.$.$.;.%.;.=.=.;.%.%.%.%.%.%.%.$.$.$.6.%.%.$.$.o.o.o.o.$.$.$.%.%.%.%.;.=.%.",
"$.$.$.$.$.$.$.$.$.$.$.O.@.$.$.$.$.O.O.%.%.$.$.$.$.$.$.$.%.=.%.%.%.=.=.=.%.$.$.$.%.%.4.o.=.,.+.%.o.$.$.$.$.$.$.$.>.@.&.=.%.6.>.O.",
"%.$.$.$.$.$.$.$.6.6.=.%.%.$.=.=.$.%.4.%.%.$.$.$.$.$.$.$.=.>.$.%.%.%.%.%.%.$.$.$.%.$.6.4.8.,.=.=.+.%.%.%.O.O.$.6.6.4.;.>.=.=.,.o.",
"4.4.%.$.$.$.;.6.>.e.6.;.$.e.6.=.$.;.>.q.=.$.$.$.$.$.$.%.%.=.=.4.,.%.%.%.%.%.%.%.%.=.;.;.4.,.=.;.4.%.q.q.6.%.$.;.=.=.%.=.=.=.,.&."
};
