/* XPM */
static const char *slime2[] = {
/* columns rows colors chars-per-pixel */
"64 64 223 2 ",
"   c black",
".  c #22572E",
"X  c #1A693B",
"o  c #1E713E",
"O  c #2A6E38",
"+  c #297939",
"@  c #347E33",
"#  c #497C2A",
"$  c #0D4F40",
"%  c #106C47",
"&  c #1A7746",
"*  c #187648",
"=  c #1C7C49",
"-  c #257842",
";  c #227E46",
":  c #227E4A",
">  c #317B40",
",  c #398639",
"<  c #3C8B3D",
"1  c #3A9539",
"2  c #468A2D",
"3  c #579C29",
"4  c #418834",
"5  c #479A35",
"6  c #43943B",
"7  c #4C923C",
"8  c #4D9B3D",
"9  c #589937",
"0  c #53A12B",
"q  c #54A434",
"w  c #5BA338",
"e  c #65AC28",
"r  c #66AC39",
"t  c #64B33C",
"y  c #6BB33C",
"u  c #75B73B",
"i  c #74BB3B",
"p  c #7CC43E",
"a  c #79C83E",
"s  c #1F814B",
"d  c #248146",
"f  c #2B8545",
"g  c #2D8946",
"h  c #24834A",
"j  c #2A8549",
"k  c #26894B",
"l  c #2C8A4A",
"z  c #328341",
"x  c #338D46",
"c  c #3B8D44",
"v  c #338D49",
"b  c #398948",
"n  c #359146",
"m  c #3B9345",
"M  c #3F9946",
"N  c #36914A",
"B  c #3C944A",
"V  c #2A8553",
"C  c #388351",
"Z  c #379253",
"A  c #3D9951",
"S  c #478C43",
"D  c #429545",
"F  c #499446",
"G  c #449A45",
"H  c #4B9D44",
"J  c #429649",
"K  c #449C4A",
"L  c #4A9D4A",
"P  c #519D43",
"I  c #579A48",
"U  c #439E53",
"Y  c #489B56",
"T  c #63994B",
"R  c #4DA145",
"E  c #45A04A",
"W  c #4DA249",
"Q  c #53A445",
"!  c #5AA545",
"~  c #56A946",
"^  c #5CAB44",
"/  c #54A54A",
"(  c #5AA449",
")  c #55A94A",
"_  c #5CAC49",
"`  c #5DB145",
"'  c #5EB14A",
"]  c #4EA552",
"[  c #46A854",
"{  c #56A456",
"}  c #5BAC50",
"|  c #5CB259",
" . c #62AE44",
".. c #6BAA45",
"X. c #66A74A",
"o. c #62AD4B",
"O. c #70AF4A",
"+. c #64B245",
"@. c #6BB544",
"#. c #6EB943",
"$. c #63B24A",
"%. c #6CB54A",
"&. c #6EB94E",
"*. c #71B644",
"=. c #74BB44",
"-. c #7ABD44",
";. c #73B64B",
":. c #7BB44F",
">. c #74BB4A",
",. c #7ABD4A",
"<. c #66AA58",
"1. c #74AC57",
"2. c #65B352",
"3. c #6BB452",
"4. c #6EB859",
"5. c #76B757",
"6. c #74BB53",
"7. c #73BC5C",
"8. c #7CBC5B",
"9. c #52B072",
"0. c #64AE62",
"q. c #76BC66",
"w. c #76C146",
"e. c #7DC244",
"r. c #76C249",
"t. c #7CC24A",
"y. c #76C356",
"u. c #7BC255",
"i. c #79C865",
"p. c #64C97B",
"a. c #83C33F",
"s. c #8ACA3F",
"d. c #85BD49",
"f. c #83B756",
"g. c #84BC54",
"h. c #8DBE6A",
"j. c #83C444",
"k. c #8AC643",
"l. c #86C945",
"z. c #8CCB45",
"x. c #83C54A",
"c. c #8AC44A",
"v. c #85CA4A",
"b. c #8BCB4A",
"n. c #93CD45",
"m. c #98CF46",
"M. c #95C34E",
"N. c #92CD4A",
"B. c #9ACF4B",
"V. c #85D046",
"C. c #8CD146",
"Z. c #8DD24A",
"A. c #94D146",
"S. c #9BD446",
"D. c #9AD847",
"F. c #95D24A",
"G. c #9CD44A",
"H. c #9DD94C",
"J. c #83C353",
"K. c #8DCB53",
"L. c #89C954",
"P. c #86C35C",
"I. c #93CC52",
"U. c #91C45B",
"Y. c #97CC5C",
"T. c #94D352",
"R. c #9CD453",
"E. c #97D559",
"W. c #9BD45A",
"Q. c #A2D745",
"!. c #A2D947",
"~. c #A1D64B",
"^. c #A4D94B",
"/. c #A9DB4C",
"(. c #A2D554",
"). c #A4DA52",
"_. c #AADD53",
"`. c #A0D659",
"'. c #A3DB5B",
"]. c #ACDD5B",
"[. c #A2E04F",
"{. c #A7E153",
"}. c #ACE25D",
"|. c #B4E25C",
" X c #B8E75E",
".X c #88C766",
"XX c #92CB65",
"oX c #9CD467",
"OX c #94C476",
"+X c #90CD71",
"@X c #9BCC74",
"#X c #A1CC65",
"$X c #A8D767",
"%X c #B5DD68",
"&X c #A5CF72",
"*X c #ABD872",
"=X c #AEDE7C",
"-X c #B3DB76",
";X c #ADE868",
":X c #B7E766",
">X c #BBE664",
",X c #ADE877",
"<X c #B8E777",
"1X c #C2ED69",
"2X c #C5EA77",
"3X c #663082",
"4X c #9737CA",
"5X c #AF51E0",
"6X c #95C888",
"7X c #A4D786",
"8X c #B0D68D",
"9X c #A8CF93",
"0X c #BDEA8C",
"qX c #C8EA87",
"wX c #CCF18F",
"eX c #D3F28B",
"rX c #C4EE91",
"tX c #D8F797",
"yX c #DDF0AA",
"uX c #E2F7B0",
"iX c #FF83FE",
"pX c #DFF1C1",
"aX c white",
/* pixels */
"F.Z.z.A.n.F.G.H.p *Xf.z.z.z.C.F.F.).G.).u e S.S.G.G.A.A.A.S.S.G.S.B./._.).q S.S.S.A.A.F.G.;X~.G.~.x.q H.G.D.F.F.A.F.F.B.H.K.q e.",
"v.,.v.n.A.A.A.n.C.'.2Xu.W.z.C.F.F.A.F.A.s.S.S.S.S.G.G.S.S.S.D.G.~.~.~.j.-.l.G.S.S.A.A.F.F.A.A.A.A.u D.F.F.F.F.A.A.A.z.A.Z.t l.C.",
"-.g.rXz.n.A.A.z.z.b.).,Xe.z.A.F.F.F.F.S.S.S.S.S.G.G.H.S.S.D.D.^.S.G.3 [.H.H.G.D.D.S.A.A.F.G.S.A.F.G.F.g.P.F.A.A.A.A.C.Z.Z.Z.Z.V.",
"=...oXv.z.n.A.A.n.A.F.}.d.A.F.K.w j.i S.S.S.G.^.c.}.F.S.G.z..X:.S.G.D.H.L.<Xb.!.D.S.S.x..XrX=.b.F.A.z._.3 F.z.j.A.z.z.z.T.v.=.p ",
"v.) 5 z.z.z.n.A.A.S.F.G.z.n.R.].w S.u S.S.G.G.y *X2X-.S.S.-X X:.!.^.!.p ).).e.Q.S.S.S.P.:X9 ;.2XN.F.H.z.i a ].(.z.s.s.z.G.F.r i ",
"j.z.b.z.z.z.n.n.A.A.A.F.F.A.R.'.T.^.G.S.S.G.G.,X_.c.z.S.S.~.~.C.!.^.^.!.D.0 F.Q.S.S.u ).W.2 }.,XT.G.H.E.F.H.A.9 v.:X<Xb.F.L.w j.",
"j.l.z.z.z.z.l.-.b.F.A.A.A.A.n.y S.s.G.G.G.~.~.~.N.x.D.^.^.S.a.S.^./.^./.S.H.^.S.Q.Q.v.n.r [.E.+.G.G.F.F.A.A.a.u G.G.r z.l.y l.e.",
"j.j.z.z.z.S pXyX1.A.A.A.A.A.m.S.A.S.G.~.~.~.~.S.G.^.^.^.^.~.^./././.^././.^.^.~.^.^.^.G.S.#.=.G.G.G.G.G.H.A.F.A.A.y l.z.z.b.j.e.",
"j.j.l.e.X.uX|.<X# n.n.A.S.S.S.S.S.~.~.~.^.^.B.~.).^.^./.^././.^./.^./.^._.G./.^././.^.^.^.H.D.G.G.F.z.$X'.F.F.A.F.n.n.z.l.j.j.j.",
"e.j.j.o.-X).].( =.j.n.S.S.S.G.G.S.~.~.^.,.wX-XqX_./././././././._._.<X].;XG.^./././././.~.~.H.G.Z.OXU.eXeXA.A.A.A.b.z.z.l.l.e.e.",
"j.j.t.0X(.R.:.( tXM.n.m.S.S.S.S.S.~.^.K.8X>X1XtX^././././././././. X_.H.).).^./.Q./.^.^.^.~.^.v.@X2X>X>XL.n.A.A.n.z.z.z.l.l.e.e.",
"e.j.5 R.R.-.XX]._.R.n.m.S.S.G.S.~.~.t.#X|.|.].@././././././././._.`.qXuXf._._./././.~./.^.^.F..X%X].:X%XtXz.A.n.z.z.l.l.l.l.e.e.",
"e.j.L.b.N.c.R.G.F.N.N.n.S.G.G.G.G.e.#X_.{._.9 c././.                      d.$X~././.~.^.^.^.oX%X).).].(.g.n.A.n.z.l.t *X=.P 7.#.",
"e.j.l.l.b.b.N.F.F.F.G.S.S.S.S.G.G.-X).).).5 -././.                          2X_././.^.^.^.~.x.).).).W.4 j.A.S.A.z.x.1XK.I yXeX.X",
"e.j.j.l.k.z.N.N.N.F.F.F.S.S.G.S.S.B.~.^.B.N./././.                          y F.^./.^.^.^.~.(.~.).'...G.G.S.S.n.z.x.H.O.d.B.8 ^ ",
"-.j.j.j.k.z.z.N.n.n.N.(.(.S.S.S.S.S.G.              4X4X4X5X5X5X5X5X4X4X4X              ~.~.H.~.~.~.S.S.S.G.F.N.b.b.A.L.e.4 ) e.",
"-.e.d.j.k.s.z.n.n.N.I.B.z.S.S.S.S.G.              4X4X4X5X5X5X5X5X5X5X4X4X4X              ~.~.~.H.G.G.S.S.c.X.@.b.z.p e.5 1 e.-.",
"-.e.j.j.j.k.z.n.n.n.n.n.n.S.S.S.G.~.              4X4X5X5X5X5X5X5X5X5X5X4X4X              ^.~.G.G.G.G.B.n.d.|.8 z.z.z.e.t.w.=.#.",
"-.e.p j.k.j.c.n.n.n.n.n.n.A.A.S.S.      4X4X4X4X4X5X5X5X5X5X5X5X5X5X5X5X5X5X5X4X4X4X4X      ~.G.G.S.S.m.n.H.>.r.z.z.j.e.w.r.#.#.",
"-.e.j.j.k.k.k.z.n.n.m.n.n.A.          4X4X4X4X4X4X5X5X5X5X5X5XiXiXiXiXiXiXiX5X5X4X4X4X4X        G.G.S.m.m.j.b.z.z.l.j.w.XXJ.+.@.",
"-.-.j.j.j.k.c.c.n.n.n.n.n.A.        4X4X4X4X4X4X5X5X5X5X5X5XiXiXiXiXiXiXiXiX5X5X5X5X4X4X4X      G.G.m.n.n.N.N.z.z.l.e.g.$XR. .@.",
"-.-.j.j.j.j.k.k.z.n.n.n.n.S.        4X4X4X4X4X4X5X5X5X5X5XiXiXiXaXaXiXiXiXiX5X5X5X5X5X4X4X        S.n.A.F.N.n.z.b.l...T.N.t.^ 0X",
"-.-.e.j.j.j.z.z.n.n.n.          4X4X4X4X4X4X4X4X5X5X5X5XiXiXiXaXaXaXaXiXiXiXiX5X5X5X5X5X4X4X          n.A.n.n.b.z.L.Y.v.L.-.x.%.",
"=.-.j.j.j.j.z.z.n.n.n.        4X4X4X4X4X4X4X4X4X5X5X5X5XiXiXiXaXaXaXaXiXiXiXiXiX5X5X5X5X4X4X4X        n.A.N.z.z.l.K.c.x.e.y.h.&X",
"=.-.-.e.j.l.k.z.z.n.n.      3X4X4X4X4X4X4X4X4X5X5X5X5X5XiXiXiXaXaXaXaXiXiXiXiXiX5X5X5X5X5X4X4X4X      F.F.z.z.l.l.x.x.x.@.I.&.$.",
"=.-.-.e.-.j.l.z.z.z.n.      3X4X4X4X4X4X4X4X4X5X5X5X5X5XiXiXiXaXaXaXaXiXaXaXiXiX5X5X5X5X5X4X4X4X      F.n.z.z.b.x.x.t.-.=.+.+.~ ",
"*.-.-.-.-.j.l.j.z.z.z.      3X3X4X4X4X4X4X4X4X5X5X5X5X5XiXiXiXiXaXaXiXaXaXaXaXiXiX5X5X5X5X5X4X4X      n.n.z.z.l.j.x.j.t.=.=.@.@.",
"*.=.-.,.,.K.b.l.j.z.z.      3X3X4X4X4X4X4X4X4X5X5X5X5X5XiXiXiXiXiXiXiXaXaXaXaXiXiX5X5X5X5X5X4X4X      n.N.z.l.l.j.j.e.e.w.=.@.@.",
"@.=.w.W.F.N.c.j.j.z.z.      3X3X4X4X4X4X4X4X4X5X5X5X5X5XiXiXiXiXiXiXiXaXaXaXaXiXiX5X5X5X5X5X4X4X      n.z.z.l.l.j.j.e.e.-.=.@.@.",
"@.#.I.z.z.x.*.l.l.l.      3X3X3X3X4X4X4X4X4X4X5X5X5X5X5X5XiXiXiXiXiXiXaXaXaXaXiXiX5X5X5X5X5X4X4X3X      z.b.l.j.j.e.e.-.=.=.@.@.",
"@.@.l.l.r.6.v.j.j.l.      3X3X3X3X4X4X4X4X4X4X4X5X5X5X5X5XiXiXiXiXiXiXiXaXaXiXiXiX5X5X5X5X5X4X4X3X      z.b.v.v.e.e.-.=.=.>.%.@.",
"@.=.e.-.#.x.t.j.x.l.      3X3X3X3X4X4X4X4X4X4X4X5X5X5X5X5XiXiXiXiXiXiXiXiXiXiXiXiX5X5X5X5X5X4X4X3X      b.b.l.j.e.t.=.>.>.>.%.+.",
"@.=.=.=.=.t.%.I ,.J.      3X3X3X3X4X4X4X4X4X4X4X4X5X5X5X5X5XiXiXiXiXiXiXiXiXiXiX5X5X5X5X5X5X4X4X3X      z.l.j.j.t.-.=.>.>.%.o. .",
"@.@.=.=.=.J.:.2X7 =X      3X3X3X3X3X4X4X4X4X4X4X4X5X5X5X5X5X5X5XiXiXiXiXiXiXiX5X5X5X5X5X5X5X4X4X3X      v.x.j.e.t.,.>.oX4.7Xf._ ",
"+.@.@.=.,.6.*XE.H R.      3X3X3X3X3X4X4X4X4X4X4X4X4X4X4X5X5X5X5X5XiXiXiXiXiX5X5X5X5X5X5X5X5X4X4X3X      e.e.e.w.=.t.t.:.@XK.oX{ ",
"+.@.@.=.,.6 ,.u.E.      3X3X3X3X3X3X4X4X4X4X4X4X4XaXaXaX5X5X5X5X5X5X5XaXaXaX5X5X5X5X5X5X5X4X4X4X4X4X        w.w.=.t.J.g.;.,.D Q ",
"+.+.@.*.>.! %.' -.      3X3X3X3X3X3X3X4X4X4X4X4X4XaXaXaX4X5X5X5X5X5X5XaXaXaX5X5X5X5X5X5X5X4X4X4X4X4X4X      e.w.=.,.t.;.&.+ m ~ ",
"+.+.@.;.*.@.` @.=.      3X3X3X3X3X3X3X4X4X4X4X4X4XaXaXaX4X4X5X5X5X5X5XaXaXaX5X5X5X5X5X5X4X4X4X4X4X4X4X      w.=.=.=.*.@.< W +.^ ",
" . .@.@.*.*.*.=.=.      3X3X3X3X3X3X3X3X4X4X4X4X4XaXaXaX4X4X4X5X5X5X5XaXaXaX5X5X5X5X5X4X4X4X4X4X4X4X3X      =.=.>.=.*.@.+.+.+.' ",
" .+.+.@.@.@.@.=.#.      3X3X3X3X3X3X3X3X3X4X4X4X4X      4X4X4X4X4X4X4X      5X5X5X5X4X4X4X4X4X4X4X4X3X      =.=.*.@.@.@.+.+.^ ^ ",
"o. .+. .@.%.@.@.#.      3X3X3X3X3X3X3X3X3X3X4X4X4X      4X4X4X4X4X4X4X      4X4X4X4X4X4X4X4X4X4X4X3X3X      =.=.y @.@.+.+.^ ^ ~ ",
"7  .+.+.+.+.@.=.=.      3X3X3X3X3X3X3X3X3X3X4X4X4X      4X4X4X4X4X4X4X      4X4X4X4X4X4X4X4X4X4X3X3X3X      =.@.@.@.+.+.^ ^ ~ ~ ",
"Q ^  . .+.+.+.4 w       3X3X3X3X3X3X3X3X3X3X3X3X3X      3X4X4X4X4X4X4X      4X4X4X4X4X4X4X4X3X3X3X3X3X      @.@.+.@.+.^ ^ ^ ~ Q ",
"! ! ^ ^ ~ i.h.qX@X      3X3X3X3X3X3X3X3X3X3X3X3X3X      3X3X4X4X4X4X4X      4X4X4X4X4X4X3X3X3X3X3X3X3X      @.+.+.+.o.~ ~ F .X} ",
"Q ! ~ ~ .XW.I.J.6       3X3X3X3X3X3X3X3X3X3X3X3X3X      3X3X3X3X3X3X4X      4X4X4X3X3X3X3X3X3X3X3X3X        +.+.+.$._ H OXf.<X<.",
"Q Q ) H ..,.t.1 3.8.        3X3X3X3X3X3X3X3X3X3X3X3X3X3X3X3X3X3X3X3X3X3X3X3X3X3X3X3X3X3X3X3X3X3X3X        %.+.+.$.^ Q T $XI.T D ",
"Q Q Q P 8.&.H g.Y.(  .          3X3X3X3X3X3X3X3X3X3X3X3X3X3X3X3X3X3X3X3X3X3X3X3X3X3X3X3X3X3X3X          6.$.$.o._ _ 1.XXt.7 + W ",
"Q Q / 7.$.4.6.u.G Q +.          3X3X3X3X3X3X3X3X3X3X3X3X3X3X3X3X3X3X3X3X3X3X3X3X3X3X3X3X3X3X3X          o.+.^ ^ ^ 6 7.2., { 5.6.",
"Q Q Q Q _ o.Q 6 Q ^ ^ $.+.@.+.@.                                                              ;.>.%.J 8  .^ ^ _ _ 4._ } 3. .2.| ",
"H Q Q Q / Q Q ) ) ) )  . .+.+.+.                                                              +.^ ~  ._ ~ ^ ~ ~ ~ ) ) ) Q < m z ",
"H P Q Q / / Q / 2.<X7 ^ ^  . .+.                                                              +.+. .$.8.7X^ ~ ~ ~ _ ~ ) / R W L ",
"H Q Q Q / ) ) / / 1.@ ^ ^ _  .^ Q 3._  .+.^ %.O.@ ( Q +.+.+.+.+.+.+.@.+.+.+.+.+.+.+. .+.+._ _ ^ ^  .+.=.4 ~ ~ ^ ~ ~ ~ Q Q W L G ",
"@ H H Q Q Q Q / L b H ^ ^ ^ _ L XXJ.S ^ ^ ^ ^ 6 @.E.+  .+.%.$.+.+.+.+. .^ ^ ^  .+.^ ^ ` 6 =X8.~ ^ ^ ^ ! 8 ~ ~ Q Q G .XD R L L G ",
"G G G H Q R R R R / ( ! Q ~ ) XX%.P L ~ ^ ^ ~ ~ ^ N ~ ^ ^ +. . .^ ^ ^ ^ ^ ^ ^ ^ ^ ^ ~ 8 ..8.4.Q ~ ^ ~ ~ ! Q ) L K 4.L.< R R G G ",
"J J G G L L W R R Q Q Q Q Q Q ^ / c Q ~ ~ Q Q Q Q Q ~ ~ ^ w ^ ^ ^ ~ ! ! ~ ^ Q Q ~ ~ Q ' %.S < Q Q ~ ! Q Q Q Q Q ) 3./ n R L G m ",
"B m J G L G L L ) Q Q Q H Q Q < L P Q / Q Q Q Q Q Q ~ ~ ~ ) ~ ~ ~ Q Q Q Q Q Q R R Q Q _ z < Q Q Q Q Q Q Q Q Q R L W J L G m m x ",
"x m J D D K G L L H R H L H H H H H H R R H G W Q R Q R Q Q Q Q R R H 3.X.F Q R R R L G L H R H R R R L / / W L K G D J n m x v ",
"x x m M v @ 0.G G G L L G G L L L L G W c 7X6X9X/ R H R H R L G K D .X=X$X{ L L L K G G G G K K G c <.9X9Xz L K D D m B x x x x ",
"g x n g &X:.7X0.D D K D J D D G G E [ 9.XXP.U.<XD G G G L D K K m 1.P.u.o.&XoXL K D K D D m K K A OXP.U.oXX K K B m m v v N x v ",
"l l Y .Xo.%., b m D J m m m B K K A Y +X2.6.3.O m D D M D B B A { 8.o.o.O.X.I c m m n m m m B v q.2.3.2.- o f n N N N x v g g v ",
"h k ) K L & - N m m B m m N N m B f q.{ | z <..X5.{ m m m m m d 4.R ) $.F =XI ) 6Xn n n n m v I ] ] [ C .XH H v x v v v v g f f ",
"s Z v Z k f v v v v N N v x v g v ] U U O L.P / G ; n m N x N f B K i.F $.) } p.$ x x v v x l B B K . o.L K 9.V g v g g f j f d ",
"= = s k h ; k j j j v g l l d h l l l N m B b z * j g g f g g l v B + m K [ V * j g g f f j j g l U v B U : % d j f f f d ; = = ",
"% * * = * * = = : h : d d h / > s = & s h h = * s s h ; d d ; d k h l l ; h = = ; ; h d d d h h k k h h = * = = : d d ; o Z * * "
};
