/* XPM */
static const char *slime1[] = {
/* columns rows colors chars-per-pixel */
"64 64 224 2 ",
"   c black",
".  c #22572E",
"X  c #1A693B",
"o  c #1E713E",
"O  c #2A6E38",
"+  c #287839",
"@  c #337E35",
"#  c #497C2A",
"$  c #0D4F40",
"%  c #106C47",
"&  c #1A7746",
"*  c #187648",
"=  c #1C7C49",
"-  c #257842",
";  c #227E46",
":  c #227E4A",
">  c #317B40",
",  c #398639",
"<  c #3C8B3D",
"1  c #3A9437",
"2  c #468A2D",
"3  c #579C29",
"4  c #418834",
"5  c #469738",
"6  c #4C923C",
"7  c #4E9D3B",
"8  c #5C9731",
"9  c #559B3C",
"0  c #53A12B",
"q  c #59A535",
"w  c #65AC28",
"e  c #64AB3B",
"r  c #63B23C",
"t  c #6CB33D",
"y  c #73B73B",
"u  c #74BB3B",
"i  c #79B83B",
"p  c #7CC43E",
"a  c #79C83E",
"s  c #1F814B",
"d  c #248146",
"f  c #2B8545",
"g  c #2D8946",
"h  c #24834A",
"j  c #2A8549",
"k  c #26894B",
"l  c #2C8A4A",
"z  c #318342",
"x  c #338D46",
"c  c #3B8D44",
"v  c #378A49",
"b  c #338D49",
"n  c #359146",
"m  c #3B9345",
"M  c #3F9946",
"N  c #35914A",
"B  c #3C944A",
"V  c #2A8553",
"C  c #388351",
"Z  c #379253",
"A  c #3D9951",
"S  c #478C43",
"D  c #429545",
"F  c #499446",
"G  c #449A45",
"H  c #4B9D44",
"J  c #429548",
"K  c #449C4A",
"L  c #4A9D4A",
"P  c #519D43",
"I  c #579A48",
"U  c #439E53",
"Y  c #489B56",
"T  c #63994B",
"R  c #4DA145",
"E  c #45A04A",
"W  c #4DA249",
"Q  c #53A445",
"!  c #5AA544",
"~  c #56A946",
"^  c #5BAB45",
"/  c #54A54B",
"(  c #5AA449",
")  c #55A94A",
"_  c #5BAC4A",
"`  c #5FB147",
"'  c #4EA552",
"]  c #46A854",
"[  c #56A456",
"{  c #5BAC50",
"}  c #5CB259",
"|  c #62AD44",
" . c #6AAA45",
".. c #66A74A",
"X. c #62AD4B",
"o. c #70AA4D",
"O. c #64B245",
"+. c #6BB544",
"@. c #67B842",
"#. c #6EB943",
"$. c #63B24C",
"%. c #6DB54A",
"&. c #6EB94E",
"*. c #71B544",
"=. c #7AB443",
"-. c #74BB44",
";. c #7ABE44",
":. c #74B64B",
">. c #7BB44F",
",. c #73BB4A",
"<. c #7ABC4A",
"1. c #66AA58",
"2. c #74AB57",
"3. c #65B352",
"4. c #6CB352",
"5. c #6EB859",
"6. c #74BA53",
"7. c #76B858",
"8. c #52B072",
"9. c #64AE62",
"0. c #76BC66",
"q. c #7DC244",
"w. c #76C248",
"e. c #7CC24A",
"r. c #79C255",
"t. c #79C865",
"y. c #64C97B",
"u. c #83C33F",
"i. c #8ACA3F",
"p. c #85BD4B",
"a. c #83B756",
"s. c #84BC54",
"d. c #8DBE6A",
"f. c #83C444",
"g. c #8AC644",
"h. c #86C945",
"j. c #8CCB45",
"k. c #83C54A",
"l. c #8AC44A",
"z. c #85CA4A",
"x. c #8BCB49",
"c. c #93CD45",
"v. c #98CF47",
"b. c #95C34E",
"n. c #93CE4A",
"m. c #9ACF4B",
"M. c #85D046",
"N. c #8CD146",
"B. c #8DD24A",
"V. c #94D146",
"C. c #9BD346",
"Z. c #9AD847",
"A. c #95D24A",
"S. c #9CD44A",
"D. c #9DD94C",
"F. c #83C353",
"G. c #8DCB53",
"H. c #89C954",
"J. c #85C35C",
"K. c #93CC52",
"L. c #91C45B",
"P. c #9ACE5E",
"I. c #94D352",
"U. c #9CD453",
"Y. c #98D659",
"T. c #9CD55B",
"R. c #A1D646",
"E. c #A2D947",
"W. c #A2D64B",
"Q. c #A4D94B",
"!. c #AADC4D",
"~. c #A2D454",
"^. c #A4DB52",
"/. c #ABDD52",
"(. c #A0D659",
"). c #A3DB5B",
"_. c #ACDD5B",
"`. c #B0DF53",
"'. c #A2E04F",
"]. c #AEE04D",
"[. c #B0E14E",
"{. c #A9E053",
"}. c #ADE25C",
"|. c #B1E251",
" X c #B4E25C",
".X c #B9E65F",
"XX c #88C766",
"oX c #92CA63",
"OX c #9CD467",
"+X c #96C775",
"@X c #90CD71",
"#X c #A1CC65",
"$X c #A7D767",
"%X c #B5DD68",
"&X c #A5CF72",
"*X c #A9D373",
"=X c #ADDD76",
"-X c #B3DB76",
";X c #ADE868",
":X c #B3E263",
">X c #BAE767",
",X c #ADE877",
"<X c #B8E676",
"1X c #C2ED69",
"2X c #C6EA77",
"3X c #663082",
"4X c #9737CA",
"5X c #AF51E0",
"6X c #95C888",
"7X c #A4D786",
"8X c #BADD82",
"9X c #A8CF93",
"0X c #ADD592",
"qX c #BDEA8C",
"wX c #C6E886",
"eX c #CCF18F",
"rX c #D3F28B",
"tX c #C4EE91",
"yX c #D8F797",
"uX c #D8ECAE",
"iX c #E2F7B0",
"pX c #FF83FE",
"aX c #DFF1C1",
"sX c white",
/* pixels */
"A.B.j.V.c.A.S.D.p =Xa.j.j.j.j.A.A.^.S.^.i w C.V.S.S.V.V.V.C.C.S.C.m.!./.^.q C.C.C.V.V.A.S.;XW.S.W.k.q D.S.Z.A.A.V.A.A.m.D.G.q q.",
"z.<.z.c.V.V.V.c.N.).2Xr.T.j.N.A.A.V.A.V.i.C.C.C.C.S.S.C.C.C.Z.D.W.W.W.f.;.h.S.C.C.V.V.A.A.V.V.V.V.i Z.A.A.A.A.V.V.V.c.V.B.r h.N.",
";.s.tXj.c.V.V.j.j.x.^.,Xq.j.V.V.A.A.A.C.C.C.C.S.S.S.D.C.C.D.D.Q.C.S.3 '.D.D.S.D.Z.C.V.V.A.S.C.V.A.S.A.s.J.A.V.V.V.V.N.B.B.B.B.M.",
"-. .OXz.j.c.V.V.c.V.A.}.p.V.A.G.q f.i C.C.C.S.Q.l.}.A.C.S.j.XX>.C.S.Q.D.H.<Xx.E.Z.C.C.k.XXtX-.j.A.V.j./.3 A.j.f.V.j.j.j.I.z.-.p ",
"z._ 5 j.j.j.c.V.V.C.A.S.j.V.U._.q C.i C.C.S.S.t *X2X;.C.C.-X.X>.E.Q.E.p ^.^.q.R.C.C.C.J.>X8 :.2Xn.A.D.j.u a _.~.j.i.i.j.S.A.r u ",
"f.j.x.j.j.j.c.c.V.V.V.A.A.V.U.).I.Q.S.C.C.S.S.,X_.l.j.C.C.W.W.N.E.Q.Q.E.Q.0 A.R.C.C.y ^.T.2 }.,XI.S.D.Y.A.D.V.8 z.>X,Xx.A.H.q f.",
"f.h.j.j.j.j.h.=.x.A.V.V.V.V.V.y C.i.S.S.S.W.W.W.n.k.D.Q.Q.C.u.C.Q.Q.Q.Q.C.D.Q.C.R.R.z.c.e '.Y.O.S.S.A.A.V.V.u.y S.S.e j.h.t h.q.",
"f.f.j.j.j.S aXuX2.V.V.V.V.V.v.C.V.C.S.W.W.W.W.C.S.Q.Q.Q.Q.W.Q.Q.Q.Q.Q.Q.!.Q.Q.W.Q.Q.Q.S.C.#.-.S.S.S.S.S.D.V.A.V.V.y h.j.j.x.f.q.",
"f.f.h.q...iX X<X# c.c.V.C.C.C.C.C.S.W.W.Q.Q.v.W.^.Q.Q.!.Q.Q.!.Q.!.Q.!.Q./.S.Q.Q.Q.Q.Q.Q.Q.D.D.S.S.A.j.$X).A.A.V.A.c.c.j.h.f.f.f.",
"q.f.f.X.-X^._.( -.f.c.C.C.S.S.S.C.W.W.Q.<.eX-XwX/.Q.Q.!.!.!.!.!././.<X_.:XS.Q.Q.Q.Q.Q.Q.W.W.D.S.B.+XL.rXrXV.V.V.V.x.j.j.h.h.q.q.",
"f.f.e.qX~.U.>.( yXb.c.v.C.C.C.C.C.W.Q.G.8X>X1XyX!.Q.!.!.!.!.!.!.!..X/.D.^.^.Q.Q.E.!.Q.Q.Q.W.Q.z.+X2X>X>XH.c.V.V.c.j.j.j.h.h.q.q.",
"q.f.5 U.U.;.oX_./.U.c.v.C.C.S.C.W.W.e.#X X X_.+.!.Q.!.!.!.!.!.!./.(.wXiXa._._.!.!.!.W.Q.Q.Q.A.XX%X_.:X%XyXj.V.c.j.j.h.h.f.h.q.;.",
"q.f.H.x.n.l.U.S.A.n.n.c.C.S.S.S.S.q.#X_.{._.9 l.!.!.!.!.!.!.!.!.n.:X X>XJ.p.$XW.!.Q.Q.Q.Q.Q.OX%X^.^._.~.s.c.V.c.j.h.r *X-.P 5.#.",
"q.f.h.h.x.x.n.A.A.A.S.C.C.C.C.S.S.-X^.^.^.5 ;.!.!.!.!.!.!.!.!.U..X{.}.$X<X.X2X/.!.Q.Q.Q.Q.W.k.^.^.^.(.4 f.V.V.V.j.k.1XG.I iXrXXX",
"q.f.f.h.g.j.n.n.n.A.A.A.C.C.S.C.C.m.W.Q.v.n.!.!.!.!.!.!.!.!.!././.`.|.m./.{.t A.Q.Q.Q.Q.Q.W.~.W.^.). .S.S.C.C.V.j.k.D.o.p.m.9 ^ ",
";.f.f.f.g.j.j.n.c.c.n.~.~.C.C.C.C.C.S.Q.Q.!.!.W.!.!.!.!.!.!.!.!./././././.@.A.Q.!.Q.Q.W.W.W.D.W.W.W.C.C.C.S.A.n.x.x.V.H.q.4 ) q.",
";.q.f.f.g.u.j.c.c.n.K.v.j.C.C.C.C.S.W.W.!.!.!.!.!.!.!.!.!.!.!.!.!.!././.!.].!.!.!.Q.Q.W.Q.W.W.W.D.S.S.C.C.l...+.x.j.p q.5 1 q.;.",
";.q.f.f.f.g.j.c.c.c.c.c.c.C.C.C.S.W.W.Q.!.!.!.!.!.!.!.!.!.].!.!.[././.!.!.!.!.!.!.Q.W.Q.Q.Q.W.S.S.S.S.v.c.p. X7 j.j.j.q.e.w.-.#.",
";.q.p f.g.f.l.c.c.c.c.c.c.V.V.C.C.W.W.W.!.!.!.!.!.!.!.!.!.!.].[.[.].!.!.!.!.!.!.!.Q.Q.W.W.W.W.S.S.C.C.v.c.D.,.w.j.j.f.q.w.w.#.#.",
";.;.f.f.g.g.g.j.c.c.v.c.c.V.C.C.R.W.W.Q.!./.!.!.P.>.l.!.!.].[.[.|.|.[.[.[.|.^.~.:XS.Q.W.W.W.W.S.S.S.C.v.v.f.x.j.j.h.f.w.oXF.O.+.",
";.;.f.f.f.g.l.l.c.c.c.c.c.c.C.C.R.W.W.!.!.!.!.i wX                          <X8X8X=.Q.W.W.W.W.S.S.S.v.c.c.n.n.j.j.h.q.s.$XU.| +.",
";.;.f.f.f.f.g.g.j.c.c.c.c.C.C.C.W.Q.Q.W.Q./.!.q $X                          p.<X*X=.Q.Q.Q.Q.D.S.S.C.c.V.A.c.c.j.x.h. .I.n.e.! qX",
";.;.q.f.f.f.j.j.c.c.c.c.c.C.C.S.W.Q.Q.Q.!.!./.f.9                           e 6.7 D.Q.Q.W.W.S.S.C.C.c.c.V.c.c.x.j.H.P.z.H.;.k.%.",
"-.;.f.f.f.f.j.j.c.c.c.c.c.C.C.S.D.W.              4X4X4X4X5X5X5X5X5X4X4X4X4X              W.D.S.S.S.C.c.V.c.j.j.h.G.l.k.q.r.d.&X",
"-.;.;.q.f.h.g.j.j.c.c.v.v.C.C.C.S.W.              4X4X4X5X5X5X5X5X5X5X4X4X4X              W.D.U.D.D.v.A.A.j.j.h.h.k.k.k.+.K.&.$.",
"-.;.;.q.;.f.h.j.j.j.c.c.c.C.C.C.C.W.              4X4X5X5X5X5X5X5X5X5X5X4X4X              S.S.<.*X*Xm.A.n.j.j.x.k.k.e.;.-.O.O.Q ",
"*.;.;.;.;.f.h.f.j.j.j.j.c.c.C.v.S.  4X4X4X4X4X5X5X5X5X5X5X5X5X5X5X5X5X5X5X5X5X5X5X5X4X4X4X  %.uX2XwXn.c.c.j.j.h.f.k.f.e.-.-.+.+.",
"*.-.;.<.<.G.x.h.f.j.j.j.c.c.        4X4X4X4X5X5X5X5X5X5X5X5X5XpXpXpXpXpXpXpX5X5X5X5X4X4X4X      :X=.c.c.n.j.h.h.f.f.q.q.w.-.+.+.",
"+.-.w.T.A.n.l.f.f.j.j.j.j.c.        4X4X4X5X5X5X5X5X5X5X5X5XpXpXpXpXpXpXpXpX5X5X5X5X5X4X4X      :.i c.c.j.j.h.h.f.f.q.q.;.-.+.+.",
"+.#.K.j.j.k.*.h.h.h.x.j.j.n.        4X4X4X5X5X5X5X5X5X5X5XpXpXpXsXsXpXpXpXpX5X5X5X5X5X5X4X        o.0Xp.j.x.h.f.f.q.q.;.-.-.+.+.",
"+.+.h.h.w.6.z.f.f.h.h.      4X4X4X4X4X4X4X5X5X5X5X5X5X5XpXpXpXsXsXsXsXpXpXpXpX5X5X5X5X5X5X4X4X4X        j.x.z.z.q.q.;.-.-.,.%.+.",
"+.-.q.;.#.k.e.f.k.h.k.      4X4X4X4X4X4X4X5X5X5X5X5XpXpXpXpXpXsXsXsXsXpXpXpXpXpX5X5X5X5X5X4X4X4X        x.x.h.f.q.e.-.,.,.,.%.O.",
"+.-.-.-.-.e.%.I <.F.k.      4X4X4X4X4X4X4X5X5X5X5X5XpXpXpXpXpXpXsXsXpXpXpXpXpXpXpX5X5X5X5X5X4X4X        j.h.f.f.e.w.-.,.,.%.| | ",
"+.+.-.-.-.F.>.2X6 -X9       4X4X4X4X4X4X4X5X5X5X5XpXpXpXpXpXpXpXpXpXpXpXsXsXpXpXpXpX5X5X5X5X5X4X        z.k.f.q.e.e.,.OX5.7Xa._ ",
"O.+.+.-.<.7.=XP.H U.9       4X4X4X4X4X4X4X5X5X5X5XpXpXpXpXpXpXpXpXpXpXsXsXsXsXpXpXpX5X5X5X5X5X4X        q.q.q.w.-.e.e.>.OXG.OX[ ",
"O.+.+.-.<.5 <.r.Y.t w.      4X4X4X4X4X4X4X5X5X5X5XpXpXpXpXpXpXpXpXpXpXsXsXsXsXpXpXpX5X5X5X5X5X5X        2.2.w.w.-.e.F.s.:.<.D Q ",
"O.O.+.*.<.! %.` ;.r ;.      4X4X4X4X4X4X4X5X5X5X5X5XpXpXpXpXpXpXpXpXpXpXsXsXpXpXpXpX5X5X5X5X5X5X        $X2.q.w.-.<.e.*.&.+ m ~ ",
"| O.+.*.*.+.` +.-.-.;.      4X4X4X4X4X4X4X4X4X5X5X5X5XpXpXpXpXpXpXpXpXpXpXpXpXpXpX5X5X5X5X5X5X5X        6 1 w.-.-.-.*.+.< W O.^ ",
"| | +.+.*.*.*.-.-.-.;.      4X4X4X4X4X4X4X4X4X4X5X5X5X5XpXpXpXpXpXpXpXpXpXpXpX5X5X5X5X5X5X5X5X5X        q w.-.-.,.-.*.+.O.O.O.` ",
"| O.O.+.+.+.+.-.#.+.        4X4X4X4X4X4X4X4X4X4X4X5X5X5X5X5X5X5X5X5X5X5X5X5X5X5X5X5X5X5X5X5X5X5X4X4X4X4X  -.-.-.*.+.+.+.O.O.^ ! ",
"X.| O.| +.%.+.+.      3X3X3X4X4X4X4X4X4X4X4X4X4X4XsXsXsX5X5X5X5X5X5X5XsXsXsX5X5X5X5X5X5X5X5X5X5X4X4X4X4X      -.t +.+.O.| ^ ^ ~ ",
"6 | O.O.O.O.+.,.      3X3X3X4X4X4X4X4X4X4X4X4X4X4XsXsXsX5X5X5X5X5X5X5XsXsXsX5X5X5X5X5X5X5X5X5X5X4X4X4X4X      +.+.+.O.O.^ ^ ~ Q ",
"Q ^ | | O.O.O.4       3X3X3X4X4X4X4X4X4X4X4X4X4X4XsXsXsX5X5X5X5X5X5X5XsXsXsX5X5X5X5X5X5X5X5X5X5X4X4X4X4X      +.O.+.O.^ ! ^ Q Q ",
"! ! ^ ^ ~ t.d.wX      3X3X3X4X4X4X4X4X4X4X4X4X4X4XsXsXsX5X5X5X5X5X5X5XsXsXsX5X5X5X5X5X5X5X5X5X4X4X4X4X4X      O.O.O.X.^ ~ F XX{ ",
"Q ! ~ ~ XXT.K.F.      3X3X3X3X3X4X4X4X4X4X4X4X4X4X      5X5X5X5X5X5X5X      5X5X5X5X5X5X5X5X4X4X4X4X4X4X      O.O.$._ H +Xa.<X1.",
"Q Q ~ H  .<.e.1       3X3X3X3X3X3X4X4X4X4X4X4X4X4X      5X5X5X5X5X5X5X      5X5X5X5X5X5X5X4X4X4X4X4X4X4X      O.$.^ Q T $XK.T D ",
"Q Q Q P 6.&.H s.      3X3X3X3X3X3X3X4X4X4X4X4X4X4X      4X4X4X4X4X4X4X      4X4X4X4X4X4X4X4X4X4X4X4X4X3X      X._ _ 2.oXe.6 + W ",
"Q Q / 5.$.5.6.r.      3X3X3X3X3X3X3X3X3X3X3X3X3X3X      4X4X4X4X4X4X4X      4X4X4X4X4X4X4X4X4X4X4X3X3X3X      ^ ^ 5 7.3., [ 7.6.",
"Q Q Q Q _ X.Q 5       3X3X3X3X3X3X3X3X3X3X3X3X3X3X      4X4X4X4X4X4X4X      4X4X4X4X4X4X4X4X4X4X4X3X3X3X      _ _ 5._ { 4.| 3.} ",
"H Q Q Q / Q Q )       3X3X3X3X3X3X3X3X3X3X3X3X3X3X      4X4X4X4X4X4X4X      4X4X4X4X4X4X4X4X4X4X3X3X3X3X      ~ ~ ) ~ ) Q < B z ",
"H P Q Q / / Q / 3.<X6               3X3X3X3X3X3X3X3X3X3X3X3X3X3X3X3X3X3X3X3X3X3X3X3X3X3X3X              7X^ ~ ~ ~ _ ~ ) / R W L ",
"H Q Q Q / ) ) / / 2.@               3X3X3X3X3X3X3X3X3X3X3X3X3X3X3X3X3X3X3X3X3X3X3X3X3X3X3X              4 ~ ~ ! ~ ~ ~ Q Q W H G ",
"@ H H Q Q Q Q / L v H               3X3X3X3X3X3X3X3X3X3X3X3X3X3X3X3X3X3X3X3X3X3X3X3X3X3X3X              7 ~ ~ Q Q G XXJ R H H G ",
"G G G H Q R R R R / ( ! Q ~ ) oX%.P                                                       7.5.Q ~ ^ ~ ~ Q Q ~ H K 5.H.< R R G G ",
"J J G G H H W R R Q Q Q Q Q Q ^ / c                                                       S < Q Q ~ Q Q Q Q Q Q ) 4./ n R H G m ",
"B m J G L G H H ) Q Q Q H Q Q < L P                                                       < Q Q Q Q Q Q Q Q Q R H W J H G m m x ",
"x m J D D K G L H H R H H H H H H H H R R H G W Q R Q R Q Q Q Q R R H 4...F Q H H H H G H H R H R R R H / / W L K G D J n m x b ",
"x x m M b @ 9.G G G L H G G H H H H G W c 7X6X9X/ R H R H R H G K D XX=X$X[ H H H K G G G G K K G c 1.9X9Xz L K D D m B x x x x ",
"g x n g &X>.7X9.D D K D J D D G G E ] 8.oXs.L.<XD G G G H D K K B 2.J.r.| &XOXL K D K K D m K K A +XJ.L.OXX K K B B m b b N x b ",
"l l Y XX| %., x m D J m m m B K K A Y @X3.6.4.O m D D M D B B A [ 7.X.X.%...I c m m n m m m B b 0.3.4.3.- o f n N N N x b g g b ",
"h k ) K L & - N m m B m m N N m B j 0.[ } z 1.XX5.[ m m m m m d 5.R ) $.F =XI ) 6Xm n n n m b I ' ' ] C XXH H b x b b b b g f f ",
"s Z b Z k f b b b b N N b x b g b ' U U O H.P / G ; n m N x N f B K t.F $.) { y.$ x x b b x l B B K . X.L K 8.V g b g g f j f d ",
"= = s k h ; k j j j b g l l d h l l l N m B v z * j g g f g g l b B + B K ] V * j g g f f j j g l U b B U : % d j f f f d ; = = ",
"% * * = * * = = : h : d d h / > s = & s h h = * s s h ; d d ; d k k l l ; h = = ; ; h d d d h h k k h h = * = = : d d ; o Z * * "
};
