/* XPM */
static const char *slime3[] = {
/* columns rows colors chars-per-pixel */
"64 64 224 2 ",
"   c black",
".  c #22572E",
"X  c #1A693B",
"o  c #1E713E",
"O  c #2A6E38",
"+  c #297939",
"@  c #347E33",
"#  c #497C2A",
"$  c #0D4F40",
"%  c #106C47",
"&  c #1A7746",
"*  c #187648",
"=  c #1C7C49",
"-  c #257842",
";  c #227E46",
":  c #227E4A",
">  c #317B40",
",  c #398639",
"<  c #3C8B3D",
"1  c #3A9539",
"2  c #468A2D",
"3  c #579C29",
"4  c #418834",
"5  c #479A35",
"6  c #42933B",
"7  c #4D933B",
"8  c #4D9B3D",
"9  c #589937",
"0  c #53A12B",
"q  c #58A336",
"w  c #65AC28",
"e  c #66AC39",
"r  c #64B33C",
"t  c #6BB23C",
"y  c #75B73B",
"u  c #74BB3B",
"i  c #7CC43E",
"p  c #79C83E",
"a  c #1F814B",
"s  c #248146",
"d  c #2B8545",
"f  c #2D8946",
"g  c #24834A",
"h  c #2A8549",
"j  c #26894B",
"k  c #2C8A4A",
"l  c #328341",
"z  c #338D46",
"x  c #3B8D44",
"c  c #338D49",
"v  c #398948",
"b  c #359146",
"n  c #3B9345",
"m  c #3F9946",
"M  c #36914A",
"N  c #3C944A",
"B  c #2A8553",
"V  c #388351",
"C  c #379253",
"Z  c #3D9951",
"A  c #478C43",
"S  c #429545",
"D  c #499446",
"F  c #449A45",
"G  c #4B9D44",
"H  c #429649",
"J  c #449C4A",
"K  c #4A9D4A",
"L  c #519D43",
"P  c #579A48",
"I  c #439E53",
"U  c #489B56",
"Y  c #63994B",
"T  c #4DA145",
"R  c #45A04A",
"E  c #4CA249",
"W  c #53A445",
"Q  c #5AA544",
"!  c #56A946",
"~  c #5CAB44",
"^  c #54A54A",
"/  c #5AA449",
"(  c #55A94A",
")  c #5CAC49",
"_  c #5DB145",
"`  c #5EB14A",
"'  c #4EA552",
"]  c #46A854",
"[  c #56A456",
"{  c #5BAC50",
"}  c #5CB259",
"|  c #62AE44",
" . c #6BAA45",
".. c #66A74A",
"X. c #62AC4B",
"o. c #70AF4A",
"O. c #64B245",
"+. c #6BB545",
"@. c #6DB945",
"#. c #63B24A",
"$. c #6CB54A",
"%. c #67B848",
"&. c #6EB84A",
"*. c #71B644",
"=. c #73BB44",
"-. c #7BBD44",
";. c #73B64B",
":. c #7BB44F",
">. c #74BB4A",
",. c #7ABC4B",
"<. c #66AA58",
"1. c #74AC57",
"2. c #65B352",
"3. c #6BB453",
"4. c #6EB859",
"5. c #73BB53",
"6. c #7BBC54",
"7. c #74B759",
"8. c #7DBD5B",
"9. c #52B072",
"0. c #64AE62",
"q. c #76BC66",
"w. c #7DC244",
"e. c #76C248",
"r. c #7CC24A",
"t. c #6CC158",
"y. c #78C356",
"u. c #7CC255",
"i. c #79C865",
"p. c #64C97B",
"a. c #83C33F",
"s. c #8ACA3F",
"d. c #84BE49",
"f. c #81B652",
"g. c #84BC54",
"h. c #8DBE6A",
"j. c #83C444",
"k. c #8AC643",
"l. c #86C945",
"z. c #8CCB45",
"x. c #83C54A",
"c. c #8AC44A",
"v. c #85CA4B",
"b. c #8BCB49",
"n. c #93CD45",
"m. c #98CF46",
"M. c #93C54E",
"N. c #93CD4A",
"B. c #9ACF4B",
"V. c #85D046",
"C. c #8CD146",
"Z. c #8DD24A",
"A. c #94D146",
"S. c #9BD446",
"D. c #9AD847",
"F. c #95D34A",
"G. c #9CD44A",
"H. c #9DD94C",
"J. c #84C453",
"K. c #8DCB53",
"L. c #89C954",
"P. c #86C25C",
"I. c #93CC53",
"U. c #91C45B",
"Y. c #97CC5C",
"T. c #94D352",
"R. c #9CD353",
"E. c #97D659",
"W. c #9BD45A",
"Q. c #A2D745",
"!. c #A2D947",
"~. c #A1D64B",
"^. c #A4D94B",
"/. c #A9DB4C",
"(. c #A2D554",
"). c #A4DA52",
"_. c #AADC53",
"`. c #A3DB5B",
"'. c #ACDD5B",
"]. c #A2E04F",
"[. c #A7E153",
"{. c #ACE25D",
"}. c #B4E25C",
"|. c #B8E75E",
" X c #8BC462",
".X c #8CCB61",
"XX c #85C669",
"oX c #92CB65",
"OX c #9DD364",
"+X c #9BD56A",
"@X c #94C476",
"#X c #90CD71",
"$X c #9BCC74",
"%X c #A1CC65",
"&X c #A7D767",
"*X c #B5DD68",
"=X c #A5CF72",
"-X c #ABD872",
";X c #AEDE7C",
":X c #B3DB75",
">X c #ADE868",
",X c #B8E765",
"<X c #ADE877",
"1X c #B8E777",
"2X c #C2ED69",
"3X c #C5EA77",
"4X c #663082",
"5X c #9737CA",
"6X c #AF51E0",
"7X c #95C888",
"8X c #A4D786",
"9X c #B0D68D",
"0X c #A8CF93",
"qX c #BDEA8C",
"wX c #CAEA86",
"eX c #CCF18F",
"rX c #D3F28B",
"tX c #C4EE91",
"yX c #D8F797",
"uX c #DDF0AA",
"iX c #E4F7AF",
"pX c #FF83FE",
"aX c #DFF1C1",
"sX c white",
/* pixels */
"F.Z.z.A.n.F.G.H.i -Xf.z.z.z.z.F.G.).G.).y w S.S.G.G.A.A.A.S.S.G.S.B./._.).q S.S.S.A.A.F.G.>X~.G.~.x.q H.G.D.F.F.A.F.F.B.H.K.q w.",
"v.,.v.n.A.A.A.n.C.`.3Xy.W.z.C.F.F.A.F.A.s.S.S.S.S.G.G.S.S.S.D.G.~.~.~.j.-.l.G.S.S.A.A.F.F.A.A.A.A.y D.F.F.F.F.A.A.A.z.A.Z.r l.C.",
"-.g.tXz.n.A.A.z.z.b.).<Xw.z.A.F.F.F.F.S.S.S.S.S.G.G.H.S.S.D.D.^.S.G.3 ].H.H.G.D.D.S.A.A.F.G.S.A.F.G.F.g.P.F.A.A.F.A.C.Z.Z.Z.Z.V.",
"=. .OXv.z.n.A.A.n.A.F.{.d.A.F.K.q j.u S.S.S.G.^.c.{.F.S.G.z. X:.S.G.D.H.L.1Xb.!.D.S.S.x. XtX=.z.F.A.z._.3 F.z.j.A.z.z.z.T.v.=.i ",
"v.( 5 z.z.z.n.A.A.S.F.G.z.n.R.'.q S.y S.S.G.G.t -X3X-.S.S.:X|.:.!.^.!.i ).).w.Q.S.S.S.P.,X9 ;.3XN.F.H.z.u p '.(.z.s.s.z.G.F.e u ",
"j.z.b.z.z.z.n.n.A.A.A.F.F.A.R.`.T.^.G.S.S.G.G.<X_.c.z.S.S.~.~.C.!.^.^.!.D.0 F.Q.S.S.y _.W.2 {.<XT.G.H.E.F.H.A.9 v.,X1Xb.F.L.q j.",
"j.l.z.z.z.z.l.-.b.F.A.A.A.A.n.y S.s.G.G.G.~.~.~.N.x.D.^.^.S.a.S.^./.^./.S.H.^.S.Q.Q.v.n.e ].E.O.G.G.F.F.A.A.a.y G.G.e z.l.t l.w.",
"j.l.z.z.z.A aXuX1.A.A.A.A.A.m.S.A.S.G.~.~.~.~.S.G.^.^.^.^.~.^./././.^././.^.^.~.^.^.^.G.S.@.=.G.G.G.G.G.H.A.F.A.A.y l.z.z.b.j.w.",
"j.j.l.w...iX}.1X# n.n.A.S.S.S.S.S.~.~.~.^.^.B.~.).^.^././././.^./.^./.^._.G./.^././.^.^.!.H.D.G.G.F.z.&X`.F.F.A.F.n.n.z.l.j.j.j.",
"w.j.j.X.:X_.'./ =.j.n.S.S.S.G.G.S.~.~.^.,.eX;XwX_./././././././._._.1X'.>XG.^./././././.^.~.H.G.Z.@XU.rXrXA.A.A.A.b.z.z.l.l.w.w.",
"j.j.r.qX(.R.:./ yXM.n.m.S.S.S.S.S.~.^.K.9X,X2XyX^././././././././.|._.H.).).^./.~./.^.^.^.~.^.v.$X3X,X,XL.n.A.A.n.z.z.z.l.l.w.w.",
"w.j.5 R.R.-.oX'._.R.n.m.S.S.G.S.~.~.r.%X}.}.'.+./.                          _./././.~.^.^.^.F. X*X'.,X*XyXz.A.n.z.z.l.l.j.l.w.w.",
"w.j.L.b.N.c.R.G.F.N.N.n.S.G.G.G.~.w.%X_.[._.9 c./.                          &X~././.^.^.^.^.OX*X).).'.(.g.n.A.n.z.l.r -X=.L 7.@.",
"w.j.l.l.b.b.N.F.F.F.G.S.S.S.S.G.G.:X).).).5 -././.                          3X_././.^.^.^.~.x.).).).`.4 j.A.A.A.z.x.2XK.P uXrX.X",
"w.j.j.l.k.z.N.N.N.F.F.F.S.S.G.S.S.B.              5X5X5X5X6X6X6X6X6X5X5X5X5X              ~.(.~.).`. .G.G.S.F.n.z.x.H.o.d.B.8 ~ ",
"-.j.j.j.k.z.z.N.n.n.N.(.(.S.S.S.S.S.              5X5X5X6X6X6X6X6X6X6X5X5X5X              ~.H.~.~.~.S.S.S.G.F.N.b.b.A.L.w.4 ( w.",
"-.w.d.j.k.s.z.n.n.N.I.B.z.S.S.S.S.G.              5X5X6X6X6X6X6X6X6X6X6X5X5X              ~.~.~.H.G.G.S.S.c...+.b.z.i w.5 1 w.-.",
"-.w.j.j.j.k.z.n.n.n.n.n.n.S.S.S.G.  5X5X5X5X5X6X6X6X6X6X6X6X6X6X6X6X6X6X6X6X6X6X6X6X5X5X5X  ~.G.G.G.G.B.n.d.}.8 z.z.z.w.r.e.=.@.",
"-.w.-.j.k.j.z.n.n.n.n.n.n.A.        5X5X5X5X6X6X6X6X6X6X6X6X6XpXpXpXpXpXpXpX6X6X6X6X5X5X5X      G.S.S.m.n.H.>.e.z.b.j.w.e.e.=.@.",
"-.w.j.j.k.k.k.z.n.n.m.n.n.A.        5X5X5X6X6X6X6X6X6X6X6X6XpXpXpXpXpXpXpXpX6X6X6X6X6X5X5X      G.G.S.m.m.j.b.z.z.l.j.e..XJ.O.+.",
"-.-.j.j.j.k.c.c.n.n.n.n.n.A.        5X5X5X6X6X6X6X6X6X6X6XpXpXpXsXsXpXpXpXpX6X6X6X6X6X6X5X        G.m.n.n.N.N.z.z.l.w.g.&XR.| +.",
"-.-.j.j.j.j.k.k.z.n.n.      5X5X5X5X5X5X5X6X6X6X6X6X6X6XpXpXpXsXsXsXsXpXpXpXpX6X6X6X6X6X6X5X5X5X        F.n.n.z.b.l. .T.N.r.~ qX",
"-.-.w.j.j.j.z.z.n.n.n.      5X5X5X5X5X5X5X6X6X6X6X6XpXpXpXpXpXsXsXsXsXpXpXpXpXpX6X6X6X6X6X5X5X5X        A.n.n.b.z.L.Y.v.L.-.x.$.",
"=.-.j.j.j.j.z.z.n.n.n.      5X5X5X5X5X5X5X6X6X6X6X6XpXpXpXpXpXpXsXsXpXpXpXpXpXpXpX6X6X6X6X6X5X5X        A.n.z.z.l.K.c.x.w.t.h.=X",
"=.-.-.w.j.l.k.z.z.n.n.      5X5X5X5X5X5X5X6X6X6X6XpXpXpXpXpXpXpXpXpXpXpXsXsXpXpXpXpX6X6X6X6X6X5X        F.z.z.l.l.x.x.x.+.I.&.#.",
"=.-.-.w.-.j.l.z.z.z.n.      5X5X5X5X5X5X5X6X6X6X6XpXpXpXpXpXpXpXpXpXpXsXsXsXsXpXpXpX6X6X6X6X6X5X        n.z.z.b.x.x.r.-.=.O.O.! ",
"*.-.-.-.-.j.l.j.z.z.z.      5X5X5X5X5X5X5X6X6X6X6XpXpXpXpXpXpXpXpXpXpXsXsXsXsXpXpXpX6X6X6X6X6X6X        n.z.z.l.j.x.j.r.=.=.+.+.",
"=.=.-.,.,.K.b.l.j.z.z.      5X5X5X5X5X5X5X6X6X6X6X6XpXpXpXpXpXpXpXpXpXpXsXsXpXpXpXpX6X6X6X6X6X6X        N.z.l.l.j.j.w.w.e.=.+.+.",
"+.=.e.W.F.N.c.j.j.z.z.      5X5X5X5X5X5X5X5X5X6X6X6X6XpXpXpXpXpXpXpXpXpXpXpXpXpXpX6X6X6X6X6X6X6X        z.z.l.l.j.j.w.w.-.=.+.+.",
"+.@.I.z.z.x.*.l.l.l.b.      5X5X5X5X5X5X5X5X5X5X6X6X6X6XpXpXpXpXpXpXpXpXpXpXpX6X6X6X6X6X6X6X6X6X        z.b.l.j.j.w.w.-.=.=.@.+.",
"+.+.l.l.e.5.v.j.j.l.        5X5X5X5X5X5X5X5X5X5X5X6X6X6X6X6X6X6X6X6X6X6X6X6X6X6X6X6X6X6X6X6X6X6X5X5X5X5X  b.v.v.w.w.-.=.=.>.&.+.",
"+.=.w.-.@.x.r.j.      4X4X4X5X5X5X5X5X5X5X5X5X5X5XsXsXsX6X6X6X6X6X6X6XsXsXsX6X6X6X6X6X6X6X6X6X6X5X5X5X5X      j.w.r.=.>.>.>.&.O.",
"+.=.=.=.=.r.$.P       4X4X4X5X5X5X5X5X5X5X5X5X5X5XsXsXsX6X6X6X6X6X6X6XsXsXsX6X6X6X6X6X6X6X6X6X6X5X5X5X5X      j.r.-.=.>.>.$.X.| ",
"+.+.=.=.=.J.:.3X      4X4X4X5X5X5X5X5X5X5X5X5X5X5XsXsXsX6X6X6X6X6X6X6XsXsXsX6X6X6X6X6X6X6X6X6X6X5X5X5X5X      w.r.,.>.OX3.8Xf.) ",
"O.+.+.=.,.6.-XW.      4X4X4X5X5X5X5X5X5X5X5X5X5X5XsXsXsX6X6X6X6X6X6X6XsXsXsX6X6X6X6X6X6X6X6X6X5X5X5X5X5X      e.=.r.r.:.$XK.+X[ ",
"O.+.+.=.,.6 ,.y.      4X4X4X4X4X5X5X5X5X5X5X5X5X5X      6X6X6X6X6X6X6X      6X6X6X6X6X6X6X6X5X5X5X5X5X5X      e.=.r.J.g.;.,.x W ",
"O.O.+.*.>.Q &.`       4X4X4X4X4X4X5X5X5X5X5X5X5X5X      6X6X6X6X6X6X6X      6X6X6X6X6X6X6X5X5X5X5X5X5X5X      e.=.,.r.;.&.+ n ! ",
"O.O.+.;.*.+._ +.      4X4X4X4X4X4X4X5X5X5X5X5X5X5X      5X5X5X5X5X5X5X      5X5X5X5X5X5X5X5X5X5X5X5X5X4X      =.=.=.*.+.< E O.) ",
"| | +.+.*.*.*.=.      4X4X4X4X4X4X4X4X4X4X4X4X4X4X      5X5X5X5X5X5X5X      5X5X5X5X5X5X5X5X5X5X5X4X4X4X      =.>.=.*.+.O.O.O.` ",
"| O.O.+.+.+.+.=.      4X4X4X4X4X4X4X4X4X4X4X4X4X4X      5X5X5X5X5X5X5X      5X5X5X5X5X5X5X5X5X5X5X4X4X4X      =.*.+.+.+.O.O.) ~ ",
"X.| O.| +.&.+.+.      4X4X4X4X4X4X4X4X4X4X4X4X4X4X      5X5X5X5X5X5X5X      5X5X5X5X5X5X5X5X5X5X4X4X4X4X      =.t +.+.O.O.) ) ! ",
"7 | O.O.O.O.+.=.=.=.=.              4X4X4X4X4X4X4X4X4X4X4X4X4X4X4X4X4X4X4X4X4X4X4X4X4X4X4X              =.=.=.+.+.+.O.O.~ ) ! ! ",
"W ~ | | O.O.O.4 q @.=.              4X4X4X4X4X4X4X4X4X4X4X4X4X4X4X4X4X4X4X4X4X4X4X4X4X4X4X              =.+.+.+.O.+.O.~ ~ ~ W W ",
"Q Q ) ) ! i.h.wX$X@.@.              4X4X4X4X4X4X4X4X4X4X4X4X4X4X4X4X4X4X4X4X4X4X4X4X4X4X4X              +.+.+.O.O.O.X.! ! D XX{ ",
"W Q ! ! XXW.I.J.6 #.+.@.@.@.@.=.=.=.                                                      =.y.d.&Xj.=.@.+.+.O.O.O.#.) G @Xf.1X<.",
"W W ( G  .,.r.1 3.8.&.+.@.+.@.@.@.W                                                       &.&Xj.-.-.@.&.O.$.O.O.#.) W Y &XI.Y S ",
"W W W L 6.&.G g.Y.Q | +.+.+.+.$.$..X                                                      6.,.,.,.u..X8.5.#.#.X.) ) 1.oXr.7 + E ",
"W W ^ 7.#.4.5.y.F W O.$.+.+.+.+.$.,.,.5.*.M.&XE.=.=.=.=.=.@.>.>.,.J.-.W.I.I.=.=.@.+.@.&.$.>.>.>...P.OX XX.O.) ) ~ 6 8.2., [ 6.5.",
"W W W W ) X.W 6 W ~ ) #.O.+.O.+.O.+.&.,.*.>.t.E @.@.=.@.@.+.&.@.=.r.6.5.3.6 +.+.+.+.+.$.+.&.&.;.>.$.H 8 | ) ~ ) ) 4.) { 3.| 2.} ",
"G W W W ^ W W ( ( ( ( | | O.O.O.O.O.O.O.) T ( ! Q $.+.+.+.+.+.+.+.O.~ ~ O.+.+.+.O.+.O.O.O.+.+.O.~ ! | ) ! ) ! ! ! ( ( ( W < N l ",
"G L W W ^ ^ W ^ 2.1X7 ~ ) | | O.| | O.O.| O.#.U.;X%.O.@.O.O.+.+.O.O.+.+.+.+.&.+.O.+.O.O.O.O.#.O.O.| #.8.8X) ! ! ! ) ! ( ^ T E K ",
"G W W W ^ ( ( ^ ^ 1.@ ) ~ ) | ) W 3.) | O.| &.o.@ / W O.O.O.O.O.O.O.+.O.O.O.O.O.O.O.| O.O.) ) ) ~ | O.=.4 ! ! ~ ! ! ! W W E K F ",
"@ G G W W W W ^ K v G ~ ~ ) ) K oXJ.A ) ~ ~ ~ 6 +.W.+ | O.$.#.O.O.O.O.| ~ ~ ~ | O.~ ) _ 6 ;X8.! ~ ) ) Q 8 ! ! W W F XXS T K K F ",
"F F F G W T T T T ^ / Q W ! ( .X&.L K ! ~ ~ ! ! | M ! ~ ~ O.| | ~ ) ~ ) ~ ~ ~ ) ~ ~ ! 8  .8.4.W ! ) ! ! Q W ( K J 4.L.< T T F F ",
"H H F F K K E T T W W W W W W ) ^ x W ! ! W W W W W ! ! ! q ~ ~ ~ ! Q Q ! ! W W ! ! W ` &.A < W W ! Q W W W W W ( 3.^ b T K F n ",
"N n H F K F K K ( W W W G W W < K L W ^ W W W W W W ! ! ! ( ! ! ! W W W W Q W T T W W ) l < W W W W W W W W W T K E H K F n n z ",
"z n H S S J F K K G T G K G G G G G G T T G F E W T W T W W W W T T 8 3...D W T G T K F K G T G T T T K ^ W E K J F S H b n z c ",
"z z n m c , 0.F F G K K F F K K K K F E x 8X7X0X^ T G T G T K F J S  X;X&X[ K K K J F F F F J J F x <.0X0Xl K J S S n N z z z z ",
"f z b f =X:.8X0.S S F S H S S F F R ] 9.oXg.U.1XS F F F K S J J N 1.P.u.X.+X+XK J S J S S n J J Z @XP.U.OXX J J N N n c c M z c ",
"k k U XXX.$., v n S H n n n N J J Z U #X3.5.3.O n S S m S N N Z [ 8.X.X.o...P x n n b n n n N c q.2.3.2.- o d b M M M z c f f c ",
"g j ( J K & - M n n N n n M M n N d q.[ } l <.XX7.[ n n n n n s 4.T ( #.D ;XP ( 7Xn b b b n c P ' ' ] V XXG G c z c c c c f d d ",
"a C c C j d c c c c M M c z c f c ' I I O L.L ^ F ; b n M z M d N J i.D #.( { p.$ z z c c z k N N J . X.K J 9.B f c f f d h d s ",
"= = g j g ; g h h h c f k k s g k k k M n N v l * h f f d f f k c N + N J ] B * h f f d d h h f k I c N I : % s h d d d s ; = = ",
"% * * = * * = = : g : s s g ^ > a = = a g a = * a a g ; s s ; s g g k j ; g = = ; ; g s s s g g j g g g = * = = : s s ; o C * * "
};
