/* XPM */
static const char *wall[] = {
/* columns rows colors chars-per-pixel */
"64 64 255 2 ",
"   c #071C3C",
".  c #101933",
"X  c #310E2B",
"o  c #0F2F32",
"O  c #08283A",
"+  c #093738",
"@  c #0B333C",
"#  c #153A37",
"$  c #223026",
"%  c #511219",
"&  c #76081C",
"*  c #6D1119",
"=  c #692E1D",
"-  c #5A0425",
";  c #500C2A",
":  c #6A0425",
">  c #770522",
",  c #711428",
"<  c #13532B",
"1  c #0A473C",
"2  c #18463A",
"3  c #0A583B",
"4  c #175938",
"5  c #234937",
"6  c #275539",
"7  c #0D6F34",
"8  c #16663A",
"9  c #19773A",
"0  c #256F2C",
"q  c #256736",
"w  c #25773A",
"e  c #65611A",
"r  c #081D44",
"t  c #361B56",
"y  c #082946",
"u  c #093747",
"i  c #0A3B43",
"p  c #143A45",
"a  c #0D3452",
"s  c #29324D",
"d  c #5F2354",
"f  c #094848",
"g  c #164947",
"h  c #095647",
"j  c #165747",
"k  c #084A55",
"l  c #154854",
"z  c #0A5757",
"x  c #155854",
"c  c #274C48",
"v  c #245644",
"b  c #096747",
"n  c #176748",
"m  c #0A7748",
"M  c #177848",
"N  c #096755",
"B  c #156756",
"V  c #0C7655",
"C  c #157755",
"Z  c #256747",
"A  c #25714F",
"S  c #237956",
"D  c #13766C",
"F  c #256364",
"G  c #697273",
"H  c gray46",
"J  c #8B1214",
"K  c #85151A",
"L  c #951A18",
"P  c #982A12",
"I  c #AB380D",
"U  c #AA3112",
"Y  c #8B1123",
"T  c #842126",
"R  c #B34C11",
"E  c #B84816",
"W  c #A86C22",
"Q  c #C6520D",
"!  c #C55A15",
"~  c #CA6718",
"^  c #D7691F",
"/  c #D07117",
"(  c #D67519",
")  c #D3772A",
"_  c #369516",
"`  c #1ABC1D",
"'  c #34B119",
"]  c #168A37",
"[  c #119134",
"{  c #189838",
"}  c #27982A",
"|  c #268937",
" . c #259937",
".. c #339132",
"X. c #18AD2C",
"o. c #19A638",
"O. c #29A729",
"+. c #37A928",
"@. c #28B529",
"#. c #38B726",
"$. c #27A536",
"%. c #34A837",
"&. c #26B737",
"*. c #38B835",
"=. c #559D19",
"-. c #48AD17",
";. c #47B51C",
":. c #56B91A",
">. c #68B416",
",. c #76B81A",
"<. c #4F9931",
"1. c #499A35",
"2. c #4EA927",
"3. c #48B625",
"4. c #57B928",
"5. c #48A538",
"6. c #55A839",
"7. c #48B734",
"8. c #56B936",
"9. c #65BB28",
"0. c #71B52A",
"q. c #67B53A",
"w. c #38CA17",
"e. c #37C42D",
"r. c #53C91B",
"t. c #68C818",
"y. c #79C81A",
"u. c #6BD416",
"i. c #7AD81A",
"p. c #7DE519",
"a. c #48C626",
"s. c #57C626",
"d. c #50CF2E",
"f. c #57C836",
"g. c #65C728",
"h. c #76CA25",
"j. c #71D130",
"k. c #78E82E",
"l. c #0C8749",
"z. c #178748",
"x. c #199646",
"c. c #188955",
"v. c #139451",
"b. c #258847",
"n. c #269845",
"m. c #359749",
"M. c #268759",
"N. c #259358",
"B. c #1AA646",
"V. c #1AAC4A",
"C. c #26A747",
"Z. c #35AA46",
"A. c #32B34B",
"S. c #28A656",
"D. c #2F8D65",
"F. c #1AA070",
"G. c #5A9E5D",
"H. c #50AF47",
"J. c #6BAB4B",
"K. c #68B644",
"L. c #76B845",
"P. c #3BCB48",
"I. c #52CB4C",
"U. c #70CE4E",
"Y. c #6BCD74",
"T. c #78E26B",
"R. c #889614",
"E. c #88BB2B",
"W. c #B5AD2D",
"Q. c #E58019",
"!. c #CE8E2E",
"~. c #EB922F",
"^. c #D2A537",
"/. c #E9A53B",
"(. c #86D61B",
"). c #8CD11A",
"_. c #8EE51A",
"`. c #A5E01B",
"'. c #87CA25",
"]. c #86D627",
"[. c #96D928",
"{. c #88C837",
"}. c #93CC30",
"|. c #89D635",
" X c #97D839",
".X c #A9D931",
"XX c #92E72E",
"oX c #98E42A",
"OX c #A7E728",
"+X c #B0E934",
"@X c #C6EB3F",
"#X c #88B94B",
"$X c #95B74A",
"%X c #8FB972",
"&X c #E79946",
"*X c #E7A74C",
"=X c #E1A850",
"-X c #88C74A",
";X c #96C74B",
":X c #8AD449",
">X c #98D649",
",X c #8AC556",
"<X c #97CA56",
"1X c #8ED450",
"2X c #99D755",
"3X c #AECF4E",
"4X c #A4D745",
"5X c #A2D54E",
"6X c #A4DB4E",
"7X c #ABDC4D",
"8X c #B4D44C",
"9X c #B6D94F",
"0X c #A5D756",
"qX c #A4DB52",
"wX c #ACDD52",
"eX c #B3DC55",
"rX c #97E94D",
"tX c #A9E547",
"yX c #B7E845",
"uX c #ABF349",
"iX c #ADE050",
"pX c #ABE358",
"aX c #B1E155",
"sX c #B3E45B",
"dX c #B8E65A",
"fX c #96CB6D",
"gX c #A7D864",
"hX c #ACD973",
"jX c #94E876",
"kX c #ADE86F",
"lX c #B7E664",
"zX c #DCD568",
"xX c #C3E866",
"cX c #C5E777",
"vX c #CEF578",
"bX c #215B9A",
"nX c #50438A",
"mX c #689E85",
"MX c #77D088",
"NX c #9CA4A8",
"BX c #ACAFB1",
"VX c #BABBBB",
"CX c #DBBF94",
"ZX c #8BCF8E",
"AX c #B3D893",
"SX c #9AE295",
"DX c #BAE788",
"FX c #B1CEB0",
"GX c #B8E9AC",
"HX c #D0EF8E",
"JX c #E8F995",
"KX c #C4D9B0",
"LX c #D5EEAA",
"PX c #E8F7B0",
"IX c #CCCDCC",
/* pixels */
"iXiXiXiXiXiXiXiXwXwXwXiXiXiXiXiXiXiXiXiXiXiXiXiXiXiXiXiXiXiXiX5Xj 1 iXiXiXiXiXiXiXiXiXiXiXiXiXiXiXiXiXiXiXiXiXiXwXwXwXiXiXiXiXiX",
"iXiXiXiXiXiXiXiXwXwXwX7XiXiXiXiXiXiXiXiXwXwXiXwXiXiXiXiXiXiXiXqXl.|.A K.,XiXiXiXiXiXiXiXiXiXiXiXiXiXiXiXiXiXiXiXiXiXiXwXiXiXiXiX",
"iXiXiXiXiXiXiXiXiXwXiXwXiXiXiXiXiXiXiXiXiXiXwXiXiXiXiXqXG.v v g c.`.0 2X1.j D.iXiXiXiXiXwXiXiXiXiXiXiXiX7XwXwXqXiXiXiXiXiXiXiXiX",
"iXiXiXiXiXiXiXiXiXiXiXiXiXiXiXiXiXiXiXiXiXiX7XiXiXiXiX5Xp l.}.;.l.y.KX|.+.5X} iXiXiXiXiXiXiXwXiXiXiX7X7X1X-XL.L.#X;X5X0XiXiXiXiX",
"iXiXiXiXiXiXiX7X7X7X7X7X7X7X7XiXiXiXiXiX5X6 h.Z 5Xj | c m @.@.>XT.n.GXI.>X.X5Xv sXFX..5X5 j.s.iX7X7X7X6.6.J.,XgXhXhX<X2X6X7XwXiX",
"iXiXiXiXiXiXiX7XfXAX%XY.,X2X7X5Xm.iXiXiX5X@ $.9.9 [ -.p i s.a.&.2XY.T.2XDX7X5.L.6 j.2...' .Xg 7X7XH.6.,XHXJXPXJXJXPXPXgX2X7XwXiX",
"iXiXiXiXiXiX7X,XHXaXaXJXLXJ.-X5X7 (.} w ZXmXi } #.3 p N N n._.d.o.V.o.A.P.XXhX$.h  .} :.t.Z K.7X5.M tXJXJXJXvXxXxXxXJXLX<XiXiXiX",
"iXiXiXiXiXiX7XL.HXaXaXiXiXJX%XJ.+ :.)._ p S 9.f ] M y V $.(.C.m.G.Y.[ GX:X' e.tX>Xi ] } M 3.n.g ZX>X..vXlXdXsXdXlXxXHXhXL.6XiXiX",
"iXiXiXiXiXiX7X-XDXaXaXaX0X6 pXg m ] :.+ V @.OX0.3 #.$Xy v.x.c.LXKXC.SXH.GXkX' $.Z.y  X[ ] j.qX| l a.2Xv sXsXsXsXlXvXkX6.L.7XiXiX",
"iXiXiXiXiXiXiX7X1.fX0Xg x.h b.3.y.o.# C [.a.r.+X9XyX#.+.y f d.k.M.e.PX} M.kXpXb u O.e.tX7X+X' g.2.h M f.j.w pXsXlXlX6.6.U.qXiXiX",
"iXiXiXiXiXiXiXiXq.1.g +.s.-. .(.y.+ ] a.u.>Xo.I.FXC.FXFXE.b C j { d.f.#.O.C D.u 9.HXKX@.>X} GXHX7X2.< +.oX{.c sXkX6.5.8.>X7XiXiX",
"iXiXiXiXiXiXiXiX7XK...o 2 9.:.{ ] n.s.(.u.U.K.V.N.FXIX|.yX Xy V I.z.{  .s.0 O n.u.A.lX:X .2XgXh.yXOXs.0.# c <XkX6.5.H.U.qX7XiXiX",
"iXiXiXiXiXiXiXiXiX7XK...M  .M 9.n B n.u.@.X.o.I.H.A.*.u.].C.9.N x m n.f S m.i d.u.a.&.&.ZXV.X.` p.g.M *.|.<X2X<.6.8.U.qX7XwXiXiX",
"iXiXiXiXiXiXiXiXwXiX7XL.O h %.+.u n.h.{ (.>XK.z.x.FXFXw.#.[.C i {.] <.{.j.8 S.V.z.a.>X:Xz.Z.2XGXX.(.|.1 5 -X1.H.8.U.6X7X7XwXiXiX",
"iXiXiXiXiXiXiX6Xw 9.v 7XL.D z.M x b.n i.OX6Xz.d.AXD.PXuXO.M.b y.'  X.X+Xs.0X8 h f.vX6XZ.0Xx.MXLXtXM Z.@ J.1.# |.:X6X7X7XwXiXiXiX",
"iXiXiXiXiXiXiX5X1 .X..p p u u y u @ Z.C.M S c.a.xXo.F s.m z $.OXkX@.HXU.DXcX;X] 2 F.C C.yXB.v.f.C.A.i z j 2 3.xXv 7X7X5X5XiXiXiX",
"iXiXiXiXiXiX5X5 9.] +.h +.b :.}.3.f i f 3.z.%.{ m.u.m j k l.u.OXK.1XI.GXjXuXcX3.b.u S.7.B.f.h g.u $.{.|.{  .3 3.4Xc >X>X2XiXiXiX",
"iXiXiX5X5 '..X,.n.7.o  .oX X+XOXw..X0.y V C 8.x.h 2 C y 7.p.r.%.h.s.} T.rXh.XXxX}.H.a f k n L.j Z.i.yX:.iXlX{.4 4.eXdX0 1XqXiXwX",
"iXiXiX5X@ S.%.$.} 4 :.t.&.OX6X&.HXxX#.0.N i m.x.$.'.(.h # N.M g.LX:X:.ZXLX0X` &.+Xp {.5X>XqXi.9.b *.*.yXxXZ.b.C ..s.7.# 0XqXiXiX",
"iXiXiXwX;X,Xu n.j l a.yX:X$.cX>XsXOXcX|.u M $.u.HX+Xa.{ u V g._.pXn.[.J.SXU.rX$.Z Z.w.k.LX3.*.6X-Xn oX&.oX].8. .3.+ g gX0XiXiXiX",
"iXiXiXiXiXwX#X+ g 4.e.e.wX:XC.P.@.` e.2 S.oXkXo.sXf.B.HX<XN M ].N.l.OXH.x.rX' M p +X:X{ vXC.1X8.s.x Z  Xn.OX.Xh j <X<XsXqXiXiXiX",
"iXiXiX5X2 2 Z O h.i.#.).+XDXl.jX>X0X# ,.h.C.iX:X{ C.2XwX@.e.g.C N a.%.3...U.| @ ].p.oX2X7.T.HX:X#.hXm.q |.B S f b.|.4 m.iXiXiXiX",
"iXiX5X# $.,.b D  .M z.(.6XS.qX:XS.+X4.j $.@.o.B.[ A.&.X.w.].g u B f.l.[ O.< i M.r.o.+XqX} GXPXpXo.*.j.u n.M z.M g.;.>X4X5 iXiXwX",
"Z 4.(.:.] Z w h O a x.`.c.v.+X[.z.} m.y z.n.>X:Xl.C.>X:X{ $.}.j y p  .3 u u G.m b.tXyXn..XtXD.rX Xm Z M >X+X;. Xj ].[.+.>XyX'.5 ",
"u 7 O.{  .b f ..O x.r.-.f 8.#.b.t.7 2 -.s.[.DXM.HX Xn.vXXXo.S g >.r y y y u x l i.g.S $.oXB.t.p.[.5.y 6.KXS.LXg.2XN.8.>X$.;.7 o ",
";X-X+  .h n ,.} j z B p 1.z.i.l.n O O x.v.c.x c.k.+XB.F e._.u B ).E.' ;.3.O y K.x.x V a.+.+.n c.A g 9. Xn.1XI.lXx.l.g A.].# ;X;X",
"iX<X%Xo n.+.C M M | y z 4.l r.V O %._ i y z '.Z.z.m.i.h.i c z.e.d.HXj.k.i.+ O p y D.|.C 3.+.H.u u x 4.g.n.H.DXZ.pXiX4.3 5 ;XiXiX",
"gXDXs f n 5.h.g.9 | g z o y j u 9.`.`.] b m :.p x.Z.A _.y c.OX` o.kX*.pXZX*.} ] N F 6.a %.l a u 4.j.g x.].4XZ.f.N.M.2 G.{ 6 iXiX",
"vXlXH.4.N n.{  .7.j n.{ 7 u $.h.{ >X+Xx.eXy o y x.b.y # { e.uX1XV.lXMXlXU.].,.1 S.| p k O a m.4XyXt.-Xi s.yXc..Xf m.q.$.tX;Xv iX",
"5Xn *.M f.m z.2XAXm A.g.@ 5.i.+XGXv.&.2Xk.>.,.b O y y V d._.e.P.2Xn.Y.&.j.@X.X<.g ].3.J.3 AXU.' OXdX .q.g n.B N.j  .#.k.$.(.{.< ",
"5 #.#.} g M h.U.S j.k $.] x.a.iX0Xl.T.T.AXa.r.g.b f u &.a.x.v.Y.SXV ZX2Xo.*.%.# 9.&.i.,Xf.U.dX|.#.u. XB k p x u n.>XO.M a.a.3.+ ",
"#X# f f b g.c.x *.#.q y C i.o.n.6Xx.A.-X&.u.z._.h.y y B x l.>X2XS.AXA.lXfX7 V f n x.+XHXx.x.vXJX>Xx.i.;X+ 2.b.;Xm S.OX0.h h # ;X",
"7X;X;X-Xv.B i 7.B z.4 ;.].$.C 2XLX:X*.6X:XX.].A i.{.w a C u.+XA.l.lXH.w U.8.f H. .r.(.D.d.0XS I._. XB F.o [.x.U.wXN S.oX@ <X;XiX",
"iXiX5X# h y 1.p z z.3 D B g g.sXM.7X[.M.LX@.$.o.B F y z *.k.N.N @.yXU.b m.U.b x l.c.g N r.dXl.j v.C.A.z $.+XC.x XX>Xk C f iXiXiX",
"wX5X5 4.f f | +.N f n y O O.r.B b m.`.V S _.$.h   a g a c.c.a v.k.o.o.+.3 M I.h y k 8.7.V N.j.b f.i p C B.7.n q.n f.}.f {.5 iXiX",
"iX5XO 8 O y @ V k | f 2 4.i.V f  .O.`.l.h n.z.z.+ y o r.4.u +.S.c.A.h b.J.3 U.. O N.s.l C l.S g.B i n N C g.j.j N.B g y x f 2XqX",
"wXwX;X;X;X;X#XO M s.  j c.B y N c.#.`.l.u y u x.'.  . x.l b k.D z 7.b 7 +.+ N.+ M c.p z $.8.k A.y 1 H.b v.b.j.+.u y NXNXNXG K.5X",
"wXwXiXiXwXmX5 h O # y 8 i O D h.u x.1.+ +.>.r u z.r o X y B.x k B U.h + 3 o X X z f k B 7.7.y p 6.} g c.j.V g n.y 9 c VXVXVXH <X",
"wXwXwX5Xx Z.8.n O @ h + @ y F.M a O @ | j w.M .   X 2 -   O O x.N 4 7 <     ; : X y C z V p f z M. X  y C.O u i f x.j.c VXVXH ;X",
"wXwXwXwX#Xp # a # <.b O z y O O z } b z.1.y B ; , - ; : T ; . &.f O 7 $ * - T L K : a C y k n q.y S r i f O m 9.1 @ # F VXVXH -X",
"iX7XwXwXwX;X,XL.} c.o %XO q + y O +.O.O p O X : & Y : > : > - y r , # = P P E ! I & X y h 8.i f.  O n 4 y NX@ $.g.BXBXVXVXVXH -X",
"iXiXwXwXiX2Xq.J.+ p KXF O + o 8   @ +   u 4 . X - U K Y : L : - , T R E I I Q./ : X O + O j f # 3 + 3 + + VXNXO Z IXIXIXVXH 1.>X",
"iXiXwXwX:X#XDXPXKXAXDXh =.f + j u 4 O @ 9 @ 8 O $X% K L > E K > I P ~.! E ( P * $X#Xh 3   i g 1 w 0 i ] g.Z IXBXVXIXIXVXVXH 6.6X",
"wXiXwX,X,XLXPXcXlXgXg z.# u D.+ n @ o n + y g ;X7X$XX ; : I L & ! I /.) / P * $X7X>X+ @ j @ + S 1 < #Xi M Z.s IXIXIXVXVXH ..-X6X",
"7XqX-XhXJXcXlXsXsXlX<XgXfXfXg _ u f 9 @ 9 Z ;XwXiX7X$Xt : I I K ( / ( R ~ ! * 7XwX7X#Xg n p w i C 3.0 J.G BXNXIXIXVXVXH ..K.6X7X",
"fX-XkXHXlXsXsXsXsXlXlXlXgXA _ 4 H.h } #Xi D.iXwXiXiX5Xt , : P R U /.~.! ) R * 7X7X7X5Xl g f ..#X@ C.0 2XH VXVXVXVXH H H 6.iXiXiX",
"0X;XvXdXsXsXsXsXsXlXlXlXhXg 2 1.6.@ 2 wX;X2XwXwXwXwX5Xt , Y J L U /.~.~ ~.R CXiX7X7X7X;X#Xl v 7X#X@ 4 0XH.H H H H H H.K.2XiXiXiX",
"0X-XsXaXaXsXsXsXsXsXlXlXkX1.1.6.wX;X;XiXiXiXwXiXiXwX0XbX: U ! L U ( ( ) ~ R zXiXiXiXiXiXwX<X;XiX7X;X;XpX1XK.H H K.K.:X2XiXiXiXiX",
"cXdXiXeXeXiXaXsXsXsXlXHXK.5.5.iXiXiXiXiXiXiXiXiXiXiX2XbX- L ( L E Q.R ~.~ &X=XiXiXiXiXiXiXiXwX7XiX7XiXaXsXpX1X:X1XpXwXiXiXiXiXiX",
"lXeXwXwXwXwXeXiXsXsXlXL.5.6.iXiXiXiXiXiXiXiXiXiXiX..G bX: > ! E P ~.I *X) /.U iXiX7X7X7X7X7X7X7X7XiXiXiXsXsXsXpXsXiXiXiXiXiXiXiX",
"wXwXwXwXwXwXwXeXsXsX-X6.q.iXiXiXiXiXiXiXiXiXiXiXq.H BXs d : U ~ J ~.! ) / /.J iX7XfXAX%XY.,X2X7X7XiXiXiXiXiXiXiXiXiXiXiXiXiXiXiX",
"wXwXwXwXwXwXwXeXaXqXq.-XiXiXiXiXiXiXiXiXiX5Xq -Xg VXBXX ; : L ( K ( ) R ! R J 7X,XHXw iXJXLXJ.-XwXwXiXiXiXiXiXiXiXiXiXiXiXiXiXiX",
"wXiXiXiXiXiXwXeXwX4XiXiXwXwX5Xq iX5X< 0 iX5X1 2 j BXt d : & L Q E P ~.~ ^ ^ * M < C.3 iX0X< q %XL.wXwX7XiXiXiXiXiXiXiXiXiXiXiXiX",
"iXiXiXiXiXiXiXwXiXiXiX6Xw 5Xq |.4 q 2X] 4 4 b 9 h D bX; : Y > R ! J ~.) ~ ^ ( % b z.4X4 4 ] }.q T.4 0Xq wXiXiXiXiXiXiXiXiXiXiXiX",
"iXiXiXiXiXiXiXiXiXiX5Xv 2X6 j.8 f n.n b  .7 m m m X nX- : L Y Q ~ J ~./ ~ U ~.* % m M.} ] 7 9 m M g.4 g.qXq iXiXiXiXiXiXiXiXiXiX",
"iXiXiXiXiXiXiXiX5X4 q 0.v 4.8 b  .m %.{ [ { [ % % , ; - Y L Q Q & I ~.U ! P E ! !.% o.o.o.o.{ { ] z.h.n A  X8 | iXiXiXiXqXiXiXiX",
"iXiXiXiX7X6X5X>X,.3 [.9 [ { [ }  . .o.v.% * * P & : - ; Y ( R ! : P ~.P R R J P Q.~ = U R = $.+.-.+.O.h.7 b. X7 !.iXiXiXqXiXiXiX",
"iXiXiXiX5X5X;Xn 8 7 +.+.l.>.).g.+.O. .; : Y > & - - - : U ( I I : & ~.L E &X% & P ! L J J & = 3.i.y.,.' h.:.' :._ iXiXiXiXiXiXiX",
"iXiXiX2XgXhXcXW W ,.:.'.3.q OXj (.y.' ] 9 9 9 M m M & Q.( I & > - : P * q e ) 4 5 & & * ..=.>.E.n [.'.h.r.t.).W.W iXiXiXiXiXiXiX",
"iXiXiXcXHXHXcXeX_ t.).).'.h w .X-.:.(.r.:.:.;.{ n , / E K * 9 8 ).7 5 , 6.e ) < >X< ,.,.t.y.y.).,.t.:.}.'.'.y.R.3XiXiXiXiXiXiXiX",
"iXiXiXiXlXsXsXpX2X>X_ ' -.y.t.'.W.W.' ^.^.^.:.4.] & K * | 9 b 4.OX[ } <.} | % -Xq I.y.'.^.^.^.:..XW.W.^.-.:.4X4XiXiXiXiXiXiXiXiX",
"iXiXiXiXpXpXiXiXpXwX1X>X>XW ^.^.*X&X^.&X&X=X-.}.h.,.,.>.;.4.h.O._.} j.' } j.E.} t.i.y././.&X&X^./.~.!.!.>X>X7X7XiXiXiXiXiXiXiXiX",
"iXiXiXiXiX6X6XqXqXwXqX2X7X3X8X8X>.*X&X) &X/.^.^.^.^.^.^.h.).].i._.u.i.t.y.(.(.W.^././.~.~.!.!.R.8X8X8X8XiXwX7X7XiXiXiXiXiXiXiXiX",
"7X6XiXiXiX2X>X>X5X6X2X7XiXiXiX7X4XeX8X3X9X8X9X8X8X8X8X) =X=X/ / !.!.!.!.!.!.4X7X8X=X8X8X8X8X8X4XiXiX7X7XiXiXwX7XiXiXiXiXiXiXiXiX"
};
