/* XPM */
static char *db18e06e1a6c4216a749d7275425328fyEkLEPXAXOL86Aqb[] = {
/* columns rows colors chars-per-pixel */
"64 64 256 2 ",
"   c None",
".  c #37021A",
"X  c #06192D",
"o  c #080F36",
"O  c #051433",
"+  c #021C34",
"@  c #041C3B",
"#  c #07183B",
"$  c #130C30",
"%  c #330328",
"&  c #04262C",
"*  c #03382A",
"=  c #05233C",
"-  c #062938",
";  c #05363A",
":  c #182A38",
">  c #123D1E",
",  c #560018",
"<  c #530010",
"1  c #67031A",
"2  c #78021A",
"3  c #770C09",
"4  c #470125",
"5  c #5A0124",
"6  c #5B0C38",
"7  c #6C0123",
"8  c #640226",
"9  c #770223",
"0  c #75132D",
"q  c #7C2A1E",
"w  c #01472C",
"e  c #055627",
"r  c #044839",
"t  c #035938",
"y  c #154C30",
"u  c #036738",
"i  c #027939",
"p  c #126F33",
"a  c #277932",
"s  c #16621B",
"d  c #051C43",
"f  c #061947",
"g  c #0A174D",
"h  c #042543",
"j  c #032B4A",
"k  c #072747",
"l  c #023B44",
"z  c #063547",
"x  c #062A56",
"c  c #053855",
"v  c #12394A",
"b  c #082F61",
"n  c #311E5D",
"m  c #67194B",
"M  c #064749",
"N  c #065748",
"B  c #13594A",
"V  c #074754",
"C  c #065756",
"Z  c #154E54",
"A  c #066849",
"S  c #186C43",
"D  c #057848",
"F  c #167847",
"G  c #066857",
"H  c #087757",
"J  c #127957",
"K  c #126456",
"L  c #075762",
"P  c #0E5364",
"I  c #086962",
"U  c #0F7364",
"Y  c #2B6B78",
"T  c #6A430C",
"R  c #891608",
"E  c #860817",
"W  c #920B19",
"Q  c #871619",
"!  c #961A18",
"~  c #901508",
"^  c #962409",
"/  c #9B251A",
"(  c #A73608",
")  c #AC3211",
"_  c #8C1024",
"`  c #9C221E",
"'  c #B8470B",
"]  c #B65013",
"[  c #BB6317",
"{  c #AD4725",
"}  c #C65A16",
"|  c #C64F12",
" . c #CC6719",
".. c #D7771B",
"X. c #D36C14",
"o. c #E27713",
"O. c #CA7926",
"+. c #D67827",
"@. c #D2722E",
"#. c #E07A26",
"$. c #C63C0B",
"%. c #0D9516",
"&. c #259217",
"*. c #10AC1A",
"=. c #24A916",
"-. c #38BA1B",
";. c #31AD13",
":. c #068938",
">. c #069638",
",. c #159837",
"<. c #138F2C",
"1. c #259A38",
"2. c #2B9133",
"3. c #04A728",
"4. c #18A528",
"5. c #19B629",
"6. c #08A838",
"7. c #18A639",
"8. c #19B638",
"9. c #06B237",
"0. c #28A827",
"q. c #35A827",
"w. c #2AB72A",
"e. c #39B725",
"r. c #26A534",
"t. c #25B535",
"y. c #39B536",
"u. c #38A836",
"i. c #48B816",
"p. c #56BA17",
"a. c #46AF14",
"s. c #6CBA11",
"d. c #47B728",
"f. c #50B230",
"g. c #67B62E",
"h. c #5E9219",
"j. c #38C41B",
"k. c #2FC816",
"l. c #34C529",
"z. c #21CA2A",
"x. c #47C61A",
"c. c #57C71A",
"v. c #57D419",
"b. c #4ED214",
"n. c #6AC717",
"m. c #78C919",
"M. c #67D818",
"N. c #78D716",
"B. c #6DCF0D",
"V. c #70E113",
"C. c #49C823",
"Z. c #57CC26",
"A. c #59D629",
"S. c #59CA33",
"D. c #4CCD34",
"F. c #69CB29",
"G. c #69D628",
"H. c #77D826",
"J. c #68D936",
"K. c #76D734",
"L. c #6DCC2E",
"P. c #75E62A",
"I. c #57E625",
"U. c #068746",
"Y. c #168947",
"T. c #089546",
"R. c #179647",
"E. c #078656",
"W. c #148557",
"Q. c #069553",
"!. c #199B52",
"~. c #269C47",
"^. c #2C9351",
"/. c #16A849",
"(. c #0FAC4B",
"). c #2CAF4C",
"_. c #0C8C67",
"`. c #288F6A",
"'. c #05B27C",
"]. c #4CB54C",
"[. c #65B056",
"{. c #57A972",
"}. c #38C948",
"|. c #28CB59",
" X c #52CF4E",
".X c #71D44C",
"XX c #71D86F",
"oX c #B8BE24",
"OX c #D79833",
"+X c #F2982A",
"@X c #E9983A",
"#X c #F2932E",
"$X c #D3A939",
"%X c #F2A937",
"&X c #E48F15",
"*X c #87CA17",
"=X c #86D716",
"-X c #96D918",
";X c #8CD511",
":X c #88E319",
">X c #97E819",
",X c #8BE90F",
"<X c #A8E818",
"1X c #AEF014",
"2X c #87D824",
"3X c #96D829",
"4X c #8DCF2F",
"5X c #AED52B",
"6X c #94E727",
"7X c #8EEA32",
"8X c #A9E727",
"9X c #B6E729",
"0X c #A9F526",
"qX c #A9E736",
"wX c #B9EA37",
"eX c #B8F438",
"rX c #B0F32E",
"tX c #ACD81E",
"yX c #C6EB3A",
"uX c #C6F632",
"iX c #C9F51E",
"pX c #E89C46",
"aX c #EC9C49",
"sX c #F3A54B",
"dX c #F1B36B",
"fX c #94E74D",
"gX c #B7E945",
"hX c #BCF544",
"jX c #ACEF4F",
"kX c #89D46A",
"lX c #91F574",
"zX c #B4E754",
"xX c #C6ED4A",
"cX c #C7F444",
"vX c #C7E955",
"bX c #C8F758",
"nX c #D4F550",
"mX c #D3F371",
"MX c #D7EE5D",
"NX c #17639C",
"BX c #534687",
"VX c #0D8798",
"CX c #69D389",
"ZX c #639B95",
"AX c #8CCC95",
"SX c #B3EBB4",
"DX c #9DE09D",
"FX c #D3F58D",
"GX c #E6F192",
"HX c #CFF2AE",
"JX c #ECF3AE",
"KX c #DADAB2",
"LX c #BEECD6",
"PX c #D1F5CA",
"IX c #EDF4CC",
"UX c #80BF9A",
/* pixels */
"                                                                B ;                                                             ",
"                                                                H 0XZ f.kX                                                      ",
"                                                        {.M l j E.8Xs jXf.; `.                                                  ",
"                                                        # T.9Xb.U.B.IX7X0.bX&.                                                  ",
"                                          ; n.M   l p : D -.3.  lX>.SX|.  5XvX-   LXp   + G.-.                                  ",
"                                W.        = ,.2Xu 6.i.v h F.v.8.  CX.X  SXzX0.fX- G.p.a j.yXj                                   ",
"                                e =X<.t AXUXd <.C.r k G G Q.>XA.9.8.<.).z.7XFX,.M ,.,.p.B.V .X    S qX                          ",
"                                h i.<Xa.@ A H.z :.Y.@ J 7.>XT.Y.  AX:.HX  %.*.hXcXh <.1.A c.,.z AXgXp                           ",
"                          - jXl U.D x.= E.w.8X2XM j.vXf E.E.U.IXIX>.HXw.SXFX-.:.).d wX:.i G.nX0.j t.bX;                         ",
"                      = :.N A Z.-X8.+ U 9Xx.x.yXnXnX=.C.d j A.P.A l.IX<.D lXmXA f -.5.cXxXxX=.L.n.M N K.F.e                     ",
"                    d j.n.p.1.=XN.X R.Z.v.  T.}.  >.    qXA J V T.I.l.x.q.C `.k M.GXIX3.  %.PXJXvXF.w =.8XqX=                   ",
"                      O h g.n.>.:.~.A.-XM. X  /.T.    V.gXeXd H .XD :.,.S.&.O ~.B.6.    >.    c.gX9XA.4Xh h                     ",
"                        Y.R.A m.B B W.M.5.3.6. X X5.5.M.:XQ.H.G V D ).z K ].z S.M.b.8.6.DX(.3.3.V.Z.C 8.7X                      ",
"                        + V d.q.h 1.:X:.-X    D :.    k.*.9XI h 8X<.h.3X6Xe ].(.H -.    D ).  IX>.,X0X; @                       ",
"                t c.z     VXD F K Y.V :X<X  D A.GXD IXnX0.H N >X*.eX9XwXi.bXt l A.GX  T.mX:.CXJXbXA ).=     X 7X                ",
"                ; wXd.@ h h h h z # ].!.C A W.l.nX8.V C.D V 7.1XFX3.JX[.HXmXgX1.= _.C /.wX/.H x.T.}.h G l = C.mX-               ",
"              - K.u e.M C.D B.9Xv.M h j c.W.y.R.U.,XF V V Q.N.9Xf.  t.LXkXqXFXc.~.h ).C.Q.J.M H.x 4.qXqX4.y.l =.cXj             ",
"        - m.8X*XY.S.O 7.8XwXwXwXk.xX6Xf I H S.R.N k J @ D.>Xc.R.2Xx.%..XfXc.:XmX3XK.b c c V 4Xj ).N.cXa.xXmXqXz d.nXnXe         ",
"        = _.7.,.q.z M.N.6.>X  6.JXmXw.2XG = ~.Y.w.>X<XA @ W.G M.IX  n.AXIXvX*.9.cXf qXxXgXbXN.2XM t.4.bXmXr.J J 2.-.e.-         ",
"            g ~.M Z e.vX  3.FX    >XGX3X@ W.7.V.JXeX-.t.z G K.>XjX:.8X].AX.XbXr.V }.k.I.JX0.8.    M rX3.6X6XF.1.Z.= h           ",
"              - V n.j.5.    T.|.3.*.z.@ (.1XmX>.  S.T.JXvXA A 6XW.D qX].:.jX=.F j eX  :.mXR.  d.Z.K M wXU.qX9XM l               ",
"        & & B + :X,Xw.-XwXFXD DX  mX# ;X;XT.    :./.    3.l.P.G C S.,.x.2. X1.f 0XV.>XzX0.XXHXfX;.  ].; rXC I M Y.6X* F         ",
"      O ).-XB _.Y.A J N.  U.vX4X(.0XN.v ,.l.6.T.>.].9.3.b.6Xc h I D.T.:.q.e j `.C.>.wX  <.HXIX  ,.r.7Xz Y.Y.Y.F K.;.gXcX+       ",
"M a.m.m.<.B a r # b R.1XH Q.9XtXF <.^.f Y.Y.    >.7.    T.>.rXB f d r.u g j [.D G hXxXD hX9XD 7XgXD M Y.gXuXi.wXl 4X3X4.gXxX-X* ",
"z A ,.,.1.D c q.@ ,.M.;.k L.w.D N.i z p.c.<XFXG GXyXU.FXuX8.G M =Xf g k z z V c :Xv.C t.6XT.M.N.>Xg.d f.HXQ.IXi.bXW.f.hX>.;.u - ",
"    + r.V A -X<.B L P g f.D ,XY.G # O !.E._.c W.M.yX(.c z.1Xz C >X5Xx.v.M.& d .XU.c H Z.r.d.C E.K x L.qXi   y.mXT.Q.z !.8X+     ",
"      O ~.d.I F F 2.@ L c.x v.J # y.a.j # c <Xu.H E.=X>Xf k R.j.k.JXJ.P.=Xw = f f `.0XL Z.q.].h j C f.g.~.~.GX>.bXbXm.t +       ",
"    d N B u.>X2Xa 2.B L o k M f G.1XiX4.D U.c.k R.f.P >Xk E.iX5.>.  4.  AXD.w.,.G K f.g ).c x x M.6Xj E.2XxXR.L.H H h [./.-     ",
"    .XH.G ~.U.:.S.M ~.r.<.z t.<X:.  uXU.nXf O k /.Y.f f 8.l.jX  (.  AX  .X3X*X; ).2.g C O x ).eXxXc.qXk C.yXU yXl u.4X,.cXgX;   ",
"  M y.N G.A D   HXD ).H.# d.=X0XPX_.9.  P.N.>XU.o # k E.Z.<X8.|.  :.{.9.A.cX5Xg.j >Xv.  u HX  %.<XMX:.K.j Y.K E.B 2.=.6X>.N.qX* ",
"@ C.i.;.k H :X XC 6Xx 7.7.T.w.    D lXXXSXj.j.N.D N h w.C.Q.E.XXDXH AX  T.t.r.+ H.9.=X  J. XzXqX5.b.yXC L z K d ~.gX0.C C.l.-.* ",
"  # z z A =XH V C.e.2.f I >X7.U.  R.6.  3.=XD -X>Xf k K V D wX  Q.JX7.    e G C C E.iXGXT.U.FX  gXU.M.yX& n.,.xXA Q.eX3XM C +   ",
"        !.G h S.P Y.r b.1X,.G   PX  w.    3.1XV N.7X2.x J V.eX).D   [.u .XL.;  Xr.M.N.H G.vXA }.,XwXL VX@ 9XR. XnXG _.0X=       ",
"      + N # f.h P ,.t NXP k G.bXA   9XG IXe.7.t.V P f L l.P._.C 5.hX.XA F .XA Z W.W.x G b.vXT.M E.(.}.c ).9X).c 7XhXl I M       ",
"    X G.M V Y.d.I z F h O w.M.C A Y.<XH C 1Xy.V o j B g U U g Q.7X>.>.e.w N  Xt d x J.S.G E.6XA P.h f U R.d.N K.C l.eX; qX&     ",
"    X N @ d # G c 0.c ; G.>XG z 1.0.<XE.M Y.Y.R.r z o M.M.k d.).H }.V Y..Xr .X$ @ ^.Z.b J Y.C 2XL z F B G A.6Xl ^.C z h V V     ",
"              O J M.O B _.C f G W.w.<XT.z f g T.<X@ O Q.b A 6XI C C.S e 0.- _.* W.W.k L r.F.V ).d r g.G !.J J.x.j #             ",
"          ZX& S @ h k p - O U >Xk E.2.@ d.N.g f E.d : 4 o (.c M C fXZ - N > 4 % C z V I f.D.k # S.&.k J 6XH g !.= ,.&           ",
"        c ).G.S - ; N ; ; h '.A V O @ 0.c j.Y.$ o % N 8 f # X 7.I ; <.e o f 4 9 . d W.Z G f M G U eX@ # (.= z = M Y.fX-         ",
"          k @ b - g.A X P @ O O C e.S U.f.f I 4 ! 5 4 5 ` , $ z.M + i > E 1 ` / ! 9 g Y.@ C K K.@ H f l ; - E.H.r @ # Y         ",
"                ;.W.+   # a r h # q.e.# z - . 9 7 ! 9 9 5 9 9 d f Q : q ) / | } | Q % f M G.h J.@ # S p =   # 7.N.              ",
"                - +   V - ; - a @ @ z + z p & $ 4 ) Q ` 8 / 7 1 Q q | } ( ) #Xo.5 % - r # z N # p * r - *     O M               ",
"                      M p.V ; B z p - z 2.h a @   . Q ! 7 ' Q 7 ' ^ +X} ) #XR <     B S + z y M a 2.z >.P.r                     ",
"                    d R.h k {.& S h - S - k v       % . 8 ( ! 2 X.( %X@...^ ,       ; - S ; ; ^.; *   h G  X#                   ",
"                            ; p.z V <.@ <.S           n 8 ) ' E ....X.] [ ..<         B F z 2.@ J A.y                           ",
"                          Z a.M   M 2.  j `.          n 0 8 /  .~ %X+X} +.] 1         Z Z v 1.  @ /.e                           ",
"                          v -     - -                 n m W E W ) @X+X .#X( KX            Z v     @ r                           ",
"                                                      NX6 / @.! ) X...+.[ ' dX                                                  ",
"                                                      NX5 Q ..! ' +X( #X .sXdX                                                  ",
"                                                      NX8 8 | } R %X^ sX+.sX~                                                   ",
"                                                      g m 8 ` o.2 +X| +. .%XR                                                   ",
"                                            w   r     % 6 7 E o.2 X.#.] } ' 3       u                                           ",
"                              w     w e     r * N   % BX8 2 ` ' ] ~ #XO. .#.3 A * 6.t     * *                                   ",
"                        t   ; eXr * bX1.r r A U.N A VX5 7 W 9 ' X.R #XO. . .+X< A E.nXw r :.uXw kXr   w                         ",
"                      ; bX; 7Xr l ).N C r.D D D U.. BX5 7 / W | X.R +XX.X.^ #X3 < D G 0.,.i u D N 7X; K.  w                     ",
"                  r w 2Xl F.t A y.A f.7.:.7.T.< , 0 5 5 _ W X.} 7 ( +X^ } ^ ) X.%X< 9.6.7.7.7.,.<.D 6XN N eXr i                 ",
"                s.t rXu ,.<.4.0.1.1.,.!.8 2 E ( Q 7 5 6 E &X' } 7 ~ @X^ ] ] Q W o.o.~ ) $.1 r.q.p.e.,.>Xi A eXu &X              ",
"              M N D 4.i.D s.tXF.q.0.r., 7 E 9 7 5 5 5 8 / o.) ) 7 1 @X~ { dX< 1 E } ! E W 2 q i.2X*X*X=.:Xn.=.M.%.              ",
"              O.[ *Xn.4Xc.N uXc -X*X-.,.:.U.U.U.U.Q.2 &X&X( 7 7 1 8 Q Q u a @Xp y 7 2 1 7.p.s.5XV 3X4X2Xx.n.*XoX[               ",
"                &.B.*X*X-XN N uX;.i.*Xn.p.p.p.7.A 2 o.) 9 , Y.u 1Xi r 8 g.T @.y hXt N.m.m.m.*X=X=Xp.-.4X4X3Xm.h.                ",
"                    %.;.;.-XN.m.$X$X=.$XaXpXp.m.,.2 2 7 7.>.C c.8X:.t.f.<.,.. jX; .Xm.m.@XpX@Xi.5XOX$X@Xa.-.                    ",
"                          [ @X@XsXaXpXpXpXaX;.5X2X=XN.B.p.c.6X4.-X%.7X=.%.7X3X%.=X=Xn.@X@XpXsXsX@X@XO.O.                        ",
"                                h.dXpXO.sX@XsXOX@XpXaXpX*X-X-X-X-XN.N.N.=X=XN.oXOXsXaX@X@XO.+.h.                                ",
"                                                      @.sXdXX. .+.+.+.+.@.@.      dX                                            "
};
