/* XPM */
static const char *wall[] = {
/* columns rows colors chars-per-pixel */
"64 64 256 2 ",
"   c #37031B",
".  c #080E36",
"X  c #051433",
"o  c #021B34",
"O  c #041C3B",
"+  c #07173B",
"@  c #0B142F",
"#  c #330328",
"$  c #04262C",
"%  c #03372B",
"&  c #05233C",
"*  c #062938",
"=  c #04373A",
"-  c #182A38",
";  c #0C3C1E",
":  c #570018",
">  c #530010",
",  c #6A021A",
"<  c #780319",
"1  c #71110E",
"2  c #470125",
"3  c #5A0124",
"4  c #5B0C38",
"5  c #6C0123",
"6  c #650326",
"7  c #780223",
"8  c #730F31",
"9  c #7D2A1F",
"0  c #02472B",
"q  c #045526",
"w  c #044839",
"e  c #045938",
"r  c #144F2D",
"t  c #036736",
"y  c #027938",
"u  c #147033",
"i  c #206E28",
"p  c #051C43",
"a  c #071A47",
"s  c #0B174D",
"d  c #042443",
"f  c #04244B",
"g  c #072947",
"h  c #023A44",
"j  c #073547",
"k  c #062A56",
"l  c #053855",
"z  c #123C4B",
"x  c #082E60",
"c  c #311F5E",
"v  c #67194B",
"b  c #074749",
"n  c #055749",
"m  c #135849",
"M  c #074755",
"N  c #065756",
"B  c #164F53",
"V  c #066748",
"C  c #176C43",
"Z  c #057948",
"A  c #167947",
"S  c #066957",
"D  c #077756",
"F  c #127A57",
"G  c #126455",
"H  c #085762",
"J  c #0E5364",
"K  c #086863",
"L  c #0E7463",
"P  c #2B6A79",
"I  c #69420B",
"U  c #891608",
"Y  c #870917",
"T  c #871719",
"R  c #921314",
"E  c #962409",
"W  c #9C2A16",
"Q  c #A42B14",
"!  c #AE360C",
"~  c #8F1223",
"^  c #9C221E",
"/  c #B7470B",
"(  c #B55011",
")  c #BB6316",
"_  c #B44B23",
"`  c #C65A16",
"'  c #C64F11",
"]  c #CB6719",
"[  c #D8771A",
"{  c #D26B13",
"}  c #E17614",
"|  c #D27629",
" . c #E07B2B",
".. c #C63C0B",
"X. c #0D9516",
"o. c #269317",
"O. c #11AC1A",
"+. c #24A817",
"@. c #38BB1B",
"#. c #32AE13",
"$. c #058938",
"%. c #079537",
"&. c #159838",
"*. c #128F2D",
"=. c #259939",
"-. c #2B9133",
";. c #04A728",
":. c #19A529",
">. c #08A639",
",. c #17A539",
"<. c #18B538",
"1. c #0FB430",
"2. c #28A827",
"3. c #35A928",
"4. c #29B729",
"5. c #3AB824",
"6. c #26A435",
"7. c #25B434",
"8. c #39AF37",
"9. c #47B817",
"0. c #56BA17",
"q. c #46AE15",
"w. c #47B729",
"e. c #51B230",
"r. c #69B82D",
"t. c #64A116",
"y. c #38C41B",
"u. c #2FC817",
"i. c #34C529",
"p. c #1AC424",
"a. c #46C719",
"s. c #57C61B",
"d. c #57D216",
"f. c #4ED315",
"g. c #69C717",
"h. c #77C918",
"j. c #67D819",
"k. c #78D716",
"l. c #6CD00D",
"z. c #71E113",
"x. c #49C823",
"c. c #56CB28",
"v. c #5AD629",
"b. c #52CC34",
"n. c #68CC29",
"m. c #6AD627",
"M. c #77D727",
"N. c #67DA37",
"B. c #75D635",
"V. c #6CCC31",
"C. c #76E729",
"Z. c #57E525",
"A. c #068648",
"S. c #168947",
"D. c #079646",
"F. c #169546",
"G. c #088657",
"H. c #148656",
"J. c #069553",
"K. c #1A9C51",
"L. c #259B47",
"P. c #2C9450",
"I. c #16A849",
"U. c #0FAD4C",
"Y. c #2CAF4C",
"T. c #0C8E67",
"R. c #298E6A",
"E. c #06B37D",
"W. c #4CB54C",
"Q. c #5CAB68",
"!. c #38C948",
"~. c #2ED250",
"^. c #53D04D",
"/. c #71D34D",
"(. c #71D96F",
"). c #8DB500",
"_. c #8DBC00",
"`. c #91BD01",
"'. c #90B600",
"]. c #B7BD23",
"[. c #D59332",
"{. c #E9983A",
"}. c #F49934",
"|. c #F19125",
" X c #D3A938",
".X c #F2A837",
"XX c #E58E14",
"oX c #8FC300",
"OX c #92C400",
"+X c #9AC600",
"@X c #96C901",
"#X c #9ACA01",
"$X c #86C818",
"%X c #87D717",
"&X c #97DA19",
"*X c #8FD611",
"=X c #A1CD00",
"-X c #A4D101",
";X c #ABD500",
":X c #AED901",
">X c #B3DA01",
",X c #ACD91E",
"<X c #87E518",
"1X c #97E71A",
"2X c #91EC12",
"3X c #A8E718",
"4X c #B0F016",
"5X c #88D825",
"6X c #95D62A",
"7X c #8FD230",
"8X c #AED42B",
"9X c #94E728",
"0X c #8EEA32",
"qX c #A8E728",
"wX c #B6E729",
"eX c #A9E735",
"rX c #B9EA38",
"tX c #B9F437",
"yX c #ADF42A",
"uX c #C6EB3B",
"iX c #C6F635",
"pX c #C8F81E",
"aX c #E89C45",
"sX c #EC9C4A",
"dX c #F3A64C",
"fX c #F1B36B",
"gX c #94E74D",
"hX c #B6E945",
"jX c #BCF545",
"kX c #ABF051",
"lX c #91F473",
"zX c #A2DF5E",
"xX c #C5ED49",
"cX c #C7F444",
"vX c #C8EA55",
"bX c #C9F758",
"nX c #D4F550",
"mX c #D3F371",
"MX c #D6ED5D",
"NX c #16639C",
"BX c #534686",
"VX c #0D8799",
"CX c #70CF90",
"ZX c #649B95",
"AX c #8ECD94",
"SX c #B3EBB5",
"DX c #9DE09D",
"FX c #D3F58D",
"GX c #E6F193",
"HX c #CFF1AF",
"JX c #ECF3AE",
"KX c #DADAB2",
"LX c #BDECD5",
"PX c #EDF5CC",
"IX c #D1F5CA",
"UX c #81BF9A",
/* pixels */
"`.OXoX@XOX).oXOXOX@X@XOX#X@X@XOX-X@XOXOXoXoXoXoXoXoXoXOX@X@X@XOXm = OXOXoXoXoXoXoXoXOX@XOXOXOX@X#X@X@X#X`.OXOXOXOXOXoXoXOX@XOXOX",
"OXoXOX@X`.oXoXoXOXOX@XOX@XOX@XOX@X@XOXoXoXoXoXoXoXoXoXOXOXOXOX`.D yXN e.zXoXoXoXoXoXOX@XOXOXOXOXoX@X@X;XOX-X=X`.`.oXoXoXoXOXoXOX",
"OXOXOX@XOXOX-XOXoXOXOXOXOX@X@XOX@XOXOXOXoXOX#XoXoXoXoXOXQ.b h g G.qXi zXe.h R.oXoXoXoXOXOXoXOXOXOX@XOXOX@X+XOXOX_.oXoXoXoXoXoXoX",
"OXOXOX@X@X@XOXOXoXoXoXOXOXOXOXOXOXOXoXoXoXOX-XoX-XOXoXOX+ D.wXf.A.l.PX0X2.bXo._.oXoXOXoXoXOXOXOXOXOXOX@XOX@X@X-XOXOXoXoXoXoXoXoX",
"OXOXOX@X@X@XOXoXoXoXoXoXoXOXoXoXOXOXoXOXOX= h.b OXh u - Z @.;.oXlX%.SX~.@X8XvX* oXLXu oXo m.@.oXOXOXoX@X@X@XOX).OXOXOXoXoXoXoXoX",
"`.OXOX@XOX@X=XOXOXOXoXoXoX_._._.H.OXOXOXOX& &.5Xt &.9.z f n.d.<.oXCX/.OXSXhXo.gX= m.0.u y.uXg OXoXoXoXOXOXOXOXoXoXoXOXOXoXoXoX@X",
"_.oXoXoXOX#X+XOXoXOXoX_._._._._.q %X*.e AXAXp *.x.w g S S J.1Xv.>.<.*.Y.p.9XFX&.n F.&.0.l.b /.OXOXC eXoXOXOXOXOXoXOXoX@XOX@XOX#X",
"OXOX_._._.OXOXOXOXoXoXoXoXoX_.).d 9.3Xq.O V M.j $.S.O G.6.2XD.S.oXAX$.HXOXX.O.jXcXd *.=.S s.&.j DXhXy oXoX_._.`.OXOXOX+XOXOX@X_.",
"@X#X_.oXoXoXoXoXoXoXoXoXoX* kXh A.Z a.& G.4.qX5Xb y.vXp G.G.Z PXPX%.HX4.SXFX@.$.Y.a tX$.y m.nX2.f 7.bX* ).).).).OXOX@XOXOX@X@X@X",
"OXOXOX_.).).).).).)._.& $.n V c.*X<.o L wXa.a.uXnXnX+.x.p j v.C.V i.PX=.Z kXmXV a @.<.cXxXxX+.n.g.b n B.n.q _.oXOXoXOXoXOXOXOXOX",
"oX+X@X_.`._._._._._.p y.h.0.=.%Xk.o F.c.d.OX>.!.@XD.OXoXeXV F M D.Z.i.a.3.N R.f j.GXPX;.OXX.LXJXvXn.0 +.qXeX& oXoXOXOX+XOX`.oXoX",
"@X@XOXoXOXOXOXOXOXOXOXX g r.g.%.$.L.n.*Xj.^.oXI.D.OXOXz.hXtXp D N.Z %.&.c.o.X L.l.1.OXOX%._.+Xs.hXwXv.7Xd f #X_.OX@X@X@X;X`.OXOX",
"OXOXOXOXoXoXOX@XOX@X@X@XS.&.V h.m B H.j.1.;.>.^.^.7.4.k.<XJ.M.S M Z Y.j G W.j c.j.f.<.>.DXU.;.;.z.c.N <.0XOX@XOXOX@X@X:X`.OXOX`.",
"OXOX@X@X@XOXOX@X@X_.@X@Xo b w.3.d =.<X$.&XoXoXZ $.OX@Xu.O.wXK d qX*.-.6X9Xq W.I.D @.OXOXZ Y.@XPX%.%XyX= O OX@XOX@X@XOX@XoXoXOX=X",
"OX@X@X#X@XOXOX@Xe s.j @X@XVXZ A G S.M 1X3XoXZ v.GXZ PXnX2.D n 1XO.rXwXrX9.bXe h v.GXOXD.mX$.CXJXbXV Y.& @XOXo 0XOXOXOX;X_.OXoXoX",
"OX#X@X=X@XOXOX@X= rXw.p d d d d j + W.K.N V G.i.nX1.M x.Z M ,.4XFX;.JXQ.HXmXhX=.& T.N I.rXI.D x.D.!.d S h & x.mX* OXOXoXOXoXoXoX",
"OX+X#XOX@X@X@X* B.t 5.b x.D l.wXd.b d k s.H.8.F.A.<XA M M J.k.wXe.).7.LXzXeXFXs.L.d Y.c.J.N.b m.k :.qXeX:.8.h +.cXk ).)._.oXOXoX",
"oX`.+X@X$ h.wX%XS.b.X ,.qXrXrXrXu.uX1Xa K D c.F.n g F O b.2Xs.F.5Xa.X./.gXs.<XmX8XB.x l l M 7Xj Y.k.cXq.xXmXeXj w.nXnXq _.OXOXoX",
"OXOX`.+X* T.,.&.3.j j.k.>.1XOX>.JXmX4.5XD & L.S.4.1X2XV O H.S j.PX).g.CXPXvXX.>.cXa eXxXhXbXk.5Xb 7.:.bXmX6.F F -.@.5.* OX@X@XOX",
"@XoXOX_.oXoXa L.b M 5.vX`.;.FX@X@X1XGX6X& H.,.z.JXtXy.7.j S B.1XkX$.qXW.AX/.bX6.M !.p.Z.JX+.<.oXOXb yX;.1X9Xn.=.c.& d @X@X#X+X=X",
"@XOX@XOXOXOXOX* M g.y.1._._.D.~.;.;.p.& U.4XmX$.OXb.D.JXvXV V 9XF Z eXW.$.kX+.S.g tXoX$.mXF.OXw.c.G b rXA.eXwXb h @XOXOXOXOX=X+X",
"-XOX@XOX$ $ V o <X*X4.&XrXFXZ DXoXmX+ *X*XD.OXoX$.I.OX#X;.i.C.S N b.,.s.-.^.=.a yXz.1XkX2.(.HXgX#._.W.= yXN S b S.9X% A @XOXOX=X",
"oXOX#XX Y.*Xm T.S.V F k.).A.vX7XU.yXk.j &.i.>.D.%.W.>.;.f.1Xl d K b.A.$.3.q f R.f.%.rX@X*.HXPX+X&.6.0Xj A.A S.A B.#.hXuX& #X_.OX",
"M q.k.h.*.m A w + x F.4XD J.wX,XA *.P.a S.S.OXOX%.,.OXOXD.%.yXm a p 6.V a g Q.Z S jXxXZ jXwXZ 0XhXZ b S.hXiX9.rXh 7X&X:.hXxX&X% ",
"j V :.&.6.Z l 3.O &.j.#.g V.4.V k.y j 0.d.3XFXS GXuXA.FXiX<.S b %Xa f f j g M l <Xd.H 7.9XD.k.k.1Xr.p e.HXJ.PX0.bXH.e.jX%.#.t * ",
"OXOXo 6.b V &X*.m H H a e.Z 2XS.S + X K.G.T.l H.z.uXU.l p.4Xj N 1X8X9.d.j.* p /.S.l D c.6.w.N D G k n.eXy oXi.mXD.J.j K.9Xo OXOX",
"OX_.oXX L.9.K A A -.O H s.k d.F + 8.q.g + l 3X8.D G.%X1Xa g F.y.u.JXN.B.%X0 & a s R.yXK c.3.W.d g N w.r.L.L.GX%.bXbXh.e o #XOX`.",
"oXOXp n N 8.1X5Xu -.m H . f b a m.4XpX:.Z A.s.a F.8.J 1Xf T.pXp.%.#X:.OXAXb.4.&.S G e.s Y.l k k j.9Xg A.5XxXF.V.D L d Q.I.* OX_.",
"OXOX/.M.S L.A.$.n.b P.6.*.j 7.3X$._.iXA.nXa + f I.S.a a <.i.kXOXU.@XAXOX/.6X$X= Y.-.a N + k Y.rXxXs.eXf x.cXL uXh 8.7X&.cXhX= oX",
"OXb 8.n m.V Z @XHXZ Y.M.+ b.<XyXIXT.>._.C.k.1XZ . + g G.c.3X1.~.OX$.Q.;.v.cX8Xr.f 1Xf.@Xt HXoXX.3XMX$.B.j S.G G.n -.+.9X$.k.eX; ",
"O x.9.#.g D &X^.N 9Xk ,.,.D.4.OXoXZ lX(.SXy.y.k.Z n d 4.x.J.G.(.DXD AX).D.7.6.o M.>.%X@XB.^.hXhX:.d.uXN H g G p L.hX+.N x.i.@.% ",
"OXo j j V %XD M x.3.-.s K 1X,.A.OXF.,.oX;.%XZ &X1Xa d G M D rXoXJ.JX,._.OXq S N N A.pXGXD.A.FX_.hXA.j.uX$ g.&.xXV J.tX6Xb N o OX",
"OXOXOXoXK.S d n.H A.w f.4X&.S =XHX@X4.OXoX;.4XM k.0X-.k F z.tXY.Z _.Q.t /.B.= W.6.j.<XD m.vXN !.<XrXH VXO wXF.^.nXS T.yX& @X@XOX",
"OXoXOXo n O e.d H &.r NXH g m.bXS @XwXS PX5.,.7.M J a H i.C.T.N 7.jX/.V A gXV M G.H.l S f.vXD.b G.U.!.M Y.wXY.l 0XjXh K b OX@XOX",
"oXoX$ m.b M S.w.K j A d X 7.j.N V S.3XD N 4X8.M X g m f L L s J.0X%.%.5.0 n ^.e p k n.c.S G.9XV C.d p L F.w.n B.N i.tX= eX$ OXOX",
"oXoXo n + p + S l 2.l = m.2XK j =.2.3XG.b S.S.F.w j . j.j.f w.Y.D !.b S./.w /.@ O P.c.x F S.N 7XH j A m S v.9Xh P.N j g M M OXOX",
"oXoXOX@X@XOXOXX F j.X m T.N a S H.4.3XD.j a a D.3XO @ J.x V 9XK N x.C q 3.* T.% H.H.f N 6.n.M Y.a w r.S K.F B.x.g + OXOXOXoXoXoX",
"oX#X;X@X'.ZX$ C O & g u * X L 1Xf G.-.O w.k.s a D p - 2 + U.l b N gXb * n ; 2 # N j M K b.b.f + V.o.g F 9XD a K.& &.$ OXoXoXoXoX",
"oXOXoX>Xl Y.m.C * = n = = d E.S M X O 2.l i.S.@ . # n 3 O + @ ,.K = *.q . a 2 7   p H.B S a b S L tXO + U.& j & b S.gX* OXoXOXoX",
"OX@X=XOX_.g O x * e.V @ J p X X N 5.C A.e.a K 2 ^ 3 2 3 ^ : @ p.b o Z r Y , ^ W R 7 s S.O N G B.O D p h = * A.M.w o o P oXoXOX:X",
"@X#X`.oXOXoXoXoX#.H.o oX+ i w d X 8.5.X g =   7 5 ~ 7 7 3 7 < p a T - 9 Q Q ' ` ' T # a b m.d N.d o C i & OXO ,.k.OXOXoXoXOX@XOX",
"#X+XOXOX>XOXOXOX* o OXM * = * i p O g o j u * @ 2 ! T ^ 6 W 5 , T 9 ' ` ! ! |.[ 3 # * w O j m + u % w * % OXOXX b #XoXoXoXOX@X+X",
"OXOX`.).).`.OXoXOXoXoXb 0.B = m j u * j -.d u O -X  T ^ 5 / T 5 / E }.` ! |.U 2 @X@Xn C o j r w i -.j %.C.w OXOXOXOXoXoXOXOX@X@X",
"OXOXOXOXOXOXoXoXOXOXp F.& g Q.$ C & * C * & z #XOXoX#   6 ! ^ < { ! .X| [ E : @XOX#Xj * C = = P.= % OXd S ^.O OXOX`.`.oXoXOXOXOX",
"OX#X@XoXoXOXoXoXoXOX#X`.OX@X= 0.j b *.O *.C OX`.OXoXoXc 6 ! / Y [ [ { ( ) [ > @X`._.).m A j -.O F v.r OXOXOXoXOX_.).)._._.oXOX@X",
"OX`.=X=XoXoXoXoXoXOXOXOXOXB q.b OXb -._.f R.OXOXoXoXOXc 8 6 W ] U .X}.` | ( 1 +X+X`._.B B z L.`.O I.q OXOXoXoXoXoXoX_.OXoXOXOX@X",
"OX_.OX'.oXoXOXOXOXOXoXOXOXz * oXOX* * oXoXoXoXoXoXoXOXc v R Y ~ Q {.}.] |.! KX).`.OXOXoXOXB z ;X#XO w OXOXoXOXOXOX@X`.OXoXOX_.OX",
">X_.OX_.).).).).)._.oXOXOXOXoXoXOXOXOXOXOXOXoXoXOXoXOXNX4 Q | R Q { [  .) / fX:XOX@XOXOXOX+X@XoXoXoXOXOX;X`.#X+X@XOX;X).OXoXOX_.",
"OXOX_.).).).).)._.`.oXoXoXOXOX@XOXOX@X@X@X@X@XoXoXoXOXNX3 1 [ R / |.! }.] dXfXOXOXOX@XOXOX=XOX@XOXoXOX@XOXOXOXOXOXOX;X+X@XoXoXoX",
"OXOXoX_._._._._.`._._.oX=X+X@XOXOX@X@X@XOX+X:XOXoXoXOXNX6 6 ' ` U .XE dX| dXU oX@X@X@X@XOX@XOX-XOXoXoXOXOXOXOXOXOX@XOXOX+XoXoXoX",
"OXOXoXoXoXOXOX_.).).).).OXOX_.OX@X@XOXOXOX#X#XOXoXOXOXs v 6 ^ [ < }.' [ ] .XU oX#X#XOX@XOXOXOX@XOXOXOXOXOXOXoXoXOX_.OXOXOXOXoXoX",
"OXOXOXOXoXoXOXOXoXoXoXoXoXoX@X=X@X@XOXOX`.@X0 oXw @XOX# 4 5 Y [ < {  .( ` / Y _.oXOXt oXOXOXOXOXoXoXoXoXOXOXoX>XOX_.OXOXOXOXoXoX",
"OXOX@X@XOXOX-X=X_.oXoXoXoXoX_.0 OXOX0 q OX`.w % n OX# BX6 7 ^ / _ U }.] ] [ 1 V % >.e `.`.% % OXoXoXoXoX@X=X_.=XOXOXOX@X#XOXOXoX",
"OXOX@X@X@X#X=XOXOXOX_._.e _.w tXw % bX=.= w V A.n S VX3 5 T 7 / { U }.| ] ] |.> V A.nX0 w $.iX0 lXw oX0 OX=X@XOX@XOX@X@X=X#X@XOX",
"OX#X#X@X@X@X@X:X_.).).= bX= 0Xw h Y.n N 6.Z Z Z A.  BX3 5 Q ~ ' { U |.[ { E }.1 > Z S 2.&.y t Z n 0X= B.@X0 +X@X@X@X@XOX@X#X`.oX",
"@X@X;XOX@X#X=X_.OXw 0 5Xh n.e V 8.V w.,.%.,.D.> : 8 3 3 ~ Y { ` 5 ! }.E ` E ! { .X> >.>.,.,.,.:.*.Z 9Xn n tXw y @XOXOX@X@X@XoXoX",
"@XOXOX:XOXOXoXoXh.e yXV &.*.:.2.=.6.&.K.6 < Y ! T 5 3 4 Y XX/ ` 5 U }.E ( ( T R } } R ! .., 6.3.0.3.*.1Xy V tXt XX_._.oXOXOXOXoX",
"@X+X_.OXOX+X_.b n Z :.9.Z g.,Xn.3.2.6.: 5 7 7 , 3 3 3 6 Q } ! ! 5 , }.R _ dX> , Y ` ^ Y Y < 9 9.5X$X$X+.<Xg.+.g.X.)._.oXoXOXOXoX",
"=X=X_.oXoX_._.| ) $Xg.6X0.n iXl &X%X@.&.$.A.A.A.A.J.< XXXX! 5 5 : 6 T T t i {.u r 5 < , ,.0.g.8XM 6X7X$Xs.g.*X].) OXOXOXOXOXoXOX",
"OX`.`.oXoX_.).).o.l.$X$X&Xn n iX#.9.5Xg.0.0.0.,.V 7 } ! 7 : S.t 4Xy w 6 r.I | r jXe k.h.h.h.$X%X%X0.@.7X7X6Xh.t._.).).)._.oXOXoX",
"oXOXOXoXoXoXoXoXoXoXX.#.#.*Xk.h. X X+. XsXaX0.h.&.< < 5 ,.%.N s.qX$.7.e.*.,.  kX= /.h.h.{.aX{.9.8X X X{.q.@.OXoXoXOXOXoXOX@XOXOX",
"oXOXoXoXoXoXoXOXoXoXoX_.`.) {.{.sXaXaXaXsXsX#.8X5X%Xk.l.0.s.9X:.&Xo.0X+.X.0X6XX.%X%Xg.{.{.aXaXaX{.{.| | oXOXoXoX#X`.+XOXOX;X#X_.",
"OXoXoXOXoXoXoXoX-X-XOXOXOXoXOXOXq.fXaX] sX{.dX[.{.aXsXaX$X&X%X%X&Xk.k.k.%X%Xk.].[.dXsX{.{.[.| t.`.OXOXOX_._.oX-X-X=X@X#X@XOX#X).",
"=X=XOXoXoXoX@X;X#X>X=X@XoX>X-XOXoX@X@X:X@XoXoXoXoXoXOX| dXfX{ ] | | | |  .| OXOXOXfX@X#X=X#X@X@X=XOX:X:X-XoXoX@XOX@XOXOXOX@X#X+X"
};
